<svg xmlns="http://www.w3.org/2000/svg" xmlns:xlink="http://www.w3.org/1999/xlink" width="525" height="419.464" viewBox="0 0 525 419.464">
  <defs>
    <radialGradient id="radial-gradient" cx="1.002" cy="0.908" r="1.092" gradientTransform="translate(0.007) scale(0.987 1)" gradientUnits="objectBoundingBox">
      <stop offset="0" stop-color="#173d7a"/>
      <stop offset="1" stop-color="#274f89"/>
    </radialGradient>
    <radialGradient id="radial-gradient-2" cx="0.967" cy="0.944" r="1.063" gradientTransform="translate(-0.095) scale(1.19 1)" gradientUnits="objectBoundingBox">
      <stop offset="0" stop-color="#86b8e0"/>
      <stop offset="0.116" stop-color="#98c4e7"/>
      <stop offset="0.325" stop-color="#b2d5f1"/>
      <stop offset="0.54" stop-color="#c5e2f9"/>
      <stop offset="0.761" stop-color="#d0e9fd"/>
      <stop offset="1" stop-color="#d4ecff"/>
    </radialGradient>
    <radialGradient id="radial-gradient-3" cx="0.892" cy="0.72" r="0.788" gradientTransform="translate(-0.09) scale(1.18 1)" xlink:href="#radial-gradient"/>
    <radialGradient id="radial-gradient-4" cx="1.127" cy="0.6" r="2.077" gradientTransform="translate(0.211) scale(0.577 1)" xlink:href="#radial-gradient-2"/>
    <radialGradient id="radial-gradient-5" cx="0.234" cy="0.38" r="0.644" gradientTransform="translate(-0.287) scale(1.574 1)" gradientUnits="objectBoundingBox">
      <stop offset="0" stop-color="#396caa"/>
      <stop offset="1" stop-color="#274f89"/>
    </radialGradient>
    <linearGradient id="linear-gradient" x1="0.029" y1="0.235" x2="0.883" y2="0.916" gradientUnits="objectBoundingBox">
      <stop offset="0" stop-color="#d4ecff"/>
      <stop offset="0.239" stop-color="#d0e9fd"/>
      <stop offset="0.46" stop-color="#c5e2f9"/>
      <stop offset="0.675" stop-color="#b2d5f1"/>
      <stop offset="0.884" stop-color="#98c4e7"/>
      <stop offset="1" stop-color="#86b8e0"/>
    </linearGradient>
    <linearGradient id="linear-gradient-2" x1="-6.199" y1="8.517" x2="-5.073" y2="8.43" gradientUnits="objectBoundingBox">
      <stop offset="0" stop-color="#3919bb"/>
      <stop offset="1" stop-color="#6507fa"/>
    </linearGradient>
    <radialGradient id="radial-gradient-6" cx="0.988" cy="0.656" r="1.746" gradientTransform="translate(0.211) scale(0.577 1)" xlink:href="#radial-gradient"/>
    <linearGradient id="linear-gradient-4" x1="0.101" y1="0.5" x2="1.101" y2="0.5" xlink:href="#linear-gradient"/>
    <radialGradient id="radial-gradient-7" cx="0.923" cy="0.779" r="1.227" gradientTransform="translate(0.133) scale(0.734 1)" xlink:href="#radial-gradient"/>
  </defs>
  <g id="Grupo_54983" data-name="Grupo 54983" transform="translate(-127.097 -22.432)">
    <g id="Grupo_54983-2" data-name="Grupo 54983" transform="translate(221.63 130.41)" opacity="0.4">
      <path id="Trazado_100903" data-name="Trazado 100903" d="M545.843,156.507l-.326-.189L508.88,135.166l36.962-21.339.327.189L582.8,135.167ZM511.5,135.166l34.346,19.829,34.346-19.828-34.347-19.829Z" transform="translate(-152.343 -113.823)" fill="#fff"/>
      <path id="Trazado_100904" data-name="Trazado 100904" d="M485.489,156.507l-.327-.189-36.635-21.152,36.962-21.34.326.189,36.637,21.151Zm-34.347-21.341,34.347,19.829,34.345-19.829-34.346-19.829Z" transform="translate(-163.296 -113.824)" fill="#fff"/>
      <path id="Trazado_100905" data-name="Trazado 100905" d="M515.667,173.93l-.327-.19L478.7,152.589l36.963-21.34.326.189,36.637,21.151ZM481.32,152.589l34.347,19.829,34.344-19.829L515.666,132.76Z" transform="translate(-157.819 -110.662)" fill="#fff"/>
      <path id="Trazado_100906" data-name="Trazado 100906" d="M545.844,191.352l-.326-.189-36.637-21.151,36.961-21.341,36.963,21.342ZM511.5,170.012l34.346,19.829,34.346-19.828-34.347-19.83Z" transform="translate(-152.343 -107.5)" fill="#fff"/>
      <path id="Trazado_100907" data-name="Trazado 100907" d="M425.134,156.506l-.326-.189-36.637-21.152,36.962-21.339.327.189L462.1,135.166Zm-34.346-21.341,34.346,19.829,34.346-19.828-34.347-19.829Z" transform="translate(-174.249 -113.824)" fill="#fff"/>
      <path id="Trazado_100908" data-name="Trazado 100908" d="M455.312,173.93l-36.963-21.342,36.961-21.339.326.189,36.637,21.151Zm-34.346-21.342,34.346,19.83,34.345-19.829L455.31,132.76Z" transform="translate(-168.773 -110.662)" fill="#fff"/>
      <path id="Trazado_100909" data-name="Trazado 100909" d="M485.49,191.352l-.327-.189-36.635-21.151,36.961-21.341.326.19,36.637,21.151Zm-34.347-21.34,34.347,19.829,34.345-19.829-34.346-19.829Z" transform="translate(-163.296 -107.5)" fill="#fff"/>
      <path id="Trazado_100910" data-name="Trazado 100910" d="M515.668,208.775l-.327-.189L478.7,187.435l36.963-21.341.326.189,36.637,21.152Zm-34.347-21.34,34.347,19.829,34.345-19.829-34.346-19.829Z" transform="translate(-157.819 -104.338)" fill="#fff"/>
      <path id="Trazado_100911" data-name="Trazado 100911" d="M545.845,226.2l-.326-.189-36.637-21.151,36.962-21.341,36.963,21.342ZM511.5,204.858l34.346,19.829,34.346-19.828-34.347-19.831Z" transform="translate(-152.342 -101.176)" fill="#fff"/>
      <path id="Trazado_100912" data-name="Trazado 100912" d="M364.78,156.506l-.327-.189-36.635-21.152,36.962-21.34.326.189,36.637,21.151Zm-34.346-21.341,34.346,19.829,34.345-19.829-34.346-19.829Z" transform="translate(-185.203 -113.824)" fill="#fff"/>
      <path id="Trazado_100913" data-name="Trazado 100913" d="M394.957,173.929l-.326-.19-36.637-21.151,36.962-21.34.327.189,36.637,21.151Zm-34.346-21.341,34.346,19.829L429.3,152.588l-34.347-19.829Z" transform="translate(-179.726 -110.662)" fill="#fff"/>
      <path id="Trazado_100914" data-name="Trazado 100914" d="M425.135,191.351l-.326-.189-36.637-21.151,36.961-21.341L462.1,170.012Zm-34.346-21.34,34.346,19.829,34.346-19.828-34.347-19.83Z" transform="translate(-174.249 -107.5)" fill="#fff"/>
      <path id="Trazado_100915" data-name="Trazado 100915" d="M455.313,208.774l-.326-.189L418.35,187.434l36.962-21.34.326.189,36.637,21.152Zm-34.346-21.34,34.346,19.829,34.345-19.828-34.346-19.829Z" transform="translate(-168.772 -104.338)" fill="#fff"/>
      <path id="Trazado_100916" data-name="Trazado 100916" d="M485.491,226.2l-36.963-21.341,36.961-21.34.326.189,36.636,21.152Zm-34.347-21.341,34.347,19.83,34.344-19.829-34.346-19.83Z" transform="translate(-163.296 -101.176)" fill="#fff"/>
      <path id="Trazado_100917" data-name="Trazado 100917" d="M515.668,243.621l-.326-.189L478.7,222.281l36.963-21.341.326.189,36.637,21.152Zm-34.346-21.34,34.346,19.829,34.346-19.829-34.346-19.83Z" transform="translate(-157.819 -98.014)" fill="#fff"/>
      <path id="Trazado_100918" data-name="Trazado 100918" d="M545.846,261.044l-.326-.189L508.883,239.7l36.962-21.34.327.189L582.807,239.7ZM511.5,239.7l34.346,19.83,34.346-19.83-34.347-19.829Z" transform="translate(-152.342 -94.852)" fill="#fff"/>
      <path id="Trazado_100919" data-name="Trazado 100919" d="M304.426,156.505l-.326-.189-36.637-21.152,36.962-21.34,36.963,21.341ZM270.08,135.164l34.346,19.83,34.345-19.829-34.346-19.83Z" transform="translate(-196.156 -113.824)" fill="#fff"/>
      <path id="Trazado_100920" data-name="Trazado 100920" d="M334.6,173.929l-36.962-21.342,36.96-21.339.326.189,36.637,21.151Zm-34.345-21.342,34.345,19.83,34.345-19.829L334.6,132.759Z" transform="translate(-190.679 -110.662)" fill="#fff"/>
      <path id="Trazado_100921" data-name="Trazado 100921" d="M364.781,191.351l-.327-.189-36.635-21.151,36.961-21.341.326.19,36.637,21.151Zm-34.347-21.34,34.347,19.829,34.345-19.829-34.346-19.829Z" transform="translate(-185.202 -107.5)" fill="#fff"/>
      <path id="Trazado_100922" data-name="Trazado 100922" d="M394.958,208.774l-.326-.189-36.637-21.151,36.962-21.341.327.189,36.637,21.152Zm-34.346-21.34,34.346,19.829L429.3,187.434l-34.347-19.829Z" transform="translate(-179.726 -104.338)" fill="#fff"/>
      <path id="Trazado_100923" data-name="Trazado 100923" d="M425.136,226.2l-.326-.189-36.637-21.151,36.962-21.341.327.189L462.1,204.857Zm-34.346-21.34,34.346,19.829,34.346-19.829-34.347-19.83Z" transform="translate(-174.249 -101.176)" fill="#fff"/>
      <path id="Trazado_100924" data-name="Trazado 100924" d="M455.314,243.62l-.326-.189L418.351,222.28l36.961-21.341,36.963,21.342Zm-34.346-21.34,34.346,19.829,34.345-19.828L455.312,202.45Z" transform="translate(-168.772 -98.014)" fill="#fff"/>
      <path id="Trazado_100925" data-name="Trazado 100925" d="M485.492,261.044,448.528,239.7l36.963-21.339.326.189L522.453,239.7ZM451.145,239.7l34.347,19.831,34.344-19.83-34.346-19.829Z" transform="translate(-163.296 -94.852)" fill="#fff"/>
      <path id="Trazado_100926" data-name="Trazado 100926" d="M515.669,278.467l-.326-.189-36.637-21.152,36.962-21.34.327.189,36.637,21.151Zm-34.346-21.341,34.346,19.829,34.346-19.829L515.667,237.3Z" transform="translate(-157.819 -91.69)" fill="#fff"/>
      <path id="Trazado_100927" data-name="Trazado 100927" d="M545.845,295.89l-36.961-21.341,36.961-21.34,36.962,21.34ZM511.5,274.549l34.345,19.829,34.346-19.829L545.845,254.72Z" transform="translate(-152.342 -88.528)" fill="#fff"/>
      <path id="Trazado_100928" data-name="Trazado 100928" d="M244.072,156.505l-.327-.189-36.635-21.152,36.961-21.34.326.189,36.637,21.151Zm-34.347-21.341,34.347,19.83,34.345-19.83L244.07,115.335Z" transform="translate(-207.109 -113.824)" fill="#fff"/>
      <path id="Trazado_100929" data-name="Trazado 100929" d="M274.25,173.928l-.327-.19-36.637-21.151,36.961-21.34.327.189,36.637,21.151ZM239.9,152.587l34.347,19.829,34.345-19.829-34.347-19.829Z" transform="translate(-201.632 -110.662)" fill="#fff"/>
      <path id="Trazado_100930" data-name="Trazado 100930" d="M304.425,191.351,267.464,170.01l36.961-21.34,36.962,21.341ZM270.081,170.01l34.345,19.829,34.346-19.828-34.346-19.83Z" transform="translate(-196.156 -107.5)" fill="#fff"/>
      <path id="Trazado_100931" data-name="Trazado 100931" d="M334.6,208.773l-.326-.189-36.637-21.151,36.962-21.34.326.189,36.637,21.152Zm-34.346-21.34L334.6,207.262l34.345-19.828L334.6,167.605Z" transform="translate(-190.679 -104.338)" fill="#fff"/>
      <path id="Trazado_100932" data-name="Trazado 100932" d="M364.782,226.2l-36.963-21.341,36.961-21.34.326.189,36.637,21.152Zm-34.347-21.341,34.347,19.83,34.345-19.829-34.346-19.83Z" transform="translate(-185.202 -101.176)" fill="#fff"/>
      <path id="Trazado_100933" data-name="Trazado 100933" d="M394.96,243.62l-.327-.189L358,222.28l36.961-21.341.327.189,36.637,21.152Zm-34.347-21.34,34.347,19.829L429.3,222.28l-34.347-19.83Z" transform="translate(-179.726 -98.014)" fill="#fff"/>
      <path id="Trazado_100934" data-name="Trazado 100934" d="M425.137,261.043l-.326-.189L388.174,239.7l36.961-21.34.327.189L462.1,239.7ZM390.791,239.7l34.346,19.83,34.345-19.83-34.346-19.829Z" transform="translate(-174.249 -94.852)" fill="#fff"/>
      <path id="Trazado_100935" data-name="Trazado 100935" d="M455.315,278.466l-.326-.189-36.637-21.152,36.961-21.34,36.963,21.341Zm-34.346-21.341,34.346,19.829,34.345-19.828L455.313,237.3Z" transform="translate(-168.772 -91.69)" fill="#fff"/>
      <path id="Trazado_100936" data-name="Trazado 100936" d="M485.493,295.889l-.327-.19-36.637-21.151,36.963-21.339.326.189,36.637,21.151Zm-34.347-21.341,34.347,19.829,34.345-19.828L485.492,254.72Z" transform="translate(-163.295 -88.528)" fill="#fff"/>
      <path id="Trazado_100937" data-name="Trazado 100937" d="M515.669,313.312l-36.962-21.341,36.962-21.34,36.963,21.341Zm-34.345-21.341,34.345,19.83,34.346-19.829-34.346-19.829Z" transform="translate(-157.819 -85.366)" fill="#fff"/>
      <path id="Trazado_100938" data-name="Trazado 100938" d="M545.847,330.735l-.326-.189L508.884,309.4l36.961-21.341.327.189L582.808,309.4ZM511.5,309.4l34.346,19.829L580.192,309.4l-34.347-19.829Z" transform="translate(-152.342 -82.204)" fill="#fff"/>
      <path id="Trazado_100939" data-name="Trazado 100939" d="M244.073,191.351l-.327-.19L207.11,170.01l36.962-21.34.326.189,36.637,21.151ZM209.726,170.01l34.347,19.829,34.344-19.829-34.346-19.829Z" transform="translate(-207.109 -107.5)" fill="#fff"/>
      <path id="Trazado_100940" data-name="Trazado 100940" d="M274.25,208.773l-36.963-21.34,36.963-21.341,36.961,21.341ZM239.9,187.433l34.346,19.829,34.345-19.829L274.25,167.6Z" transform="translate(-201.632 -104.338)" fill="#fff"/>
      <path id="Trazado_100941" data-name="Trazado 100941" d="M304.427,226.2l-.326-.189-36.637-21.151,36.961-21.341.327.189,36.635,21.152Zm-34.346-21.34,34.346,19.829,34.346-19.829-34.347-19.829Z" transform="translate(-196.156 -101.176)" fill="#fff"/>
      <path id="Trazado_100942" data-name="Trazado 100942" d="M334.6,243.619l-.326-.189-36.637-21.151L334.6,200.938l36.963,21.342Zm-34.346-21.34L334.6,242.108l34.345-19.828L334.6,202.449Z" transform="translate(-190.679 -98.014)" fill="#fff"/>
      <path id="Trazado_100943" data-name="Trazado 100943" d="M364.783,261.043,327.82,239.7l36.961-21.339.326.189L401.744,239.7ZM330.436,239.7l34.347,19.831,34.345-19.83-34.346-19.829Z" transform="translate(-185.202 -94.852)" fill="#fff"/>
      <path id="Trazado_100944" data-name="Trazado 100944" d="M394.96,278.466l-.326-.189L358,257.125l36.963-21.34.326.189,36.637,21.151Zm-34.346-21.341,34.346,19.829,34.346-19.829L394.96,237.3Z" transform="translate(-179.725 -91.69)" fill="#fff"/>
      <path id="Trazado_100945" data-name="Trazado 100945" d="M425.138,295.889l-.326-.19-36.637-21.151,36.962-21.34.327.189L462.1,274.548Zm-34.346-21.341,34.346,19.829,34.345-19.829-34.346-19.829Z" transform="translate(-174.249 -88.528)" fill="#fff"/>
      <path id="Trazado_100946" data-name="Trazado 100946" d="M455.316,313.311l-.326-.189-36.637-21.151,36.962-21.341.326.19,36.637,21.151Zm-34.346-21.34L455.316,311.8l34.344-19.829-34.346-19.829Z" transform="translate(-168.772 -85.366)" fill="#fff"/>
      <path id="Trazado_100947" data-name="Trazado 100947" d="M485.494,330.734l-.327-.189L448.53,309.394l36.963-21.341L522.454,309.4Zm-34.347-21.34,34.347,19.829L519.837,309.4l-34.344-19.83Z" transform="translate(-163.295 -82.204)" fill="#fff"/>
      <path id="Trazado_100948" data-name="Trazado 100948" d="M515.669,348.158l-36.962-21.341,36.96-21.34.327.189,36.637,21.152Zm-34.345-21.341,34.345,19.83,34.346-19.829-34.347-19.83Z" transform="translate(-157.818 -79.042)" fill="#fff"/>
      <path id="Trazado_100949" data-name="Trazado 100949" d="M545.848,365.581l-.326-.189L508.885,344.24l36.961-21.34.327.189,36.635,21.151ZM511.5,344.24l34.346,19.83,34.346-19.83-34.347-19.829Z" transform="translate(-152.342 -75.88)" fill="#fff"/>
      <path id="Trazado_100950" data-name="Trazado 100950" d="M244.074,226.2l-36.963-21.341,36.962-21.34,36.961,21.341Zm-34.347-21.341,34.347,19.83,34.343-19.829-34.344-19.829Z" transform="translate(-207.109 -101.176)" fill="#fff"/>
      <path id="Trazado_100951" data-name="Trazado 100951" d="M274.25,243.619l-36.962-21.34,36.962-21.341.326.189,36.637,21.152ZM239.9,222.279l34.345,19.829L308.6,222.279l-34.346-19.83Z" transform="translate(-201.632 -98.014)" fill="#fff"/>
      <path id="Trazado_100952" data-name="Trazado 100952" d="M304.428,261.042l-.326-.189L267.465,239.7l36.962-21.34.327.189L341.389,239.7ZM270.082,239.7l34.346,19.83,34.346-19.83-34.347-19.829Z" transform="translate(-196.155 -94.852)" fill="#fff"/>
      <path id="Trazado_100953" data-name="Trazado 100953" d="M334.606,278.465l-.326-.189-36.637-21.152,36.962-21.34,36.963,21.341ZM300.26,257.124l34.346,19.829,34.345-19.828L334.6,237.3Z" transform="translate(-190.679 -91.69)" fill="#fff"/>
      <path id="Trazado_100954" data-name="Trazado 100954" d="M364.784,295.888l-.327-.19-36.635-21.151,36.962-21.339.326.189,36.637,21.151Zm-34.347-21.341,34.347,19.829,34.345-19.828-34.346-19.829Z" transform="translate(-185.202 -88.528)" fill="#fff"/>
      <path id="Trazado_100955" data-name="Trazado 100955" d="M394.961,313.311,358,291.97l36.962-21.34.327.19,36.637,21.151ZM360.615,291.97l34.346,19.83,34.346-19.829L394.96,272.142Z" transform="translate(-179.725 -85.366)" fill="#fff"/>
      <path id="Trazado_100956" data-name="Trazado 100956" d="M425.139,330.734l-.326-.189-36.637-21.151,36.962-21.341.327.189L462.1,309.394Zm-34.346-21.34,34.346,19.829,34.345-19.829-34.346-19.829Z" transform="translate(-174.248 -82.204)" fill="#fff"/>
      <path id="Trazado_100957" data-name="Trazado 100957" d="M455.317,348.157l-.326-.189-36.637-21.151,36.961-21.341.326.189,36.637,21.152Zm-34.346-21.34,34.346,19.829,34.345-19.829-34.346-19.83Z" transform="translate(-168.772 -79.042)" fill="#fff"/>
      <path id="Trazado_100958" data-name="Trazado 100958" d="M485.493,365.58l-36.962-21.341,36.962-21.34,36.961,21.341Zm-34.346-21.341,34.346,19.83,34.345-19.829-34.345-19.83Z" transform="translate(-163.295 -75.88)" fill="#fff"/>
      <path id="Trazado_100959" data-name="Trazado 100959" d="M244.074,261.041,207.111,239.7l36.963-21.339,36.962,21.34ZM209.728,239.7l34.346,19.83L278.418,239.7l-34.345-19.829Z" transform="translate(-207.109 -94.852)" fill="#fff"/>
      <path id="Trazado_100960" data-name="Trazado 100960" d="M274.251,278.465l-36.963-21.342,36.962-21.339.327.189,36.637,21.151ZM239.9,257.123l34.346,19.83L308.6,257.124,274.25,237.3Z" transform="translate(-201.632 -91.69)" fill="#fff"/>
      <path id="Trazado_100961" data-name="Trazado 100961" d="M304.429,295.888l-.326-.19-36.637-21.151,36.961-21.34.327.189,36.635,21.151Zm-34.346-21.341,34.346,19.829,34.346-19.829-34.347-19.829Z" transform="translate(-196.155 -88.528)" fill="#fff"/>
      <path id="Trazado_100962" data-name="Trazado 100962" d="M334.607,313.31l-.326-.189L297.644,291.97l36.962-21.341.326.19,36.637,21.151Zm-34.346-21.34L334.607,311.8l34.345-19.829-34.346-19.829Z" transform="translate(-190.678 -85.367)" fill="#fff"/>
      <path id="Trazado_100963" data-name="Trazado 100963" d="M364.785,330.733l-.327-.189-36.637-21.151,36.963-21.341,36.963,21.342Zm-34.347-21.34,34.347,19.829,34.345-19.828-34.346-19.83Z" transform="translate(-185.202 -82.205)" fill="#fff"/>
      <path id="Trazado_100964" data-name="Trazado 100964" d="M394.962,348.156l-.326-.189L358,326.816l36.962-21.34.327.189,36.637,21.152Zm-34.346-21.34,34.346,19.829,34.346-19.828-34.347-19.83Z" transform="translate(-179.725 -79.042)" fill="#fff"/>
      <path id="Trazado_100965" data-name="Trazado 100965" d="M425.14,365.58l-36.963-21.341,36.961-21.34.327.189L462.1,344.239Zm-34.346-21.341,34.346,19.83,34.346-19.83L425.138,324.41Z" transform="translate(-174.248 -75.88)" fill="#fff"/>
      <path id="Trazado_100966" data-name="Trazado 100966" d="M244.075,295.887l-.327-.19-36.637-21.151,36.963-21.34,36.963,21.341Zm-34.347-21.341,34.347,19.829,34.345-19.828-34.346-19.83Z" transform="translate(-207.109 -88.529)" fill="#fff"/>
      <path id="Trazado_100967" data-name="Trazado 100967" d="M274.252,313.31l-36.963-21.341,36.961-21.34.327.19,36.637,21.151Zm-34.346-21.341,34.346,19.83L308.6,291.97,274.25,272.141Z" transform="translate(-201.632 -85.367)" fill="#fff"/>
      <path id="Trazado_100968" data-name="Trazado 100968" d="M304.43,330.733l-.326-.189-36.637-21.151,36.961-21.341.327.189,36.635,21.152Zm-34.346-21.34,34.346,19.829,34.345-19.829-34.346-19.829Z" transform="translate(-196.155 -82.205)" fill="#fff"/>
      <path id="Trazado_100969" data-name="Trazado 100969" d="M334.608,348.156l-.327-.189-36.635-21.151,36.961-21.341.326.189,36.637,21.152Zm-34.346-21.34,34.346,19.829,34.345-19.829-34.346-19.83Z" transform="translate(-190.678 -79.043)" fill="#fff"/>
      <path id="Trazado_100970" data-name="Trazado 100970" d="M364.786,365.579l-.327-.189-36.637-21.151L364.785,322.9l.326.189,36.637,21.152Zm-34.347-21.34,34.347,19.829,34.345-19.829-34.346-19.83Z" transform="translate(-185.202 -75.881)" fill="#fff"/>
      <path id="Trazado_100971" data-name="Trazado 100971" d="M244.076,330.732l-.327-.189-36.635-21.151,36.961-21.341,36.963,21.342Zm-34.347-21.34,34.347,19.829,34.345-19.828-34.346-19.83Z" transform="translate(-207.108 -82.205)" fill="#fff"/>
      <path id="Trazado_100972" data-name="Trazado 100972" d="M274.253,348.155l-.326-.189L237.29,326.815l36.962-21.34.327.189,36.637,21.152Zm-34.346-21.34,34.346,19.829L308.6,326.816l-34.347-19.83Z" transform="translate(-201.632 -79.043)" fill="#fff"/>
      <path id="Trazado_100973" data-name="Trazado 100973" d="M304.431,365.579l-36.963-21.341,36.962-21.34.326.189,36.637,21.152Zm-34.346-21.341,34.346,19.83,34.345-19.829-34.346-19.83Z" transform="translate(-196.155 -75.881)" fill="#fff"/>
      <path id="Trazado_100974" data-name="Trazado 100974" d="M244.077,365.578l-.327-.189-36.635-21.151L244.076,322.9l.326.189,36.637,21.152Zm-34.347-21.34,34.347,19.829,34.344-19.829-34.346-19.83Z" transform="translate(-207.108 -75.881)" fill="#fff"/>
    </g>
    <path id="Trazado_100975" data-name="Trazado 100975" d="M513.109,71.283a11.346,11.346,0,0,0-1.818,1.333c-.252-8.185-6.164-11.44-13.441-7.24C491.925,68.8,486.9,76.122,485.105,83.3a8.027,8.027,0,0,0-5.026,1.249c-5.3,3.062-9.6,10.509-9.6,16.634s4.3,8.607,9.6,5.545l33.029-19.07A15.673,15.673,0,0,0,520.2,75.377C520.2,70.856,517.025,69.022,513.109,71.283Z" transform="translate(62.317 7.46)" fill="#fff"/>
    <g id="Grupo_54984" data-name="Grupo 54984" transform="translate(587.131 86.772)">
      <path id="Trazado_100976" data-name="Trazado 100976" d="M518.084,115.221a1.6,1.6,0,0,1-.749-.185,1.618,1.618,0,0,1-.684-2.183,18.2,18.2,0,0,1,6.613-7.273,8.445,8.445,0,0,1,4.657-1.288c2.108.126,4.686-1.466,6.953-4.2a15.744,15.744,0,0,1,4.206-3.646,8.424,8.424,0,0,1,4.66-1.289c2.086.109,4.682-1.465,6.951-4.2a15.839,15.839,0,0,1,4.2-3.647,8.444,8.444,0,0,1,4.659-1.288c2.121.115,4.686-1.466,6.953-4.2a15.741,15.741,0,0,1,4.2-3.646c2.372-1.372,4.739-1.665,6.666-.829a1.619,1.619,0,1,1-1.29,2.969,4.344,4.344,0,0,0-3.757.664A12.745,12.745,0,0,0,569,83.9c-2.958,3.562-6.439,5.512-9.6,5.362a5.435,5.435,0,0,0-2.879.859,12.788,12.788,0,0,0-3.333,2.911c-2.96,3.565-6.444,5.526-9.6,5.362a5.472,5.472,0,0,0-2.879.86,12.763,12.763,0,0,0-3.333,2.91c-2.957,3.563-6.439,5.52-9.6,5.362a5.427,5.427,0,0,0-2.88.859,14.922,14.922,0,0,0-5.362,5.969A1.618,1.618,0,0,1,518.084,115.221Z" transform="translate(-516.467 -76.889)" fill="#fff"/>
    </g>
    <g id="Grupo_54985" data-name="Grupo 54985" transform="translate(127.097 391.845)">
      <path id="Trazado_100977" data-name="Trazado 100977" d="M128.714,373.433a1.6,1.6,0,0,1-.749-.186,1.618,1.618,0,0,1-.684-2.183,18.2,18.2,0,0,1,6.613-7.273,8.419,8.419,0,0,1,4.66-1.288c2.063.11,4.682-1.466,6.951-4.2a15.759,15.759,0,0,1,4.2-3.646,8.46,8.46,0,0,1,4.661-1.289c2.074.1,4.682-1.465,6.951-4.2a15.823,15.823,0,0,1,4.2-3.647,8.4,8.4,0,0,1,4.659-1.288c2.125.105,4.686-1.465,6.952-4.2a15.765,15.765,0,0,1,4.206-3.646c2.372-1.372,4.741-1.665,6.666-.829a1.619,1.619,0,1,1-1.29,2.969,4.337,4.337,0,0,0-3.757.664,12.725,12.725,0,0,0-3.333,2.91c-2.958,3.563-6.444,5.516-9.6,5.362a5.422,5.422,0,0,0-2.88.859,12.781,12.781,0,0,0-3.332,2.911c-2.96,3.563-6.436,5.512-9.6,5.362a5.392,5.392,0,0,0-2.879.86,12.745,12.745,0,0,0-3.333,2.91c-2.957,3.563-6.444,5.523-9.6,5.362a5.472,5.472,0,0,0-2.88.859,14.9,14.9,0,0,0-5.362,5.969A1.618,1.618,0,0,1,128.714,373.433Z" transform="translate(-127.097 -335.101)" fill="#fff"/>
    </g>
    <g id="Grupo_54986" data-name="Grupo 54986" transform="translate(372.441 409.402)">
      <path id="Trazado_100978" data-name="Trazado 100978" d="M340.984,366.982a6.885,6.885,0,0,1-3.114,5.395c-1.719.992-3.114.188-3.114-1.8a6.884,6.884,0,0,1,3.114-5.393C339.59,364.192,340.984,365,340.984,366.982Z" transform="translate(-334.755 -347.275)" fill="#fff"/>
      <path id="Trazado_100979" data-name="Trazado 100979" d="M349.528,362.049a6.885,6.885,0,0,1-3.114,5.395c-1.719.992-3.114.188-3.114-1.8a6.884,6.884,0,0,1,3.114-5.393C348.134,359.259,349.528,360.065,349.528,362.049Z" transform="translate(-333.204 -348.17)" fill="#fff"/>
      <path id="Trazado_100980" data-name="Trazado 100980" d="M358.072,357.118a6.881,6.881,0,0,1-3.114,5.393c-1.719.994-3.114.188-3.114-1.8a6.884,6.884,0,0,1,3.114-5.393C356.678,354.326,358.072,355.132,358.072,357.118Z" transform="translate(-331.654 -349.066)" fill="#fff"/>
      <path id="Trazado_100981" data-name="Trazado 100981" d="M366.616,352.185a6.881,6.881,0,0,1-3.114,5.393c-1.719.994-3.114.188-3.114-1.8a6.884,6.884,0,0,1,3.114-5.393C365.222,349.393,366.616,350.2,366.616,352.185Z" transform="translate(-330.103 -349.961)" fill="#fff"/>
    </g>
    <g id="Grupo_54987" data-name="Grupo 54987" transform="translate(309.822 146.31)">
      <path id="Trazado_100982" data-name="Trazado 100982" d="M287.983,142.1a6.885,6.885,0,0,1-3.114,5.395c-1.72.992-3.114.188-3.114-1.8a6.885,6.885,0,0,1,3.114-5.395C286.589,139.308,287.983,140.112,287.983,142.1Z" transform="translate(-281.754 -124.996)" fill="#fff"/>
      <path id="Trazado_100983" data-name="Trazado 100983" d="M295.254,137.9a6.883,6.883,0,0,1-3.113,5.393c-1.72.994-3.114.189-3.114-1.8a6.885,6.885,0,0,1,3.114-5.395C293.859,135.11,295.254,135.914,295.254,137.9Z" transform="translate(-280.434 -125.758)" fill="#fff"/>
      <path id="Trazado_100984" data-name="Trazado 100984" d="M287.983,133.7a6.881,6.881,0,0,1-3.114,5.393c-1.72.994-3.114.189-3.114-1.8a6.885,6.885,0,0,1,3.114-5.395C286.589,130.912,287.983,131.716,287.983,133.7Z" transform="translate(-281.754 -126.519)" fill="#fff"/>
      <path id="Trazado_100985" data-name="Trazado 100985" d="M295.254,129.5a6.883,6.883,0,0,1-3.113,5.393c-1.72.994-3.114.188-3.114-1.8a6.883,6.883,0,0,1,3.114-5.393C293.859,126.714,295.254,127.518,295.254,129.5Z" transform="translate(-280.434 -127.281)" fill="#fff"/>
    </g>
    <g id="Grupo_54988" data-name="Grupo 54988" transform="translate(586.996 198.075)">
      <path id="Trazado_100986" data-name="Trazado 100986" d="M522.581,193.086l-6.229,3.6V189.49l6.229-3.6Z" transform="translate(-516.353 -168.41)" fill="#fff"/>
      <path id="Trazado_100987" data-name="Trazado 100987" d="M531.125,188.153l-6.229,3.6v-7.192l6.229-3.6Z" transform="translate(-514.802 -169.305)" fill="#fff"/>
      <path id="Trazado_100988" data-name="Trazado 100988" d="M539.669,183.22l-6.229,3.6v-7.192l6.229-3.6Z" transform="translate(-513.252 -170.2)" fill="#fff"/>
      <path id="Trazado_100989" data-name="Trazado 100989" d="M548.213,178.288l-6.229,3.6v-7.192l6.229-3.6Z" transform="translate(-511.701 -171.096)" fill="#fff"/>
    </g>
    <path id="Trazado_100990" data-name="Trazado 100990" d="M276.514,181.368a11.932,11.932,0,0,0-3.042,2.615c-.143-6-4.447-8.394-9.747-5.334a17.758,17.758,0,0,0-4.686,4.088c-2.359-4.125-7.247-5.082-12.912-1.811-7.967,4.6-14.426,15.786-14.426,24.985a17.233,17.233,0,0,0,.145,2.15,5.437,5.437,0,0,0-4.039.815,15.253,15.253,0,0,0-6.9,11.954c0,4.4,3.09,6.185,6.9,3.985l48.708-28.123A14.667,14.667,0,0,0,283.15,185.2C283.15,180.968,280.179,179.253,276.514,181.368Z" transform="translate(17.024 28.109)" fill="#fff"/>
    <path id="Trazado_100991" data-name="Trazado 100991" d="M251.895,321.641a12.654,12.654,0,0,0-3.222,2.768c-.15-6.352-4.708-8.89-10.321-5.649a18.766,18.766,0,0,0-4.96,4.329c-2.5-4.368-7.675-5.382-13.674-1.919-8.436,4.871-15.274,16.716-15.274,26.456a18.042,18.042,0,0,0,.154,2.277,5.76,5.76,0,0,0-4.278.864,16.153,16.153,0,0,0-7.307,12.658c0,4.661,3.272,6.549,7.307,4.219l51.576-29.778a15.526,15.526,0,0,0,7.026-12.169C258.921,321.217,255.776,319.4,251.895,321.641Z" transform="translate(11.962 53.523)" fill="#fff" opacity="0.4"/>
    <g id="Grupo_55004" data-name="Grupo 55004" transform="translate(377.382 22.432)">
      <g id="Grupo_54992" data-name="Grupo 54992" transform="translate(35.858 70.818)">
        <path id="Trazado_100992" data-name="Trazado 100992" d="M374.544,147.78a.759.759,0,0,1-.759-.759V103.869a.759.759,0,0,1,1.517,0v43.152A.759.759,0,0,1,374.544,147.78Z" transform="translate(-368.47 -78.609)" fill="#396caa"/>
        <g id="Grupo_54991" data-name="Grupo 54991">
          <g id="Grupo_54989" data-name="Grupo 54989" transform="translate(2.326 22.547)">
            <rect id="Rectángulo_5990" data-name="Rectángulo 5990" width="7.497" height="16.178" fill="#5793ce"/>
            <path id="Trazado_100993" data-name="Trazado 100993" d="M377.655,117.011a5.854,5.854,0,0,1-5.3,0c-1.464-.845-1.464-2.215,0-3.06a5.859,5.859,0,0,1,5.3,0C379.119,114.8,379.119,116.167,377.655,117.011Z" transform="translate(-371.255 -99.304)" fill="#5793ce"/>
          </g>
          <g id="Grupo_54990" data-name="Grupo 54990">
            <rect id="Rectángulo_5991" data-name="Rectángulo 5991" width="12.148" height="25.374" fill="#5793ce"/>
            <path id="Trazado_100994" data-name="Trazado 100994" d="M371.255,103.825V109.3a9.7,9.7,0,0,0,7.5,0v-5.475A9.7,9.7,0,0,0,371.255,103.825Z" transform="translate(-368.93 -78.616)" fill="#396caa"/>
            <path id="Trazado_100995" data-name="Trazado 100995" d="M379.656,106.866a9.486,9.486,0,0,1-8.589,0c-2.372-1.369-2.372-3.589,0-4.959a9.49,9.49,0,0,1,8.589,0C382.028,103.277,382.028,105.5,379.656,106.866Z" transform="translate(-369.287 -79.014)" fill="#5793ce"/>
          </g>
        </g>
      </g>
      <g id="Grupo_54996" data-name="Grupo 54996" transform="translate(77.94 94.497)">
        <path id="Trazado_100996" data-name="Trazado 100996" d="M410.162,167.821a.759.759,0,0,1-.758-.759V123.911a.758.758,0,1,1,1.517,0v43.151A.759.759,0,0,1,410.162,167.821Z" transform="translate(-404.089 -98.65)" fill="#396caa"/>
        <g id="Grupo_54995" data-name="Grupo 54995">
          <g id="Grupo_54993" data-name="Grupo 54993" transform="translate(2.326 22.547)">
            <rect id="Rectángulo_5992" data-name="Rectángulo 5992" width="7.497" height="16.178" fill="#5793ce"/>
            <path id="Trazado_100997" data-name="Trazado 100997" d="M413.273,137.054a5.862,5.862,0,0,1-5.3,0c-1.464-.846-1.464-2.215,0-3.061a5.859,5.859,0,0,1,5.3,0C414.737,134.838,414.737,136.208,413.273,137.054Z" transform="translate(-406.873 -119.345)" fill="#5793ce"/>
          </g>
          <g id="Grupo_54994" data-name="Grupo 54994">
            <rect id="Rectángulo_5993" data-name="Rectángulo 5993" width="12.148" height="25.373" fill="#5793ce"/>
            <path id="Trazado_100998" data-name="Trazado 100998" d="M406.874,123.866v5.475a9.693,9.693,0,0,0,7.5,0v-5.475A9.7,9.7,0,0,0,406.874,123.866Z" transform="translate(-404.548 -98.658)" fill="#396caa"/>
            <path id="Trazado_100999" data-name="Trazado 100999" d="M415.274,126.909a9.493,9.493,0,0,1-8.589,0c-2.372-1.369-2.372-3.591,0-4.96a9.493,9.493,0,0,1,8.589,0C417.646,123.318,417.646,125.539,415.274,126.909Z" transform="translate(-404.905 -99.055)" fill="#5793ce"/>
          </g>
        </g>
      </g>
      <g id="Grupo_55003" data-name="Grupo 55003">
        <g id="Grupo_54999" data-name="Grupo 54999">
          <path id="Trazado_101000" data-name="Trazado 101000" d="M445.176,142.5l16.289-9.593-15.513-19.361-4.078,6.663Z" transform="translate(-320.256 -5.898)" fill="#5793ce"/>
          <path id="Trazado_101001" data-name="Trazado 101001" d="M344.564,50.407l26-14.956s-.978,14.926-.978,14.956-14.934,4.626-14.934,4.626Z" transform="translate(-337.916 -20.07)" fill="#5793ce"/>
          <path id="Trazado_101002" data-name="Trazado 101002" d="M464.4,110.345a16.394,16.394,0,0,0-5.624-2.085c-2.622-13.775-12.206-28.4-23.636-35a23.127,23.127,0,0,0-9.672-3.273c-1.56-16.7-13.169-35.671-27.266-43.811-7.364-4.251-14.045-4.754-18.976-2.15v-.013l-.24.137c-.125.07-.25.142-.373.216l-15.33,9.054,5.093,4.023c-4.572,2-7.462,7.126-7.462,14.706,0,13.979,9.813,30.977,21.92,37.967L464.4,148.357c9.092,5.248,16.46.994,16.46-9.5S473.487,115.593,464.4,110.345Z" transform="translate(-334.949 -22.432)" fill="#5793ce"/>
          <path id="Trazado_101003" data-name="Trazado 101003" d="M361.553,45.993l35.183-20.557c-6.83-3.562-13-3.856-17.63-1.412v-.013l-.24.137c-.125.07-.25.142-.373.216l-15.33,9.054,5.093,4.023C365.062,38.838,362.692,41.769,361.553,45.993Z" transform="translate(-334.833 -22.432)" fill="#5793ce"/>
          <path id="Trazado_101004" data-name="Trazado 101004" d="M420.662,98.868,446.333,83.8c-4.4-7.616-10.466-14.269-17.179-18.144q-1.333-.769-2.629-1.353L393.874,83.4Z" transform="translate(-328.967 -14.833)" fill="#5793ce"/>
          <path id="Trazado_101005" data-name="Trazado 101005" d="M369.039,35l11.44,6.6,20.951-12.339a41.724,41.724,0,0,0-4.707-3.19A29.4,29.4,0,0,0,389.4,23Z" transform="translate(-333.474 -22.33)" fill="#d4ecff"/>
          <path id="Trazado_101006" data-name="Trazado 101006" d="M439.025,77.056,418.537,89.13l7.126,7.948,18.6-10.983A59.7,59.7,0,0,0,439.025,77.056Z" transform="translate(-324.491 -12.519)" fill="#d4ecff"/>
          <path id="Trazado_101007" data-name="Trazado 101007" d="M452.29,118.37a16.385,16.385,0,0,0-5.624-2.085c-2.621-13.775-12.206-28.4-23.634-35a23.138,23.138,0,0,0-9.672-3.273c-1.561-16.7-13.17-35.671-27.267-43.811-15.161-8.752-27.451-1.658-27.451,15.848,0,.594.017,1.192.044,1.795C347.6,46.7,338.937,52.5,338.937,65.627c0,13.978,9.815,30.976,21.92,37.966l91.433,52.789c9.092,5.248,16.46.994,16.46-9.5S461.381,123.618,452.29,118.37Z" transform="translate(-338.937 -20.977)" fill="#d4ecff"/>
          <g id="Grupo_54997" data-name="Grupo 54997" transform="translate(5.014 8.17)">
            <path id="Trazado_101008" data-name="Trazado 101008" d="M357.915,49.04c-.027-.6-.044-1.2-.044-1.795,0-.026,0-.05,0-.074-6.125-2.382-11.388-1.345-14.692,2.476C346.769,46.693,351.988,46.29,357.915,49.04Z" transform="translate(-343.181 -26.344)" fill="#fff"/>
            <path id="Trazado_101009" data-name="Trazado 101009" d="M449.668,117.265a16.38,16.38,0,0,0-5.624-2.084c-2.621-13.775-12.206-28.4-23.636-35a23.13,23.13,0,0,0-9.672-3.274c-1.56-16.7-13.169-35.67-27.266-43.809-9.445-5.454-17.775-4.753-22.714.782,5.032-4.3,12.735-4.466,21.375.522,14.1,8.139,25.707,27.114,27.266,43.811a23.137,23.137,0,0,1,9.673,3.273c11.428,6.6,21.014,21.227,23.634,35a16.385,16.385,0,0,1,5.624,2.085c9.091,5.248,16.46,18.012,16.46,28.509,0,3.788-.97,6.747-2.624,8.756,2.466-1.9,3.963-5.343,3.963-10.06C466.129,135.277,458.76,122.514,449.668,117.265Z" transform="translate(-339.991 -29.347)" fill="#fff"/>
          </g>
          <g id="Grupo_54998" data-name="Grupo 54998" transform="translate(4.596 14.059)">
            <path id="Trazado_101010" data-name="Trazado 101010" d="M356.047,55.308l6.873,3.186-.349-7.567c-.025-.532-.04-1.06-.04-1.583,0-6.756,2.039-11.653,5.742-13.791s8.966-1.454,14.816,1.922c12.583,7.265,23.559,24.948,24.99,40.258l.36,3.858,3.862.3a18.59,18.59,0,0,1,7.727,2.67c9.993,5.77,19,19.178,21.418,31.881l.6,3.179,3.2.5a11.9,11.9,0,0,1,4.039,1.525c7.676,4.433,14.162,15.665,14.162,24.529,0,3.318-.92,5.751-2.524,6.678s-4.171.506-7.044-1.153L362.449,98.91c-10.636-6.14-19.622-21.705-19.622-33.987,0-4.82,1.421-8.491,3.9-10.075a6.677,6.677,0,0,1,3.645-.975A13.73,13.73,0,0,1,356.047,55.308Z" transform="translate(-342.827 -34.331)" fill="url(#radial-gradient)"/>
          </g>
        </g>
        <g id="Grupo_55002" data-name="Grupo 55002" transform="translate(43.507 58.487)">
          <path id="Trazado_101011" data-name="Trazado 101011" d="M392.64,101.05l2.412-1.211-2.374-1.8Z" transform="translate(-372.698 -67.198)" fill="#5793ce"/>
          <path id="Trazado_101012" data-name="Trazado 101012" d="M386.508,73.192l2.341-1.184.043,1.226Z" transform="translate(-373.811 -71.922)" fill="#5793ce"/>
          <path id="Trazado_101013" data-name="Trazado 101013" d="M398.81,95.017l2.444-1.229-4.7-4.473Z" transform="translate(-371.989 -68.781)" fill="#5793ce"/>
          <g id="Grupo_55000" data-name="Grupo 55000" transform="translate(2.449)">
            <path id="Trazado_101014" data-name="Trazado 101014" d="M396,102.856l-11.42-6.725a2.439,2.439,0,0,1-1.046-1.92l.038-13.221,13.518,7.962-.038,13.22C397.049,102.891,396.578,103.2,396,102.856Z" transform="translate(-376.8 -70.292)" fill="#5793ce"/>
            <path id="Trazado_101015" data-name="Trazado 101015" d="M390.4,72.037l-12.333,7.936c-.523.337-.1,1.593.695,2.061l12.6,7.419,12.6,7.419c.8.468,1.224-.286.7-1.237L392.409,73.22C391.879,72.252,390.932,71.694,390.4,72.037Z" transform="translate(-377.834 -71.935)" fill="#5793ce"/>
          </g>
          <g id="Grupo_55001" data-name="Grupo 55001" transform="translate(0 1.232)">
            <path id="Trazado_101016" data-name="Trazado 101016" d="M393.926,103.9l-11.419-6.726a2.43,2.43,0,0,1-1.046-1.92l.037-13.22,13.518,7.961-.038,13.221C394.977,103.935,394.5,104.241,393.926,103.9Z" transform="translate(-374.727 -71.335)" fill="#d4ecff"/>
            <path id="Trazado_101017" data-name="Trazado 101017" d="M388.326,73.08l-12.333,7.937c-.523.337-.1,1.591.695,2.059l12.6,7.42,12.6,7.419c.8.468,1.223-.286.7-1.237L390.336,74.263C389.808,73.3,388.859,72.737,388.326,73.08Z" transform="translate(-375.761 -72.978)" fill="#d4ecff"/>
          </g>
        </g>
      </g>
      <path id="Trazado_101018" data-name="Trazado 101018" d="M373.812,113.111c0,.743-.522,1.046-1.167.673a2.58,2.58,0,0,1-1.166-2.022c0-.744.522-1.046,1.166-.673A2.579,2.579,0,0,1,373.812,113.111Z" transform="translate(-333.031 -6.371)" fill="#d4ecff"/>
      <path id="Trazado_101019" data-name="Trazado 101019" d="M409.514,133.444c0,.744-.522,1.046-1.167.673a2.58,2.58,0,0,1-1.166-2.022c0-.744.522-1.046,1.166-.673A2.579,2.579,0,0,1,409.514,133.444Z" transform="translate(-326.552 -2.681)" fill="#d4ecff"/>
    </g>
    <g id="Grupo_55009" data-name="Grupo 55009" transform="translate(225.395 113.449)">
      <path id="Trazado_101020" data-name="Trazado 101020" d="M345.317,371.254,214.1,295.5c-3.712-2.143-3.247-5.886,1.04-8.361l89.347-51.567c4.285-2.474,10.769-2.743,14.481-.6l131.213,75.757c3.712,2.143,3.247,5.886-1.04,8.361L359.8,370.654C355.512,373.128,349.028,373.4,345.317,371.254Z" transform="translate(-210.06 -75.14)" fill="#7dc3ea"/>
      <path id="Trazado_101021" data-name="Trazado 101021" d="M351.859,362.217a14.37,14.37,0,0,1-7.075-1.659L213.571,284.8a5.784,5.784,0,0,1-3.275-4.963c0-2.268,1.573-4.478,4.314-6.061l89.347-51.567c4.783-2.761,11.82-3.026,16.019-.6L451.19,297.366a5.788,5.788,0,0,1,3.274,4.962c0,2.268-1.571,4.478-4.314,6.061L360.8,359.958A18.307,18.307,0,0,1,351.859,362.217Zm-38.922-139.18a15.38,15.38,0,0,0-7.443,1.836L216.147,276.44c-1.738,1-2.775,2.274-2.775,3.4a2.948,2.948,0,0,0,1.736,2.3l131.214,75.757c3.228,1.864,9.154,1.589,12.944-.6l89.347-51.568c1.739-1,2.776-2.273,2.776-3.4a2.949,2.949,0,0,0-1.737-2.3L318.438,224.273A11.27,11.27,0,0,0,312.937,223.037Z" transform="translate(-210.296 -77.603)" fill="#fff"/>
      <g id="Grupo_55008" data-name="Grupo 55008" transform="translate(1.537)">
        <path id="Trazado_101022" data-name="Trazado 101022" d="M465.652,176.036,334.438,100.28a5.294,5.294,0,0,0-4.446-.545l.008-.014-.239.09-.058.022-4.742,1.815,4.256,2.083c-.019.079-.043.152-.06.232L305.971,209.4c-1.069,4.869,1.073,10.553,4.785,12.7l128.057,73.934-.456,5.427,5.182-2.009a7.282,7.282,0,0,0,3.712-5.279l23.184-105.436C471.505,183.864,469.363,178.179,465.652,176.036Z" transform="translate(-194.519 -99.469)" fill="#173d7a"/>
        <path id="Trazado_101023" data-name="Trazado 101023" d="M464.491,176.036,333.276,100.28a5.294,5.294,0,0,0-4.446-.545l.008-.014-.239.09-.058.022-4.742,1.815,4.256,2.083c-.019.079-.043.152-.06.232L312.1,176.23l64.2,50.019,92.338-44.985A10.19,10.19,0,0,0,464.491,176.036Z" transform="translate(-193.358 -99.469)" fill="#396caa"/>
        <path id="Trazado_101024" data-name="Trazado 101024" d="M438.41,179.122l9.988-4.252a12.514,12.514,0,0,0-4.047-10l-15.811,6.652Z" transform="translate(-172.225 -87.6)" fill="#274f89"/>
        <path id="Trazado_101025" data-name="Trazado 101025" d="M435.054,300.659,303.84,224.9c-3.712-2.143-5.854-7.827-4.784-12.7l23.184-105.436c1.069-4.869,4.946-7.078,8.658-4.935l131.213,75.755c3.712,2.143,5.854,7.827,4.785,12.7L443.711,295.724C442.642,300.593,438.765,302.8,435.054,300.659Z" transform="translate(-195.774 -99.187)" fill="url(#radial-gradient-2)"/>
        <path id="Trazado_101026" data-name="Trazado 101026" d="M459.039,177.2,327.825,101.444a5.184,5.184,0,0,0-5.167-.224,5.393,5.393,0,0,1,3.907.685l131.213,75.755c3.712,2.143,5.854,7.829,4.785,12.7L439.378,295.792a7.388,7.388,0,0,1-3.491,5.16c2.215-.483,4.064-2.493,4.752-5.62L463.823,189.9C464.892,185.027,462.75,179.343,459.039,177.2Z" transform="translate(-191.441 -99.257)" fill="#fff"/>
        <path id="Trazado_101027" data-name="Trazado 101027" d="M431.381,292.327l-123.4-71.213c-3.4-1.961-5.357-7.162-4.379-11.618l21.369-97.175c.979-4.455,4.526-6.478,7.923-4.517l123.4,71.213c3.4,1.961,5.357,7.162,4.379,11.618L439.3,287.81C438.324,292.265,434.777,294.288,431.381,292.327Z" transform="translate(-194.946 -98.092)" fill="#fff"/>
        <path id="Trazado_101028" data-name="Trazado 101028" d="M431.381,292.327l-123.4-71.213c-3.4-1.961-5.357-7.162-4.379-11.618l21.369-97.175c.979-4.455,4.526-6.478,7.923-4.517l123.4,71.213c3.4,1.961,5.357,7.162,4.379,11.618L439.3,287.81C438.324,292.265,434.777,294.288,431.381,292.327Z" transform="translate(-194.946 -98.092)" fill="url(#radial-gradient-3)"/>
        <path id="Trazado_101029" data-name="Trazado 101029" d="M432.457,291.867l-123.4-71.213c-3.4-1.96-5.357-7.162-4.379-11.616l21.371-97.176a6.829,6.829,0,0,1,3.108-4.686c-1.955.5-3.573,2.337-4.185,5.124L303.6,209.473c-.978,4.457.982,9.657,4.379,11.619l123.4,71.213a4.745,4.745,0,0,0,4.813.17A4.918,4.918,0,0,1,432.457,291.867Z" transform="translate(-194.946 -98.07)" fill="#5793ce"/>
        <path id="Trazado_101030" data-name="Trazado 101030" d="M452.687,283.639l-17.936-2.368L318.971,214.425c-3.712-2.143-10.2-1.875-14.481.6l-82.042,47.349L211.6,260.943V267.1l.011,0c-.071,1.421.74,2.789,2.491,3.8l131.214,75.757c3.711,2.142,10.195,1.874,14.481-.6l89.346-51.568c2.411-1.392,3.614-3.185,3.543-4.869h0Z" transform="translate(-211.596 -78.868)" fill="#173d7a"/>
        <path id="Trazado_101031" data-name="Trazado 101031" d="M365.693,237.765l-8.225-4.75H267.031l-44.584,25.723L211.6,257.306v6.153l.011,0c-.071,1.421.74,2.789,2.491,3.8l131.214,75.757a13.577,13.577,0,0,0,7.473,1.4Z" transform="translate(-211.596 -75.232)" fill="#396caa"/>
        <path id="Trazado_101032" data-name="Trazado 101032" d="M216.414,254.211l-4.813-.636v6.153l.011,0c-.071,1.421.74,2.79,2.491,3.8l2.312,1.335Z" transform="translate(-211.596 -71.501)" fill="#5793ce"/>
        <path id="Trazado_101033" data-name="Trazado 101033" d="M325.895,328.867A16.8,16.8,0,0,0,338.2,328.1V314.377H325.895Z" transform="translate(-190.854 -60.466)" fill="#274f89"/>
        <path id="Trazado_101034" data-name="Trazado 101034" d="M345.317,342.075,214.1,266.32c-3.712-2.143-3.247-5.887,1.04-8.361l89.347-51.567c4.285-2.475,10.769-2.743,14.481-.6l131.213,75.755c3.712,2.143,3.247,5.887-1.04,8.361L359.8,341.475C355.512,343.95,349.028,344.219,345.317,342.075Z" transform="translate(-211.597 -80.435)" fill="url(#radial-gradient-4)"/>
        <path id="Trazado_101035" data-name="Trazado 101035" d="M449.144,278.874,359.8,330.441c-4.286,2.474-10.77,2.743-14.481.6L214.1,255.285a4.88,4.88,0,0,1-2.307-2.524c-.581,1.756.159,3.531,2.307,4.772l131.214,75.755c3.711,2.143,10.2,1.875,14.481-.6l89.346-51.567c2.882-1.664,4.028-3.9,3.348-5.837A6.983,6.983,0,0,1,449.144,278.874Z" transform="translate(-211.596 -71.649)" fill="#fff"/>
        <g id="Grupo_55005" data-name="Grupo 55005" transform="translate(52.054 128.574)">
          <path id="Trazado_101036" data-name="Trazado 101036" d="M261.914,236.925l-5.937-3.427c-.477-.275-.417-.756.133-1.074l7.007-4.045a2.067,2.067,0,0,1,1.86-.077l5.937,3.427c.476.275.417.756-.133,1.074l-7.007,4.045A2.067,2.067,0,0,1,261.914,236.925Z" transform="translate(-255.655 -204.695)" fill="#5793ce"/>
          <path id="Trazado_101037" data-name="Trazado 101037" d="M269.674,241.405l-5.937-3.427c-.477-.275-.417-.756.134-1.074l7.007-4.045a2.066,2.066,0,0,1,1.86-.077l5.937,3.427c.476.275.417.756-.134,1.074l-7.007,4.045A2.066,2.066,0,0,1,269.674,241.405Z" transform="translate(-254.247 -203.882)" fill="#5793ce"/>
          <path id="Trazado_101038" data-name="Trazado 101038" d="M277.434,245.886l-5.937-3.427c-.477-.275-.417-.756.134-1.074l7.007-4.047a2.067,2.067,0,0,1,1.86-.077l5.937,3.427c.476.275.417.756-.134,1.074l-7.007,4.045A2.067,2.067,0,0,1,277.434,245.886Z" transform="translate(-252.839 -203.069)" fill="#5793ce"/>
          <path id="Trazado_101039" data-name="Trazado 101039" d="M288.166,242.087l-5.937-3.427c-.476-.275-.416-.756.134-1.074l5.883-3.4a2.066,2.066,0,0,1,1.86-.077l5.937,3.427c.477.275.417.756-.133,1.074l-5.883,3.4A2.067,2.067,0,0,1,288.166,242.087Z" transform="translate(-250.891 -203.641)" fill="#5793ce"/>
          <path id="Trazado_101040" data-name="Trazado 101040" d="M295.926,246.567l-5.937-3.427c-.476-.275-.416-.756.135-1.074l5.881-3.4a2.067,2.067,0,0,1,1.86-.077l5.937,3.427c.477.275.417.756-.134,1.074l-5.883,3.4A2.066,2.066,0,0,1,295.926,246.567Z" transform="translate(-249.483 -202.828)" fill="#5793ce"/>
          <path id="Trazado_101041" data-name="Trazado 101041" d="M303.686,251.046l-5.937-3.427c-.476-.275-.416-.756.135-1.074l5.881-3.4a2.071,2.071,0,0,1,1.86-.078l5.937,3.429c.477.275.417.755-.134,1.073l-5.881,3.4A2.069,2.069,0,0,1,303.686,251.046Z" transform="translate(-248.074 -202.014)" fill="#5793ce"/>
          <path id="Trazado_101042" data-name="Trazado 101042" d="M311.446,255.526,305.51,252.1c-.477-.275-.417-.755.134-1.073l5.883-3.4a2.064,2.064,0,0,1,1.858-.077l5.937,3.427c.477.275.417.756-.133,1.074l-5.881,3.4A2.069,2.069,0,0,1,311.446,255.526Z" transform="translate(-246.666 -201.201)" fill="#5793ce"/>
          <path id="Trazado_101043" data-name="Trazado 101043" d="M319.207,260.008l-5.937-3.427c-.477-.275-.417-.756.133-1.074l5.881-3.4a2.069,2.069,0,0,1,1.861-.077l5.936,3.427c.477.275.417.756-.134,1.074l-5.881,3.4A2.07,2.07,0,0,1,319.207,260.008Z" transform="translate(-245.258 -200.388)" fill="#5793ce"/>
          <path id="Trazado_101044" data-name="Trazado 101044" d="M326.967,264.487l-5.937-3.428c-.477-.275-.417-.756.134-1.074l5.883-3.4a2.067,2.067,0,0,1,1.86-.078l5.937,3.427c.476.275.417.756-.134,1.074l-5.883,3.4A2.067,2.067,0,0,1,326.967,264.487Z" transform="translate(-243.849 -199.575)" fill="#5793ce"/>
          <path id="Trazado_101045" data-name="Trazado 101045" d="M334.727,268.967l-5.937-3.427c-.477-.275-.417-.756.134-1.074l5.883-3.4a2.066,2.066,0,0,1,1.86-.077l5.937,3.427c.476.275.417.755-.134,1.073l-5.883,3.4A2.066,2.066,0,0,1,334.727,268.967Z" transform="translate(-242.441 -198.762)" fill="#5793ce"/>
          <path id="Trazado_101046" data-name="Trazado 101046" d="M342.487,273.449l-5.937-3.429c-.477-.275-.417-.755.134-1.073l5.883-3.4a2.066,2.066,0,0,1,1.86-.077l5.937,3.427c.476.275.417.756-.133,1.074l-5.883,3.4A2.07,2.07,0,0,1,342.487,273.449Z" transform="translate(-241.033 -197.949)" fill="#5793ce"/>
          <path id="Trazado_101047" data-name="Trazado 101047" d="M350.247,277.929,344.31,274.5c-.477-.275-.417-.756.134-1.074l5.883-3.4a2.067,2.067,0,0,1,1.86-.077l5.937,3.427c.476.275.417.756-.134,1.074l-5.883,3.4A2.067,2.067,0,0,1,350.247,277.929Z" transform="translate(-239.624 -197.136)" fill="#5793ce"/>
          <path id="Trazado_101048" data-name="Trazado 101048" d="M358.007,282.408l-5.937-3.427c-.477-.275-.417-.756.134-1.074l5.883-3.4a2.067,2.067,0,0,1,1.86-.078l5.937,3.427c.476.275.417.756-.134,1.074l-5.883,3.4A2.066,2.066,0,0,1,358.007,282.408Z" transform="translate(-238.216 -196.323)" fill="#5793ce"/>
          <path id="Trazado_101049" data-name="Trazado 101049" d="M299.6,239.966l-5.937-3.429c-.476-.275-.417-.755.133-1.073l5.883-3.4a2.066,2.066,0,0,1,1.86-.077l5.937,3.427c.477.275.417.756-.134,1.074l-5.883,3.4A2.067,2.067,0,0,1,299.6,239.966Z" transform="translate(-248.816 -204.026)" fill="#5793ce"/>
          <path id="Trazado_101050" data-name="Trazado 101050" d="M291.724,235.417l-5.936-3.427c-.477-.275-.417-.756.132-1.074l5.883-3.4a2.067,2.067,0,0,1,1.86-.077l5.937,3.427c.477.275.417.756-.133,1.074l-5.883,3.4A2.066,2.066,0,0,1,291.724,235.417Z" transform="translate(-250.245 -204.851)" fill="#5793ce"/>
          <path id="Trazado_101051" data-name="Trazado 101051" d="M284.889,231.471,272.1,224.089c-.476-.275-.417-.756.134-1.074l5.883-3.4a2.066,2.066,0,0,1,1.86-.077l12.787,7.382c.476.275.417.756-.134,1.074l-5.883,3.4A2.067,2.067,0,0,1,284.889,231.471Z" transform="translate(-252.729 -206.285)" fill="#5793ce"/>
          <path id="Trazado_101052" data-name="Trazado 101052" d="M290.032,225.718l-10.377-5.991c-.476-.275-.417-.756.134-1.074l5.883-3.4a2.067,2.067,0,0,1,1.86-.077l10.377,5.99c.476.275.417.756-.134,1.074l-5.883,3.4A2.067,2.067,0,0,1,290.032,225.718Z" transform="translate(-251.358 -207.076)" fill="#5793ce"/>
          <path id="Trazado_101053" data-name="Trazado 101053" d="M307.36,244.446l-5.937-3.427c-.476-.275-.417-.756.134-1.074l5.883-3.4a2.067,2.067,0,0,1,1.86-.077l5.937,3.427c.477.275.417.756-.134,1.074l-5.883,3.4A2.066,2.066,0,0,1,307.36,244.446Z" transform="translate(-247.408 -203.213)" fill="#5793ce"/>
          <path id="Trazado_101054" data-name="Trazado 101054" d="M315.12,248.925l-5.937-3.427c-.476-.275-.416-.756.135-1.074l5.881-3.4a2.067,2.067,0,0,1,1.86-.078L323,244.378c.477.275.417.756-.133,1.074l-5.883,3.4A2.066,2.066,0,0,1,315.12,248.925Z" transform="translate(-245.999 -202.399)" fill="#5793ce"/>
          <path id="Trazado_101055" data-name="Trazado 101055" d="M322.88,253.405l-5.937-3.427c-.476-.275-.416-.756.135-1.074l5.881-3.4a2.069,2.069,0,0,1,1.861-.077l5.936,3.427c.477.275.417.756-.134,1.074l-5.883,3.4A2.066,2.066,0,0,1,322.88,253.405Z" transform="translate(-244.591 -201.586)" fill="#5793ce"/>
          <path id="Trazado_101056" data-name="Trazado 101056" d="M330.64,257.887l-5.937-3.429c-.476-.274-.416-.755.135-1.073l5.883-3.4a2.066,2.066,0,0,1,1.86-.077l5.937,3.427c.476.275.416.756-.135,1.074l-5.881,3.4A2.069,2.069,0,0,1,330.64,257.887Z" transform="translate(-243.183 -200.773)" fill="#5793ce"/>
          <path id="Trazado_101057" data-name="Trazado 101057" d="M338.4,262.367l-5.937-3.427c-.477-.275-.417-.756.134-1.074l5.883-3.4a2.066,2.066,0,0,1,1.86-.077l5.937,3.427c.476.275.416.756-.135,1.074l-5.881,3.4A2.067,2.067,0,0,1,338.4,262.367Z" transform="translate(-241.774 -199.96)" fill="#5793ce"/>
          <path id="Trazado_101058" data-name="Trazado 101058" d="M346.161,266.846l-5.937-3.427c-.477-.275-.417-.756.134-1.074l5.883-3.4a2.067,2.067,0,0,1,1.86-.078l5.937,3.429c.476.274.416.755-.133,1.073l-5.883,3.4A2.066,2.066,0,0,1,346.161,266.846Z" transform="translate(-240.366 -199.147)" fill="#5793ce"/>
          <path id="Trazado_101059" data-name="Trazado 101059" d="M353.921,271.326l-5.937-3.427c-.477-.275-.417-.756.133-1.074l5.883-3.4a2.066,2.066,0,0,1,1.86-.077l5.937,3.427c.476.275.417.756-.134,1.074l-5.883,3.4A2.066,2.066,0,0,1,353.921,271.326Z" transform="translate(-238.958 -198.334)" fill="#5793ce"/>
          <path id="Trazado_101060" data-name="Trazado 101060" d="M361.681,275.808l-5.937-3.427c-.477-.275-.417-.756.134-1.074l5.883-3.4a2.067,2.067,0,0,1,1.86-.077l5.937,3.427c.476.275.417.756-.133,1.074l-5.883,3.4A2.067,2.067,0,0,1,361.681,275.808Z" transform="translate(-237.549 -197.521)" fill="#5793ce"/>
          <path id="Trazado_101061" data-name="Trazado 101061" d="M369.441,280.288,363.5,276.86c-.477-.275-.417-.756.134-1.074l5.883-3.4a2.066,2.066,0,0,1,1.86-.077l5.937,3.427c.476.275.417.756-.133,1.074l-5.883,3.4A2.066,2.066,0,0,1,369.441,280.288Z" transform="translate(-236.141 -196.708)" fill="#5793ce"/>
          <path id="Trazado_101062" data-name="Trazado 101062" d="M384.314,288.875,371.36,281.4c-.476-.275-.417-.756.134-1.074l5.883-3.4a2.067,2.067,0,0,1,1.86-.077l12.954,7.479c.477.275.417.756-.133,1.074l-5.883,3.4A2.066,2.066,0,0,1,384.314,288.875Z" transform="translate(-234.715 -195.885)" fill="#5793ce"/>
          <path id="Trazado_101063" data-name="Trazado 101063" d="M399.112,279.973l-10.933-6.311c-.476-.275-.417-.756.134-1.074l5.883-3.4a2.066,2.066,0,0,1,1.86-.077l10.933,6.313c.477.275.417.756-.133,1.074l-5.883,3.4A2.066,2.066,0,0,1,399.112,279.973Z" transform="translate(-231.663 -197.288)" fill="#5793ce"/>
          <path id="Trazado_101064" data-name="Trazado 101064" d="M320.95,243.568l-5.937-3.427c-.476-.275-.417-.756.134-1.074l5.883-3.4a2.07,2.07,0,0,1,1.86-.078l5.937,3.429c.476.275.417.755-.134,1.073l-5.883,3.4A2.066,2.066,0,0,1,320.95,243.568Z" transform="translate(-244.941 -203.372)" fill="#5793ce"/>
          <path id="Trazado_101065" data-name="Trazado 101065" d="M313,238.978l-5.937-3.429c-.477-.275-.417-.755.134-1.073l5.883-3.4a2.066,2.066,0,0,1,1.86-.077l5.937,3.427c.476.275.417.756-.133,1.074l-5.883,3.4A2.071,2.071,0,0,1,313,238.978Z" transform="translate(-246.385 -204.205)" fill="#5793ce"/>
          <path id="Trazado_101066" data-name="Trazado 101066" d="M305.044,234.386l-5.937-3.427c-.477-.275-.417-.756.134-1.074l5.883-3.4a2.066,2.066,0,0,1,1.86-.077l5.937,3.427c.476.275.416.756-.134,1.074l-5.883,3.4A2.067,2.067,0,0,1,305.044,234.386Z" transform="translate(-247.828 -205.038)" fill="#5793ce"/>
          <path id="Trazado_101067" data-name="Trazado 101067" d="M297.091,229.793l-5.937-3.427c-.477-.275-.417-.756.133-1.074l5.883-3.4a2.067,2.067,0,0,1,1.86-.078l5.937,3.427c.476.275.417.756-.133,1.074l-5.883,3.4A2.066,2.066,0,0,1,297.091,229.793Z" transform="translate(-249.271 -205.872)" fill="#5793ce"/>
          <path id="Trazado_101068" data-name="Trazado 101068" d="M328.71,248.048l-5.937-3.427c-.476-.275-.417-.755.134-1.073l5.883-3.4a2.067,2.067,0,0,1,1.86-.077l5.937,3.427c.476.275.417.756-.133,1.074l-5.883,3.4A2.067,2.067,0,0,1,328.71,248.048Z" transform="translate(-243.533 -202.558)" fill="#5793ce"/>
          <path id="Trazado_101069" data-name="Trazado 101069" d="M336.47,252.53l-5.937-3.427c-.476-.275-.417-.756.133-1.074l5.883-3.4a2.067,2.067,0,0,1,1.86-.077l5.937,3.427c.476.275.417.756-.133,1.074l-5.883,3.4A2.07,2.07,0,0,1,336.47,252.53Z" transform="translate(-242.125 -201.745)" fill="#5793ce"/>
          <path id="Trazado_101070" data-name="Trazado 101070" d="M344.23,257.009l-5.937-3.427c-.476-.275-.417-.756.133-1.074l5.883-3.4a2.067,2.067,0,0,1,1.86-.078l5.937,3.427c.477.275.417.756-.134,1.074l-5.883,3.4A2.066,2.066,0,0,1,344.23,257.009Z" transform="translate(-240.716 -200.932)" fill="#5793ce"/>
          <path id="Trazado_101071" data-name="Trazado 101071" d="M351.99,261.489l-5.937-3.427c-.476-.275-.417-.756.133-1.074l5.883-3.4a2.066,2.066,0,0,1,1.86-.077l5.937,3.427c.476.275.417.755-.134,1.073l-5.883,3.4A2.066,2.066,0,0,1,351.99,261.489Z" transform="translate(-239.308 -200.119)" fill="#5793ce"/>
          <path id="Trazado_101072" data-name="Trazado 101072" d="M359.75,265.971l-5.937-3.429c-.476-.275-.417-.755.134-1.073l5.883-3.4a2.067,2.067,0,0,1,1.86-.077l5.937,3.427c.477.275.417.756-.133,1.074l-5.883,3.4A2.07,2.07,0,0,1,359.75,265.971Z" transform="translate(-237.9 -199.306)" fill="#5793ce"/>
          <path id="Trazado_101073" data-name="Trazado 101073" d="M367.51,270.451l-5.937-3.427c-.476-.275-.417-.756.133-1.074l5.883-3.4a2.067,2.067,0,0,1,1.86-.077l5.937,3.427c.477.275.417.756-.134,1.074l-5.883,3.4A2.066,2.066,0,0,1,367.51,270.451Z" transform="translate(-236.491 -198.493)" fill="#5793ce"/>
          <path id="Trazado_101074" data-name="Trazado 101074" d="M375.27,274.93l-5.937-3.427c-.476-.275-.417-.756.134-1.074l5.883-3.4a2.067,2.067,0,0,1,1.86-.078l5.937,3.427c.477.275.417.756-.134,1.074l-5.883,3.4A2.066,2.066,0,0,1,375.27,274.93Z" transform="translate(-235.083 -197.68)" fill="#5793ce"/>
          <path id="Trazado_101075" data-name="Trazado 101075" d="M383.03,279.41l-5.937-3.428c-.476-.275-.417-.756.134-1.074l5.883-3.4a2.067,2.067,0,0,1,1.86-.077l5.937,3.427c.477.275.417.756-.133,1.074l-5.883,3.4A2.066,2.066,0,0,1,383.03,279.41Z" transform="translate(-233.675 -196.867)" fill="#5793ce"/>
          <path id="Trazado_101076" data-name="Trazado 101076" d="M390.79,283.892l-5.937-3.429c-.476-.274-.416-.755.134-1.073l5.883-3.4a2.067,2.067,0,0,1,1.86-.077l5.937,3.427c.477.275.417.756-.134,1.074l-5.883,3.4A2.066,2.066,0,0,1,390.79,283.892Z" transform="translate(-232.266 -196.054)" fill="#5793ce"/>
          <path id="Trazado_101077" data-name="Trazado 101077" d="M316.864,232.488l-5.937-3.429c-.477-.275-.417-.755.134-1.073l5.883-3.4a2.066,2.066,0,0,1,1.86-.077l5.937,3.427c.476.275.417.756-.134,1.074l-5.883,3.4A2.067,2.067,0,0,1,316.864,232.488Z" transform="translate(-245.683 -205.383)" fill="#5793ce"/>
          <path id="Trazado_101078" data-name="Trazado 101078" d="M309.142,228.03l-5.937-3.429c-.476-.275-.417-.755.134-1.073l5.883-3.4a2.066,2.066,0,0,1,1.86-.077l5.937,3.427c.477.275.417.756-.133,1.074l-5.883,3.4A2.067,2.067,0,0,1,309.142,228.03Z" transform="translate(-247.084 -206.192)" fill="#5793ce"/>
          <path id="Trazado_101079" data-name="Trazado 101079" d="M301.421,223.572l-5.937-3.429c-.477-.274-.417-.755.134-1.073l5.883-3.4a2.066,2.066,0,0,1,1.86-.077l5.937,3.427c.476.275.417.756-.134,1.074l-5.883,3.4A2.067,2.067,0,0,1,301.421,223.572Z" transform="translate(-248.485 -207.001)" fill="#5793ce"/>
          <path id="Trazado_101080" data-name="Trazado 101080" d="M293.7,219.114l-5.937-3.429c-.476-.274-.416-.755.133-1.073l5.883-3.4a2.067,2.067,0,0,1,1.86-.077l5.937,3.427c.477.275.417.756-.134,1.074l-5.881,3.4A2.069,2.069,0,0,1,293.7,219.114Z" transform="translate(-249.887 -207.81)" fill="#5793ce"/>
          <path id="Trazado_101081" data-name="Trazado 101081" d="M301.639,214.179l-5.937-3.427c-.476-.275-.416-.755.133-1.073l1.945-1.124a2.067,2.067,0,0,1,1.86-.077l5.937,3.427c.477.275.417.756-.133,1.074L303.5,214.1A2.066,2.066,0,0,1,301.639,214.179Z" transform="translate(-248.446 -208.293)" fill="#5793ce"/>
          <path id="Trazado_101082" data-name="Trazado 101082" d="M311.716,220l-5.937-3.427c-.477-.275-.417-.756.133-1.074l1.945-1.122a2.066,2.066,0,0,1,1.86-.077l5.937,3.427c.476.275.417.756-.134,1.074l-1.945,1.122A2.066,2.066,0,0,1,311.716,220Z" transform="translate(-246.617 -207.237)" fill="#5793ce"/>
          <path id="Trazado_101083" data-name="Trazado 101083" d="M319.405,224.437l-5.937-3.429c-.476-.275-.417-.755.133-1.073l1.945-1.124a2.066,2.066,0,0,1,1.86-.077l5.937,3.427c.477.275.417.756-.134,1.074l-1.945,1.122A2.07,2.07,0,0,1,319.405,224.437Z" transform="translate(-245.222 -206.431)" fill="#5793ce"/>
          <path id="Trazado_101084" data-name="Trazado 101084" d="M327.094,228.876l-5.937-3.427c-.476-.275-.416-.756.135-1.074l1.944-1.122a2.07,2.07,0,0,1,1.86-.078l5.937,3.429c.477.275.417.756-.133,1.073l-1.945,1.124A2.066,2.066,0,0,1,327.094,228.876Z" transform="translate(-243.826 -205.625)" fill="#5793ce"/>
          <path id="Trazado_101085" data-name="Trazado 101085" d="M334.784,233.315l-5.937-3.427c-.477-.275-.417-.756.134-1.074l1.945-1.122a2.066,2.066,0,0,1,1.86-.077l5.937,3.427c.476.275.416.756-.134,1.074l-1.945,1.122A2.066,2.066,0,0,1,334.784,233.315Z" transform="translate(-242.431 -204.82)" fill="#5793ce"/>
          <path id="Trazado_101086" data-name="Trazado 101086" d="M377.712,258.1l-5.937-3.427c-.477-.275-.417-.756.133-1.074l1.945-1.122a2.067,2.067,0,0,1,1.86-.078l5.937,3.429c.476.274.416.755-.134,1.073l-1.945,1.124A2.067,2.067,0,0,1,377.712,258.1Z" transform="translate(-234.64 -200.322)" fill="#5793ce"/>
          <path id="Trazado_101087" data-name="Trazado 101087" d="M385.4,262.539l-5.937-3.427c-.477-.275-.417-.756.133-1.074l1.945-1.122a2.066,2.066,0,0,1,1.86-.077l5.937,3.427c.476.275.417.756-.134,1.074l-1.945,1.122A2.067,2.067,0,0,1,385.4,262.539Z" transform="translate(-233.245 -199.516)" fill="#5793ce"/>
          <path id="Trazado_101088" data-name="Trazado 101088" d="M393.09,266.979l-5.937-3.429c-.476-.274-.417-.755.134-1.073l1.945-1.124a2.067,2.067,0,0,1,1.86-.077l5.937,3.427c.477.275.417.756-.133,1.074L394.95,266.9A2.067,2.067,0,0,1,393.09,266.979Z" transform="translate(-231.849 -198.71)" fill="#5793ce"/>
          <path id="Trazado_101089" data-name="Trazado 101089" d="M400.78,271.418l-5.938-3.427c-.476-.275-.416-.756.135-1.074l1.945-1.122a2.064,2.064,0,0,1,1.858-.077l5.937,3.427c.477.275.417.756-.134,1.074l-1.944,1.122A2.066,2.066,0,0,1,400.78,271.418Z" transform="translate(-230.454 -197.905)" fill="#5793ce"/>
          <path id="Trazado_101090" data-name="Trazado 101090" d="M324.624,236.968l-5.937-3.427c-.477-.275-.417-.756.133-1.074l5.883-3.4a2.066,2.066,0,0,1,1.86-.077l5.937,3.427c.476.275.417.756-.134,1.074l-5.883,3.4A2.067,2.067,0,0,1,324.624,236.968Z" transform="translate(-244.275 -204.57)" fill="#5793ce"/>
          <path id="Trazado_101091" data-name="Trazado 101091" d="M332.384,241.448l-5.937-3.427c-.477-.275-.417-.756.133-1.074l5.883-3.4a2.067,2.067,0,0,1,1.86-.078l5.937,3.427c.476.275.417.756-.134,1.074l-5.883,3.4A2.067,2.067,0,0,1,332.384,241.448Z" transform="translate(-242.866 -203.757)" fill="#5793ce"/>
          <path id="Trazado_101092" data-name="Trazado 101092" d="M340.144,245.927l-5.937-3.427c-.476-.275-.417-.756.134-1.074l5.883-3.4a2.066,2.066,0,0,1,1.86-.077l5.937,3.427c.476.275.417.756-.134,1.074l-5.883,3.4A2.066,2.066,0,0,1,340.144,245.927Z" transform="translate(-241.458 -202.943)" fill="#5793ce"/>
          <path id="Trazado_101093" data-name="Trazado 101093" d="M347.9,250.409l-5.937-3.429c-.476-.274-.417-.755.134-1.073l5.883-3.4a2.066,2.066,0,0,1,1.86-.077l5.937,3.428c.476.275.417.756-.134,1.074l-5.883,3.4A2.067,2.067,0,0,1,347.9,250.409Z" transform="translate(-240.05 -202.13)" fill="#5793ce"/>
          <path id="Trazado_101094" data-name="Trazado 101094" d="M355.664,254.889l-5.937-3.427c-.476-.275-.417-.756.133-1.074l5.883-3.4a2.066,2.066,0,0,1,1.86-.077l5.937,3.427c.476.275.417.756-.133,1.074l-5.883,3.4A2.066,2.066,0,0,1,355.664,254.889Z" transform="translate(-238.641 -201.317)" fill="#5793ce"/>
          <path id="Trazado_101095" data-name="Trazado 101095" d="M363.424,259.368l-5.937-3.427c-.476-.275-.417-.756.134-1.074l5.883-3.4a2.067,2.067,0,0,1,1.86-.078l5.937,3.429c.477.274.417.755-.133,1.073l-5.883,3.4A2.066,2.066,0,0,1,363.424,259.368Z" transform="translate(-237.233 -200.504)" fill="#5793ce"/>
          <path id="Trazado_101096" data-name="Trazado 101096" d="M371.184,263.848l-5.937-3.427c-.476-.275-.417-.756.133-1.074l5.883-3.4a2.067,2.067,0,0,1,1.86-.077l5.937,3.428c.477.275.417.756-.134,1.074l-5.883,3.4A2.067,2.067,0,0,1,371.184,263.848Z" transform="translate(-235.825 -199.691)" fill="#5793ce"/>
          <path id="Trazado_101097" data-name="Trazado 101097" d="M378.944,268.33l-5.937-3.427c-.476-.275-.417-.756.134-1.074l5.883-3.4a2.067,2.067,0,0,1,1.86-.077l5.937,3.427c.477.275.417.756-.133,1.074l-5.883,3.4A2.067,2.067,0,0,1,378.944,268.33Z" transform="translate(-234.416 -198.878)" fill="#5793ce"/>
          <path id="Trazado_101098" data-name="Trazado 101098" d="M386.7,272.81l-5.937-3.427c-.476-.275-.417-.756.134-1.074l5.883-3.4a2.066,2.066,0,0,1,1.86-.077l5.937,3.427c.477.275.417.756-.133,1.074l-5.883,3.4A2.066,2.066,0,0,1,386.7,272.81Z" transform="translate(-233.008 -198.065)" fill="#5793ce"/>
          <path id="Trazado_101099" data-name="Trazado 101099" d="M282.032,238.545,264.547,228.45c-.476-.275-.417-.756.134-1.074l5.883-3.4a2.067,2.067,0,0,1,1.86-.077L289.908,234c.477.275.417.756-.133,1.074l-5.883,3.4A2.066,2.066,0,0,1,282.032,238.545Z" transform="translate(-254.1 -205.493)" fill="#5793ce"/>
          <path id="Trazado_101100" data-name="Trazado 101100" d="M377.366,293.586l-17.485-10.095c-.476-.275-.416-.756.134-1.074l5.883-3.4a2.067,2.067,0,0,1,1.86-.078l17.485,10.1c.477.274.417.755-.133,1.073l-5.883,3.4A2.066,2.066,0,0,1,377.366,293.586Z" transform="translate(-236.798 -195.504)" fill="#5793ce"/>
          <path id="Trazado_101101" data-name="Trazado 101101" d="M344.559,284.64l-5.937-3.427c-.477-.275-.417-.756.134-1.074l7.007-4.045a2.066,2.066,0,0,1,1.86-.077l5.937,3.427c.477.275.417.756-.133,1.074l-7.007,4.045A2.067,2.067,0,0,1,344.559,284.64Z" transform="translate(-240.657 -196.036)" fill="#5793ce"/>
          <path id="Trazado_101102" data-name="Trazado 101102" d="M288.752,252.421l-9.494-5.482c-.477-.275-.417-.756.134-1.074l7.007-4.045a2.067,2.067,0,0,1,1.86-.078l9.5,5.482c.476.275.416.756-.135,1.074l-7.007,4.045A2.07,2.07,0,0,1,288.752,252.421Z" transform="translate(-251.43 -202.256)" fill="#5793ce"/>
          <path id="Trazado_101103" data-name="Trazado 101103" d="M337.629,280.64l-9.494-5.482c-.477-.275-.417-.756.134-1.074l7.007-4.045a2.067,2.067,0,0,1,1.86-.078l9.494,5.482c.477.275.417.756-.133,1.074l-7.007,4.045A2.07,2.07,0,0,1,337.629,280.64Z" transform="translate(-242.56 -197.135)" fill="#5793ce"/>
          <path id="Trazado_101104" data-name="Trazado 101104" d="M299.948,258.885l-9.494-5.482c-.476-.275-.417-.756.134-1.074l7.007-4.045a2.067,2.067,0,0,1,1.86-.078l9.5,5.482c.476.275.416.756-.133,1.074l-7.009,4.045A2.067,2.067,0,0,1,299.948,258.885Z" transform="translate(-249.398 -201.083)" fill="#5793ce"/>
          <path id="Trazado_101105" data-name="Trazado 101105" d="M299.46,248.209l41.28,23.833a.566.566,0,0,1,0,1.072l-7.146,4.126a2.053,2.053,0,0,1-1.855,0l-41.281-23.834Z" transform="translate(-249.339 -201.048)" fill="#5793ce"/>
          <path id="Trazado_101106" data-name="Trazado 101106" d="M366.018,291.434l6.613,3.817c.391.226.341.62-.109.88l-2.867,1.655a1.7,1.7,0,0,1-1.524.063l-6.613-3.817c-.391-.226-.341-.62.11-.88l2.866-1.655A1.7,1.7,0,0,1,366.018,291.434Z" transform="translate(-236.491 -193.231)" fill="#5793ce"/>
          <path id="Trazado_101107" data-name="Trazado 101107" d="M358.194,286.916l6.613,3.819c.391.226.341.619-.11.88l-2.866,1.654a1.692,1.692,0,0,1-1.524.064l-6.614-3.819c-.39-.226-.341-.619.11-.88l2.866-1.654A1.694,1.694,0,0,1,358.194,286.916Z" transform="translate(-237.911 -194.051)" fill="#5793ce"/>
          <path id="Trazado_101108" data-name="Trazado 101108" d="M350.434,282.436l6.613,3.817c.391.226.341.62-.11.88l-2.866,1.655a1.692,1.692,0,0,1-1.524.064l-6.614-3.819c-.39-.226-.341-.619.11-.88l2.866-1.655A1.7,1.7,0,0,1,350.434,282.436Z" transform="translate(-239.319 -194.864)" fill="#5793ce"/>
          <path id="Trazado_101109" data-name="Trazado 101109" d="M362.479,284.442l6.613,3.819c.391.226.341.619-.11.88l-2.866,1.654a1.692,1.692,0,0,1-1.524.064l-6.613-3.819c-.391-.226-.341-.619.109-.88l2.867-1.654A1.692,1.692,0,0,1,362.479,284.442Z" transform="translate(-237.133 -194.5)" fill="#5793ce"/>
        </g>
        <g id="Grupo_55006" data-name="Grupo 55006" transform="translate(139.205 46.885)">
          <path id="Trazado_101110" data-name="Trazado 101110" d="M348.44,150.972l-14.912-8.609.635-3.21,14.912,8.609Z" transform="translate(-328.674 -139.152)" fill="#d4ecff"/>
          <path id="Trazado_101111" data-name="Trazado 101111" d="M347.07,157.287l-14.912-8.609.635-3.21,14.912,8.609Z" transform="translate(-328.922 -138.006)" fill="#fff"/>
          <path id="Trazado_101112" data-name="Trazado 101112" d="M409.017,244.88l-14.912-8.609.635-3.21,14.912,8.609Z" transform="translate(-317.68 -122.109)" fill="#d4ecff"/>
          <path id="Trazado_101113" data-name="Trazado 101113" d="M344.331,169.917l-14.912-8.609.635-3.21,14.912,8.609Z" transform="translate(-329.419 -135.714)" fill="#d4ecff"/>
        </g>
        <path id="Trazado_101114" data-name="Trazado 101114" d="M404.3,209.064l-55.163-31.849.71-3.586,55.163,31.849Z" transform="translate(-186.636 -86.01)" fill="#d4ecff"/>
        <path id="Trazado_101115" data-name="Trazado 101115" d="M385.02,212.709l-38.507-22.232.71-3.586,38.507,22.232Z" transform="translate(-187.112 -83.603)" fill="#d4ecff"/>
        <path id="Trazado_101116" data-name="Trazado 101116" d="M381.138,203.079l-33.313-19.233.71-3.586,33.313,19.233Z" transform="translate(-186.874 -84.806)" fill="#fff"/>
        <g id="Grupo_55007" data-name="Grupo 55007" transform="translate(182.91 83.925)">
          <path id="Trazado_101117" data-name="Trazado 101117" d="M370.695,174.079A2.078,2.078,0,0,1,367.7,175a2.606,2.606,0,0,1-1.073-3.27,2.078,2.078,0,0,1,3-.922A2.607,2.607,0,0,1,370.695,174.079Z" transform="translate(-366.411 -170.502)" fill="#ff2c9c"/>
          <path id="Trazado_101118" data-name="Trazado 101118" d="M376.767,177.585a2.078,2.078,0,0,1-3,.922,2.607,2.607,0,0,1-1.073-3.27,2.078,2.078,0,0,1,2.995-.922A2.606,2.606,0,0,1,376.767,177.585Z" transform="translate(-365.309 -169.866)" fill="#fff"/>
          <path id="Trazado_101119" data-name="Trazado 101119" d="M382.839,181.092a2.077,2.077,0,0,1-2.994.922,2.605,2.605,0,0,1-1.073-3.27,2.078,2.078,0,0,1,2.994-.923A2.607,2.607,0,0,1,382.839,181.092Z" transform="translate(-364.207 -169.23)" fill="#d4ecff"/>
          <path id="Trazado_101120" data-name="Trazado 101120" d="M388.912,184.6a2.079,2.079,0,0,1-3,.922,2.606,2.606,0,0,1-1.073-3.27,2.079,2.079,0,0,1,3-.923A2.609,2.609,0,0,1,388.912,184.6Z" transform="translate(-363.105 -168.593)" fill="#ff2c9c"/>
        </g>
        <path id="Trazado_101121" data-name="Trazado 101121" d="M397.074,212.28l-16.656-9.617.71-3.586,16.656,9.617Z" transform="translate(-180.959 -81.391)" fill="#ff2c9c"/>
      </g>
    </g>
    <g id="Grupo_55027" data-name="Grupo 55027" transform="translate(444.363 203.707)">
      <path id="Trazado_101122" data-name="Trazado 101122" d="M453.5,387.607l-54.357-31.383c-1.992-1.15-1.741-3.158.559-4.486l57.611-33.348c2.3-1.328,5.779-1.472,7.771-.323L519.44,349.45c1.992,1.151,1.742,3.159-.559,4.487L461.27,387.285C458.97,388.613,455.491,388.758,453.5,387.607Z" transform="translate(-395.235 -150.195)" fill="#7dc3ea"/>
      <path id="Trazado_101123" data-name="Trazado 101123" d="M457.129,379.492a8.512,8.512,0,0,1-4.188-.985l-54.355-31.383a3.9,3.9,0,0,1-2.15-3.344,4.739,4.739,0,0,1,2.708-3.933L456.752,306.5c2.791-1.609,6.91-1.75,9.386-.321l54.355,31.381a3.908,3.908,0,0,1,2.15,3.345,4.743,4.743,0,0,1-2.709,3.933l-57.609,33.347A10.619,10.619,0,0,1,457.129,379.492Zm4.846-71.084a7.5,7.5,0,0,0-3.611.883l-57.609,33.346c-.807.465-1.1.938-1.1,1.144,0,.121.167.338.539.554l54.356,31.381c1.491.862,4.37.71,6.16-.323l57.609-33.347c.807-.464,1.1-.939,1.1-1.142,0-.122-.165-.339-.539-.554l-54.354-31.383A5.255,5.255,0,0,0,461.975,308.408Z" transform="translate(-395.483 -152.391)" fill="#fff"/>
      <g id="Grupo_55026" data-name="Grupo 55026" transform="translate(0 0)">
        <g id="Grupo_55025" data-name="Grupo 55025">
          <g id="Grupo_55020" data-name="Grupo 55020">
            <g id="Grupo_55012" data-name="Grupo 55012">
              <g id="Grupo_55011" data-name="Grupo 55011">
                <g id="Grupo_55010" data-name="Grupo 55010">
                  <path id="Trazado_101124" data-name="Trazado 101124" d="M455.608,242.6s-29.842,2.844-47.816,4.224L455.465,382.6l63.057-36.368.031-.019.112-.064v-.006a3.514,3.514,0,0,0,1.288-3.113v-132.7a9.616,9.616,0,0,0-1.1-4.236Z" transform="translate(-393.422 -170.377)" fill="url(#radial-gradient-5)"/>
                  <path id="Trazado_101125" data-name="Trazado 101125" d="M518.049,208.346l-55.455-32.017a2.507,2.507,0,0,0-2.526-.217h0l-63.311,36.524,2.983,11.04,15.873,45.209,2.989,1.726,102.258-59.04A7.807,7.807,0,0,0,518.049,208.346Z" transform="translate(-395.424 -175.862)" fill="url(#linear-gradient)"/>
                  <path id="Trazado_101126" data-name="Trazado 101126" d="M449.5,225.661l48.077-27.679-37.506-21.654a2.506,2.506,0,0,0-2.526-.217h0L410.66,203.159Z" transform="translate(-392.901 -175.862)" fill="#173d7a" opacity="0.5"/>
                  <path id="Trazado_101127" data-name="Trazado 101127" d="M454.989,382.353l-55.455-32.017c-2.156-1.245-3.9-4.585-3.9-7.461V210.17c0-2.876,1.749-4.2,3.9-2.953l55.455,32.017c2.156,1.245,3.9,4.585,3.9,7.461V379.4C458.894,382.276,457.145,383.6,454.989,382.353Z" transform="translate(-395.629 -170.257)" fill="#5793ce"/>
                  <path id="Trazado_101128" data-name="Trazado 101128" d="M455.867,238.671l-55.455-32.017a2.306,2.306,0,0,0-3.072.226,2.888,2.888,0,0,1,1.883.441l55.455,32.017c2.156,1.245,3.9,4.585,3.9,7.461V379.5a4.058,4.058,0,0,1-.833,2.727c1.205-.19,2.022-1.428,2.022-3.393v-132.7C459.772,243.256,458.023,239.916,455.867,238.671Z" transform="translate(-395.318 -170.359)" fill="#fff"/>
                  <path id="Trazado_101129" data-name="Trazado 101129" d="M450.889,373.309,402.411,345.32A8.174,8.174,0,0,1,399,338.8V215.553c0-2.514,1.528-3.67,3.413-2.582l48.477,27.989a8.173,8.173,0,0,1,3.413,6.522V370.728C454.3,373.242,452.774,374.4,450.889,373.309Z" transform="translate(-395.018 -169.202)" fill="url(#linear-gradient-2)"/>
                  <path id="Trazado_101130" data-name="Trazado 101130" d="M450.889,373.309,402.411,345.32A8.174,8.174,0,0,1,399,338.8V215.553c0-2.514,1.528-3.67,3.413-2.582l48.477,27.989a8.173,8.173,0,0,1,3.413,6.522V370.728C454.3,373.242,452.774,374.4,450.889,373.309Z" transform="translate(-395.018 -169.202)" fill="url(#linear-gradient-2)"/>
                  <path id="Trazado_101131" data-name="Trazado 101131" d="M450.889,373.309,402.411,345.32A8.174,8.174,0,0,1,399,338.8V215.553c0-2.514,1.528-3.67,3.413-2.582l48.477,27.989a8.173,8.173,0,0,1,3.413,6.522V370.728C454.3,373.242,452.774,374.4,450.889,373.309Z" transform="translate(-395.018 -169.202)" fill="#173d7a"/>
                  <path id="Trazado_101132" data-name="Trazado 101132" d="M452.473,372.377l-48.479-27.989a8.177,8.177,0,0,1-3.413-6.522V214.621a3.938,3.938,0,0,1,.49-2.058c-1.219-.009-2.074,1.111-2.074,2.99V338.8a8.174,8.174,0,0,0,3.413,6.523l48.477,27.988a1.976,1.976,0,0,0,2.924-.522A2.75,2.75,0,0,1,452.473,372.377Z" transform="translate(-395.018 -169.202)" fill="#396caa"/>
                </g>
              </g>
            </g>
            <g id="Grupo_55014" data-name="Grupo 55014" transform="translate(9.115 48.729)">
              <g id="Grupo_55013" data-name="Grupo 55013" transform="translate(0)">
                <path id="Trazado_101133" data-name="Trazado 101133" d="M450.1,302.323l-18.019-10.4-28.737,16.593,50.169,28.965V308.846A8.174,8.174,0,0,0,450.1,302.323Z" transform="translate(-403.344 -203.529)" fill="#173d7a"/>
                <path id="Trazado_101134" data-name="Trazado 101134" d="M450.1,280.948l-18.019-10.4-28.737,16.592L453.513,316.1V287.47A8.173,8.173,0,0,0,450.1,280.948Z" transform="translate(-403.344 -207.408)" fill="#173d7a"/>
                <path id="Trazado_101135" data-name="Trazado 101135" d="M450.1,259.572l-18.019-10.4-28.737,16.593,50.169,28.965V266.095A8.174,8.174,0,0,0,450.1,259.572Z" transform="translate(-403.344 -211.287)" fill="#173d7a"/>
                <path id="Trazado_101136" data-name="Trazado 101136" d="M450.1,238.2l-18.019-10.4-28.737,16.592,50.169,28.965V244.719A8.173,8.173,0,0,0,450.1,238.2Z" transform="translate(-403.344 -215.166)" fill="#173d7a"/>
                <path id="Trazado_101137" data-name="Trazado 101137" d="M450.1,240.137l-39.89-23.031-6.866,3.964,50.169,28.966v-3.378A8.173,8.173,0,0,0,450.1,240.137Z" transform="translate(-403.344 -217.106)" fill="#173d7a"/>
              </g>
              <path id="Trazado_101138" data-name="Trazado 101138" d="M453.514,249.427l-50.17-28.966v15.962l50.17,28.966Z" transform="translate(-403.344 -216.497)" fill="#5793ce"/>
              <path id="Trazado_101139" data-name="Trazado 101139" d="M453.514,270.8l-50.17-28.966V257.8l50.17,28.966Z" transform="translate(-403.344 -212.618)" fill="#5793ce"/>
              <path id="Trazado_101140" data-name="Trazado 101140" d="M453.514,292.178l-50.17-28.966v15.962l50.17,28.966Z" transform="translate(-403.344 -208.738)" fill="#5793ce"/>
              <path id="Trazado_101141" data-name="Trazado 101141" d="M453.514,313.553l-50.17-28.966V300.55l50.17,28.966Z" transform="translate(-403.344 -204.859)" fill="#5793ce"/>
              <path id="Trazado_101142" data-name="Trazado 101142" d="M453.514,334.929l-50.17-28.966v15.962l50.17,28.966Z" transform="translate(-403.344 -200.98)" fill="#5793ce"/>
            </g>
            <g id="Grupo_55015" data-name="Grupo 55015" transform="translate(15.14 60.457)">
              <path id="Trazado_101143" data-name="Trazado 101143" d="M448.163,258.508,410.375,236.69A4.626,4.626,0,0,1,408.443,233v-4.275c0-1.423.865-2.076,1.932-1.46l37.789,21.817a4.626,4.626,0,0,1,1.932,3.691v4.275C450.095,258.47,449.23,259.124,448.163,258.508Z" transform="translate(-408.443 -227.033)" fill="#173d7a"/>
              <path id="Trazado_101144" data-name="Trazado 101144" d="M412.285,235.873a4.627,4.627,0,0,1-1.932-3.691v-4.275a2.708,2.708,0,0,1,.071-.614l-.048-.028c-1.068-.616-1.933.038-1.933,1.46V233a4.623,4.623,0,0,0,1.933,3.691l37.787,21.817a1.156,1.156,0,0,0,1.861-.846Z" transform="translate(-408.443 -227.033)" fill="#06033e" opacity="0.3"/>
              <path id="Trazado_101145" data-name="Trazado 101145" d="M435.623,246.065l-22.74-13.129a1.628,1.628,0,0,1-.679-1.3h0c0-.5.3-.731.679-.514l22.74,13.129a1.628,1.628,0,0,1,.679,1.3h0C436.3,246.05,436,246.281,435.623,246.065Z" transform="translate(-407.76 -226.305)" fill="#fff"/>
            </g>
            <g id="Grupo_55016" data-name="Grupo 55016" transform="translate(15.14 85.556)">
              <path id="Trazado_101146" data-name="Trazado 101146" d="M448.163,279.752l-37.789-21.817a4.625,4.625,0,0,1-1.932-3.691v-4.275c0-1.422.865-2.077,1.932-1.46l37.789,21.817a4.626,4.626,0,0,1,1.932,3.691v4.275C450.095,279.714,449.23,280.367,448.163,279.752Z" transform="translate(-408.443 -248.276)" fill="#173d7a"/>
              <path id="Trazado_101147" data-name="Trazado 101147" d="M412.285,257.116a4.626,4.626,0,0,1-1.932-3.691V249.15a2.716,2.716,0,0,1,.071-.614l-.048-.027c-1.068-.617-1.933.038-1.933,1.46v4.275a4.623,4.623,0,0,0,1.933,3.691l37.787,21.817a1.156,1.156,0,0,0,1.861-.847Z" transform="translate(-408.443 -248.276)" fill="#06033e" opacity="0.3"/>
              <path id="Trazado_101148" data-name="Trazado 101148" d="M435.623,267.307l-22.74-13.129a1.625,1.625,0,0,1-.679-1.3h0c0-.5.3-.73.679-.514l22.74,13.129a1.631,1.631,0,0,1,.679,1.3h0C436.3,267.294,436,267.525,435.623,267.307Z" transform="translate(-407.76 -247.549)" fill="#fff"/>
            </g>
            <g id="Grupo_55017" data-name="Grupo 55017" transform="translate(15.14 110.889)">
              <path id="Trazado_101149" data-name="Trazado 101149" d="M448.163,301.193l-37.789-21.817a4.625,4.625,0,0,1-1.932-3.691V271.41c0-1.422.865-2.076,1.932-1.46l37.789,21.817a4.626,4.626,0,0,1,1.932,3.691v4.275C450.095,301.155,449.23,301.809,448.163,301.193Z" transform="translate(-408.443 -269.718)" fill="#173d7a"/>
              <path id="Trazado_101150" data-name="Trazado 101150" d="M412.285,278.558a4.627,4.627,0,0,1-1.932-3.691v-4.276a2.706,2.706,0,0,1,.071-.613l-.048-.028c-1.068-.616-1.933.038-1.933,1.46v4.275a4.623,4.623,0,0,0,1.933,3.691l37.787,21.817a1.156,1.156,0,0,0,1.861-.846Z" transform="translate(-408.443 -269.718)" fill="#06033e" opacity="0.3"/>
              <path id="Trazado_101151" data-name="Trazado 101151" d="M435.623,288.75l-22.74-13.129a1.628,1.628,0,0,1-.679-1.3h0c0-.5.3-.731.679-.514l22.74,13.129a1.628,1.628,0,0,1,.679,1.3h0C436.3,288.735,436,288.966,435.623,288.75Z" transform="translate(-407.76 -268.99)" fill="#d4ecff"/>
            </g>
            <g id="Grupo_55018" data-name="Grupo 55018" transform="translate(15.14 136.455)">
              <path id="Trazado_101152" data-name="Trazado 101152" d="M448.163,322.833l-37.789-21.817a4.627,4.627,0,0,1-1.932-3.691V293.05c0-1.423.865-2.077,1.932-1.461l37.789,21.817a4.63,4.63,0,0,1,1.932,3.692v4.275C450.095,322.8,449.23,323.448,448.163,322.833Z" transform="translate(-408.443 -291.357)" fill="#173d7a"/>
              <path id="Trazado_101153" data-name="Trazado 101153" d="M412.285,300.2a4.626,4.626,0,0,1-1.932-3.691v-4.275a2.716,2.716,0,0,1,.071-.614l-.048-.027c-1.068-.617-1.933.037-1.933,1.46v4.275a4.625,4.625,0,0,0,1.933,3.691l37.787,21.817a1.157,1.157,0,0,0,1.861-.847Z" transform="translate(-408.443 -291.357)" fill="#06033e" opacity="0.3"/>
              <path id="Trazado_101154" data-name="Trazado 101154" d="M435.623,310.389l-22.74-13.129a1.628,1.628,0,0,1-.679-1.3h0c0-.5.3-.73.679-.514l22.74,13.129a1.631,1.631,0,0,1,.679,1.3h0C436.3,310.376,436,310.6,435.623,310.389Z" transform="translate(-407.76 -290.63)" fill="#ff2c9c"/>
            </g>
            <g id="Grupo_55019" data-name="Grupo 55019" transform="translate(15.14 161.515)">
              <path id="Trazado_101155" data-name="Trazado 101155" d="M448.163,344.043l-37.789-21.817a4.626,4.626,0,0,1-1.932-3.691V314.26c0-1.423.865-2.076,1.932-1.46l37.789,21.817a4.626,4.626,0,0,1,1.932,3.691v4.275C450.095,344,449.23,344.659,448.163,344.043Z" transform="translate(-408.443 -312.568)" fill="#173d7a"/>
              <path id="Trazado_101156" data-name="Trazado 101156" d="M412.285,321.408a4.628,4.628,0,0,1-1.932-3.692v-4.275a2.706,2.706,0,0,1,.071-.613l-.048-.028c-1.068-.616-1.933.038-1.933,1.46v4.275a4.623,4.623,0,0,0,1.933,3.691l37.787,21.817a1.156,1.156,0,0,0,1.861-.846Z" transform="translate(-408.443 -312.568)" fill="#06033e" opacity="0.3"/>
              <path id="Trazado_101157" data-name="Trazado 101157" d="M435.623,331.6l-22.74-13.13a1.625,1.625,0,0,1-.679-1.3h0c0-.5.3-.73.679-.513l22.74,13.129a1.628,1.628,0,0,1,.679,1.3h0C436.3,331.585,436,331.816,435.623,331.6Z" transform="translate(-407.76 -311.84)" fill="#d4ecff"/>
            </g>
            <path id="Trazado_101158" data-name="Trazado 101158" d="M403.344,220.461l3.951,2.281V238.7l-3.951-2.281Z" transform="translate(-394.229 -167.768)" fill="#173d7a" opacity="0.5"/>
            <path id="Trazado_101159" data-name="Trazado 101159" d="M403.344,241.837l3.951,2.281V260.08l-3.951-2.281Z" transform="translate(-394.229 -163.889)" fill="#173d7a" opacity="0.5"/>
            <path id="Trazado_101160" data-name="Trazado 101160" d="M403.344,263.212l3.951,2.281v15.962l-3.951-2.281Z" transform="translate(-394.229 -160.01)" fill="#173d7a" opacity="0.5"/>
            <path id="Trazado_101161" data-name="Trazado 101161" d="M403.344,284.588l3.951,2.281v15.962l-3.951-2.281Z" transform="translate(-394.229 -156.131)" fill="#173d7a" opacity="0.5"/>
            <path id="Trazado_101162" data-name="Trazado 101162" d="M403.344,305.963l3.951,2.281v15.962l-3.951-2.281Z" transform="translate(-394.229 -152.251)" fill="#173d7a" opacity="0.5"/>
          </g>
          <path id="Trazado_101163" data-name="Trazado 101163" d="M436.064,245.321c0,.51-.359.716-.8.462a1.768,1.768,0,0,1-.8-1.386c0-.51.358-.717.8-.462A1.771,1.771,0,0,1,436.064,245.321Z" transform="translate(-388.581 -163.528)" fill="#d4ecff"/>
          <path id="Trazado_101164" data-name="Trazado 101164" d="M438.934,246.978c0,.51-.358.717-.8.462a1.768,1.768,0,0,1-.8-1.386c0-.51.358-.717.8-.462A1.768,1.768,0,0,1,438.934,246.978Z" transform="translate(-388.06 -163.227)" fill="#ff2c9c"/>
          <path id="Trazado_101165" data-name="Trazado 101165" d="M441.8,248.635c0,.51-.358.717-.8.462a1.768,1.768,0,0,1-.8-1.386c0-.509.358-.716.8-.462A1.768,1.768,0,0,1,441.8,248.635Z" transform="translate(-387.539 -162.927)" fill="#d4ecff"/>
          <path id="Trazado_101166" data-name="Trazado 101166" d="M436.064,266.684c0,.51-.359.717-.8.462a1.768,1.768,0,0,1-.8-1.385c0-.51.358-.717.8-.462A1.771,1.771,0,0,1,436.064,266.684Z" transform="translate(-388.581 -159.651)" fill="#ff2c9c"/>
          <path id="Trazado_101167" data-name="Trazado 101167" d="M438.934,268.343c0,.509-.358.716-.8.461a1.764,1.764,0,0,1-.8-1.385c0-.51.358-.717.8-.462A1.768,1.768,0,0,1,438.934,268.343Z" transform="translate(-388.06 -159.35)" fill="#d4ecff"/>
          <path id="Trazado_101168" data-name="Trazado 101168" d="M441.8,270c0,.509-.358.716-.8.462a1.768,1.768,0,0,1-.8-1.386c0-.51.358-.717.8-.462A1.768,1.768,0,0,1,441.8,270Z" transform="translate(-387.539 -159.049)" fill="#fff"/>
          <path id="Trazado_101169" data-name="Trazado 101169" d="M436.064,288.21c0,.51-.359.717-.8.462a1.768,1.768,0,0,1-.8-1.385c0-.51.358-.717.8-.462A1.771,1.771,0,0,1,436.064,288.21Z" transform="translate(-388.581 -155.744)" fill="#fff"/>
          <path id="Trazado_101170" data-name="Trazado 101170" d="M438.934,289.869c0,.509-.358.716-.8.461a1.764,1.764,0,0,1-.8-1.385c0-.51.358-.717.8-.462A1.768,1.768,0,0,1,438.934,289.869Z" transform="translate(-388.06 -155.443)" fill="#ff2c9c"/>
          <path id="Trazado_101171" data-name="Trazado 101171" d="M441.8,291.526c0,.51-.358.716-.8.462a1.768,1.768,0,0,1-.8-1.386c0-.51.358-.717.8-.462A1.768,1.768,0,0,1,441.8,291.526Z" transform="translate(-387.539 -155.143)" fill="#fff"/>
          <path id="Trazado_101172" data-name="Trazado 101172" d="M436.064,309.424c0,.51-.359.717-.8.462a1.768,1.768,0,0,1-.8-1.386c0-.51.358-.717.8-.462A1.771,1.771,0,0,1,436.064,309.424Z" transform="translate(-388.581 -151.895)" fill="#fff"/>
          <path id="Trazado_101173" data-name="Trazado 101173" d="M438.934,311.081c0,.51-.358.717-.8.462a1.768,1.768,0,0,1-.8-1.386c0-.509.358-.716.8-.462A1.768,1.768,0,0,1,438.934,311.081Z" transform="translate(-388.06 -151.594)" fill="#d4ecff"/>
          <path id="Trazado_101174" data-name="Trazado 101174" d="M441.8,312.737c0,.51-.358.717-.8.462a1.768,1.768,0,0,1-.8-1.385c0-.51.358-.717.8-.462A1.768,1.768,0,0,1,441.8,312.737Z" transform="translate(-387.539 -151.293)" fill="#d4ecff"/>
          <path id="Trazado_101175" data-name="Trazado 101175" d="M436.064,330.926c0,.51-.359.716-.8.462a1.768,1.768,0,0,1-.8-1.386c0-.51.358-.717.8-.462A1.771,1.771,0,0,1,436.064,330.926Z" transform="translate(-388.581 -147.992)" fill="#fff"/>
          <path id="Trazado_101176" data-name="Trazado 101176" d="M438.934,332.583c0,.51-.358.717-.8.462a1.768,1.768,0,0,1-.8-1.386c0-.51.358-.717.8-.462A1.768,1.768,0,0,1,438.934,332.583Z" transform="translate(-388.06 -147.692)" fill="#ff2c9c"/>
          <path id="Trazado_101177" data-name="Trazado 101177" d="M441.8,334.24c0,.51-.358.717-.8.462a1.768,1.768,0,0,1-.8-1.386c0-.509.358-.716.8-.462A1.768,1.768,0,0,1,441.8,334.24Z" transform="translate(-387.539 -147.391)" fill="#d4ecff"/>
          <g id="Grupo_55021" data-name="Grupo 55021" transform="translate(71.617 53.758)">
            <path id="Trazado_101178" data-name="Trazado 101178" d="M456.245,361.763v-113l.234-.134,47.226-27.266v113l-.234.135Zm.936-112.459V360.142l45.589-26.321V222.983Z" transform="translate(-456.245 -221.363)" fill="#173d7a"/>
          </g>
          <g id="Grupo_55024" data-name="Grupo 55024" transform="translate(83.058 85.682)">
            <path id="Trazado_101179" data-name="Trazado 101179" d="M489.679,267.3,468.5,279.527c-1.421.821-2.574-.051-2.574-1.947v-11.74a6.17,6.17,0,0,1,2.574-4.921l21.176-12.226c1.422-.821,2.576.051,2.576,1.947v11.74A6.168,6.168,0,0,1,489.679,267.3Z" transform="translate(-465.929 -248.383)" fill="#173d7a"/>
            <path id="Trazado_101180" data-name="Trazado 101180" d="M490.164,248.464a3.39,3.39,0,0,1,.191,1.178v11.74a6.166,6.166,0,0,1-2.576,4.921L466.6,278.53a2.478,2.478,0,0,1-.514.228,1.5,1.5,0,0,0,2.385.769L489.65,267.3a6.168,6.168,0,0,0,2.576-4.921v-11.74C492.226,248.977,491.341,248.1,490.164,248.464Z" transform="translate(-465.9 -248.383)" fill="#5793ce"/>
            <g id="Grupo_55023" data-name="Grupo 55023" transform="translate(3.985 6.68)">
              <g id="Grupo_55022" data-name="Grupo 55022" transform="translate(0 5.07)">
                <path id="Trazado_101181" data-name="Trazado 101181" d="M482.867,258.426c.391-.227.708-.043.708.409v2.675a1.569,1.569,0,0,1-.708,1.228c-.392.226-.709.043-.709-.41v-2.674A1.563,1.563,0,0,1,482.867,258.426Z" transform="translate(-466.969 -258.329)" fill="#fff"/>
                <path id="Trazado_101182" data-name="Trazado 101182" d="M480.295,260.193c.392-.226.709-.043.709.409v2.341a1.563,1.563,0,0,1-.709,1.228c-.391.227-.708.044-.708-.409V261.42A1.567,1.567,0,0,1,480.295,260.193Z" transform="translate(-467.435 -258.008)" fill="#d4ecff"/>
                <path id="Trazado_101183" data-name="Trazado 101183" d="M477.724,259.468c.392-.227.709-.044.709.409v4.952a1.567,1.567,0,0,1-.709,1.228c-.391.226-.708.043-.708-.41V260.7A1.565,1.565,0,0,1,477.724,259.468Z" transform="translate(-467.902 -258.14)" fill="#ff2c9c"/>
                <path id="Trazado_101184" data-name="Trazado 101184" d="M475.153,258.537c.392-.226.709-.043.709.41v7.8a1.563,1.563,0,0,1-.709,1.228c-.391.226-.709.043-.709-.409v-7.8A1.57,1.57,0,0,1,475.153,258.537Z" transform="translate(-468.369 -258.309)" fill="#d4ecff"/>
                <path id="Trazado_101185" data-name="Trazado 101185" d="M472.582,260.714c.392-.226.709-.043.709.41v6.985a1.563,1.563,0,0,1-.709,1.228c-.391.227-.709.044-.709-.409v-6.986A1.57,1.57,0,0,1,472.582,260.714Z" transform="translate(-468.835 -257.913)" fill="#d4ecff"/>
                <path id="Trazado_101186" data-name="Trazado 101186" d="M470.011,264.9c.392-.226.709-.043.709.41V269.1a1.567,1.567,0,0,1-.709,1.228c-.391.226-.709.043-.709-.409v-3.795A1.57,1.57,0,0,1,470.011,264.9Z" transform="translate(-469.302 -257.154)" fill="#fff"/>
              </g>
              <path id="Trazado_101187" data-name="Trazado 101187" d="M482.168,257.467c0,.445.312.625.7.4a1.544,1.544,0,0,0,.7-1.207c0-.444-.313-.625-.7-.4A1.541,1.541,0,0,0,482.168,257.467Z" transform="translate(-466.967 -253.651)" fill="#ff2c9c"/>
              <path id="Trazado_101188" data-name="Trazado 101188" d="M482.168,255.34c0,.444.312.624.7.4a1.542,1.542,0,0,0,.7-1.207c0-.444-.313-.624-.7-.4A1.539,1.539,0,0,0,482.168,255.34Z" transform="translate(-466.967 -254.037)" fill="#fff"/>
            </g>
          </g>
        </g>
      </g>
    </g>
    <g id="Grupo_55032" data-name="Grupo 55032" transform="translate(426.708 127.323)">
      <g id="Grupo_55030" data-name="Grupo 55030" transform="translate(0)">
        <g id="Grupo_55028" data-name="Grupo 55028" transform="translate(76.871)">
          <path id="Trazado_101189" data-name="Trazado 101189" d="M506.95,169.912l-9.565-5.522,35.267-20.362c1.666-.962,1.666-2.526,0-3.488l-36.028-20.8a6.687,6.687,0,0,0-6.042,0L455.314,140.1l-9.565-5.523,35.267-20.362c6.94-4.006,18.233-4.006,25.173,0l36.028,20.8c6.94,4.008,6.94,10.527,0,14.533Z" transform="translate(-445.749 -111.211)" fill="url(#radial-gradient-6)"/>
        </g>
        <g id="Grupo_55029" data-name="Grupo 55029" transform="translate(0 10.143)">
          <path id="Trazado_101190" data-name="Trazado 101190" d="M533.905,170.785c0-5.113-3.109-11.054-6.945-13.268l-63.9-36.892a4.456,4.456,0,0,0-4.5-.384l0,0-76.293,44.334,73.778,55.595,75.164-43.626a3.468,3.468,0,0,0,.664-.385h0C533.129,175.205,533.905,173.341,533.905,170.785Z" transform="translate(-380.399 -119.796)" fill="url(#linear-gradient-4)"/>
          <path id="Trazado_101191" data-name="Trazado 101191" d="M446.2,213.47l75.164-43.626a3.467,3.467,0,0,0,.664-.385h0c1.255-.951,2.031-2.815,2.031-5.371a17.032,17.032,0,0,0-1.871-7.389l-85.68,49.467Z" transform="translate(-370.555 -113.098)" fill="#396caa"/>
          <path id="Trazado_101192" data-name="Trazado 101192" d="M451.528,213.222l-63.9-36.892c-3.835-2.214-6.944-8.155-6.944-13.268h0c0-5.113,3.108-7.465,6.944-5.251l63.9,36.892c3.835,2.214,6.945,8.155,6.945,13.268h0C458.472,213.085,455.363,215.436,451.528,213.222Z" transform="translate(-380.686 -113.048)" fill="url(#radial-gradient-7)"/>
          <path id="Trazado_101193" data-name="Trazado 101193" d="M451.818,194.407l-63.9-36.892c-1.763-1.017-3.368-1.061-4.592-.324a4.819,4.819,0,0,1,3.823.673l63.9,36.892c3.835,2.214,6.945,8.155,6.945,13.268h0c0,2.762-.912,4.708-2.351,5.573,1.879-.572,3.12-2.695,3.12-5.923h0C458.762,202.561,455.653,196.622,451.818,194.407Z" transform="translate(-380.207 -113.1)" fill="#fff"/>
        </g>
        <path id="Trazado_101194" data-name="Trazado 101194" d="M433.939,195.325l-7.683-4.432a3.312,3.312,0,0,1-1.384-2.644h0c0-1.02.619-1.487,1.384-1.047l7.683,4.432a3.314,3.314,0,0,1,1.384,2.644h0C435.322,195.3,434.7,195.767,433.939,195.325Z" transform="translate(-372.667 -97.45)" fill="#ff2c9c"/>
      </g>
      <g id="Grupo_55031" data-name="Grupo 55031" transform="translate(62.234 41.01)">
        <path id="Trazado_101195" data-name="Trazado 101195" d="M442.214,150.982c2.007-1.187,1.988-3.078-.045-4.224a8.085,8.085,0,0,0-7.315.077c-2.009,1.187-1.988,3.079.044,4.224A8.087,8.087,0,0,0,442.214,150.982Z" transform="translate(-433.361 -145.922)" fill="#5793ce"/>
        <path id="Trazado_101196" data-name="Trazado 101196" d="M451.649,156.3c2.009-1.187,1.988-3.079-.044-4.224a8.087,8.087,0,0,0-7.316.077c-2.007,1.187-1.988,3.078.045,4.224A8.085,8.085,0,0,0,451.649,156.3Z" transform="translate(-431.648 -144.957)" fill="#fff"/>
        <path id="Trazado_101197" data-name="Trazado 101197" d="M461.085,161.616c2.007-1.187,1.987-3.079-.045-4.224a8.085,8.085,0,0,0-7.315.077c-2.009,1.187-1.988,3.078.044,4.223A8.083,8.083,0,0,0,461.085,161.616Z" transform="translate(-429.936 -143.992)" fill="#fff"/>
      </g>
    </g>
    <path id="Trazado_101198" data-name="Trazado 101198" d="M172.948,320.588a6.745,6.745,0,0,1-3.417-.89c-2.417-1.4-3.749-4.211-3.749-7.928,0-7.113,4.825-15.47,10.984-19.027,3.221-1.858,6.322-2.114,8.742-.717s3.75,4.213,3.75,7.929c0,7.113-4.824,15.469-10.984,19.028A10.792,10.792,0,0,1,172.948,320.588Zm9.134-26.434a7.824,7.824,0,0,0-3.808,1.2c-5.227,3.016-9.48,10.382-9.48,16.417,0,2.595.8,4.484,2.245,5.319s3.482.58,5.728-.716c5.227-3.019,9.48-10.383,9.48-16.418,0-2.595-.8-4.485-2.246-5.32A3.793,3.793,0,0,0,182.082,294.153Z" transform="translate(7.021 48.765)" fill="#fff"/>
    <path id="Trazado_101199" data-name="Trazado 101199" d="M524.963,256.839a1.5,1.5,0,0,1-1.506-1.505v-19.3a1.509,1.509,0,0,1,.753-1.306l16.713-9.649a1.506,1.506,0,0,1,2.259,1.306v19.3a1.508,1.508,0,0,1-.753,1.3l-16.713,9.649A1.5,1.5,0,0,1,524.963,256.839Zm1.505-19.933v15.819l13.7-7.91V229Zm15.207,8.778h0Z" transform="translate(71.933 36.741)" fill="#fff"/>
    <path id="Trazado_101200" data-name="Trazado 101200" d="M304.943,298.989,261.48,273.9c-1.062-.613-.929-1.685.3-2.392L284.7,258.272a4.6,4.6,0,0,1,4.145-.171L332.3,283.194c1.062.613.929,1.684-.3,2.393l-22.917,13.231A4.609,4.609,0,0,1,304.943,298.989Z" transform="translate(24.258 42.695)" fill="#fff"/>
  </g>
</svg>
