<svg xmlns="http://www.w3.org/2000/svg" xmlns:xlink="http://www.w3.org/1999/xlink" width="1320" height="506.835" viewBox="0 0 1320 506.835">
  <defs>
    <linearGradient id="linear-gradient" y1="0.5" x2="0.786" y2="0.5" gradientUnits="objectBoundingBox">
      <stop offset="0" stop-color="#fff"/>
      <stop offset="1" stop-color="#d2e6ee"/>
    </linearGradient>
    <clipPath id="clip-path">
      <path id="Rectangle_652" data-name="Rectangle 652" d="M20.787,0H1299.213C1310.693,0,1320,8.4,1320,18.772V488.063c0,10.367-9.307,18.772-20.787,18.772H20.787C9.307,506.835,0,498.431,0,488.063V18.772C0,8.4,9.307,0,20.787,0Z" transform="translate(0 0)" fill="url(#linear-gradient)" style="mix-blend-mode: multiply;isolation: isolate"/>
    </clipPath>
    <clipPath id="clip-path-2">
      <path id="Trazado_100691" data-name="Trazado 100691" d="M1376.182-97.608a8.281,8.281,0,0,0-6.908,0c-1.433.755-1.789,1.864-1.068,2.8L1261.253-38.427l0,71.176L1235.2,46.485l0,77.418-89.254,47.054-13.907-7.332,68.825-36.284V84.9l-.273-.144L1122.335,43.5V29.112l44.253-23.33a8.4,8.4,0,0,0,6.306-.259c1.908-1.006,1.908-2.637,0-3.642a8.284,8.284,0,0,0-6.908,0c-1.72.907-1.874,2.318-.492,3.325l-44.253,23.331V44.08l.273.144,78.251,41.254v41.287l-52,27.415V136.5l23.84-12.568a8.394,8.394,0,0,0,6.306-.259c1.907-1.005,1.907-2.637,0-3.642a8.287,8.287,0,0,0-6.908,0c-1.72.907-1.875,2.318-.492,3.325l-23.839,12.569v18.833l-15.729,8.293-18.6-9.8V122.453l35.081-18.5V82.672l-.273-.145L1073.3,43.594c1.383-1.006,1.228-2.418-.492-3.324a8.282,8.282,0,0,0-6.908,0c-1.908,1.005-1.908,2.636,0,3.641a8.392,8.392,0,0,0,6.305.259l74.124,39.076v20.134L1112.343,121.3V100.075l-.273-.144-45.182-23.82c1.382-1.006,1.228-2.417-.492-3.325a8.284,8.284,0,0,0-6.908,0c-1.908,1.005-1.908,2.636,0,3.641a8.392,8.392,0,0,0,6.306.259l45.456,23.963v52.017l-13.063-6.887-21.524,11.347-19.5-10.278V121.876l-.273-.144-51.537-27.171V71.019a7.277,7.277,0,0,0,2.908-.727c1.908-1.006,1.908-2.636,0-3.642a8.287,8.287,0,0,0-6.908,0c-1.907,1.006-1.907,2.637,0,3.642a7.272,7.272,0,0,0,2.907.727V95.137l.273.145,51.538,27.171v23.821L972.2,102.054l0-46.874,45.49-23.982h41.747l.126-.066,71.633-37.765a8.39,8.39,0,0,0,6.306-.259c1.907-1.005,1.907-2.636,0-3.641a8.288,8.288,0,0,0-6.908,0c-1.72.907-1.875,2.318-.492,3.324L1059.141,30.2h-39.559l131.6-69.377a8.4,8.4,0,0,0,6.306-.259c1.907-1.005,1.907-2.637,0-3.642a8.288,8.288,0,0,0-6.908,0c-1.721.907-1.875,2.318-.492,3.325L971.1,54.6l0,48.026.273.145,104.193,54.93L1054.6,168.762,876.708,74.977V19.016l-.273-.144-60.5-31.893c1.383-1.007,1.228-2.418-.492-3.325a8.288,8.288,0,0,0-6.908,0c-1.907,1.005-1.907,2.636,0,3.642a8.394,8.394,0,0,0,6.306.259l60.769,32.036,0,55.961.273.145,177.617,93.64-19.966,10.526L857.618,87.117H752.706l-65.57-34.569,0-53.123a6.573,6.573,0,0,0,1.9-.609c1.907-1.005,1.907-2.637,0-3.642a8.288,8.288,0,0,0-6.908,0c-1.908,1.005-1.908,2.637,0,3.642a7.844,7.844,0,0,0,3.918.73l0,53.578.274.144,66.1,34.846H857.324l148.505,78.292H975.96l-50.684-26.72H886.233l-.126.067L831.962,168.3a8.394,8.394,0,0,0-6.306.259c-1.907,1.005-1.907,2.637,0,3.642a8.287,8.287,0,0,0,6.908,0c1.72-.908,1.875-2.318.491-3.325l53.474-28.19h38.453l50.686,26.72,32.056,0,24.721,13.034-53.289,28.094L964,200.544V179.577l-38.494-20.294c1.383-1.007,1.229-2.418-.491-3.325a8.287,8.287,0,0,0-6.908,0c-1.907,1.005-1.907,2.637,0,3.642a8.39,8.39,0,0,0,6.306.259l38.493,20.294v19.815l-41.05-21.642H902.418l-.126.067L879.116,190.61a8.394,8.394,0,0,0-6.306.259c-1.908,1.005-1.908,2.636,0,3.642a8.284,8.284,0,0,0,6.908,0c1.72-.907,1.875-2.318.491-3.325l22.5-11.863h18.852l56.5,29.786L967.8,214.522l32.755,17.268-15.335,8.085h-23.2l-16.6-8.748c1.323-1,1.145-2.391-.552-3.286a8.288,8.288,0,0,0-6.908,0c-1.908,1.006-1.908,2.637,0,3.642a8.381,8.381,0,0,0,6.382.227l17.383,9.164h21.6l-39.114,20.62-92.026-48.517-66.22,0-.126.067L748.555,232.7a8.39,8.39,0,0,0-6.306.259c-1.908,1.005-1.908,2.636,0,3.642a8.287,8.287,0,0,0,6.908,0c1.72-.908,1.875-2.319.492-3.325l36.611-19.3,65.63,0,70.979,37.419H892.486l-29.7-15.655c1.383-1.006,1.23-2.418-.49-3.325a8.29,8.29,0,0,0-6.909,0c-1.907,1.005-1.907,2.637,0,3.642a8.394,8.394,0,0,0,6.306.259l30.5,16.077h32.569l18.355,9.677L896.394,286.7H747.076l-116-61.156c1.383-1.007,1.229-2.418-.491-3.325a8.286,8.286,0,0,0-6.909,0c-1.907,1.005-1.907,2.636,0,3.642a8.4,8.4,0,0,0,6.307.259l116.8,61.579H894.5l-18.535,9.771-110.531,0-.126.067L710.8,326.277a8.4,8.4,0,0,0-6.307.259c-1.907,1.006-1.907,2.637,0,3.642a8.282,8.282,0,0,0,6.908,0c1.72-.907,1.875-2.318.492-3.325l53.837-28.382,110.531,0,.127-.067,125.26-66.037,13.908,7.332L883.86,309.126H787.549l-.126.067L671.09,370.525l-161.166,0L478.769,354.1v1.154l30.86,16.27,161.755,0,.126-.067,73-38.489,0,22.781-48.12,25.37a8.39,8.39,0,0,0-6.306.259c-1.908,1.005-1.908,2.636,0,3.641a8.288,8.288,0,0,0,6.908,0c1.72-.907,1.874-2.318.491-3.325l48.121-25.37,0-23.8h-.251l42.486-22.4h96.311l.126-.067,132.367-69.783,15.8,8.327L775.6,384.006v24.466H776.7v-23.89l256.839-135.4,19.518,10.29L920.568,329.316V341.8l-23.49,12.383v28.72l-45.552,24.015a8.39,8.39,0,0,0-6.306.259,2.679,2.679,0,0,0-1.32,1.292h9.525a2.283,2.283,0,0,0-.806-.976l45.553-24.014V354.763l22.4-11.808,0,45.991,13.219,6.969-23.818,12.557h2.186l22.725-11.981L957.6,408.473h2.187l-38.13-20.1,0-58.478,132.486-69.848,17.769,9.368-93.758,49.429a8.392,8.392,0,0,0-6.307.259c-1.907,1.006-1.907,2.637,0,3.642a8.287,8.287,0,0,0,6.908,0c1.72-.907,1.875-2.318.492-3.325l93.758-49.429,17.152,9.043L978.01,338.157h-30.48a2.667,2.667,0,0,0-1.337-1.321,8.287,8.287,0,0,0-6.908,0c-1.908,1.006-1.908,2.637,0,3.642a8.287,8.287,0,0,0,6.908,0,2.665,2.665,0,0,0,1.337-1.322H978.3l.127-.067,112.826-59.482,6.926,3.651,5.329-2.809,26.871,14.166v19.715l-22.2,11.7v-.054h-34.837l-.127.067L1034.991,346.2a8.388,8.388,0,0,0-6.306.26c-1.908,1.005-1.908,2.636,0,3.641a8.287,8.287,0,0,0,6.908,0c1.72-.908,1.874-2.319.49-3.326l37.553-19.8h32.75l-65.265,34.407a8.368,8.368,0,0,0-6.442.2c-1.908,1.005-1.908,2.636,0,3.641a8.284,8.284,0,0,0,6.909,0c1.678-.884,1.876-2.252.6-3.254l81.406-42.916v9.486l-48.433,25.534v18.028L1035.731,392.9a8.39,8.39,0,0,0-6.306.259c-1.908,1.006-1.908,2.637,0,3.642a8.287,8.287,0,0,0,6.908,0c1.721-.907,1.875-2.318.492-3.325l39.433-20.789V354.657l48.433-25.534V318.484l6.784-3.577V294.04L1104.6,279.873l17.659-9.31,55.294,29.15v33.14l-37.546,19.794a8.366,8.366,0,0,0-6.443.2c-1.907,1.005-1.907,2.636,0,3.642a8.285,8.285,0,0,0,6.908,0c1.678-.884,1.877-2.252.6-3.253l36.477-19.23v26.77l-28.818,15.193v32.5h1.094V376.544l27.724-14.616,0,46.545h1.094l0-109.335-55.295-29.151,19.83-10.454,72.267,38.1,0,90.738,34.739,18.314v1.788h1.094v-2.364l-34.738-18.314,0-90.738-72.268-38.1,14.7-7.747,97.532,51.417,0,77.42,53.92,28.426h2.187l-55.014-29,0-77.42-97.533-51.418,23.819-12.557,162.271,85.548v38.524l55.612,29.319v-1.153l-54.519-28.742,0-38.524-91.274-48.119h72.184l73.608,38.806v-1.153l-73.315-38.652h-74.371l-69.1-36.43,27.683-14.594,59.4,31.316h95.376l34.329,18.1v-1.152l-7.524-3.967h7.524v-1h-9.419l-24.617-12.978h-95.376l-16.621-8.763h40.548l.127-.067,20.34-10.723,84.739,0,.28.148v-1.147l-83.125,0,22.9-12.072a8.394,8.394,0,0,0,6.306-.259c1.907-1.005,1.907-2.636,0-3.641a8.281,8.281,0,0,0-6.908,0c-1.721.907-1.875,2.318-.491,3.325l-44.458,23.438H1253.84l-40.085-21.133,14.813-7.809-9.531-5.025h27.707l36.218,19.093c-1.384,1.007-1.229,2.419.491,3.326a8.287,8.287,0,0,0,6.908,0c1.907-1.006,1.908-2.637,0-3.642a8.392,8.392,0,0,0-6.305-.259L1247.037,208.5h-29.894l-20.271-10.687,12.466-6.572h22.113l19.439-10.248H1265.4l32.761,17.271c-1.47,1.01-1.349,2.457.4,3.381a8.287,8.287,0,0,0,6.908,0c1.907-1.005,1.907-2.636,0-3.641a8.41,8.41,0,0,0-6.2-.306l-33.581-17.7H1250.6l-19.44,10.249h-19.925l39.852-21.011H1272.6l44.854,23.647h84.313v-1l-84.02,0L1272.9,168.229h-22.1l-.127.067-54.885,28.937-14.4-7.593,62.019-32.7h43.744l36.087,19.025h78.54v-1l-78.247,0-34.194-18.027h112.441v-1H1243.105l-.127.067-62.694,33.052-16.361-8.626,86.484-45.594h151.361v-1h-110.3l110.3-58.151V74.542l-112.486,59.3H1251.2l82-43.229V81.087L1372.437,60.4a8.394,8.394,0,0,0,6.306-.259c1.907-1.006,1.907-2.636,0-3.642a8.284,8.284,0,0,0-6.908,0c-1.72.906-1.875,2.317-.492,3.324l-21.365,11.263V44.979l51.789-27.3V16.523L1348.886,44.4V71.666l-16.777,8.845v9.528l-82.67,43.583.274.434-86.884,45.8-15.8-8.327,89.254-47.055,0-77.418,165.479-87.24v-1.153l-139.424,73.5V-37.851l106.709-56.257c.076.046.135.1.219.141a8.287,8.287,0,0,0,6.908,0C1378.089-94.972,1378.089-96.6,1376.182-97.608Zm-149.8,312.126-128.2,67.588-128.2-67.585,128.2-67.588Z" transform="translate(22.564 116.062)" fill="#12263f" opacity="0.1"/>
    </clipPath>
  </defs>
  <g id="Grupo_88173" data-name="Grupo 88173" transform="translate(-104.333 -77.721)">
    <g id="Grupo_53755" data-name="Grupo 53755" transform="translate(-36 7.721)">
      <g id="Enmascarar_grupo_42" data-name="Enmascarar grupo 42" transform="translate(140.333 70)" clip-path="url(#clip-path)">
        <g id="Grupo_53334" data-name="Grupo 53334" transform="translate(-435.496 -173.794)">
          <g id="Background" transform="translate(0 0)">
            <g id="BG_Image" data-name="BG Image">
              <path id="BG_Image-2" data-name="BG Image" d="M0,0H2042.362V723.614H0Z" fill="#4dd0e1"/>
            </g>
          </g>
        </g>
      </g>
    </g>
    <g id="Enmascarar_grupo_44" data-name="Enmascarar grupo 44" transform="translate(0 60.021)" opacity="0.3" clip-path="url(#clip-path-2)">
      <rect id="Rectángulo_5143" data-name="Rectángulo 5143" width="691.727" height="420.265" rx="20" transform="translate(680.165 61.053)" fill="#fd2424" opacity="0.2"/>
    </g>
  </g>
</svg>
