<svg xmlns="http://www.w3.org/2000/svg" xmlns:xlink="http://www.w3.org/1999/xlink" width="341.296" height="335.7" viewBox="0 0 341.296 335.7">
  <defs>
    <linearGradient id="linear-gradient" x1="0.206" y1="0.085" x2="0.554" y2="0.633" gradientUnits="objectBoundingBox">
      <stop offset="0" stop-color="#aa80f9"/>
      <stop offset="0.996" stop-color="#6165d7"/>
    </linearGradient>
    <clipPath id="clip-path">
      <path id="Trazado_116515" data-name="Trazado 116515" d="M103.409,2379.686c12.557-9.169,14.456-32.7,11.1-48.412-3.922-18.349-13.437-18.685-15.377-33.193-3.613-27.011,27.89-36.921,26.408-64.449-1.212-22.5-22.726-24.42-22.934-49.4-.15-18.027,10.979-25.693,5.678-41.341-.454-1.338-5.548-15.694-17.929-18.872-12.5-3.207-25.1,6.849-31.292,14.886-11.437,14.857-2.635,25.032-9.73,47.619-9.659,30.751-31.691,30.094-34.123,54.207-2.009,19.912,12.552,24.953,9.887,46.986-2.475,20.46-15.93,23.549-16.276,37.473C8.02,2357.22,77.8,2398.389,103.409,2379.686Z" fill="url(#linear-gradient)"/>
    </clipPath>
    <linearGradient id="linear-gradient-3" x1="16.652" y1="6.511" x2="17.08" y2="8.573" gradientUnits="objectBoundingBox">
      <stop offset="0.004" stop-color="#76ace3"/>
      <stop offset="1" stop-color="#1ca1f6"/>
    </linearGradient>
    <clipPath id="clip-path-2">
      <path id="Trazado_116522" data-name="Trazado 116522" d="M25.124,2412.369c-2.63-.534-7.883-4.015-8.878-5.487-6.623-9.8-20.214-27.331-18.586-39.724.278-2.117,9.919-3.408,11.391-5.263,5.947-2.315,8.154-2.75,12.727-7.728,13.5-14.7-12.633-45.994,20.958-53.922,24.605-5.807,44.334,3.943,44.429-33.6s34.607-103.487,72.181-74.595c21.564,16.581-3.7,46.7,6.266,70.965,9.469,23.061-1.287,40.714-25.9,52.378s-12.716,22.844-7.362,44.5c6.432,26.011-32.991,27.706-51.259,26.935C66.381,2386.206,28.5,2394.552,25.124,2412.369Z" fill="none"/>
    </clipPath>
    <linearGradient id="linear-gradient-4" x1="65.022" y1="6.403" x2="63.236" y2="5.326" gradientUnits="objectBoundingBox">
      <stop offset="0" stop-color="#5899ff"/>
      <stop offset="1" stop-color="#62c6fb"/>
    </linearGradient>
    <linearGradient id="linear-gradient-5" x1="71.508" y1="5.419" x2="71.211" y2="7.115" xlink:href="#linear-gradient-4"/>
    <linearGradient id="linear-gradient-6" x1="304.04" y1="11.446" x2="305.686" y2="16.083" xlink:href="#linear-gradient-3"/>
    <linearGradient id="linear-gradient-7" x1="312.868" y1="12.455" x2="314.529" y2="17.52" xlink:href="#linear-gradient-3"/>
    <linearGradient id="linear-gradient-8" x1="184.386" y1="24.149" x2="185.366" y2="32.599" xlink:href="#linear-gradient-3"/>
    <linearGradient id="linear-gradient-9" x1="205.537" y1="12.89" x2="206.663" y2="17.761" xlink:href="#linear-gradient-3"/>
    <linearGradient id="linear-gradient-10" x1="192.362" y1="11.22" x2="193.365" y2="16.462" gradientUnits="objectBoundingBox">
      <stop offset="0" stop-color="#ffc444"/>
      <stop offset="0.996" stop-color="#f36f56"/>
    </linearGradient>
    <linearGradient id="linear-gradient-11" x1="180.705" y1="16.75" x2="181.639" y2="24.815" xlink:href="#linear-gradient-10"/>
    <linearGradient id="linear-gradient-12" x1="244.198" y1="11.082" x2="245.477" y2="15.928" xlink:href="#linear-gradient-3"/>
    <linearGradient id="linear-gradient-13" x1="193.08" y1="10.546" x2="194.119" y2="15.232" xlink:href="#linear-gradient-10"/>
    <linearGradient id="linear-gradient-14" x1="174.258" y1="12.421" x2="175.163" y2="18.174" xlink:href="#linear-gradient-10"/>
    <linearGradient id="linear-gradient-15" x1="191.896" y1="15.91" x2="192.902" y2="21.491" xlink:href="#linear-gradient-3"/>
    <linearGradient id="linear-gradient-16" x1="174.407" y1="15.939" x2="175.364" y2="21.716" xlink:href="#linear-gradient-3"/>
    <linearGradient id="linear-gradient-17" x1="210.621" y1="13.388" x2="211.787" y2="18.639" xlink:href="#linear-gradient-3"/>
    <linearGradient id="linear-gradient-18" x1="-0.281" y1="2.252" x2="1.518" y2="-1.782" gradientUnits="objectBoundingBox">
      <stop offset="0" stop-color="#2d708c"/>
      <stop offset="0.996" stop-color="#13394f"/>
    </linearGradient>
    <linearGradient id="linear-gradient-19" y1="0.5" x2="1" y2="0.5" gradientUnits="objectBoundingBox">
      <stop offset="0.494" stop-color="#ebeff2"/>
      <stop offset="1" stop-color="#fff"/>
    </linearGradient>
    <linearGradient id="linear-gradient-20" x1="2.504" y1="0.054" x2="1.698" y2="0.979" xlink:href="#linear-gradient-10"/>
    <linearGradient id="linear-gradient-21" x1="0.33" y1="0.499" x2="2.948" y2="0.525" xlink:href="#linear-gradient-10"/>
    <linearGradient id="linear-gradient-22" x1="56.156" y1="-2.41" x2="56.336" y2="2.649" gradientUnits="objectBoundingBox">
      <stop offset="0.004" stop-color="#26264f"/>
      <stop offset="1" stop-color="#444b8c"/>
    </linearGradient>
    <linearGradient id="linear-gradient-23" x1="208.168" y1="1.152" x2="208.047" y2="-5.07" gradientUnits="objectBoundingBox">
      <stop offset="0" stop-color="#893976"/>
      <stop offset="1" stop-color="#311944"/>
    </linearGradient>
    <linearGradient id="linear-gradient-24" x1="88.568" y1="-1.485" x2="88.853" y2="1.472" xlink:href="#linear-gradient-22"/>
    <linearGradient id="linear-gradient-25" x1="147.931" y1="1.353" x2="147.845" y2="-3.032" xlink:href="#linear-gradient-23"/>
    <linearGradient id="linear-gradient-26" x1="0.979" y1="2.44" x2="0.476" y2="0.123" gradientUnits="objectBoundingBox">
      <stop offset="0" stop-color="#311944"/>
      <stop offset="0.741" stop-color="#5c3169"/>
      <stop offset="1" stop-color="#6b3976"/>
    </linearGradient>
    <linearGradient id="linear-gradient-27" y1="0.5" x2="1" y2="0.5" gradientUnits="objectBoundingBox">
      <stop offset="0" stop-color="#ff9085"/>
      <stop offset="1" stop-color="#fb6fbb"/>
    </linearGradient>
    <linearGradient id="linear-gradient-28" x1="0.716" y1="2.493" x2="0.467" y2="0.13" xlink:href="#linear-gradient-26"/>
    <linearGradient id="linear-gradient-29" x1="0.19" y1="2.611" x2="0.571" y2="3.067" xlink:href="#linear-gradient-22"/>
    <linearGradient id="linear-gradient-30" x1="2.386" y1="1.212" x2="1.98" y2="1.81" gradientUnits="objectBoundingBox">
      <stop offset="0.004" stop-color="#6165d7"/>
      <stop offset="1" stop-color="#aa80f9"/>
    </linearGradient>
    <linearGradient id="linear-gradient-31" x1="0" y1="0.5" x2="1" y2="0.5" xlink:href="#linear-gradient-4"/>
    <linearGradient id="linear-gradient-32" x1="6.711" y1="5.106" x2="6.301" y2="8.134" xlink:href="#linear-gradient-22"/>
    <linearGradient id="linear-gradient-34" x1="4.609" y1="4.768" x2="5.635" y2="4.768" xlink:href="#linear-gradient-23"/>
    <linearGradient id="linear-gradient-35" x1="13.392" y1="-20.776" x2="14.082" y2="-22.535" xlink:href="#linear-gradient-23"/>
    <linearGradient id="linear-gradient-36" x1="44.216" y1="-36.648" x2="47.918" y2="-38.622" xlink:href="#linear-gradient-23"/>
    <linearGradient id="linear-gradient-37" x1="0.319" y1="-0.013" x2="0.693" y2="0.811" xlink:href="#linear-gradient-23"/>
  </defs>
  <g id="Data_entry_services" data-name="Data entry services" transform="translate(170.648 -2096.427)">
    <path id="Trazado_116508" data-name="Trazado 116508" d="M-85.415,2116.6c-11.321,16.208,1.954,42.484-14.846,54.674-16.353,11.865-36.442-7.584-51.854,2.63-22.862,15.151-18.687,84.482,14.739,127.559,10.052,12.954,18.452,17.995,22.172,32.646,7.988,31.459-20.086,50.173-14.744,65.733,12.029,35.034,197.028,64.431,271.258-40.857,34.668-49.174,39.855-120.182,8.88-174.113C94.219,2087.423-60.011,2080.237-85.415,2116.6Z" fill="#f4f7fa"/>
    <g id="Grupo_88123" data-name="Grupo 88123" opacity="0.4" style="mix-blend-mode: soft-light;isolation: isolate">
      <path id="Trazado_116509" data-name="Trazado 116509" d="M103.409,2379.686c12.557-9.169,14.456-32.7,11.1-48.412-3.922-18.349-13.437-18.685-15.377-33.193-3.613-27.011,27.89-36.921,26.408-64.449-1.212-22.5-22.726-24.42-22.934-49.4-.15-18.027,10.979-25.693,5.678-41.341-.454-1.338-5.548-15.694-17.929-18.872-12.5-3.207-25.1,6.849-31.292,14.886-11.437,14.857-2.635,25.032-9.73,47.619-9.659,30.751-31.691,30.094-34.123,54.207-2.009,19.912,12.552,24.953,9.887,46.986-2.475,20.46-15.93,23.549-16.276,37.473C8.02,2357.22,77.8,2398.389,103.409,2379.686Z" fill="url(#linear-gradient)"/>
      <g id="Grupo_88122" data-name="Grupo 88122" clip-path="url(#clip-path)">
        <g id="Grupo_88121" data-name="Grupo 88121">
          <g id="Grupo_88116" data-name="Grupo 88116">
            <path id="Trazado_116510" data-name="Trazado 116510" d="M85.328,2394.845a.275.275,0,0,1-.132-.035,92.178,92.178,0,0,1-29.9-26.793c-7.426-10.41-15.1-21.173-14.715-34.767.295-10.327,5.019-15.927,11-23.018,5.733-6.8,12.867-15.255,17.708-30.795,2.764-8.872,6.2-19.911,3.205-33.029-1.742-7.622-4.8-11.9-7.5-15.671-2.8-3.911-5.213-7.289-4.856-13.135.575-9.406,5.51-15.5,11.224-22.559a93.232,93.232,0,0,0,10.211-14.5c8.8-16.184,8.706-37.772-.291-64.162a.267.267,0,1,1,.505-.172c9.047,26.537,9.133,48.268.256,64.589a93.721,93.721,0,0,1-10.266,14.583c-5.657,6.986-10.542,13.02-11.106,22.256-.345,5.657,1.907,8.8,4.758,12.792,2.727,3.813,5.819,8.136,7.584,15.862,3.03,13.258-.432,24.374-3.214,33.3-4.874,15.644-12.047,24.149-17.811,30.982-5.913,7.011-10.584,12.549-10.874,22.689-.384,13.414,7.241,24.1,14.615,34.441a91.641,91.641,0,0,0,29.73,26.639.268.268,0,0,1-.132.5Z" fill="#fff"/>
          </g>
          <g id="Grupo_88117" data-name="Grupo 88117">
            <path id="Trazado_116511" data-name="Trazado 116511" d="M73.744,2252.929a.267.267,0,0,1-.181-.463c15.181-14,25.365-41.321,31.45-57.643,3.383-9.072,4.814-12.744,5.949-12.554.55.092.934.863,1.02,4.324a.267.267,0,0,1-.261.273.275.275,0,0,1-.273-.26c-.089-3.625-.525-3.8-.575-3.81-.743-.134-3.1,6.148-5.359,12.214-6.1,16.366-16.314,43.758-31.589,57.848A.266.266,0,0,1,73.744,2252.929Z" fill="#fff"/>
          </g>
          <g id="Grupo_88118" data-name="Grupo 88118">
            <path id="Trazado_116512" data-name="Trazado 116512" d="M64.647,2292.108a.269.269,0,0,1-.166-.057c-11.4-9.019-20.126-19.313-25.929-30.6a77.077,77.077,0,0,1-8.3-28.777c-1.473-17.135,3.232-29.609,3.28-29.733a.267.267,0,0,1,.5.191c-.048.123-4.713,12.5-3.245,29.521a76.547,76.547,0,0,0,8.251,28.569c5.767,11.211,14.439,21.442,25.777,30.409a.266.266,0,0,1-.165.476Z" fill="#fff"/>
          </g>
          <g id="Grupo_88119" data-name="Grupo 88119">
            <path id="Trazado_116513" data-name="Trazado 116513" d="M47.216,2356.878a.267.267,0,0,1-.079-.522c29.679-9.222,44.986-25.366,52.6-37.285,8.25-12.915,9.5-23.793,9.512-23.9a.269.269,0,0,1,.294-.237.266.266,0,0,1,.237.294c-.011.109-1.269,11.089-9.577,24.106-7.661,12-23.059,28.259-52.908,37.533A.274.274,0,0,1,47.216,2356.878Z" fill="#fff"/>
          </g>
          <g id="Grupo_88120" data-name="Grupo 88120">
            <path id="Trazado_116514" data-name="Trazado 116514" d="M82.758,2177.889a.267.267,0,0,1-.194-.083c-17.285-18.157-19.66-37.348-18.608-50.25a66,66,0,0,1,6.494-23.893.267.267,0,1,1,.468.256,65.464,65.464,0,0,0-6.432,23.7c-1.037,12.788,1.323,31.81,18.465,49.817a.267.267,0,0,1-.193.451Z" fill="#fff"/>
          </g>
        </g>
      </g>
    </g>
    <g id="Grupo_88128" data-name="Grupo 88128">
      <path id="Trazado_116516" data-name="Trazado 116516" d="M25.159,2412.456c-2.631-.534-7.884-4.015-8.879-5.487-6.622-9.8-20.213-27.331-18.586-39.725.278-2.117,9.92-3.407,11.391-5.263,5.948-2.315,8.154-2.749,12.727-7.728,13.5-14.7-12.632-45.994,20.959-53.922,24.6-5.807,44.333,3.943,44.428-33.6s34.608-103.486,72.182-74.595c21.564,16.581-3.7,46.7,6.266,70.966,9.469,23.061-1.287,40.714-25.9,52.377s-12.716,22.844-7.361,44.5c6.431,26.01-32.992,27.705-51.259,26.935C66.416,2386.293,28.54,2394.638,25.159,2412.456Z" fill="url(#linear-gradient-3)"/>
      <g id="Grupo_88127" data-name="Grupo 88127" opacity="0.4" style="mix-blend-mode: soft-light;isolation: isolate">
        <g id="Grupo_88126" data-name="Grupo 88126" clip-path="url(#clip-path-2)">
          <g id="Grupo_88125" data-name="Grupo 88125">
            <g id="Grupo_88124" data-name="Grupo 88124">
              <path id="Trazado_116517" data-name="Trazado 116517" d="M7.208,2388.116l-.213-.529c81.6-32.758,134.922-110.379,142.637-207.637l.569.045c-3.656,46.093-18.159,89.411-41.939,125.27C83.261,2342.964,48.317,2371.613,7.208,2388.116Z" fill="#fcfdfe"/>
              <path id="Trazado_116518" data-name="Trazado 116518" d="M136.263,2370.4c-22.255-9.115-60.364-12.058-84.95-6.559l.9-.654c24.683-5.521,61.925-2.468,84.272,6.685Z" fill="#fcfdfe"/>
              <path id="Trazado_116519" data-name="Trazado 116519" d="M24.4,2380.259l-1.595.793c10.325-8.056,16.181-21.022,17.405-38.537.9-12.844-.671-27.789-4.66-44.422l.555-.132c4,16.689,5.576,31.692,4.674,44.593C39.54,2360.239,34.854,2372.1,24.4,2380.259Z" fill="#fcfdfe"/>
              <path id="Trazado_116520" data-name="Trazado 116520" d="M112.435,2298.47c.123.1-1.108,1.773-.992,1.865.041-.033,1.433-1.651,1.474-1.684,18.418-15.038,43.2-17.472,61.037-17.012l.015-.571C156.028,2280.606,130.994,2283.3,112.435,2298.47Z" fill="#fcfdfe"/>
              <path id="Trazado_116521" data-name="Trazado 116521" d="M135.829,2249.069l-.6.738.159-.633a3.776,3.776,0,0,0,.074-.379c3.9-27.483-10.235-52.95-19.026-65.7l.47-.324C125.76,2195.619,139.855,2221.319,135.829,2249.069Z" fill="#fcfdfe"/>
            </g>
          </g>
        </g>
      </g>
    </g>
    <g id="Grupo_88132" data-name="Grupo 88132">
      <path id="Trazado_116523" data-name="Trazado 116523" d="M-84.5,2206.99l-3.1-2.687a31.837,31.837,0,0,0,2.4-5.044l4.013.775a2.014,2.014,0,0,0,2.357-1.619l1.294-6.922a2.052,2.052,0,0,0-1.609-2.4l-4.058-.794a32.73,32.73,0,0,0-.428-5.59l3.911-1.365a2.047,2.047,0,0,0,1.24-2.607l-2.312-6.716a2.038,2.038,0,0,0-2.586-1.283l-3.929,1.364a32.7,32.7,0,0,0-3.15-4.67l2.726-3.2a2.093,2.093,0,0,0-.22-2.917L-93.3,2156.6a2.018,2.018,0,0,0-2.882.188L-98.92,2160a32.4,32.4,0,0,0-5.043-2.524l.764-4.178a2.12,2.12,0,0,0-1.647-2.452l-6.99-1.422a2.022,2.022,0,0,0-2.4,1.634l-.758,4.184a32.237,32.237,0,0,0-5.624.356l-1.425-4.04a2.1,2.1,0,0,0-2.647-1.314l-6.738,2.307a2.056,2.056,0,0,0-1.249,2.652l1.422,4a31.562,31.562,0,0,0-4.679,3.181l-3.21-2.784a2.065,2.065,0,0,0-2.932.192l-4.63,5.429a2.1,2.1,0,0,0,.255,2.948l3.193,2.753a31.754,31.754,0,0,0-2.453,5.148l-4.081-.8a2.038,2.038,0,0,0-2.414,1.644l-1.247,7.056a2.121,2.121,0,0,0,1.69,2.437l4.058.784a32.892,32.892,0,0,0,.489,5.723l-3.858,1.34a2.04,2.04,0,0,0-1.242,2.635l2.453,6.743a2.1,2.1,0,0,0,2.655,1.269l3.818-1.332a32.7,32.7,0,0,0,3.289,4.719l-2.615,3.067a2.052,2.052,0,0,0,.25,2.9l5.443,4.614a2.06,2.06,0,0,0,2.9-.222l2.607-3.057a32.348,32.348,0,0,0,5.147,2.465l-.714,3.942a2.055,2.055,0,0,0,1.651,2.38l6.942,1.288a2.03,2.03,0,0,0,2.371-1.629l.724-3.96a32.311,32.311,0,0,0,5.618-.442l1.352,3.8a2.035,2.035,0,0,0,2.594,1.24l6.6-2.335a2.03,2.03,0,0,0,1.233-2.59l-1.346-3.82a31.579,31.579,0,0,0,4.593-3.187l3.08,2.656a2.013,2.013,0,0,0,2.849-.218l4.538-5.322A2.046,2.046,0,0,0-84.5,2206.99Zm-17.338-34.874a20.937,20.937,0,0,1,2.292,29.288,20.592,20.592,0,0,1-29.1,2.145,20.93,20.93,0,0,1-2.465-29.438A20.585,20.585,0,0,1-101.84,2172.116Z" fill="url(#linear-gradient-4)"/>
      <g id="Grupo_88131" data-name="Grupo 88131">
        <path id="Trazado_116524" data-name="Trazado 116524" d="M2.123,2174.706l-2.758-2.485a27.871,27.871,0,0,0,2.106-4.489l3.561.787a1.728,1.728,0,0,0,2.081-1.405l1.121-6.206a1.913,1.913,0,0,0-1.435-2.2l-3.6-.812a30.387,30.387,0,0,0-.4-5.058l3.465-1.139a1.8,1.8,0,0,0,1.091-2.325l-2.079-6.13a1.862,1.862,0,0,0-2.3-1.227l-3.486,1.137a31.15,31.15,0,0,0-2.826-4.312l2.413-2.829a1.936,1.936,0,0,0-.21-2.652l-4.791-4.429a1.771,1.771,0,0,0-2.57.094l-2.424,2.842a29.934,29.934,0,0,0-4.519-2.428l.658-3.783a2.009,2.009,0,0,0-1.487-2.277l-6.267-1.488a1.74,1.74,0,0,0-2.139,1.424l-.651,3.794a28.3,28.3,0,0,0-5.042.173l-1.308-3.724a1.955,1.955,0,0,0-2.387-1.272l-6.041,1.923a1.818,1.818,0,0,0-1.1,2.387l1.312,3.691a26.777,26.777,0,0,0-4.182,2.778l-2.913-2.626a1.835,1.835,0,0,0-2.64.1l-4.123,4.835a1.949,1.949,0,0,0,.257,2.7l2.9,2.592a27.916,27.916,0,0,0-2.161,4.628l-3.684-.83a1.762,1.762,0,0,0-2.16,1.438l-1.054,6.4a2.011,2.011,0,0,0,1.546,2.258l3.662.809a30.471,30.471,0,0,0,.493,5.212l-3.458,1.128a1.794,1.794,0,0,0-1.091,2.364l2.271,6.173a1.948,1.948,0,0,0,2.4,1.209l3.416-1.122a31.181,31.181,0,0,0,2.993,4.345l-2.317,2.718a1.88,1.88,0,0,0,.251,2.626l4.916,4.281a1.821,1.821,0,0,0,2.591-.14l2.307-2.705a29.936,29.936,0,0,0,4.62,2.332l-.607,3.539a1.916,1.916,0,0,0,1.492,2.178l6.2,1.3a1.75,1.75,0,0,0,2.1-1.419l.618-3.55a28.181,28.181,0,0,0,5-.283l1.227,3.45a1.855,1.855,0,0,0,2.313,1.166l5.848-1.966a1.782,1.782,0,0,0,1.081-2.3L-11,2182.433a26.856,26.856,0,0,0,4.061-2.771l2.746,2.453a1.759,1.759,0,0,0,2.524-.136l4-4.688A1.871,1.871,0,0,0,2.123,2174.706ZM-13.465,2142.8c7.747,7.064,8.7,18.923,2.2,26.546s-18.087,8.227-25.944,1.291c-7.93-7-9.055-19.008-2.444-26.76S-21.285,2135.669-13.465,2142.8Z" fill="url(#linear-gradient-5)"/>
        <g id="Grupo_88130" data-name="Grupo 88130">
          <path id="Trazado_116525" data-name="Trazado 116525" d="M10.685,2114.48c-23.577-22.219-59.715-21.325-80.1,2.579s-16.439,60.762,8.166,81.774c23.921,20.428,58.532,18.162,77.9-4.551S33.6,2136.081,10.685,2114.48Zm-63.332,74.268c-18.565-16.043-21.418-43.958-6-62.032s42.764-18.889,60.735-2.15c17.589,16.383,19.558,43.505,4.732,60.89S-34.477,2204.449-52.647,2188.748Z" fill="#fff" opacity="0.74"/>
          <g id="Grupo_88129" data-name="Grupo 88129">
            <path id="Trazado_116526" data-name="Trazado 116526" d="M-67.827,2145.969l-13.742-3.074a58.975,58.975,0,0,0,2.029,28.6l12.921-4.22A44.774,44.774,0,0,1-67.827,2145.969Z" fill="url(#linear-gradient-6)"/>
            <path id="Trazado_116527" data-name="Trazado 116527" d="M16.541,2162.255l12.762,2.868a59.251,59.251,0,0,0-2.627-25.6L14.35,2143.56A45.122,45.122,0,0,1,16.541,2162.255Z" fill="url(#linear-gradient-7)"/>
            <path id="Trazado_116528" data-name="Trazado 116528" d="M-36.611,2113.531a42.056,42.056,0,0,1,18.854.271l2.362-13.667a55.263,55.263,0,0,0-26-.2Z" fill="url(#linear-gradient-8)"/>
            <path id="Trazado_116529" data-name="Trazado 116529" d="M-58.651,2126.716c.329-.387.672-.755,1.013-1.126l-10.77-9.676q-.509.564-1.006,1.145a54.337,54.337,0,0,0-11.63,23.264l13.789,3.1A41.286,41.286,0,0,1-58.651,2126.716Z" fill="url(#linear-gradient-9)"/>
            <path id="Trazado_116530" data-name="Trazado 116530" d="M6.816,2185.456a39.924,39.924,0,0,1-14.361,10.695l4.426,12.58a52.489,52.489,0,0,0,19.772-14.449q.471-.553.925-1.116l-9.844-8.844C7.432,2184.7,7.133,2185.084,6.816,2185.456Z" opacity="0.25" fill="url(#linear-gradient-10)"/>
            <path id="Trazado_116531" data-name="Trazado 116531" d="M-9.831,2197.082a41.458,41.458,0,0,1-20.107,2.089l-2.266,13.065a54.564,54.564,0,0,0,26.8-2.612Z" opacity="0.25" fill="url(#linear-gradient-11)"/>
            <path id="Trazado_116532" data-name="Trazado 116532" d="M16.232,2164.773a41.7,41.7,0,0,1-7.016,17.569l9.859,8.878a54.714,54.714,0,0,0,9.875-23.6Z" fill="url(#linear-gradient-12)"/>
            <path id="Trazado_116533" data-name="Trazado 116533" d="M-53.618,2187.867a45.992,45.992,0,0,1-12.154-18.085L-78.662,2174a60.507,60.507,0,0,0,16.428,23.97Z" opacity="0.25" fill="url(#linear-gradient-13)"/>
            <path id="Trazado_116534" data-name="Trazado 116534" d="M-32.435,2198.738a44.188,44.188,0,0,1-19.2-9.159l-8.606,10.092a58.126,58.126,0,0,0,25.55,12.13Z" opacity="0.25" fill="url(#linear-gradient-14)"/>
            <path id="Trazado_116535" data-name="Trazado 116535" d="M-15.253,2114.488A44.585,44.585,0,0,1,1.1,2123.7l8.616-10.1a58.64,58.64,0,0,0-22.6-12.772Z" fill="url(#linear-gradient-15)"/>
            <path id="Trazado_116536" data-name="Trazado 116536" d="M-55.85,2123.754a39.841,39.841,0,0,1,16.752-9.607l-4.787-13.565a52.386,52.386,0,0,0-22.749,13.462Z" fill="url(#linear-gradient-16)"/>
            <path id="Trazado_116537" data-name="Trazado 116537" d="M3.022,2125.482a46.052,46.052,0,0,1,10.431,15.639l12.355-4.035a60.547,60.547,0,0,0-14.18-21.695Z" fill="url(#linear-gradient-17)"/>
          </g>
        </g>
      </g>
      <path id="Trazado_116538" data-name="Trazado 116538" d="M-90.754,2133.892l-1.387-1.163a13.022,13.022,0,0,0,1-2.154l1.768.346a.851.851,0,0,0,1.016-.686l.492-2.962a.913.913,0,0,0-.732-1.031l-1.787-.353a13.824,13.824,0,0,0-.248-2.4l1.7-.572a.846.846,0,0,0,.515-1.112l-1.086-2.88a.926.926,0,0,0-1.147-.556l-1.7.572a14.6,14.6,0,0,0-1.429-2l1.159-1.359a.885.885,0,0,0-.128-1.247l-2.39-2.029a.891.891,0,0,0-1.257.074l-1.161,1.361a14.9,14.9,0,0,0-2.229-1.09l.29-1.78a.935.935,0,0,0-.745-1.049l-3.064-.622a.852.852,0,0,0-1.029.69l-.288,1.782a14.182,14.182,0,0,0-2.449.138l-.661-1.725a.947.947,0,0,0-1.166-.566l-2.911.967a.848.848,0,0,0-.518,1.126l.659,1.708a13.236,13.236,0,0,0-2.006,1.343l-1.424-1.194a.91.91,0,0,0-1.274.074l-1.961,2.3a.887.887,0,0,0,.139,1.256l1.415,1.182a13.026,13.026,0,0,0-1.018,2.188l-1.783-.353a.858.858,0,0,0-1.034.694l-.476,3a.937.937,0,0,0,.758,1.044l1.774.347a13.915,13.915,0,0,0,.267,2.445l-1.667.559a.843.843,0,0,0-.515,1.121l1.131,2.889a.946.946,0,0,0,1.169.551l1.65-.556a14.648,14.648,0,0,0,1.48,2.03l-1.111,1.3a.874.874,0,0,0,.138,1.241l2.418,1.995a.906.906,0,0,0,1.263-.084l1.108-1.3a14.811,14.811,0,0,0,2.272,1.075l-.273,1.687a.915.915,0,0,0,.745,1.026l3.048.58a.854.854,0,0,0,1.02-.689l.276-1.7a14.371,14.371,0,0,0,2.454-.168l.631,1.637a.923.923,0,0,0,1.148.542l2.866-.976a.839.839,0,0,0,.513-1.106l-.63-1.644a13.148,13.148,0,0,0,1.978-1.35l1.379,1.151a.89.89,0,0,0,1.246-.082l1.933-2.267A.871.871,0,0,0-90.754,2133.892Zm-7.96-14.983a8.877,8.877,0,0,1,1.309,12.536,9.078,9.078,0,0,1-12.695.816,8.877,8.877,0,0,1-1.366-12.583A9.079,9.079,0,0,1-98.714,2118.909Z" fill="url(#linear-gradient-18)"/>
    </g>
    <g id="Grupo_88136" data-name="Grupo 88136">
      <g id="Grupo_88135" data-name="Grupo 88135">
        <path id="Trazado_116539" data-name="Trazado 116539" d="M135.653,2398.855l-299.063-2.585v7.649a4.06,4.06,0,0,0,3.071,4.155l84.566,15.062a11.7,11.7,0,0,0,3.034.141L132.4,2406.1a3.87,3.87,0,0,0,3.25-4.057Z" fill="#bfc8d6"/>
        <g id="Grupo_88134" data-name="Grupo 88134">
          <path id="Trazado_116540" data-name="Trazado 116540" d="M25.6,2386.6l-190.078,13.993a5.761,5.761,0,0,1-6.167-5.943V2253.1a6.289,6.289,0,0,1,6.167-6.4l6.724,3.876L25.6,2246.7c2.8,0,5.068,2.59,5.068,5.783v127.955C30.665,2383.635,28.4,2386.391,25.6,2386.6Z" fill="#bfc8d6"/>
          <path id="Trazado_116541" data-name="Trazado 116541" d="M28.628,2386.6-161.45,2400.59a5.761,5.761,0,0,1-6.167-5.943V2253.1a6.289,6.289,0,0,1,6.167-6.4H28.628c2.8,0,5.068,2.59,5.068,5.783v127.955C33.7,2383.635,31.43,2386.391,28.628,2386.6Z" fill="#fff"/>
          <path id="Trazado_116542" data-name="Trazado 116542" d="M22.707,2377.576l-177.039,12.155a4.723,4.723,0,0,1-5.017-4.878V2260.929a5.151,5.151,0,0,1,5.017-5.244l177.039-.763a4.472,4.472,0,0,1,4.181,4.738v112.873A4.885,4.885,0,0,1,22.707,2377.576Z" fill="#d8dee8"/>
          <g id="Grupo_88133" data-name="Grupo 88133" style="mix-blend-mode: soft-light;isolation: isolate">
            <path id="Trazado_116543" data-name="Trazado 116543" d="M-91.542,2267.315l-47.778.125-.007-4.555,47.779.015Z" fill="#fff" style="mix-blend-mode: soft-light;isolation: isolate"/>
            <path id="Trazado_116544" data-name="Trazado 116544" d="M-69.044,2266l-11.037.019,0-3.112,11.037,0Z" fill="#fff" style="mix-blend-mode: soft-light;isolation: isolate"/>
            <path id="Trazado_116545" data-name="Trazado 116545" d="M-69.037,2270.289l-11.037.051,0-3.112,11.037-.028Z" fill="#fff" style="mix-blend-mode: soft-light;isolation: isolate"/>
            <path id="Trazado_116546" data-name="Trazado 116546" d="M-14.034,2270.033l-42.82.2,0-3.064,42.82-.11Z" fill="#fff"/>
            <path id="Trazado_116547" data-name="Trazado 116547" d="M-7.006,2274.113l-42.394.32,0-3.049,42.394-.231Z" fill="#fff"/>
            <path id="Trazado_116548" data-name="Trazado 116548" d="M-7,2278.226l-42.393.442,0-3.048L-7,2275.266Z" fill="#fff"/>
            <path id="Trazado_116549" data-name="Trazado 116549" d="M-6.993,2282.339l-42.393.565,0-3.049L-7,2279.379Z" fill="#fff" style="mix-blend-mode: soft-light;isolation: isolate"/>
            <path id="Trazado_116550" data-name="Trazado 116550" d="M-69.03,2274.581l-11.037.083,0-3.112,11.037-.06Z" fill="#fff" style="mix-blend-mode: soft-light;isolation: isolate"/>
            <path id="Trazado_116551" data-name="Trazado 116551" d="M-69.024,2278.873l-11.037.115,0-3.112,11.037-.092Z" fill="#fff" style="mix-blend-mode: soft-light;isolation: isolate"/>
            <path id="Trazado_116552" data-name="Trazado 116552" d="M-69.017,2283.165l-11.037.147,0-3.112,11.037-.124Z" fill="#fff" style="mix-blend-mode: soft-light;isolation: isolate"/>
            <path id="Trazado_116553" data-name="Trazado 116553" d="M-69.011,2287.458l-11.037.179,0-3.112,11.037-.156Z" fill="#fff" style="mix-blend-mode: soft-light;isolation: isolate"/>
            <path id="Trazado_116554" data-name="Trazado 116554" d="M-39.435,2286.978l-27.167.44,0-3.084,27.167-.384Z" fill="#fff" style="mix-blend-mode: soft-light;isolation: isolate"/>
            <path id="Trazado_116555" data-name="Trazado 116555" d="M-69,2291.75l-11.037.211,0-3.112,11.037-.188Z" fill="#fff" style="mix-blend-mode: soft-light;isolation: isolate"/>
            <path id="Trazado_116556" data-name="Trazado 116556" d="M-69,2296.042l-11.037.243,0-3.112,11.037-.22Z" fill="#fff" style="mix-blend-mode: soft-light;isolation: isolate"/>
            <path id="Trazado_116557" data-name="Trazado 116557" d="M-68.991,2300.334l-11.037.275,0-3.112,11.037-.252Z" fill="#fff" style="mix-blend-mode: soft-light;isolation: isolate"/>
            <path id="Trazado_116558" data-name="Trazado 116558" d="M-26.7,2290.942l-30.12.575,0-3.064,30.12-.513Z" fill="#fff"/>
            <path id="Trazado_116559" data-name="Trazado 116559" d="M-11.046,2294.767l-38.321.843,0-3.049,38.321-.763Z" fill="#fff" style="mix-blend-mode: soft-light;isolation: isolate"/>
            <path id="Trazado_116560" data-name="Trazado 116560" d="M-11.039,2298.892l-38.321.954,0-3.048,38.321-.874Z" fill="#fff" style="mix-blend-mode: soft-light;isolation: isolate"/>
            <path id="Trazado_116561" data-name="Trazado 116561" d="M-68.984,2304.626l-11.037.307,0-3.112,11.037-.283Z" fill="#fff" style="mix-blend-mode: soft-light;isolation: isolate"/>
            <path id="Trazado_116562" data-name="Trazado 116562" d="M-68.977,2308.919l-11.037.339,0-3.112,11.037-.315Z" fill="#fff" style="mix-blend-mode: soft-light;isolation: isolate"/>
            <path id="Trazado_116563" data-name="Trazado 116563" d="M-68.971,2313.211l-11.037.371,0-3.112,11.037-.347Z" fill="#fff" style="mix-blend-mode: soft-light;isolation: isolate"/>
            <path id="Trazado_116564" data-name="Trazado 116564" d="M-68.964,2317.5l-11.037.4,0-3.112,11.037-.379Z" fill="#fff" style="mix-blend-mode: soft-light;isolation: isolate"/>
            <path id="Trazado_116565" data-name="Trazado 116565" d="M-68.957,2321.8l-11.037.434,0-3.112,11.037-.411Z" fill="#fff" style="mix-blend-mode: soft-light;isolation: isolate"/>
            <path id="Trazado_116566" data-name="Trazado 116566" d="M-68.951,2326.088l-11.037.466,0-3.112,11.037-.443Z" fill="#fff" style="mix-blend-mode: soft-light;isolation: isolate"/>
            <path id="Trazado_116567" data-name="Trazado 116567" d="M-68.944,2330.38l-11.036.5,0-3.112,11.037-.475Z" fill="#fff" style="mix-blend-mode: soft-light;isolation: isolate"/>
            <path id="Trazado_116568" data-name="Trazado 116568" d="M-68.938,2334.672l-11.036.53,0-3.112,11.036-.507Z" fill="#fff" style="mix-blend-mode: soft-light;isolation: isolate"/>
            <path id="Trazado_116569" data-name="Trazado 116569" d="M-68.931,2338.965l-11.036.562,0-3.112,11.036-.539Z" fill="#fff" style="mix-blend-mode: soft-light;isolation: isolate"/>
            <path id="Trazado_116570" data-name="Trazado 116570" d="M-68.924,2343.257l-11.036.594,0-3.112,11.036-.571Z" fill="#fff" style="mix-blend-mode: soft-light;isolation: isolate"/>
            <path id="Trazado_116571" data-name="Trazado 116571" d="M-68.918,2347.549l-11.036.626,0-3.112,11.036-.6Z" fill="#fff" style="mix-blend-mode: soft-light;isolation: isolate"/>
            <path id="Trazado_116572" data-name="Trazado 116572" d="M-68.911,2351.841l-11.036.658,0-3.112,11.036-.635Z" fill="#fff" style="mix-blend-mode: soft-light;isolation: isolate"/>
            <path id="Trazado_116573" data-name="Trazado 116573" d="M-68.9,2356.134l-11.036.689,0-3.112,11.036-.667Z" fill="#fff" style="mix-blend-mode: soft-light;isolation: isolate"/>
            <path id="Trazado_116574" data-name="Trazado 116574" d="M-68.9,2360.426l-11.036.721,0-3.112,11.036-.7Z" fill="#fff" style="mix-blend-mode: soft-light;isolation: isolate"/>
            <path id="Trazado_116575" data-name="Trazado 116575" d="M-68.891,2364.718l-11.036.753,0-3.112,11.036-.73Z" fill="#fff" style="mix-blend-mode: soft-light;isolation: isolate"/>
            <path id="Trazado_116576" data-name="Trazado 116576" d="M-68.884,2369.01l-11.036.785,0-3.112,11.036-.762Z" fill="#fff" style="mix-blend-mode: soft-light;isolation: isolate"/>
            <path id="Trazado_116577" data-name="Trazado 116577" d="M-68.878,2373.3l-11.036.817,0-3.112,11.036-.794Z" fill="#fff" style="mix-blend-mode: soft-light;isolation: isolate"/>
            <path id="Trazado_116578" data-name="Trazado 116578" d="M-68.871,2377.595l-11.036.849,0-3.112,11.036-.826Z" fill="#fff" style="mix-blend-mode: soft-light;isolation: isolate"/>
            <path id="Trazado_116579" data-name="Trazado 116579" d="M-36.609,2265.939l-30.1.053,0-3.084,30.1.01Z" fill="#fff"/>
            <path id="Trazado_116580" data-name="Trazado 116580" d="M-13.906,2352.7l-42.816,2.675,0-3.064,42.816-2.586Z" fill="#fff" style="mix-blend-mode: soft-light;isolation: isolate"/>
            <path id="Trazado_116581" data-name="Trazado 116581" d="M-6.879,2356.372l-42.39,2.771,0-3.049,42.39-2.683Z" fill="#fff"/>
            <path id="Trazado_116582" data-name="Trazado 116582" d="M-6.873,2360.485l-42.39,2.893,0-3.048,42.39-2.805Z" fill="#fff"/>
            <path id="Trazado_116583" data-name="Trazado 116583" d="M11.4,2363.3l-41.292,2.938,0-3.008,41.292-2.852Z" fill="#fff"/>
            <path id="Trazado_116584" data-name="Trazado 116584" d="M11.407,2367.358l-41.292,3.057,0-3.008,41.292-2.971Z" fill="#fff" style="mix-blend-mode: soft-light;isolation: isolate"/>
            <path id="Trazado_116585" data-name="Trazado 116585" d="M11.413,2371.418l-41.292,3.177,0-3.008,41.292-3.091Z" fill="#fff" style="mix-blend-mode: soft-light;isolation: isolate"/>
            <path id="Trazado_116586" data-name="Trazado 116586" d="M-36.479,2349.909l-30.1,1.793,0-3.084,30.1-1.731Z" fill="#fff"/>
            <path id="Trazado_116587" data-name="Trazado 116587" d="M-13.976,2307.232l-42.818,1.313,0-3.064,42.818-1.224Z" fill="#fff"/>
            <path id="Trazado_116588" data-name="Trazado 116588" d="M-6.949,2311.13l-42.392,1.423,0-3.048,42.392-1.334Z" fill="#fff" style="mix-blend-mode: soft-light;isolation: isolate"/>
            <path id="Trazado_116589" data-name="Trazado 116589" d="M-6.942,2315.242l-42.392,1.545,0-3.049,42.392-1.457Z" fill="#fff"/>
            <path id="Trazado_116590" data-name="Trazado 116590" d="M-6.936,2319.355l-42.391,1.668,0-3.048,42.392-1.58Z" fill="#fff"/>
            <path id="Trazado_116591" data-name="Trazado 116591" d="M-39.377,2324.839l-27.166,1.147,0-3.084,27.166-1.091Z" fill="#fff"/>
            <path id="Trazado_116592" data-name="Trazado 116592" d="M-26.642,2328.471l-30.119,1.359,0-3.064,30.119-1.3Z" fill="#fff" style="mix-blend-mode: soft-light;isolation: isolate"/>
            <path id="Trazado_116593" data-name="Trazado 116593" d="M-10.988,2331.89l-38.32,1.84,0-3.048,38.32-1.76Z" fill="#fff" style="mix-blend-mode: soft-light;isolation: isolate"/>
            <path id="Trazado_116594" data-name="Trazado 116594" d="M-10.982,2336.014l-38.319,1.951,0-3.049,38.319-1.871Z" fill="#fff"/>
            <path id="Trazado_116595" data-name="Trazado 116595" d="M-2.481,2339.682l-37.858,2.037,0-3.03,37.858-1.958Z" fill="#fff"/>
            <path id="Trazado_116596" data-name="Trazado 116596" d="M-2.474,2343.782l-37.858,2.146,0-3.03,37.858-2.067Z" fill="#fff"/>
            <path id="Trazado_116597" data-name="Trazado 116597" d="M-36.55,2303.726l-30.1.836,0-3.084,30.1-.773Z" fill="#fff"/>
            <path id="Trazado_116598" data-name="Trazado 116598" d="M-91.532,2274.214l-27.347.2-.007-4.5,27.347-.116Z" fill="#fff" style="mix-blend-mode: soft-light;isolation: isolate"/>
            <path id="Trazado_116599" data-name="Trazado 116599" d="M-125.952,2274.461l5.151-.037-.007-4.5-5.151.022Z" fill="#fff" style="mix-blend-mode: soft-light;isolation: isolate"/>
            <path id="Trazado_116600" data-name="Trazado 116600" d="M-91.522,2280.561l-27.347.312-.007-4.5,27.347-.232Z" fill="#fff" style="mix-blend-mode: soft-light;isolation: isolate"/>
            <path id="Trazado_116601" data-name="Trazado 116601" d="M-125.942,2280.953l5.151-.059-.007-4.5-5.151.044Z" fill="#fff" style="mix-blend-mode: soft-light;isolation: isolate"/>
            <path id="Trazado_116602" data-name="Trazado 116602" d="M-91.512,2286.908l-27.347.427-.007-4.5,27.347-.347Z" fill="#fff" style="mix-blend-mode: soft-light;isolation: isolate"/>
            <path id="Trazado_116603" data-name="Trazado 116603" d="M-125.932,2287.446l5.151-.08-.007-4.5-5.151.065Z" fill="#fff" style="mix-blend-mode: soft-light;isolation: isolate"/>
            <path id="Trazado_116604" data-name="Trazado 116604" d="M-91.442,2331.962l-47.775,2.174-.007-4.555,47.775-2.034Z" fill="#fff" style="mix-blend-mode: soft-light;isolation: isolate"/>
            <path id="Trazado_116605" data-name="Trazado 116605" d="M-91.432,2338.861l-27.345,1.369-.007-4.5,27.346-1.29Z" fill="#fff" style="mix-blend-mode: soft-light;isolation: isolate"/>
            <path id="Trazado_116606" data-name="Trazado 116606" d="M-125.85,2340.585l5.15-.258-.007-4.5-5.15.243Z" fill="#fff" style="mix-blend-mode: soft-light;isolation: isolate"/>
            <path id="Trazado_116607" data-name="Trazado 116607" d="M-91.422,2345.208l-27.345,1.485-.007-4.5,27.345-1.4Z" fill="#fff" style="mix-blend-mode: soft-light;isolation: isolate"/>
            <path id="Trazado_116608" data-name="Trazado 116608" d="M-125.84,2347.077l5.15-.28-.007-4.5-5.15.264Z" fill="#fff" style="mix-blend-mode: soft-light;isolation: isolate"/>
            <path id="Trazado_116609" data-name="Trazado 116609" d="M-91.412,2351.555l-27.345,1.6-.007-4.5,27.345-1.52Z" fill="#fff" style="mix-blend-mode: soft-light;isolation: isolate"/>
            <path id="Trazado_116610" data-name="Trazado 116610" d="M-125.83,2353.569l5.15-.3-.007-4.5-5.15.286Z" fill="#fff" style="mix-blend-mode: soft-light;isolation: isolate"/>
            <path id="Trazado_116611" data-name="Trazado 116611" d="M-91.5,2293.3l-47.777.948-.007-4.555,47.777-.808Z" fill="#fff" style="mix-blend-mode: soft-light;isolation: isolate"/>
            <path id="Trazado_116612" data-name="Trazado 116612" d="M-91.491,2300.2l-27.346.668-.007-4.5,27.347-.588Z" fill="#fff" style="mix-blend-mode: soft-light;isolation: isolate"/>
            <path id="Trazado_116613" data-name="Trazado 116613" d="M-125.911,2301.038l5.151-.126-.007-4.5-5.151.111Z" fill="#fff" style="mix-blend-mode: soft-light;isolation: isolate"/>
            <path id="Trazado_116614" data-name="Trazado 116614" d="M-91.482,2306.545l-27.346.783-.007-4.5,27.346-.7Z" fill="#fff" style="mix-blend-mode: soft-light;isolation: isolate"/>
            <path id="Trazado_116615" data-name="Trazado 116615" d="M-125.9,2307.531l5.151-.148-.007-4.5-5.151.132Z" fill="#fff" style="mix-blend-mode: soft-light;isolation: isolate"/>
            <path id="Trazado_116616" data-name="Trazado 116616" d="M-91.462,2319.322l-27.346,1.015-.007-4.5,27.346-.935Z" fill="#fff" style="mix-blend-mode: soft-light;isolation: isolate"/>
            <path id="Trazado_116617" data-name="Trazado 116617" d="M-125.881,2320.6l5.15-.191-.007-4.5-5.15.176Z" fill="#fff" style="mix-blend-mode: soft-light;isolation: isolate"/>
            <path id="Trazado_116618" data-name="Trazado 116618" d="M-91.452,2325.669l-27.346,1.13-.007-4.5,27.346-1.05Z" fill="#fff" style="mix-blend-mode: soft-light;isolation: isolate"/>
            <path id="Trazado_116619" data-name="Trazado 116619" d="M-125.871,2327.091l5.15-.213-.007-4.5-5.15.2Z" fill="#fff" style="mix-blend-mode: soft-light;isolation: isolate"/>
            <path id="Trazado_116620" data-name="Trazado 116620" d="M-91.472,2312.892l-27.346.9-.007-4.5,27.346-.818Z" fill="#fff" style="mix-blend-mode: soft-light;isolation: isolate"/>
            <path id="Trazado_116621" data-name="Trazado 116621" d="M-125.891,2314.022l5.15-.169-.007-4.5-5.151.154Z" fill="#fff" style="mix-blend-mode: soft-light;isolation: isolate"/>
            <path id="Trazado_116622" data-name="Trazado 116622" d="M-91.4,2357.9l-47.774,3-.007-4.555,47.774-2.856Z" fill="#fff" style="mix-blend-mode: soft-light;isolation: isolate"/>
            <path id="Trazado_116623" data-name="Trazado 116623" d="M-91.392,2364.8l-27.345,1.84-.007-4.5,27.345-1.76Z" fill="#fff" style="mix-blend-mode: soft-light;isolation: isolate"/>
            <path id="Trazado_116624" data-name="Trazado 116624" d="M-125.809,2367.115l5.15-.347-.007-4.5-5.15.331Z" fill="#fff" style="mix-blend-mode: soft-light;isolation: isolate"/>
            <path id="Trazado_116625" data-name="Trazado 116625" d="M-91.382,2371.146l-27.344,1.955-.007-4.5,27.345-1.875Z" fill="#fff" style="mix-blend-mode: soft-light;isolation: isolate"/>
            <path id="Trazado_116626" data-name="Trazado 116626" d="M-125.8,2373.608l5.15-.368-.007-4.5-5.15.353Z" fill="#fff" style="mix-blend-mode: soft-light;isolation: isolate"/>
            <path id="Trazado_116627" data-name="Trazado 116627" d="M-91.372,2377.494l-27.344,2.071-.007-4.5,27.344-1.99Z" fill="#fff" style="mix-blend-mode: soft-light;isolation: isolate"/>
            <path id="Trazado_116628" data-name="Trazado 116628" d="M-125.789,2380.1l5.15-.39-.007-4.5-5.15.375Z" fill="#fff" style="mix-blend-mode: soft-light;isolation: isolate"/>
            <path id="Trazado_116629" data-name="Trazado 116629" d="M-85.566,2377.076l-1.052.08L-86.8,2262.9h1.052Z" fill="#fff" style="mix-blend-mode: soft-light;isolation: isolate"/>
          </g>
          <path id="Trazado_116630" data-name="Trazado 116630" d="M-59.7,2250.575a2.3,2.3,0,0,1-2.187,2.388,2.286,2.286,0,0,1-2.191-2.379,2.3,2.3,0,0,1,2.191-2.389A2.288,2.288,0,0,1-59.7,2250.575Z" fill="#fff"/>
          <path id="Trazado_116631" data-name="Trazado 116631" d="M-161.451,2400.59l189.117-13.922.962-.071a5.1,5.1,0,0,0,3.348-1.694c-13.609-.745-22.062-5.574-27.515-10.564-10.95-10.022-9.05-19.905-20.859-26.494-14.728-8.218-26.309,2.2-37.486-8.079-6.775-6.229-3.449-10.874-11.786-20.183-9.235-10.31-15.247-6.845-24.527-16.124-11.735-11.733-5.866-20.862-15.974-29.286-12.262-10.219-25.486-.76-37.159-10.561-5.034-4.227-7.8-10.373-9.239-16.909h-8.881a6.289,6.289,0,0,0-6.167,6.4v141.546A5.762,5.762,0,0,0-161.451,2400.59Z" fill="#fff" opacity="0.48" style="mix-blend-mode: soft-light;isolation: isolate"/>
        </g>
        <path id="Trazado_116632" data-name="Trazado 116632" d="M37.584,2385.821-163.41,2400.55l87.637,15.608a11.739,11.739,0,0,0,3.034.142l208.392-17.445-94.872-12.934A15.405,15.405,0,0,0,37.584,2385.821Z" fill="url(#linear-gradient-19)"/>
        <path id="Trazado_116633" data-name="Trazado 116633" d="M-134.082,2400.676l167.333-12.444,51.788,7-165.892,13.3Z" fill="#d8dee8"/>
      </g>
    </g>
    <g id="Grupo_88137" data-name="Grupo 88137">
      <path id="Trazado_116634" data-name="Trazado 116634" d="M-78.949,2362l29.694,32.118,8.2,1.906.59-1.495,29.987-35.363,2.131-1.679-8.2-1.905-12.378,1.273a2.3,2.3,0,0,1-2.574-2.488l10.363-48.765-8.2-1.906-16.132,1.659a2.258,2.258,0,0,1-2.391-1.391,3.013,3.013,0,0,1,.6-3.026L-8.19,2254.9a2.764,2.764,0,0,1,3.988-.411l35.478,38.372a2.67,2.67,0,0,1,.34,2.93,3.23,3.23,0,0,1-2.531,1.9l-16.132,1.66-.993,23.3,8.2,1.906,50.41-7.934c20.674-2.126,38.492-20.845,39.72-41.728.613-10.422-2.783-19.842-9.564-26.524-3.546-3.494-.6-4.4-5.284-5.862-.83-.258-8.856-2.09-9.712-2.281a34.967,34.967,0,0,0-11.218-.607q-.893.092-1.777.225a7.378,7.378,0,0,1-8.745-7.095c-2.15-39.19-33.01-65.735-71.782-61.748-29.589,3.043-57.286,23.754-70.56,52.761a10.156,10.156,0,0,1-9.153,6.08,50.272,50.272,0,0,0-8.691.6c-25.75,4.011-47.683,27.926-49.93,54.444-1.22,14.39,3.166,27.458,12.351,36.795s21.919,13.7,35.842,12.267l33.013-3.4a2.3,2.3,0,0,1,2.574,2.488l-1.05,24.61a3.261,3.261,0,0,1-2.809,3.042Z" fill="url(#linear-gradient-20)"/>
      <path id="Trazado_116635" data-name="Trazado 116635" d="M-70.747,2363.906l29.7,32.119,32.708-38.537-12.378,1.274a2.3,2.3,0,0,1-2.574-2.488l2.16-50.671-16.131,1.659a2.26,2.26,0,0,1-2.391-1.391,3.011,3.011,0,0,1,.6-3.026L.013,2256.8A2.762,2.762,0,0,1,4,2256.4l35.478,38.372a2.67,2.67,0,0,1,.341,2.93,3.23,3.23,0,0,1-2.531,1.9l-16.132,1.659-.993,23.3,58.613-6.028c20.673-2.126,38.492-20.845,39.72-41.728.613-10.422-2.784-19.843-9.564-26.525s-16.092-9.79-26.214-8.749q-.894.092-1.777.225a7.378,7.378,0,0,1-8.745-7.095c-2.15-39.19-33.01-65.736-71.782-61.748-29.59,3.043-57.286,23.753-70.56,52.76a10.155,10.155,0,0,1-9.154,6.08,50.385,50.385,0,0,0-8.691.6c-25.75,4.01-47.682,27.925-49.93,54.444-1.219,14.39,3.167,27.458,12.352,36.794s21.919,13.7,35.842,12.268l33.013-3.4a2.3,2.3,0,0,1,2.574,2.488l-1.05,24.61A3.26,3.26,0,0,1-58,2362.595Z" fill="url(#linear-gradient-21)"/>
    </g>
    <g id="Grupo_88139" data-name="Grupo 88139">
      <path id="Trazado_116636" data-name="Trazado 116636" d="M81.084,2425.812s-8.134,3.7-8.266,4.287,5.23-.2,7.419-.113,3.991-.562,3.793-1.489-.965-3.26-.965-3.26Z" fill="url(#linear-gradient-22)"/>
      <path id="Trazado_116637" data-name="Trazado 116637" d="M80.786,2422.812l.495,3.662a2.87,2.87,0,0,0,2.152-.084l.369-4.016Z" fill="url(#linear-gradient-23)"/>
      <path id="Trazado_116638" data-name="Trazado 116638" d="M119.088,2422.9l.947,1.519a1.813,1.813,0,0,1,.216,1.42c-.331,1.263-.991,3.724-1.28,4.366-.392.874-5.655,1.393-5.655,1.393s-.47-.66.623-1.458,1.795-.923,2.181-2.1a30.754,30.754,0,0,0,.643-4.507Z" fill="url(#linear-gradient-24)"/>
      <path id="Trazado_116639" data-name="Trazado 116639" d="M115.151,2419.041a49.148,49.148,0,0,1,2.036,5.406s.547.7,1.586-.333.471-.463.471-.463l-.195-5.047Z" fill="url(#linear-gradient-25)"/>
      <path id="Trazado_116640" data-name="Trazado 116640" d="M76.311,2349.242c-.429,10.924-.446,22.791.182,35.47.708,14.277,2.13,27.472,3.922,39.433.666.022,1.366.025,2.1,0,.493-.014.972-.038,1.434-.07a90.73,90.73,0,0,0,3.014-9.638,92.706,92.706,0,0,0,2.1-11.285c1.566-12.372-.269-13.452,1-22.621,1.126-8.12,2.727-8.437,4.606-19.967,2.039-12.509.521-14.386-.217-15.064C91.313,2342.619,83.932,2344.584,76.311,2349.242Z" fill="url(#linear-gradient-26)"/>
      <path id="Trazado_116641" data-name="Trazado 116641" d="M94.456,2345.5c-3-2.753-9.852-1.086-17.091,3.115,8.328,9,9.236,14.836,8.238,18.623-1.129,4.281-4.559,5.514-4.546,10.194.016,5.752,5.207,7.276,5.1,13.363-.073,4.025-2.355,3.983-2.893,8.954-.638,5.882,2.343,7.909,1.377,12.261-.415,1.872-1.6,4.318-4.976,6.839.243,1.787.493,3.556.753,5.292.666.021,1.366.024,2.1,0,.493-.014.972-.038,1.434-.07a90.73,90.73,0,0,0,3.014-9.638,92.706,92.706,0,0,0,2.1-11.285c1.566-12.372-.269-13.452,1-22.621,1.126-8.12,2.727-8.437,4.606-19.967C96.712,2348.06,95.194,2346.183,94.456,2345.5Z" opacity="0.3" fill="url(#linear-gradient-27)" style="mix-blend-mode: multiply;isolation: isolate"/>
      <path id="Trazado_116642" data-name="Trazado 116642" d="M81.47,2349.059a245.573,245.573,0,0,1,21.823,39.182,245.243,245.243,0,0,1,11.8,32.787,4.377,4.377,0,0,0,2.4.373,4.469,4.469,0,0,0,2.719-1.469,70.67,70.67,0,0,0,.624-17.418,60.061,60.061,0,0,0-2.45-13.092c-1.979-6.385-3.341-6.744-5.923-13.5-2.681-7.012-2.032-8.762-4.6-17.538A115.852,115.852,0,0,0,102.134,2343Z" fill="url(#linear-gradient-28)"/>
      <path id="Trazado_116643" data-name="Trazado 116643" d="M84.832,2304.188c-6.579-6.389-10-6.685-11.233-11.268-1.219-4.533.349-10.861,4.825-13.314,5.345-2.929,10.475.336,14.519,3.86,4.647,4.049,8.53,7.2,15.021,7.3,5.515.08,11.016-.913,16.517-.09a17.888,17.888,0,0,1,4.568,1.29c5.974,2.621,4.309,11.732,10.39,13.82,4.064,1.4,6.017-2.259,11.745-1.983,6.731.323,12.853,5.793,15.683,11.3,5.173,10.075.214,21.981-6.169,28.419-5.244,5.29-14.987,10.458-21.33,7.262-5.012-2.525-5.262-8.94-9.978-9.472-3.353-.378-4.25,2.748-8.491,3.424-6.963,1.111-13.492-5.9-15.273-7.807-5.075-5.447-3.487-7.737-9.334-17.589A68.2,68.2,0,0,0,84.832,2304.188Z" fill="url(#linear-gradient-29)"/>
      <path id="Trazado_116644" data-name="Trazado 116644" d="M62.043,2303.267c-5.55,6.1-9.653,16.251-6.369,19.847,1.131,1.238,2.917,1.459,4.3,1.629,5.888.728,8.686-3.6,10.988-2.479,2.956,1.447,1.206,10.356.524,17.151-1.2,11.985-4.412,14.091-2.279,18.212,2.777,5.364,10.648,6.493,12.775,6.8,7.276,1.045,8.5-2.338,16.467-1.941,9.1.453,9.941,4.986,16.608,3.772,6.09-1.109,8.548-5.467,13.057-4.052,2.818.885,3.366,3.061,6.106,3.112s5.821-2.079,6.267-4.54c.555-3.058-2.816-7.328-8.721-7.938a18.724,18.724,0,0,1-10.635-.363c-6.911-2.463-9.98-8.868-13.39-15.981-2.359-4.921-6.694-13.966-5.614-25.133.446-4.6,1.454-5.863.451-8.451-1.392-3.593-10.242-9.185-20.531-8.852C80.688,2294.1,69.907,2294.623,62.043,2303.267Z" fill="#fff"/>
      <g id="Grupo_88138" data-name="Grupo 88138">
        <path id="Trazado_116645" data-name="Trazado 116645" d="M57.051,2310.9l19.77,2.806a.538.538,0,0,1,.446.4l6.7,26.9c.1.386-.42,1.273-.809,1.191L63.8,2337.516a.537.537,0,0,1-.408-.385l-7.25-25.208C56.044,2311.55,56.668,2310.843,57.051,2310.9Z" fill="url(#linear-gradient-30)"/>
        <path id="Trazado_116646" data-name="Trazado 116646" d="M56.678,2311.5l19.77,2.806a.538.538,0,0,1,.446.4l6.7,26.9a.538.538,0,0,1-.634.656L63.43,2338.12a.54.54,0,0,1-.408-.386l-6.939-25.559A.538.538,0,0,1,56.678,2311.5Z" fill="url(#linear-gradient-31)"/>
        <path id="Trazado_116647" data-name="Trazado 116647" d="M62.006,2313.023l-.553-2.146a.288.288,0,0,1,.308-.358l7.225.739a.289.289,0,0,1,.252.228l.492,2.361a.287.287,0,0,1-.319.344l-7.164-.955A.291.291,0,0,1,62.006,2313.023Z" fill="url(#linear-gradient-32)"/>
        <path id="Trazado_116648" data-name="Trazado 116648" d="M72.123,2334.81c-.861-4.313,1.539-6.818-.294-10.289-2.593-4.909-9.373-3.637-11.039-7.555-.45-1.056-.561-2.573.421-4.822l-4.533-.643a.538.538,0,0,0-.6.674l6.939,25.559a.54.54,0,0,0,.408.386l11.867,2.518A11.871,11.871,0,0,1,72.123,2334.81Z" opacity="0.3" fill="url(#linear-gradient-31)" style="mix-blend-mode: multiply;isolation: isolate"/>
      </g>
      <path id="Trazado_116649" data-name="Trazado 116649" d="M86.936,2333.187a17.767,17.767,0,0,1-4.021-1.75c-1.082-.847-2.189-2.143-3.9-2.254s-3.517.581-2.749.861,2.079,1.993,3.14,2.724a10.91,10.91,0,0,0,4.107,1.064,9.709,9.709,0,0,1,2.254,1.345Z" fill="url(#linear-gradient-34)"/>
      <path id="Trazado_116650" data-name="Trazado 116650" d="M131.761,2352.839a18.724,18.724,0,0,1-10.635-.363c-6.911-2.463-9.98-8.868-13.39-15.981-2.359-4.921-6.694-13.966-5.614-25.133.446-4.6,1.454-5.863.451-8.451a8.516,8.516,0,0,0-.575-1.174c-3.308,1.775-4.722,3.747-5.261,5.551-1.312,4.389,2.338,8.461-.151,12.108-2.385,3.493-7.239,1.962-8.6,5.026-1.466,3.306,3.811,5.931,3.512,11.24-.359,6.372-8.3,8.7-7.4,13.076.782,3.795,7.191,4.183,6.986,6.155-.244,2.344-9.658,5.193-17.1,1.514a16.19,16.19,0,0,1-5.131-4.046c-.5,2.037-.593,3.458.343,5.266,2.777,5.364,10.648,6.493,12.775,6.8,7.276,1.045,8.5-2.338,16.467-1.941,9.1.453,9.941,4.986,16.608,3.772,6.09-1.109,8.548-5.467,13.057-4.052,2.818.885,3.366,3.061,6.106,3.112s5.821-2.079,6.267-4.54C141.037,2357.719,137.666,2353.449,131.761,2352.839Z" fill="#d8dee8" opacity="0.5"/>
      <path id="Trazado_116651" data-name="Trazado 116651" d="M86.986,2331.936l-3.272,4.639c1.352.842,15.827,9.6,27.583,3.6a17.583,17.583,0,0,0,7.739-7.1c2.67-4.834,1.943-9.656,1.472-12.788-1.166-7.753-5.838-16.239-13.292-20.219a48.871,48.871,0,0,0-9.573-3.415c-2.764-.779-7.126-1.834-7.263-1.417-.068.2.933.574,1.605,1.051,4.131,2.928-2.484,12.6,2.166,18.038,4.454,5.21,10.939,5.089,11.535,9.458a6.415,6.415,0,0,1-1.423,4.462C101.34,2332.428,94.49,2333.732,86.986,2331.936Z" fill="#fff"/>
      <path id="Trazado_116652" data-name="Trazado 116652" d="M81.2,2286.53s1.255,5.376,3.4,6.413,5.565,2.324,5.97,2.73-12.266,3.131-18.954.594h0c2.047-.656,2.6-.877,2.6-.877a11.805,11.805,0,0,0,2.578-1.347A9.182,9.182,0,0,0,79.459,2291l-.34-3.014Z" fill="url(#linear-gradient-35)"/>
      <path id="Trazado_116653" data-name="Trazado 116653" d="M81.709,2288.427a3.032,3.032,0,0,1-3.256,1.4c-1.912-.477-1.314-5.348.089-6.044a2.6,2.6,0,0,1,2.008.064,2.879,2.879,0,0,1,1.239,3.126c.451-.184.873-.1,1,.115.161.278-.191.718-.271.817A1.563,1.563,0,0,1,81.709,2288.427Z" fill="url(#linear-gradient-36)"/>
      <path id="Trazado_116654" data-name="Trazado 116654" d="M58.08,2319.533s-1.629-3.121,0-4.01,4.3,0,4.3,0a4,4,0,0,1-1.586,1.443A12.991,12.991,0,0,0,58.08,2319.533Z" fill="url(#linear-gradient-37)"/>
    </g>
  </g>
</svg>
