<svg xmlns="http://www.w3.org/2000/svg" width="37.418" height="49.409" viewBox="0 0 37.418 49.409">
  <g id="Grupo_87993" data-name="Grupo 87993" transform="translate(-62.129)">
    <path id="Trazado_115634" data-name="Trazado 115634" d="M100.321,62.11h-6.4a.724.724,0,0,0-.724.724V101.8a.724.724,0,0,0,.724.724h29.975a.724.724,0,0,0,.724-.724V62.834a.724.724,0,0,0-.724-.724H103.475a.724.724,0,1,0,0,1.448h19.692v37.521H94.64V63.558h5.681a.724.724,0,0,0,0-1.448Z" transform="translate(-28.065 -56.116)" fill="#4dd0e1"/>
    <path id="Trazado_115635" data-name="Trazado 115635" d="M98.823,19.349a.724.724,0,0,0,.724-.724V.724A.724.724,0,0,0,98.823,0H62.853q-.618.028-.724.724V48.685a.724.724,0,0,0,.724.724h35.97a.724.724,0,0,0,.724-.724V21.779a.724.724,0,1,0-1.448,0V47.961H63.577V4.445H80.838a.723.723,0,0,0,.512-.212l2.786-2.786H98.1V18.625A.724.724,0,0,0,98.823,19.349ZM80.538,3H63.577V1.448H82.088Z" transform="translate(0)" fill="#4dd0e1"/>
    <path id="Trazado_115636" data-name="Trazado 115636" d="M324.541,32.512a.724.724,0,0,0,0-1.448h-.464a.724.724,0,0,0,0,1.448Z" transform="translate(-236.016 -28.066)" fill="#4dd0e1"/>
    <path id="Trazado_115637" data-name="Trazado 115637" d="M362.365,32.512a.724.724,0,0,0,0-1.448H361.9a.724.724,0,1,0,0,1.448Z" transform="translate(-270.189 -28.066)" fill="#4dd0e1"/>
    <path id="Trazado_115638" data-name="Trazado 115638" d="M400.189,31.064h-.464a.724.724,0,0,0,0,1.448h.464a.724.724,0,0,0,0-1.448Z" transform="translate(-304.363 -28.066)" fill="#4dd0e1"/>
    <path id="Trazado_115639" data-name="Trazado 115639" d="M165.031,108.659a9.716,9.716,0,1,0,9.716,9.716A9.727,9.727,0,0,0,165.031,108.659Zm0,17.985a8.269,8.269,0,1,1,8.269-8.269A8.278,8.278,0,0,1,165.031,126.644Z" transform="translate(-84.193 -98.173)" fill="#4dd0e1"/>
    <path id="Trazado_115640" data-name="Trazado 115640" d="M209.615,158.985a3.02,3.02,0,1,0-4.975,0,3.748,3.748,0,0,0-2.732,3.6v1.479a.724.724,0,0,0,.724.724h8.993a.724.724,0,0,0,.724-.724v-1.479A3.747,3.747,0,0,0,209.615,158.985Zm-2.488-3.283a1.573,1.573,0,1,1-1.573,1.573A1.574,1.574,0,0,1,207.127,155.7Zm3.773,7.641h-7.545v-.755a2.3,2.3,0,0,1,2.293-2.293h2.958a2.3,2.3,0,0,1,2.293,2.293Z" transform="translate(-126.289 -139.368)" fill="#4dd0e1"/>
    <path id="Trazado_115641" data-name="Trazado 115641" d="M176.889,358.31a.788.788,0,0,0-1.2-.142c.027-.435-.2-.969-.724-.969s-.751.533-.724.969a.769.769,0,0,0-1.2.142.785.785,0,0,0,.477,1.111.793.793,0,0,0-.477,1.111.779.779,0,0,0,1.2.142c-.028.435.2.969.724.969s.751-.533.724-.969a.755.755,0,1,0,.724-1.254A.768.768,0,0,0,176.889,358.31Z" transform="translate(-100.121 -322.729)" fill="#4dd0e1"/>
    <path id="Trazado_115642" data-name="Trazado 115642" d="M237.07,361.644c.528,0,.751-.533.724-.969a.787.787,0,0,0,1.2-.142.778.778,0,0,0-.477-1.111c.416-.173.772-.674.477-1.111a.784.784,0,0,0-1.2-.142c.027-.435-.2-.969-.724-.969s-.751.533-.724.969a.763.763,0,0,0-1.2.142.783.783,0,0,0,.477,1.111.809.809,0,0,0-.477,1.111c.242.51.85.4,1.2.142C236.319,361.111,236.542,361.644,237.07,361.644Z" transform="translate(-156.232 -322.729)" fill="#4dd0e1"/>
    <path id="Trazado_115643" data-name="Trazado 115643" d="M297.289,360.533a.788.788,0,0,0,1.2.142c-.028.435.2.969.724.969s.751-.533.724-.969c.351.262.963.37,1.2-.142a.805.805,0,0,0-.477-1.111c.416-.173.784-.674.477-1.111a.812.812,0,0,0-1.2-.142c.027-.435-.2-.969-.724-.969s-.751.533-.724.969c-.379-.281-.935-.371-1.2.142a.786.786,0,0,0,.477,1.111.838.838,0,0,0-.477,1.111Z" transform="translate(-212.381 -322.729)" fill="#4dd0e1"/>
    <path id="Trazado_115644" data-name="Trazado 115644" d="M152.574,336.62h8.915a.724.724,0,0,0,.724-.724V326.9a.724.724,0,0,0-.724-.724H140.506a.724.724,0,0,0-.724.724V335.9a.724.724,0,0,0,.724.724h8.915a.724.724,0,0,0,0-1.448H141.23v-7.544h19.536v7.544h-8.191a.724.724,0,0,0,0,1.448Z" transform="translate(-70.159 -294.703)" fill="#4dd0e1"/>
  </g>
</svg>
