<svg xmlns="http://www.w3.org/2000/svg" xmlns:xlink="http://www.w3.org/1999/xlink" width="230" height="163.358" viewBox="0 0 230 163.358">
  <defs>
    <linearGradient id="linear-gradient" x1="0.411" y1="0.932" x2="0.634" y2="-0.163" gradientUnits="objectBoundingBox">
      <stop offset="0" stop-color="#00165d"/>
      <stop offset="1" stop-color="#0f2f91"/>
    </linearGradient>
    <linearGradient id="linear-gradient-2" x1="0.459" y1="1.018" x2="0.564" y2="-0.445" gradientUnits="objectBoundingBox">
      <stop offset="0" stop-color="#4083e2"/>
      <stop offset="1" stop-color="#4f99ff"/>
    </linearGradient>
    <linearGradient id="linear-gradient-3" x1="0.548" y1="-6.646" x2="0.528" y2="-3.685" xlink:href="#linear-gradient"/>
    <linearGradient id="linear-gradient-4" y1="0.5" x2="1" y2="0.5" gradientUnits="objectBoundingBox">
      <stop offset="0" stop-color="#daf8fe"/>
      <stop offset="1" stop-color="#e9fbfd"/>
    </linearGradient>
    <linearGradient id="linear-gradient-5" x1="0" y1="0.5" x2="1" y2="0.5" xlink:href="#linear-gradient-4"/>
    <linearGradient id="linear-gradient-6" x1="0" y1="0.5" x2="1" y2="0.5" xlink:href="#linear-gradient-4"/>
    <linearGradient id="linear-gradient-11" x1="1.346" y1="-0.303" x2="-0.82" y2="1.752" gradientUnits="objectBoundingBox">
      <stop offset="0" stop-color="#fed778"/>
      <stop offset="1" stop-color="#ffb08e"/>
    </linearGradient>
    <linearGradient id="linear-gradient-12" x1="1.582" y1="-0.178" x2="-0.938" y2="1.647" xlink:href="#linear-gradient-11"/>
    <linearGradient id="linear-gradient-13" x1="1.327" y1="-0.174" x2="-0.781" y2="1.65" xlink:href="#linear-gradient-11"/>
    <linearGradient id="linear-gradient-20" x1="575.029" y1="43.929" x2="576.041" y2="42.379" xlink:href="#linear-gradient"/>
    <linearGradient id="linear-gradient-21" x1="0.675" y1="-0.199" x2="0.604" y2="0.129" gradientUnits="objectBoundingBox">
      <stop offset="0" stop-color="#ffb08e"/>
      <stop offset="1" stop-color="#fec5b1"/>
    </linearGradient>
    <linearGradient id="linear-gradient-22" x1="0.605" y1="-0.03" x2="0.415" y2="1.062" xlink:href="#linear-gradient-11"/>
    <linearGradient id="linear-gradient-23" x1="448.683" y1="111.84" x2="449.472" y2="107.749" xlink:href="#linear-gradient"/>
    <linearGradient id="linear-gradient-24" x1="241.007" y1="0.171" x2="241.628" y2="1.621" xlink:href="#linear-gradient-11"/>
    <linearGradient id="linear-gradient-25" x1="0.35" y1="-0.585" x2="0.663" y2="1.666" xlink:href="#linear-gradient-21"/>
    <linearGradient id="linear-gradient-26" x1="543.62" y1="-0.703" x2="541.67" y2="0.922" gradientUnits="objectBoundingBox">
      <stop offset="0" stop-color="#e19c58"/>
      <stop offset="1" stop-color="#e9ae6e"/>
    </linearGradient>
    <linearGradient id="linear-gradient-27" x1="2044.875" y1="130.784" x2="2047.448" y2="128.226" xlink:href="#linear-gradient-21"/>
    <linearGradient id="linear-gradient-28" x1="0.769" y1="-1.022" x2="0.646" y2="-0.245" xlink:href="#linear-gradient-21"/>
    <linearGradient id="linear-gradient-29" x1="380.957" y1="-0.179" x2="379.591" y2="0.949" xlink:href="#linear-gradient-26"/>
    <linearGradient id="linear-gradient-30" x1="254.409" y1="272.35" x2="253.67" y2="274.786" xlink:href="#linear-gradient"/>
    <linearGradient id="linear-gradient-31" x1="0.256" y1="1.167" x2="0.616" y2="0.223" xlink:href="#linear-gradient"/>
    <linearGradient id="linear-gradient-32" x1="0.748" y1="-4.295" x2="0.66" y2="-2.496" xlink:href="#linear-gradient"/>
    <linearGradient id="linear-gradient-33" x1="0.604" y1="1.164" x2="0.341" y2="-0.58" xlink:href="#linear-gradient-21"/>
    <linearGradient id="linear-gradient-34" x1="1.05" y1="-5.1" x2="0.892" y2="-3.405" xlink:href="#linear-gradient"/>
    <linearGradient id="linear-gradient-35" x1="0.661" y1="1.13" x2="0.376" y2="-0.791" xlink:href="#linear-gradient-21"/>
    <linearGradient id="linear-gradient-36" x1="0.561" y1="0.432" x2="-0.01" y2="1.087" xlink:href="#linear-gradient-2"/>
    <linearGradient id="linear-gradient-37" x1="29.661" y1="-2.128" x2="10.652" y2="-0.415" xlink:href="#linear-gradient"/>
    <linearGradient id="linear-gradient-38" x1="0.663" y1="0.37" x2="0.07" y2="1.841" xlink:href="#linear-gradient-11"/>
    <linearGradient id="linear-gradient-39" x1="1.887" y1="0.866" x2="5.574" y2="1.84" xlink:href="#linear-gradient-26"/>
    <linearGradient id="linear-gradient-40" x1="0" y1="0.5" x2="1" y2="0.5" xlink:href="#linear-gradient-21"/>
    <linearGradient id="linear-gradient-42" x1="-0.227" y1="1.029" x2="1.062" y2="0.222" xlink:href="#linear-gradient-21"/>
    <linearGradient id="linear-gradient-43" x1="3.173" y1="0.831" x2="1.915" y2="0.669" xlink:href="#linear-gradient-21"/>
    <linearGradient id="linear-gradient-44" x1="0" y1="0.5" x2="1" y2="0.5" xlink:href="#linear-gradient"/>
    <linearGradient id="linear-gradient-45" x1="-2.684" y1="2.762" x2="0.578" y2="0.44" xlink:href="#linear-gradient-21"/>
    <linearGradient id="linear-gradient-46" x1="0.34" y1="0.722" x2="-0.171" y2="1.519" xlink:href="#linear-gradient-26"/>
    <linearGradient id="linear-gradient-48" x1="0.797" y1="-6.789" x2="0.671" y2="-3.687" xlink:href="#linear-gradient"/>
    <linearGradient id="linear-gradient-50" x1="0.852" y1="-1.662" x2="0.698" y2="-0.683" xlink:href="#linear-gradient"/>
    <linearGradient id="linear-gradient-51" x1="1.26" y1="-10.976" x2="1.038" y2="-7.564" xlink:href="#linear-gradient"/>
    <linearGradient id="linear-gradient-52" x1="0.984" y1="0.116" x2="0.443" y2="0.59" xlink:href="#linear-gradient"/>
    <linearGradient id="linear-gradient-53" x1="0.302" y1="-0.592" x2="0.783" y2="2.05" xlink:href="#linear-gradient-21"/>
    <linearGradient id="linear-gradient-54" x1="0.722" y1="-0.044" x2="0.39" y2="0.979" xlink:href="#linear-gradient-21"/>
    <linearGradient id="linear-gradient-55" x1="1.274" y1="-0.084" x2="0.205" y2="0.706" xlink:href="#linear-gradient"/>
    <linearGradient id="linear-gradient-56" x1="1.197" y1="-1.446" x2="-0.009" y2="1.851" xlink:href="#linear-gradient-21"/>
    <linearGradient id="linear-gradient-57" x1="0.771" y1="-2.946" x2="0.638" y2="-1.174" xlink:href="#linear-gradient-21"/>
    <linearGradient id="linear-gradient-58" x1="-2.424" y1="103.812" x2="-3.164" y2="106.249" xlink:href="#linear-gradient"/>
    <linearGradient id="linear-gradient-59" x1="0.236" y1="1.025" x2="0.566" y2="0.398" xlink:href="#linear-gradient"/>
    <linearGradient id="linear-gradient-65" x1="0.863" y1="0.482" x2="-0.884" y2="0.686" xlink:href="#linear-gradient-2"/>
    <linearGradient id="linear-gradient-66" x1="1.523" y1="0.927" x2="0.086" y2="0.311" xlink:href="#linear-gradient"/>
    <linearGradient id="linear-gradient-67" x1="1.079" y1="0.494" x2="3.002" y2="0.478" xlink:href="#linear-gradient-2"/>
    <linearGradient id="linear-gradient-68" x1="-0.792" y1="1.238" x2="0.542" y2="0.459" xlink:href="#linear-gradient"/>
    <linearGradient id="linear-gradient-69" x1="1.603" y1="-0.775" x2="1.253" y2="-0.36" xlink:href="#linear-gradient"/>
  </defs>
  <g id="Grupo_87608" data-name="Grupo 87608" transform="translate(-1172.442 -748.395)">
    <g id="Grupo_87567" data-name="Grupo 87567" transform="translate(1172.442 775.176)">
      <g id="Grupo_87566" data-name="Grupo 87566" transform="translate(9.621)">
        <path id="Trazado_114259" data-name="Trazado 114259" d="M1374.966,894.325a3.4,3.4,0,0,1-3.387,3.384H1188.425a3.4,3.4,0,0,1-3.387-3.384l-1.524-105.254a5.9,5.9,0,0,1,6.211-5.221l179-4.631a8.535,8.535,0,0,1,8.758,8.729Z" transform="translate(-1183.514 -779.216)" fill="url(#linear-gradient)"/>
        <path id="Trazado_114260" data-name="Trazado 114260" d="M1372.33,891.684a3.213,3.213,0,0,1-3.2,3.2H1193.549a3.213,3.213,0,0,1-3.2-3.2l-1.438-95.55a7.885,7.885,0,0,1,8.266-7.694l171.559-4.6a5.989,5.989,0,0,1,6.149,6.138Z" transform="translate(-1184.221 -779.821)" fill="url(#linear-gradient-2)"/>
        <g id="Grupo_87565" data-name="Grupo 87565" transform="translate(7.016 9.149)">
          <path id="Trazado_114261" data-name="Trazado 114261" d="M1192.684,854.249a.291.291,0,0,1-.291-.287l-.114-7.749a.291.291,0,0,1,.288-.3h0a.291.291,0,0,1,.291.287l.114,7.749a.291.291,0,0,1-.288.3Z" transform="translate(-1191.679 -797.108)" fill="#bdf5fb"/>
          <path id="Trazado_114262" data-name="Trazado 114262" d="M1192.314,827.9a.292.292,0,0,1-.291-.287l-.435-29.679a6.316,6.316,0,0,1,1.825-4.735,8.671,8.671,0,0,1,5.745-1.982l54.783-1.47a.291.291,0,0,1,.016.582l-54.8,1.47a8.056,8.056,0,0,0-5.34,1.821,5.753,5.753,0,0,0-1.646,4.311l.436,29.673a.291.291,0,0,1-.287.3Z" transform="translate(-1191.588 -789.745)" fill="#bdf5fb"/>
        </g>
        <path id="Trazado_114263" data-name="Trazado 114263" d="M1199.411,887.466c.183-7.9.115-77.831-.338-83.87s8.954-7.173,23.4-7.852,136.293-3.371,139.43-3.625c7.052-.572,8.512,9.969,7.806,32.853-.53,17.192-1.409,45.513-1.813,58.537a7.186,7.186,0,0,1-7.169,6.965c-29.322.081-141.706.4-149.188.626C1202.925,891.356,1199.338,890.6,1199.411,887.466Z" transform="translate(-1185.551 -780.904)" fill="#fff" opacity="0.12"/>
      </g>
      <path id="Trazado_114264" data-name="Trazado 114264" d="M1383.75,924.242H1177.067a4.638,4.638,0,0,1-4.625-4.624h0a4.638,4.638,0,0,1,4.625-4.624H1383.75a4.638,4.638,0,0,1,4.624,4.624h0A4.638,4.638,0,0,1,1383.75,924.242Z" transform="translate(-1172.442 -797.012)" fill="url(#linear-gradient-3)"/>
    </g>
    <g id="Grupo_87572" data-name="Grupo 87572" transform="translate(1175.603 812.688)">
      <path id="Trazado_114265" data-name="Trazado 114265" d="M1177.614,822.694l70.43-.308a1.207,1.207,0,0,1,1.217,1.215l-.15,24.652a1.2,1.2,0,0,1-1.242,1.2c-6.21-.185-69.864-1-71.081-.951s-.549-19.418-.37-24.643A1.207,1.207,0,0,1,1177.614,822.694Z" transform="translate(-1176.08 -822.386)" fill="#91f1fa"/>
      <g id="Grupo_87568" data-name="Grupo 87568" transform="translate(0.92 0.923)">
        <path id="Trazado_114266" data-name="Trazado 114266" d="M1248.045,848.67h-.009c-3.953-.118-41.846-.591-60.056-.819-5.466-.068-9.354-.116-10.38-.131l-.121,0-.021-.118c-.432-2.439-.425-10.59.021-23.57a.284.284,0,0,1,.282-.274l70.431-.308a.286.286,0,0,1,.2.084.278.278,0,0,1,.082.2l-.15,24.652A.283.283,0,0,1,1248.045,848.67Zm0-.291h0l.142-24.645-70.423.315c-.431,12.749-.447,20.825-.037,23.383l10.258.13C1206.192,847.787,1244.075,848.26,1248.043,848.378Z" transform="translate(-1177.139 -823.448)" fill="#bdf5fb"/>
      </g>
      <path id="Trazado_114267" data-name="Trazado 114267" d="M1181.313,829.886h0c0,.667.222,1.207.5,1.207h26.978c.275,0,.5-.54.5-1.207h0c0-.666-.222-1.207-.5-1.207H1181.81C1181.535,828.679,1181.313,829.219,1181.313,829.886Z" transform="translate(-1176.766 -823.211)" fill="url(#linear-gradient-4)"/>
      <path id="Trazado_114268" data-name="Trazado 114268" d="M1181.313,834.622h0c0,.666.222,1.207.5,1.207h26.978c.275,0,.5-.54.5-1.207h0c0-.667-.222-1.208-.5-1.208H1181.81C1181.535,833.414,1181.313,833.954,1181.313,834.622Z" transform="translate(-1176.766 -823.831)" fill="url(#linear-gradient-5)"/>
      <path id="Trazado_114269" data-name="Trazado 114269" d="M1181.313,839.357h0c0,.667.222,1.207.5,1.207h26.978c.275,0,.5-.54.5-1.207h0c0-.667-.222-1.207-.5-1.207H1181.81C1181.535,838.15,1181.313,838.69,1181.313,839.357Z" transform="translate(-1176.766 -824.452)" fill="url(#linear-gradient-6)"/>
      <path id="Trazado_114270" data-name="Trazado 114270" d="M1181.313,844.093h0c0,.666.222,1.207.5,1.207h26.978c.275,0,.5-.54.5-1.207h0c0-.667-.222-1.207-.5-1.207H1181.81C1181.535,842.886,1181.313,843.427,1181.313,844.093Z" transform="translate(-1176.766 -825.073)" fill="url(#linear-gradient-5)"/>
      <g id="Grupo_87571" data-name="Grupo 87571" transform="translate(33.709 1.88)">
        <circle id="Elipse_4470" data-name="Elipse 4470" cx="4.693" cy="4.693" r="4.693" transform="matrix(0.23, -0.973, 0.973, 0.23, 0, 9.135)" fill="url(#linear-gradient-5)"/>
        <circle id="Elipse_4471" data-name="Elipse 4471" cx="4.693" cy="4.693" r="4.693" transform="translate(12.616 0.953)" fill="url(#linear-gradient-5)"/>
        <circle id="Elipse_4472" data-name="Elipse 4472" cx="4.693" cy="4.693" r="4.693" transform="translate(24.279 1.106)" fill="url(#linear-gradient-5)"/>
        <g id="Grupo_87569" data-name="Grupo 87569" transform="translate(1.868 2.021)">
          <path id="Trazado_114271" data-name="Trazado 114271" d="M1223.589,829.508a3.014,3.014,0,1,1-2.788-1.869c.051,0,.1,0,.152,0v-.765c-.05,0-.1,0-.152,0a3.776,3.776,0,1,0,3.49,2.329Z" transform="translate(-1217.023 -826.875)" fill="url(#linear-gradient-11)"/>
          <path id="Trazado_114272" data-name="Trazado 114272" d="M1235.77,833.2a3.014,3.014,0,1,1-1.606-5.565c.051,0,.1,0,.152,0v-.765c-.051,0-.1,0-.152,0a3.778,3.778,0,1,0,1.984,6.993Z" transform="translate(-1218.774 -826.875)" fill="url(#linear-gradient-12)"/>
          <path id="Trazado_114273" data-name="Trazado 114273" d="M1250.164,832.348a3.015,3.015,0,1,1-2.493-4.71c.051,0,.1,0,.152,0v-.765c-.051,0-.1,0-.152,0a3.778,3.778,0,1,0,3.112,5.921Z" transform="translate(-1220.545 -826.875)" fill="url(#linear-gradient-13)"/>
        </g>
        <g id="Grupo_87570" data-name="Grupo 87570" transform="translate(0.953 12.326)" opacity="0.64">
          <path id="Trazado_114274" data-name="Trazado 114274" d="M1224.486,838.735h-7.647a.869.869,0,0,0,0,1.738h7.647a.869.869,0,1,0,0-1.738Z" transform="translate(-1215.97 -838.735)" fill="url(#linear-gradient-6)"/>
          <path id="Trazado_114275" data-name="Trazado 114275" d="M1237.908,838.735h-7.647a.869.869,0,0,0,0,1.738h7.647a.869.869,0,1,0,0-1.738Z" transform="translate(-1217.729 -838.735)" fill="url(#linear-gradient-6)"/>
          <path id="Trazado_114276" data-name="Trazado 114276" d="M1243.684,840.473h7.648a.869.869,0,0,0,0-1.738h-7.648a.869.869,0,0,0,0,1.738Z" transform="translate(-1219.488 -838.735)" fill="url(#linear-gradient-6)"/>
          <rect id="Rectángulo_34778" data-name="Rectángulo 34778" width="9.386" height="6.857" rx="1" transform="translate(0 2.704)" fill="url(#linear-gradient-5)"/>
          <rect id="Rectángulo_34779" data-name="Rectángulo 34779" width="9.386" height="6.857" rx="1" transform="translate(11.663 2.704)" fill="url(#linear-gradient-5)"/>
          <rect id="Rectángulo_34780" data-name="Rectángulo 34780" width="9.386" height="6.857" rx="1" transform="translate(23.327 2.704)" fill="url(#linear-gradient-5)"/>
        </g>
      </g>
    </g>
    <g id="Grupo_87579" data-name="Grupo 87579" transform="translate(1333.523 861.053)">
      <g id="Grupo_87573" data-name="Grupo 87573" transform="translate(28.658 31.594)">
        <rect id="Rectángulo_34781" data-name="Rectángulo 34781" width="1.106" height="11.966" transform="translate(5.348 2.681)" fill="#7ddaf4"/>
        <path id="Trazado_114277" data-name="Trazado 114277" d="M1401.707,931.419h-9.691a.72.72,0,0,1,.72-.72h8.25a.72.72,0,0,1,.72.72Z" transform="translate(-1390.96 -916.541)" fill="#7ddaf4"/>
        <rect id="Rectángulo_34782" data-name="Rectángulo 34782" width="12.185" height="3.456" rx="1.369" fill="#7ddaf4"/>
      </g>
      <g id="Grupo_87574" data-name="Grupo 87574" transform="translate(12.1 24.049)">
        <path id="Trazado_114278" data-name="Trazado 114278" d="M1387.6,908.309a9.636,9.636,0,0,0-3.493,1.491.92.92,0,0,0-.407.88,39.067,39.067,0,0,0,4.133,12.971,1.4,1.4,0,0,1,.134.958l-.521,2.427-.967.906h2.49l1.659-4.487-.709-.224a1.341,1.341,0,0,1-.937-1.256l-.083-4.814a5.48,5.48,0,0,0-1.316-3.624l3.978-.194Z" transform="translate(-1373.312 -906.062)" fill="#fec5b1"/>
        <path id="Trazado_114279" data-name="Trazado 114279" d="M1385.78,930.63c-.227.3,2.441.689,3.789.039,0,0,1.868-3.251,1.868-4.925,0,0-.148-.341-1.245-.263,0,0-.627,3.849-1.29,4.28a2.645,2.645,0,0,1-1.854.043A3.9,3.9,0,0,0,1385.78,930.63Z" transform="translate(-1373.584 -908.311)" fill="url(#linear-gradient-20)"/>
        <path id="Trazado_114280" data-name="Trazado 114280" d="M1389.667,913.7c-.022-.036-4.283-.513-4.283-.513a9.837,9.837,0,0,1-.3,3.079c-.435,1.784-6.693,9.511-6.693,9.511l.656,2.079a10.55,10.55,0,0,1-5.987.36l4.066-2.439s3.805-12.967,6.135-15.28l4.272-1.478Z" transform="translate(-1371.919 -906.155)" fill="url(#linear-gradient-21)"/>
        <path id="Trazado_114281" data-name="Trazado 114281" d="M1400.768,905.723s2.455,3.652,2.656,5.318-.672,2.343-3.248,2.454-9.453.11-9.453.11l-5.87-5.016s4.277-1.526,5.389-1.958S1400.768,905.723,1400.768,905.723Z" transform="translate(-1373.464 -905.723)" fill="url(#linear-gradient-22)"/>
        <path id="Trazado_114282" data-name="Trazado 114282" d="M1378.631,929.893a1.2,1.2,0,0,1,.229,1.445s-5.595.991-7.114.542c0,0,.315-.72,2.025-1.54l-.126.1a.2.2,0,0,0,.135.366A15.733,15.733,0,0,0,1378.631,929.893Z" transform="translate(-1371.746 -908.891)" fill="url(#linear-gradient-23)"/>
      </g>
      <g id="Grupo_87575" data-name="Grupo 87575" transform="translate(26.941)">
        <path id="Trazado_114283" data-name="Trazado 114283" d="M1394.763,903.17a55.963,55.963,0,0,1-4.266-4.525,3.826,3.826,0,0,1-.648-3.444,47.661,47.661,0,0,1,1.889-4.756c.159-.535,3.365-.513,3.365-.513s6.308,4.094,8.787,11.029l-2.784.866a32.506,32.506,0,0,0-3.274-4.52s2.816,3.72,2.915,5.243Z" transform="translate(-1388.938 -879.604)" fill="url(#linear-gradient-24)"/>
        <path id="Trazado_114284" data-name="Trazado 114284" d="M1391.6,887.018c.034.111.871,2.885.936,2.942a4.675,4.675,0,0,0,2.667-.416l-1.413-2.958Z" transform="translate(-1389.189 -879.166)" fill="url(#linear-gradient-25)"/>
        <path id="Trazado_114285" data-name="Trazado 114285" d="M1392.725,880.364a5.652,5.652,0,0,0-2.537,2.821c-1.027,2.183-.26,3.191.7,3.329a4.51,4.51,0,0,0,3.928-1.293C1396.343,883.811,1394.688,879.608,1392.725,880.364Z" transform="translate(-1388.94 -878.338)" fill="#fec5b1"/>
        <path id="Trazado_114286" data-name="Trazado 114286" d="M1394.009,883.764s1.14-3.193-1.692-3.231l-.666.466a1.815,1.815,0,0,1,.666-2.616,3.627,3.627,0,0,1,4.975,2.2c.726,2.3.3,3.781-.906,4.88s-1.7-.148-1.7-.148.657-1.028.389-1.577-.885.113-.885.113Z" transform="translate(-1389.154 -878.046)" fill="url(#linear-gradient-26)"/>
        <path id="Trazado_114287" data-name="Trazado 114287" d="M1394.777,884.863s.576-1.646,1.345-.991-.625,1.52-1.17,1.8Z" transform="translate(-1389.605 -878.79)" fill="url(#linear-gradient-27)"/>
        <path id="Trazado_114288" data-name="Trazado 114288" d="M1388.825,905.036l2.1-2.025,2.906,1.228a14.328,14.328,0,0,0,4.548,0l1.655-.448,3.742-1.164.587,1.661a1,1,0,0,1-.366,1.149,6.676,6.676,0,0,1-.944.588c-.493.215-12.144-.149-12.144-.149Z" transform="translate(-1388.825 -881.268)" fill="url(#linear-gradient-28)"/>
        <path id="Trazado_114289" data-name="Trazado 114289" d="M1397.909,881.211a.648.648,0,0,1,.387-1.081c1.66-.259,4.19.005,5.254,3.558,1.2,4,1.977,6,2.776,6.354a.651.651,0,0,1,.036,1.195,2.764,2.764,0,0,1-1.734.062C1398.511,889.953,1400.043,883.392,1397.909,881.211Z" transform="translate(-1389.993 -878.31)" fill="url(#linear-gradient-29)"/>
      </g>
      <g id="Grupo_87576" data-name="Grupo 87576" transform="translate(10.911 13.659)">
        <path id="Trazado_114290" data-name="Trazado 114290" d="M1396.049,906.332h-.028l-12.185-.014a.545.545,0,0,1,0-1.09l12.185.013a.546.546,0,0,1,.027,1.091Z" transform="translate(-1372.07 -895.268)" fill="url(#linear-gradient-30)"/>
        <path id="Trazado_114291" data-name="Trazado 114291" d="M1371.189,893.766h10.148a1.933,1.933,0,0,1,1.749,1.109l4.691,9.948h-12.611a1.175,1.175,0,0,1-1.093-.743l-3.638-9.205A.81.81,0,0,1,1371.189,893.766Z" transform="translate(-1370.378 -893.766)" fill="url(#linear-gradient-31)"/>
      </g>
      <g id="Grupo_87578" data-name="Grupo 87578" transform="translate(0 24.606)">
        <g id="Grupo_87577" data-name="Grupo 87577" transform="translate(2.982 0.95)">
          <path id="Trazado_114292" data-name="Trazado 114292" d="M1361.7,930.63a.423.423,0,0,1-.176-.037.46.46,0,0,1-.234-.6l9.358-22.259a.444.444,0,0,1,.587-.239.462.462,0,0,1,.234.6l-9.358,22.259A.446.446,0,0,1,1361.7,930.63Z" transform="translate(-1361.253 -907.457)" fill="#91f1fa"/>
          <path id="Trazado_114293" data-name="Trazado 114293" d="M1372.421,930.63a.446.446,0,0,1-.41-.276l-9.359-22.259a.462.462,0,0,1,.234-.6.443.443,0,0,1,.586.239l9.358,22.259a.46.46,0,0,1-.234.6A.422.422,0,0,1,1372.421,930.63Z" transform="translate(-1361.432 -907.457)" fill="#91f1fa"/>
          <path id="Trazado_114294" data-name="Trazado 114294" d="M1404.111,930.63a.422.422,0,0,1-.176-.037.46.46,0,0,1-.234-.6l9.359-22.259a.443.443,0,0,1,.586-.239.461.461,0,0,1,.233.6l-9.358,22.259A.446.446,0,0,1,1404.111,930.63Z" transform="translate(-1366.812 -907.457)" fill="#91f1fa"/>
          <path id="Trazado_114295" data-name="Trazado 114295" d="M1414.832,930.63a.447.447,0,0,1-.41-.276l-9.358-22.259a.461.461,0,0,1,.234-.6.444.444,0,0,1,.587.239l9.358,22.259a.46.46,0,0,1-.234.6A.423.423,0,0,1,1414.832,930.63Z" transform="translate(-1366.99 -907.457)" fill="#91f1fa"/>
        </g>
        <path id="Trazado_114296" data-name="Trazado 114296" d="M1409.741,906.925a.452.452,0,0,0-.106-.389.517.517,0,0,0-.388-.172H1358.4a.588.588,0,0,0-.488.25.514.514,0,0,0-.038.521l.551,1.117a.775.775,0,0,0,.7.42H1408.9a.575.575,0,0,0,.573-.443Z" transform="translate(-1357.821 -906.364)" fill="#bdf5fb"/>
      </g>
    </g>
    <g id="Grupo_87591" data-name="Grupo 87591" transform="translate(1179.916 845.839)">
      <g id="Grupo_87583" data-name="Grupo 87583">
        <g id="Grupo_87580" data-name="Grupo 87580" transform="translate(0 29.096)">
          <path id="Trazado_114297" data-name="Trazado 114297" d="M1200.5,929.643a16.332,16.332,0,0,0-.195,1.693.729.729,0,0,0,.657.77,32.3,32.3,0,0,0,6.43.09.332.332,0,0,0,.182-.571,10.268,10.268,0,0,0-6.02-2.558Z" transform="translate(-1183.569 -898.615)" fill="url(#linear-gradient-32)"/>
          <path id="Trazado_114298" data-name="Trazado 114298" d="M1199.755,927.612l.687,1.685a.562.562,0,0,0,.577.348,3.026,3.026,0,0,0,.561-.109.738.738,0,0,0,.49-.918l-.519-1.734Z" transform="translate(-1183.496 -898.329)" fill="url(#linear-gradient-33)"/>
          <path id="Trazado_114299" data-name="Trazado 114299" d="M1185.9,931.274a7.22,7.22,0,0,1,1.912,2.629.628.628,0,0,1-.6.834h-2.832a.668.668,0,0,1-.66-.78C1183.907,932.936,1184.427,931.278,1185.9,931.274Z" transform="translate(-1181.394 -898.905)" fill="url(#linear-gradient-34)"/>
          <path id="Trazado_114300" data-name="Trazado 114300" d="M1184.271,929.518s.277,1.23.491,2.043a.26.26,0,0,0,.341.177,2.373,2.373,0,0,1,1.031-.187.2.2,0,0,0,.222-.2l.026-2.044Z" transform="translate(-1181.467 -898.647)" fill="url(#linear-gradient-35)"/>
          <path id="Trazado_114301" data-name="Trazado 114301" d="M1191.167,897.206l8.371,25.538a6.315,6.315,0,0,1-2.37,1.008l-9.943-20.524s-1.74,12.646-.9,21.725l-2.848.218s-4.631-23.2-1.123-31.149Z" transform="translate(-1181.044 -894.022)" fill="url(#linear-gradient-36)"/>
          <path id="Trazado_114302" data-name="Trazado 114302" d="M1188.207,903.949h-.01a.082.082,0,0,1-.07-.091l.325-2.578a.082.082,0,0,1,.09-.07.08.08,0,0,1,.07.09l-.325,2.579A.08.08,0,0,1,1188.207,903.949Z" transform="translate(-1181.972 -894.964)" fill="url(#linear-gradient-37)"/>
        </g>
        <path id="Trazado_114303" data-name="Trazado 114303" d="M1192.79,871.824s-6.782.6-5.823,5.434a65.9,65.9,0,0,0-5.5,15.367.488.488,0,0,0,.4.58l11.294,1.934a.609.609,0,0,0,.692-.447l2.7-10.43,1.052,4.849,3.341-.871-2.813-14.25S1197.734,871.914,1192.79,871.824Z" transform="translate(-1181.098 -862.017)" fill="url(#linear-gradient-38)"/>
        <path id="Trazado_114304" data-name="Trazado 114304" d="M1198.877,884.925l-.018,0a.084.084,0,0,1-.064-.1l.941-4.323a.085.085,0,0,1,.1-.064.084.084,0,0,1,.064.1l-.942,4.323A.084.084,0,0,1,1198.877,884.925Z" transform="translate(-1183.37 -863.145)" fill="url(#linear-gradient-39)"/>
        <path id="Trazado_114305" data-name="Trazado 114305" d="M1197.187,899.285a1.613,1.613,0,0,0-1.166-.152l-.786.2a.284.284,0,0,1-.351-.244l-.813-7.238a6.662,6.662,0,0,1-2.967.39l1.872,8.533h6.549Z" transform="translate(-1182.362 -864.641)" fill="url(#linear-gradient-40)"/>
        <path id="Trazado_114306" data-name="Trazado 114306" d="M1215.761,881.6l-.2-.658a1.3,1.3,0,0,0-.761-.832l-3.58-1.44s-.055-.459.756-.772a1.076,1.076,0,0,0,.621-1.219s-1.107.5-2.729,1.306a3.79,3.79,0,0,0-1.723,1.876l-8.113,9.891.952.654a2.543,2.543,0,0,0,3.687-.9l4.4-8.429A16.379,16.379,0,0,0,1215.761,881.6Z" transform="translate(-1183.533 -862.653)" fill="url(#linear-gradient-40)"/>
        <g id="Grupo_87582" data-name="Grupo 87582" transform="translate(11.804)">
          <path id="Trazado_114307" data-name="Trazado 114307" d="M1196.714,866.5l-2.086,5.838s1.847,1.444,3.2.956l1.051-3.347S1198.072,865.861,1196.714,866.5Z" transform="translate(-1194.628 -861.31)" fill="url(#linear-gradient-42)"/>
          <g id="Grupo_87581" data-name="Grupo 87581" transform="translate(1.482)">
            <path id="Trazado_114308" data-name="Trazado 114308" d="M1203.412,863.926c0,.089-2.01,5.688-2.01,5.688l-3.172-1.215,1.116-5.589S1203.412,862.42,1203.412,863.926Z" transform="translate(-1196.582 -860.829)" fill="url(#linear-gradient-43)"/>
            <path id="Trazado_114309" data-name="Trazado 114309" d="M1199.7,863.88l-.818,2.9a.409.409,0,0,0-.016.113c0,.236.058,1.049.886.938a3.773,3.773,0,0,1,1.875.025.42.42,0,0,1,.216.522,18.145,18.145,0,0,1-1.143,2.579.418.418,0,0,1-.539.172,13.535,13.535,0,0,1-2.721-1.6.421.421,0,0,1-.149-.4c.139-.741.553-2.994.572-3.64.016-.607-.663-1.07-.963-1.243a.411.411,0,0,1-.195-.261,1.089,1.089,0,0,1,.952-1.468.421.421,0,0,0,.342-.5,1.092,1.092,0,0,1,.822-1.406,1.539,1.539,0,0,1,1.755.7.421.421,0,0,0,.521.139.332.332,0,0,1,.373.067.414.414,0,0,0,.606-.093,1.257,1.257,0,0,1,1.548-.511c1.433.464,1.364,2.117.839,3.014s-2.051.308-2.773-.288a1.8,1.8,0,0,0-1.754-.026A.417.417,0,0,0,1199.7,863.88Z" transform="translate(-1196.375 -860.537)" fill="url(#linear-gradient-44)"/>
            <path id="Trazado_114310" data-name="Trazado 114310" d="M1197.532,867.084s.848-1.6.288-2.109-1.511-.421-1.486.833C1196.366,867.369,1197.532,867.084,1197.532,867.084Z" transform="translate(-1196.333 -861.081)" fill="url(#linear-gradient-45)"/>
          </g>
        </g>
        <path id="Trazado_114311" data-name="Trazado 114311" d="M1191.353,890.661a8.286,8.286,0,0,1-.829-.039l-.06-.007-2.47-11.514a.084.084,0,1,1,.164-.036l2.443,11.4a5.985,5.985,0,0,0,3.366-.572l-2.139-10,.447-.842a.084.084,0,0,1,.149.079l-.418.787,2.15,10.05-.043.032A4.9,4.9,0,0,1,1191.353,890.661Z" transform="translate(-1181.955 -862.957)" fill="url(#linear-gradient-46)"/>
      </g>
      <g id="Grupo_87584" data-name="Grupo 87584" transform="translate(12.108 38.972)">
        <path id="Trazado_114312" data-name="Trazado 114312" d="M1195.465,932.33a.448.448,0,0,1-.192-.043.549.549,0,0,1-.255-.7l10.2-25.881a.473.473,0,0,1,.64-.278.551.551,0,0,1,.255.7l-10.2,25.88A.486.486,0,0,1,1195.465,932.33Z" transform="translate(-1194.978 -905.387)" fill="#91f1fa"/>
        <path id="Trazado_114313" data-name="Trazado 114313" d="M1207.15,932.33a.487.487,0,0,1-.448-.321l-10.2-25.88a.551.551,0,0,1,.255-.7.472.472,0,0,1,.639.278l10.2,25.881a.549.549,0,0,1-.255.7A.448.448,0,0,1,1207.15,932.33Z" transform="translate(-1195.173 -905.387)" fill="#91f1fa"/>
        <path id="Trazado_114314" data-name="Trazado 114314" d="M1245.431,932.33a.448.448,0,0,1-.192-.043.55.55,0,0,1-.255-.7l10.2-25.881a.473.473,0,0,1,.64-.278.551.551,0,0,1,.255.7l-10.2,25.88A.486.486,0,0,1,1245.431,932.33Z" transform="translate(-1201.527 -905.387)" fill="#91f1fa"/>
        <path id="Trazado_114315" data-name="Trazado 114315" d="M1257.116,932.33a.487.487,0,0,1-.448-.321l-10.2-25.88a.551.551,0,0,1,.255-.7.472.472,0,0,1,.639.278l10.2,25.881a.549.549,0,0,1-.255.7A.453.453,0,0,1,1257.116,932.33Z" transform="translate(-1201.722 -905.387)" fill="#91f1fa"/>
      </g>
      <g id="Grupo_87585" data-name="Grupo 87585" transform="translate(43.343 45.552)">
        <rect id="Rectángulo_34783" data-name="Rectángulo 34783" width="1.206" height="13.042" transform="translate(5.828 2.922)" fill="#91f1fa"/>
        <path id="Trazado_114316" data-name="Trazado 114316" d="M1242.811,931.5h-10.563v-.057a.728.728,0,0,1,.728-.728h9.049a.785.785,0,0,1,.786.785Z" transform="translate(-1231.098 -915.288)" fill="#91f1fa"/>
        <rect id="Rectángulo_34784" data-name="Rectángulo 34784" width="13.28" height="3.766" rx="1.493" fill="#91f1fa"/>
      </g>
      <g id="Grupo_87586" data-name="Grupo 87586" transform="translate(25.296 37.329)">
        <path id="Trazado_114317" data-name="Trazado 114317" d="M1227.438,906.316a10.5,10.5,0,0,0-3.807,1.625,1,1,0,0,0-.443.959,42.568,42.568,0,0,0,4.5,14.138,1.515,1.515,0,0,1,.146,1.044l-.568,2.644-1.054.988h2.715l1.807-4.891-.772-.244a1.46,1.46,0,0,1-1.021-1.369l-.091-5.247a5.97,5.97,0,0,0-1.433-3.95l4.335-.211Z" transform="translate(-1211.862 -903.867)" fill="url(#linear-gradient-40)"/>
        <path id="Trazado_114318" data-name="Trazado 114318" d="M1225.451,930.643c-.247.323,2.661.75,4.13.043,0,0,2.037-3.544,2.037-5.368,0,0-.162-.372-1.357-.288,0,0-.684,4.2-1.406,4.666a2.884,2.884,0,0,1-2.02.047A4.251,4.251,0,0,0,1225.451,930.643Z" transform="translate(-1212.158 -906.318)" fill="url(#linear-gradient-48)"/>
        <path id="Trazado_114319" data-name="Trazado 114319" d="M1229.688,912.192c-.023-.04-4.668-.559-4.668-.559a10.731,10.731,0,0,1-.323,3.356c-.474,1.944-7.294,10.366-7.294,10.366l.715,2.267a11.5,11.5,0,0,1-6.526.392l4.432-2.659s4.147-14.132,6.687-16.653l4.656-1.611Z" transform="translate(-1210.343 -903.968)" fill="url(#linear-gradient-40)"/>
        <path id="Trazado_114320" data-name="Trazado 114320" d="M1241.788,903.5s2.675,3.98,2.9,5.8-.733,2.553-3.541,2.675-10.3.12-10.3.12l-6.4-5.467s4.662-1.664,5.874-2.134S1241.788,903.5,1241.788,903.5Z" transform="translate(-1212.028 -903.497)" fill="url(#linear-gradient-50)"/>
        <path id="Trazado_114321" data-name="Trazado 114321" d="M1217.659,929.84a1.309,1.309,0,0,1,.249,1.575s-6.1,1.081-7.753.59c0,0,.344-.785,2.208-1.677l-.137.105a.223.223,0,0,0,.147.4A17.166,17.166,0,0,0,1217.659,929.84Z" transform="translate(-1210.155 -906.95)" fill="url(#linear-gradient-51)"/>
      </g>
      <g id="Grupo_87588" data-name="Grupo 87588" transform="translate(41.471 11.107)">
        <path id="Trazado_114322" data-name="Trazado 114322" d="M1237.571,877.765c.4.126,1.862.649,1.673,1.587a.172.172,0,0,0,.215.2,2.7,2.7,0,0,1,2.875.7,1.69,1.69,0,0,1-.27,2.342.172.172,0,0,0,.144.292c1.154-.145,3.663-.181,4.074,2.17a2.347,2.347,0,0,1-2.047,2.984.172.172,0,0,0-.057.315,1.827,1.827,0,0,1,.763,2.045c-.331,1.83-3.919,1.68-4.339,1.656a.175.175,0,0,1-.075-.023l-5.747-3.278a.169.169,0,0,1-.084-.121l-1.161-6.7a.173.173,0,0,1,.046-.15l3.816-3.966A.17.17,0,0,1,1237.571,877.765Z" transform="translate(-1229.394 -873.901)" fill="url(#linear-gradient-52)"/>
        <path id="Trazado_114323" data-name="Trazado 114323" d="M1235.242,900.715a61.013,61.013,0,0,1-4.651-4.933,4.169,4.169,0,0,1-.706-3.753,51.817,51.817,0,0,1,2.058-5.183c.175-.583,3.668-.559,3.668-.559s6.875,4.463,9.577,12.021l-3.034.945a35.435,35.435,0,0,0-3.569-4.926s3.069,4.054,3.178,5.714Z" transform="translate(-1228.894 -875.02)" fill="#91f1fa"/>
        <path id="Trazado_114324" data-name="Trazado 114324" d="M1231.794,883.11c.036.121.949,3.145,1.02,3.207a5.107,5.107,0,0,0,2.907-.454l-1.54-3.224Z" transform="translate(-1229.167 -874.541)" fill="url(#linear-gradient-53)"/>
        <g id="Grupo_87587" data-name="Grupo 87587" transform="translate(0.828)">
          <path id="Trazado_114325" data-name="Trazado 114325" d="M1233.021,875.858a6.159,6.159,0,0,0-2.766,3.074c-1.119,2.379-.283,3.477.766,3.629a4.915,4.915,0,0,0,4.281-1.409C1236.964,879.615,1235.161,875.034,1233.021,875.858Z" transform="translate(-1229.723 -873.64)" fill="url(#linear-gradient-54)"/>
          <path id="Trazado_114326" data-name="Trazado 114326" d="M1234.42,879.562s1.242-3.48-1.843-3.521l-.726.507s-1.132-1.93.726-2.851,4.033-.161,4.823,2.344.926,4.18-.389,5.377-1.858-.16-1.858-.16.716-1.121.425-1.721-.964.124-.964.124Z" transform="translate(-1229.957 -873.32)" fill="url(#linear-gradient-55)"/>
          <path id="Trazado_114327" data-name="Trazado 114327" d="M1234.958,880.912s.627-1.793,1.466-1.079-.681,1.656-1.276,1.961Z" transform="translate(-1230.409 -874.152)" fill="url(#linear-gradient-56)"/>
        </g>
        <path id="Trazado_114328" data-name="Trazado 114328" d="M1228.77,902.748l2.289-2.206,3.167,1.337a15.6,15.6,0,0,0,4.957,0l1.8-.488,4.078-1.27.641,1.81a1.09,1.09,0,0,1-.4,1.252,7.2,7.2,0,0,1-1.03.641c-.537.235-13.237-.163-13.237-.163Z" transform="translate(-1228.77 -876.833)" fill="url(#linear-gradient-57)"/>
      </g>
      <g id="Grupo_87589" data-name="Grupo 87589" transform="translate(24.001 26.005)">
        <path id="Trazado_114329" data-name="Trazado 114329" d="M1236.643,904.16h-.031l-13.28-.014a.595.595,0,1,1,0-1.19l13.281.015a.594.594,0,0,1,.029,1.188Z" transform="translate(-1210.509 -892.102)" fill="url(#linear-gradient-58)"/>
        <path id="Trazado_114330" data-name="Trazado 114330" d="M1209.549,890.465h11.061a2.107,2.107,0,0,1,1.906,1.209l5.113,10.842h-13.745a1.28,1.28,0,0,1-1.191-.81l-3.965-10.033A.883.883,0,0,1,1209.549,890.465Z" transform="translate(-1208.665 -890.465)" fill="url(#linear-gradient-59)"/>
      </g>
      <g id="Grupo_87590" data-name="Grupo 87590" transform="translate(9.115 35.985)">
        <path id="Trazado_114331" data-name="Trazado 114331" d="M1206.115,903.65h-13.07V902.3h13.07C1205.836,902.3,1205.836,903.65,1206.115,903.65Z" transform="translate(-1191.732 -901.996)" fill="#bdf5fb"/>
        <path id="Trazado_114332" data-name="Trazado 114332" d="M1192.977,903.6a.13.13,0,0,1-.13-.13v-1.088a.131.131,0,0,1,.13-.13h13.208a.13.13,0,0,0,.13-.13v-.044a.131.131,0,0,0-.13-.13H1192.1a.565.565,0,0,0-.564.565v.862a.532.532,0,0,0,.532.532h14.119a.13.13,0,0,0,.13-.13v-.044a.131.131,0,0,0-.13-.13Z" transform="translate(-1191.534 -901.95)" fill="#91f1fa"/>
      </g>
      <path id="Trazado_114333" data-name="Trazado 114333" d="M1250.889,904.808a.466.466,0,0,0-.125-.425.629.629,0,0,0-.456-.187h-59.816a.711.711,0,0,0-.574.273.525.525,0,0,0-.044.567l.648,1.218a.926.926,0,0,0,.824.458H1249.9a.668.668,0,0,0,.674-.483Z" transform="translate(-1182.193 -866.26)" fill="#bdf5fb"/>
    </g>
    <path id="Trazado_114334" data-name="Trazado 114334" d="M1379.762,881.2a.22.22,0,0,1-.041,0l-.159-.023a.291.291,0,1,1,.084-.576l.156.022a.292.292,0,0,1-.041.58Zm-2.145-.474a.286.286,0,0,1-.085-.013c-.28-.085-.564-.181-.845-.284a.291.291,0,0,1,.2-.547c.27.1.544.191.813.273a.292.292,0,0,1-.084.571Zm-2.7-1.1a.3.3,0,0,1-.132-.031c-.26-.132-.522-.274-.782-.421a.291.291,0,1,1,.288-.507c.252.142.507.281.758.408a.291.291,0,0,1-.132.551Zm-2.489-1.513a.29.29,0,0,1-.168-.054q-.361-.257-.712-.527a.291.291,0,0,1,.356-.461c.228.176.459.348.693.514a.292.292,0,0,1-.17.529Zm-2.256-1.842a.286.286,0,0,1-.2-.078q-.326-.3-.636-.616a.291.291,0,1,1,.414-.41q.3.305.62.6a.291.291,0,0,1-.2.5Zm-1.993-2.121a.291.291,0,0,1-.226-.107q-.283-.345-.547-.7a.292.292,0,0,1,.467-.35c.17.228.348.454.532.678a.292.292,0,0,1-.041.41A.289.289,0,0,1,1368.185,874.151Zm-1.679-2.379a.292.292,0,0,1-.249-.138q-.232-.375-.453-.755a.291.291,0,0,1,.5-.294c.145.249.294.5.446.743a.291.291,0,0,1-.1.4A.285.285,0,0,1,1366.506,871.772Zm-1.431-2.534a.29.29,0,0,1-.259-.157c-.136-.26-.267-.521-.4-.785a.291.291,0,1,1,.522-.257q.192.388.391.774a.292.292,0,0,1-.124.393A.3.3,0,0,1,1365.075,869.238Zm-1.253-2.628a.29.29,0,0,1-.267-.174q-.177-.4-.347-.808a.291.291,0,0,1,.537-.225q.168.4.343.8a.292.292,0,0,1-.149.384A.3.3,0,0,1,1363.822,866.611Zm-1.1-2.7a.292.292,0,0,1-.273-.189q-.155-.411-.306-.824a.292.292,0,0,1,.548-.2c.1.273.2.546.3.817a.291.291,0,0,1-.272.395Zm-.975-2.748a.291.291,0,0,1-.276-.2q-.138-.416-.274-.834a.291.291,0,0,1,.554-.179q.134.416.272.829a.291.291,0,0,1-.183.368A.287.287,0,0,1,1361.748,861.166Zm-.881-2.779a.291.291,0,0,1-.279-.207c-.085-.279-.169-.559-.252-.839a.291.291,0,0,1,.559-.166q.124.42.251.837a.292.292,0,0,1-.195.363A.283.283,0,0,1,1360.867,858.387Zm-.821-2.8a.291.291,0,0,1-.28-.211l-.239-.842a.291.291,0,0,1,.561-.159l.239.841a.292.292,0,0,1-.2.361A.321.321,0,0,1,1360.046,855.59Zm-.791-2.8a.292.292,0,0,1-.281-.213l-.236-.841a.291.291,0,1,1,.561-.158l.237.842a.293.293,0,0,1-.2.36A.315.315,0,0,1,1359.255,852.785Zm-.795-2.8a.291.291,0,0,1-.28-.211q-.12-.42-.243-.838a.292.292,0,0,1,.56-.164q.122.42.244.841a.294.294,0,0,1-.281.372Zm-.829-2.793a.292.292,0,0,1-.278-.206q-.129-.416-.26-.832a.291.291,0,1,1,.555-.176c.088.278.176.557.261.836a.292.292,0,0,1-.193.364A.3.3,0,0,1,1357.631,847.189Zm-.9-2.771a.291.291,0,0,1-.275-.2q-.141-.412-.286-.822a.291.291,0,0,1,.549-.195q.147.413.288.828a.292.292,0,0,1-.276.386Zm-1-2.737a.293.293,0,0,1-.272-.185q-.158-.405-.321-.808a.291.291,0,1,1,.54-.219q.166.407.324.816a.291.291,0,0,1-.166.377A.3.3,0,0,1,1355.738,841.681ZM1354.612,839a.291.291,0,0,1-.266-.171q-.179-.4-.366-.788a.291.291,0,1,1,.526-.25q.189.4.37.8a.291.291,0,0,1-.145.385A.283.283,0,0,1,1354.612,839Zm-1.285-2.614a.29.29,0,0,1-.257-.154c-.136-.255-.276-.509-.418-.762a.291.291,0,1,1,.507-.285q.216.383.424.772a.292.292,0,0,1-.256.428Zm-1.47-2.517a.291.291,0,0,1-.246-.135q-.233-.365-.475-.723a.291.291,0,1,1,.482-.327q.246.364.484.736a.292.292,0,0,1-.245.448Zm-1.672-2.383a.292.292,0,0,1-.232-.114q-.263-.343-.535-.679a.291.291,0,1,1,.453-.367c.184.228.366.457.545.691a.291.291,0,0,1-.23.468Zm-1.871-2.229a.29.29,0,0,1-.215-.095q-.293-.319-.593-.631a.291.291,0,1,1,.42-.4q.305.317.6.641a.291.291,0,0,1-.018.412A.288.288,0,0,1,1348.314,829.254Zm-2.055-2.062a.292.292,0,0,1-.2-.077q-.318-.295-.644-.579a.292.292,0,0,1,.384-.439q.331.291.655.588a.292.292,0,0,1-.2.506Zm-2.222-1.88a.289.289,0,0,1-.179-.062c-.229-.176-.458-.351-.691-.522a.291.291,0,1,1,.346-.469c.236.175.47.351.7.532a.291.291,0,0,1-.178.521Zm-2.373-1.689a.286.286,0,0,1-.158-.047q-.364-.236-.733-.464a.291.291,0,0,1,.306-.5q.376.232.745.472a.291.291,0,0,1-.16.535Zm-2.5-1.487a.281.281,0,0,1-.138-.036q-.382-.206-.768-.4a.291.291,0,0,1,.264-.52q.392.2.78.409a.292.292,0,0,1-.138.548Zm-2.617-1.279a.283.283,0,0,1-.117-.025c-.264-.116-.531-.229-.8-.339a.292.292,0,1,1,.222-.54q.407.168.811.345a.292.292,0,0,1-.117.559Zm-2.712-1.064a.289.289,0,0,1-.1-.016q-.409-.142-.823-.275a.292.292,0,1,1,.178-.555q.42.135.836.279a.292.292,0,0,1-.1.567Zm-2.788-.845a.305.305,0,0,1-.073-.01q-.42-.109-.843-.208a.292.292,0,1,1,.134-.568c.286.067.571.138.856.212a.291.291,0,0,1-.074.573Zm-2.847-.621a.356.356,0,0,1-.051,0c-.284-.05-.57-.1-.856-.142a.291.291,0,1,1,.088-.576q.437.068.871.144a.291.291,0,0,1-.051.578Zm-2.887-.395h-.029q-.431-.042-.865-.073a.291.291,0,0,1,.043-.581c.294.021.587.046.879.074a.291.291,0,0,1-.027.581Zm-6.7-.036a.292.292,0,0,1-.024-.582c.293-.025.586-.046.879-.064a.291.291,0,1,1,.036.581c-.288.018-.576.039-.865.064Zm3.786-.13h-.005q-.315-.005-.631-.005h-.24a.292.292,0,0,1,0-.583h.242q.321,0,.641.006a.291.291,0,0,1,0,.582Z" transform="translate(-19.12 -9.015)" fill="url(#linear-gradient-5)"/>
    <path id="Trazado_114335" data-name="Trazado 114335" d="M1249.127,877.882a.292.292,0,0,1-.044-.58,5.3,5.3,0,0,0,.8-.19.291.291,0,1,1,.176.555,5.9,5.9,0,0,1-.892.211A.378.378,0,0,1,1249.127,877.882Zm2.669-1.1a.291.291,0,0,1-.162-.534c.227-.152.455-.322.679-.5a.291.291,0,1,1,.368.452c-.237.194-.48.374-.722.536A.3.3,0,0,1,1251.8,876.783Zm2.156-1.942a.291.291,0,0,1-.22-.482c.183-.211.366-.434.542-.662a.291.291,0,0,1,.461.356c-.184.237-.374.469-.564.688A.291.291,0,0,1,1253.952,874.841Zm1.7-2.356a.292.292,0,0,1-.249-.443q.219-.358.434-.745a.291.291,0,1,1,.508.283q-.22.4-.445.765A.291.291,0,0,1,1255.655,872.486Zm1.359-2.573a.287.287,0,0,1-.122-.027.291.291,0,0,1-.143-.386q.177-.385.349-.793a.292.292,0,0,1,.537.229c-.118.276-.236.545-.357.806A.29.29,0,0,1,1257.014,869.913Zm1.094-2.7a.3.3,0,0,1-.1-.017.291.291,0,0,1-.176-.373q.143-.4.284-.819a.291.291,0,1,1,.552.185q-.142.425-.288.831A.291.291,0,0,1,1258.108,867.215Zm.889-2.772a.28.28,0,0,1-.08-.011.292.292,0,0,1-.2-.361c.079-.274.156-.553.232-.837a.291.291,0,0,1,.563.15q-.116.431-.235.847A.291.291,0,0,1,1259,864.443Zm.723-2.821a.288.288,0,0,1-.066-.007.291.291,0,0,1-.218-.349q.1-.418.188-.849a.292.292,0,1,1,.57.122q-.094.435-.19.857A.292.292,0,0,1,1259.72,861.622Zm.586-2.853a.278.278,0,0,1-.053,0,.291.291,0,0,1-.234-.34c.052-.282.1-.567.152-.857a.291.291,0,0,1,.574.1c-.05.292-.1.58-.154.864A.29.29,0,0,1,1260.307,858.77Zm.473-2.873a.232.232,0,0,1-.043,0,.291.291,0,0,1-.246-.33q.061-.426.122-.863a.291.291,0,1,1,.577.079q-.06.439-.122.868A.291.291,0,0,1,1260.78,855.9Zm.374-2.888-.033,0a.291.291,0,0,1-.256-.322q.05-.429.095-.866a.291.291,0,1,1,.58.062c-.03.293-.062.584-.1.872A.292.292,0,0,1,1261.154,853.009Zm.291-2.9h-.025a.291.291,0,0,1-.266-.315l.008-.09q.034-.4.076-.786a.291.291,0,1,1,.58.063q-.042.383-.076.774l-.008.089A.291.291,0,0,1,1261.445,850.11Zm.361-2.889a.31.31,0,0,1-.049,0,.292.292,0,0,1-.239-.335q.074-.438.157-.867a.291.291,0,1,1,.572.111q-.082.421-.154.852A.292.292,0,0,1,1261.806,847.221Zm.608-2.845a.31.31,0,0,1-.074-.009.292.292,0,0,1-.208-.356c.075-.287.153-.569.235-.85a.292.292,0,0,1,.56.163q-.121.412-.231.834A.291.291,0,0,1,1262.414,844.376Zm.866-2.778a.288.288,0,0,1-.1-.017.291.291,0,0,1-.174-.374q.152-.417.314-.824a.291.291,0,1,1,.541.216q-.159.4-.308.808A.292.292,0,0,1,1263.28,841.6Zm1.128-2.682a.292.292,0,0,1-.262-.417q.192-.4.393-.791a.292.292,0,1,1,.518.268q-.2.382-.385.774A.292.292,0,0,1,1264.408,838.916Zm1.385-2.561a.288.288,0,0,1-.151-.042.292.292,0,0,1-.1-.4q.231-.379.468-.747a.291.291,0,1,1,.489.316q-.233.361-.459.733A.291.291,0,0,1,1265.793,836.355Zm1.628-2.413a.292.292,0,0,1-.234-.466q.266-.356.539-.7a.291.291,0,1,1,.456.362q-.267.338-.528.686A.289.289,0,0,1,1267.422,833.942Zm1.852-2.248a.292.292,0,0,1-.216-.487q.3-.33.6-.646a.291.291,0,1,1,.421.4q-.3.31-.589.633A.291.291,0,0,1,1269.273,831.695Zm2.051-2.07a.291.291,0,0,1-.2-.5q.327-.3.655-.59a.292.292,0,0,1,.385.438q-.323.283-.645.58A.288.288,0,0,1,1271.324,829.625Zm2.224-1.883a.291.291,0,0,1-.179-.521q.352-.274.7-.533a.291.291,0,1,1,.346.468c-.229.17-.461.345-.691.524A.291.291,0,0,1,1273.548,827.742Zm2.373-1.694a.291.291,0,0,1-.16-.535q.375-.245.743-.474a.292.292,0,0,1,.308.5q-.364.225-.733.467A.288.288,0,0,1,1275.921,826.047Zm2.5-1.5a.292.292,0,0,1-.14-.547q.4-.218.778-.415a.291.291,0,1,1,.269.517q-.375.2-.766.409A.29.29,0,0,1,1278.421,824.546Zm2.61-1.3a.292.292,0,0,1-.121-.557c.283-.129.553-.246.81-.355a.291.291,0,1,1,.227.537c-.252.107-.518.222-.8.348A.3.3,0,0,1,1281.031,823.242Zm2.712-1.086a.292.292,0,0,1-.095-.567c.54-.186.845-.271.858-.275a.292.292,0,1,1,.156.562s-.3.084-.823.263A.289.289,0,0,1,1283.743,822.155Z" transform="translate(-10.013 -9.556)" fill="url(#linear-gradient-5)"/>
    <path id="Trazado_114336" data-name="Trazado 114336" d="M1316.975,802.941a.291.291,0,0,1-.176-.524c.01-.008.263-.2.745-.506a.291.291,0,0,1,.314.491c-.46.294-.7.478-.707.48A.289.289,0,0,1,1316.975,802.941Zm2.492-1.516a.292.292,0,0,1-.136-.549q.369-.2.787-.4a.291.291,0,1,1,.257.523q-.411.2-.772.394A.3.3,0,0,1,1319.467,801.426Zm2.639-1.237a.292.292,0,0,1-.111-.561c.264-.109.537-.218.819-.326a.291.291,0,0,1,.208.544c-.277.106-.546.214-.806.321A.3.3,0,0,1,1322.106,800.188Zm29.479-.308h0c-.29,0-.585-.013-.885-.027a.291.291,0,1,1,.029-.582q.439.021.863.026a.292.292,0,0,1,0,.583Zm2.035-.069a.292.292,0,0,1-.024-.582c.289-.024.576-.054.855-.09a.291.291,0,1,1,.075.578c-.288.037-.584.069-.882.094Zm-4.94-.137-.036,0q-.431-.053-.874-.123a.291.291,0,1,1,.09-.576q.435.068.857.121a.291.291,0,0,1-.036.58Zm7.81-.333a.292.292,0,0,1-.071-.574c.279-.07.556-.149.825-.233a.291.291,0,0,1,.174.556c-.278.087-.567.169-.856.241A.287.287,0,0,1,1356.49,799.342Zm-31.645-.15a.291.291,0,0,1-.088-.569q.413-.13.845-.254a.291.291,0,1,1,.161.56q-.424.122-.83.25A.313.313,0,0,1,1324.845,799.192Zm20.965-.015a.311.311,0,0,1-.063-.006q-.424-.093-.859-.2a.291.291,0,0,1,.137-.567q.428.1.845.195a.291.291,0,0,1-.062.576Zm-2.833-.681a.313.313,0,0,1-.063-.007q-.427-.1-.849-.179a.292.292,0,0,1,.114-.572q.428.085.862.182a.292.292,0,0,1-.063.576Zm-15.318-.059a.291.291,0,0,1-.063-.575q.425-.1.863-.181a.291.291,0,1,1,.112.572q-.43.085-.848.177A.26.26,0,0,1,1327.659,798.437Zm31.567-.076a.291.291,0,0,1-.125-.554c.257-.123.513-.254.76-.392a.292.292,0,0,1,.284.509c-.258.143-.525.281-.792.409A.3.3,0,0,1,1359.226,798.362Zm-19.115-.388a.218.218,0,0,1-.041,0c-.289-.041-.575-.078-.86-.111a.291.291,0,1,1,.069-.579c.288.034.58.071.873.113a.292.292,0,0,1-.041.58Zm-9.585-.048a.291.291,0,0,1-.038-.58q.431-.059.875-.107a.291.291,0,1,1,.063.579q-.437.047-.86.1Zm6.687-.245h-.017q-.437-.026-.866-.041a.291.291,0,0,1,.021-.582q.435.014.88.042a.291.291,0,0,1-.017.582Zm-3.787-.021a.291.291,0,0,1-.014-.582c.291-.015.584-.025.881-.032a.291.291,0,0,1,.014.582q-.438.01-.866.032Zm28.273-.824a.291.291,0,0,1-.18-.521c.222-.174.443-.358.655-.548a.291.291,0,1,1,.388.435c-.222.2-.453.392-.685.573A.289.289,0,0,1,1361.7,796.836Zm2.079-2.031a.291.291,0,0,1-.224-.476c.18-.219.355-.448.522-.678a.291.291,0,0,1,.472.342c-.173.241-.356.478-.545.706A.291.291,0,0,1,1363.779,794.805Zm1.607-2.425a.283.283,0,0,1-.136-.034.291.291,0,0,1-.122-.394c.132-.251.259-.511.376-.77a.291.291,0,1,1,.531.241c-.123.269-.254.539-.392.8A.292.292,0,0,1,1365.386,792.38Zm1.1-2.7a.307.307,0,0,1-.083-.012.291.291,0,0,1-.2-.362c.083-.276.156-.555.219-.828a.292.292,0,0,1,.568.131c-.066.285-.143.575-.229.863A.292.292,0,0,1,1366.485,789.685Z" transform="translate(-18.906 -5.225)" fill="url(#linear-gradient-5)"/>
    <g id="Grupo_87602" data-name="Grupo 87602" transform="translate(1331.084 748.394)">
      <g id="Grupo_87592" data-name="Grupo 87592" transform="translate(25.572 21.841)">
        <path id="Trazado_114337" data-name="Trazado 114337" d="M1424.724,808l-37.451-3.324a2.955,2.955,0,0,1-2.693-2.927l-.138-25.25a2.954,2.954,0,0,1,3.159-2.963l39.878,2.774a2.955,2.955,0,0,1,2.738,3.209l-2.29,25.8A2.955,2.955,0,0,1,1424.724,808Z" transform="translate(-1384.442 -773.53)" fill="#91f1fa"/>
        <path id="Trazado_114338" data-name="Trazado 114338" d="M1386.932,779.488l-.248,21.8a1.828,1.828,0,0,0,1.647,1.84l35.91,3.566a1.827,1.827,0,0,0,2-1.656l2.069-23.313a1.827,1.827,0,0,0-1.72-1.986l-37.732-2.057A1.828,1.828,0,0,0,1386.932,779.488Z" transform="translate(-1384.736 -774.074)" fill="url(#linear-gradient-5)"/>
        <path id="Trazado_114339" data-name="Trazado 114339" d="M1406.5,801.682l20.323,1.193a.37.37,0,0,1,.348.4l-.03.327a.37.37,0,0,1-.4.336l-20.294-1.519a.37.37,0,0,1-.341-.4h0A.37.37,0,0,1,1406.5,801.682Z" transform="translate(-1387.282 -777.219)" fill="#91f1fa"/>
        <rect id="Rectángulo_34785" data-name="Rectángulo 34785" width="0.88" height="21.089" rx="0.426" transform="matrix(0.088, -0.996, 0.996, 0.088, 18.634, 27.006)" fill="#91f1fa"/>
        <path id="Trazado_114340" data-name="Trazado 114340" d="M1412.832,806.694l-.006.061a.371.371,0,0,0,.336.4l14.117,1.253a.37.37,0,0,0,.4-.336l.026-.287a.37.37,0,0,0-.342-.4l-14.137-1.027A.369.369,0,0,0,1412.832,806.694Z" transform="translate(-1388.162 -777.832)" fill="#91f1fa"/>
      </g>
      <g id="Grupo_87593" data-name="Grupo 87593" transform="translate(12.93 9.837)">
        <path id="Trazado_114341" data-name="Trazado 114341" d="M1419.677,797.169l-44.2-.9a3.474,3.474,0,0,1-3.393-3.218l-2.184-29.609a3.473,3.473,0,0,1,3.468-3.729l47,.062a3.474,3.474,0,0,1,3.469,3.544l-.62,30.447A3.473,3.473,0,0,1,1419.677,797.169Z" transform="translate(-1369.894 -759.715)" fill="#91f1fa"/>
        <path id="Trazado_114342" data-name="Trazado 114342" d="M1373.094,766.669l1.456,25.594a2.147,2.147,0,0,0,2.078,2.025l42.41,1.308a2.148,2.148,0,0,0,2.214-2.1l.56-27.511a2.148,2.148,0,0,0-2.177-2.191l-44.426.609A2.148,2.148,0,0,0,1373.094,766.669Z" transform="translate(-1370.313 -760.249)" fill="#bdf5fb"/>
        <path id="Trazado_114343" data-name="Trazado 114343" d="M1397.766,791.215l23.935-.229a.435.435,0,0,1,.439.444l-.008.385a.436.436,0,0,1-.438.427l-23.928-.157a.434.434,0,0,1-.432-.443h0A.436.436,0,0,1,1397.766,791.215Z" transform="translate(-1373.491 -763.814)" fill="#91f1fa"/>
        <rect id="Rectángulo_34786" data-name="Rectángulo 34786" width="1.034" height="24.796" rx="0.501" transform="matrix(0.02, -1, 1, 0.02, 23.792, 30.434)" fill="#91f1fa"/>
        <path id="Trazado_114344" data-name="Trazado 114344" d="M1405.594,796.622l0,.071a.435.435,0,0,0,.426.444l16.66.34a.435.435,0,0,0,.444-.427l.007-.339a.435.435,0,0,0-.433-.443l-16.666-.073A.434.434,0,0,0,1405.594,796.622Z" transform="translate(-1374.573 -764.496)" fill="#91f1fa"/>
      </g>
      <g id="Grupo_87601" data-name="Grupo 87601">
        <g id="Grupo_87594" data-name="Grupo 87594">
          <path id="Trazado_114345" data-name="Trazado 114345" d="M1410.988,789.877h-49.031a3.853,3.853,0,0,1-3.836-3.491l-3.09-32.785a3.853,3.853,0,0,1,3.762-4.213l52.122-.992a3.853,3.853,0,0,1,3.926,3.852v33.777A3.853,3.853,0,0,1,1410.988,789.877Z" transform="translate(-1355.013 -748.394)" fill="#7ddaf4"/>
        </g>
        <path id="Trazado_114346" data-name="Trazado 114346" d="M1358.639,757.109l2.191,28.35a2.382,2.382,0,0,0,2.35,2.2l47.06.494a2.383,2.383,0,0,0,2.408-2.383V755.247a2.383,2.383,0,0,0-2.464-2.382l-49.251,1.679A2.382,2.382,0,0,0,1358.639,757.109Z" transform="translate(-1355.487 -748.98)" fill="url(#linear-gradient-5)"/>
        <path id="Trazado_114347" data-name="Trazado 114347" d="M1387.482,757.331l26.537-.794a.483.483,0,0,1,.5.482v.427a.482.482,0,0,1-.476.482l-26.537.367a.483.483,0,0,1-.489-.482h0A.482.482,0,0,1,1387.482,757.331Z" transform="translate(-1359.207 -749.461)" fill="#91f1fa"/>
        <rect id="Rectángulo_34787" data-name="Rectángulo 34787" width="27.503" height="1.147" rx="0.555" transform="translate(27.807 10.094)" fill="#91f1fa"/>
        <path id="Trazado_114348" data-name="Trazado 114348" d="M1379.52,786.887a.217.217,0,0,1-.216-.216l0-.649a.217.217,0,0,1,.216-.217h0a.216.216,0,0,1,.216.215l0,.65a.217.217,0,0,1-.215.217Zm-.005-2.165a.216.216,0,0,1-.216-.216l0-.649a.216.216,0,0,1,.216-.217h0a.216.216,0,0,1,.216.216l0,.649a.217.217,0,0,1-.216.217Zm-.006-2.165a.217.217,0,0,1-.216-.216l0-.65a.218.218,0,0,1,.216-.217h0a.218.218,0,0,1,.217.216l0,.649a.216.216,0,0,1-.216.217Zm-.005-2.165a.217.217,0,0,1-.216-.216l0-.649a.217.217,0,0,1,.216-.217h0a.216.216,0,0,1,.216.215l0,.65a.217.217,0,0,1-.216.217Z" transform="translate(-1358.194 -752.446)" fill="#91f1fa"/>
        <path id="Trazado_114349" data-name="Trazado 114349" d="M1392.037,785.85a.217.217,0,0,1-.216-.217v-.649a.216.216,0,1,1,.433,0v.649A.217.217,0,0,1,1392.037,785.85Zm0-2.165a.216.216,0,0,1-.216-.216v-.65a.216.216,0,1,1,.433,0v.65A.217.217,0,0,1,1392.037,783.685Zm0-2.165a.216.216,0,0,1-.216-.216v-.65a.216.216,0,1,1,.433,0v.65A.216.216,0,0,1,1392.037,781.52Zm0-2.165a.216.216,0,0,1-.216-.216v-.649a.216.216,0,1,1,.433,0v.649A.216.216,0,0,1,1392.037,779.354Zm0-2.164a.216.216,0,0,1-.216-.216v-.65a.216.216,0,1,1,.433,0v.65A.217.217,0,0,1,1392.037,777.19Z" transform="translate(-1359.837 -752.026)" fill="#91f1fa"/>
        <path id="Trazado_114350" data-name="Trazado 114350" d="M1401.52,787.3a.217.217,0,0,1-.216-.21l-.012-.388a.217.217,0,0,1,.209-.223.212.212,0,0,1,.223.209l.012.388a.218.218,0,0,1-.209.223Zm-.059-1.9a.216.216,0,0,1-.216-.209l-.02-.649a.216.216,0,1,1,.433-.014l.02.649a.216.216,0,0,1-.209.223Zm-.068-2.164a.216.216,0,0,1-.216-.21l-.021-.649a.217.217,0,0,1,.21-.223.223.223,0,0,1,.223.209l.02.65a.218.218,0,0,1-.21.223Zm-.067-2.164a.216.216,0,0,1-.216-.209l-.02-.649a.216.216,0,0,1,.433-.014l.02.649a.215.215,0,0,1-.209.223Zm-.067-2.164a.217.217,0,0,1-.216-.21l-.02-.649a.216.216,0,1,1,.433-.014l.02.65a.218.218,0,0,1-.209.223Zm-.067-2.165a.216.216,0,0,1-.216-.209l-.02-.649a.216.216,0,1,1,.433-.014l.02.649a.217.217,0,0,1-.209.223Zm-.068-2.164a.217.217,0,0,1-.216-.21l-.02-.649a.218.218,0,0,1,.21-.223.213.213,0,0,1,.223.21l.021.649a.218.218,0,0,1-.21.223Z" transform="translate(-1361.026 -751.684)" fill="#91f1fa"/>
        <path id="Trazado_114351" data-name="Trazado 114351" d="M1410.655,785.208a.216.216,0,0,1-.216-.216v-.65a.216.216,0,0,1,.433,0v.65A.217.217,0,0,1,1410.655,785.208Zm0-2.165a.216.216,0,0,1-.216-.216v-.649a.216.216,0,1,1,.433,0v.649A.216.216,0,0,1,1410.655,783.043Zm0-2.165a.216.216,0,0,1-.216-.216v-.649a.216.216,0,1,1,.433,0v.649A.217.217,0,0,1,1410.655,780.877Zm0-2.165a.216.216,0,0,1-.216-.216v-.65a.216.216,0,0,1,.433,0v.65A.217.217,0,0,1,1410.655,778.713Zm0-2.165a.216.216,0,0,1-.216-.216v-.65a.216.216,0,0,1,.433,0v.65A.216.216,0,0,1,1410.655,776.547Zm0-2.165a.216.216,0,0,1-.216-.216v-.649a.216.216,0,0,1,.433,0v.649A.216.216,0,0,1,1410.655,774.382Zm0-2.165a.217.217,0,0,1-.216-.217v-.649a.216.216,0,0,1,.433,0V772A.217.217,0,0,1,1410.655,772.217Zm0-2.165a.216.216,0,0,1-.216-.216v-.65a.216.216,0,0,1,.433,0v.65A.216.216,0,0,1,1410.655,770.052Zm0-2.165a.216.216,0,0,1-.216-.216v-.649a.216.216,0,1,1,.433,0v.649A.216.216,0,0,1,1410.655,767.887Z" transform="translate(-1362.278 -750.807)" fill="#91f1fa"/>
        <g id="Grupo_87596" data-name="Grupo 87596" transform="translate(6.399 9.68)">
          <path id="Trazado_114352" data-name="Trazado 114352" d="M1365.775,786.873a.324.324,0,0,1-.323-.3l-2.219-26.212a.324.324,0,1,1,.646-.055l2.22,26.212a.324.324,0,0,1-.3.351Z" transform="translate(-1362.489 -759.597)" fill="#91f1fa"/>
          <g id="Grupo_87595" data-name="Grupo 87595">
            <path id="Trazado_114353" data-name="Trazado 114353" d="M1362.456,761.656l1-1.191,1.19,1-.079-.932-1.19-1-1,1.19Z" transform="translate(-1362.377 -759.534)" fill="#91f1fa"/>
          </g>
        </g>
        <g id="Grupo_87598" data-name="Grupo 87598" transform="translate(7.676 34.295)">
          <path id="Trazado_114354" data-name="Trazado 114354" d="M1409.844,789.405h-45.672a.325.325,0,1,1,0-.649h45.672a.325.325,0,0,1,0,.649Z" transform="translate(-1363.847 -787.979)" fill="#91f1fa"/>
          <g id="Grupo_87597" data-name="Grupo 87597" transform="translate(44.703)">
            <path id="Trazado_114355" data-name="Trazado 114355" d="M1415.293,790.064l1.1-1.1-1.1-1.1h.935l1.1,1.1-1.1,1.1Z" transform="translate(-1415.293 -787.862)" fill="#91f1fa"/>
          </g>
        </g>
        <g id="Grupo_87599" data-name="Grupo 87599" transform="translate(11.261 14.52)">
          <path id="Trazado_114356" data-name="Trazado 114356" d="M1368.3,778.774a.325.325,0,0,1-.042-.647c.24-.031,24.152-3.306,37.242-12.958a.325.325,0,1,1,.386.523c-13.226,9.751-37.3,13.047-37.543,13.079A.229.229,0,0,1,1368.3,778.774Z" transform="translate(-1367.973 -765.105)" fill="#91f1fa"/>
        </g>
        <g id="Grupo_87600" data-name="Grupo 87600" transform="translate(46.751 14.191)">
          <path id="Trazado_114357" data-name="Trazado 114357" d="M1411.143,767.108h-.025a.326.326,0,0,1-.3-.349l.1-1.276-1.8-.107a.325.325,0,0,1-.3-.343.321.321,0,0,1,.343-.3l2.13.126a.324.324,0,0,1,.3.349l-.126,1.606A.326.326,0,0,1,1411.143,767.108Z" transform="translate(-1408.815 -764.726)" fill="#91f1fa"/>
        </g>
      </g>
    </g>
    <g id="Grupo_87604" data-name="Grupo 87604" transform="translate(1306.063 791.872)">
      <path id="Trazado_114358" data-name="Trazado 114358" d="M1326.218,801.2l3.526-2.417a2,2,0,0,1,1.154-.349l.771.01s3.8,24.1,3.328,34.331c-.041.9-.254,3.632-.254,3.632s-.466.056-.97.1a2.607,2.607,0,0,1-1.493-.327l-5.042-2.84Z" transform="translate(-1326.218 -798.43)" fill="url(#linear-gradient-65)"/>
      <path id="Trazado_114359" data-name="Trazado 114359" d="M1344.835,798.727l-13.095-.285a.781.781,0,0,0-.8.834l2.534,36.157a1.181,1.181,0,0,0,.915,1.069h0l11.853-.51a.656.656,0,0,0,.626-.62c.2-3.748,1.159-24.316-1.2-35.94A.877.877,0,0,0,1344.835,798.727Z" transform="translate(-1326.837 -798.431)" fill="url(#linear-gradient-66)"/>
      <path id="Trazado_114360" data-name="Trazado 114360" d="M1333.678,802.486l.015.3a.422.422,0,0,0,.414.4l10.158.168a.421.421,0,0,0,.428-.421v-.56a.421.421,0,0,0-.425-.422l-10.173.09A.421.421,0,0,0,1333.678,802.486Z" transform="translate(-1327.196 -798.892)" fill="#7ddaf4"/>
      <path id="Trazado_114361" data-name="Trazado 114361" d="M1334.135,807.7l.07.654a.421.421,0,0,0,.426.375l9.849-.158a.421.421,0,0,0,.415-.421v-.622a.421.421,0,0,0-.427-.421l-9.919.127A.421.421,0,0,0,1334.135,807.7Z" transform="translate(-1327.255 -799.567)" fill="#7ddaf4"/>
      <path id="Trazado_114362" data-name="Trazado 114362" d="M1334.333,813.026l.017.127a.421.421,0,0,0,.427.365l9.728-.231a.421.421,0,0,0,.406-.49l-.071-.434a.421.421,0,0,0-.44-.353l-9.673.539A.421.421,0,0,0,1334.333,813.026Z" transform="translate(-1327.281 -800.21)" fill="#7ddaf4"/>
      <path id="Trazado_114363" data-name="Trazado 114363" d="M1334.809,817.979h0a.422.422,0,0,0,.418.371h9.688a.421.421,0,0,0,.421-.422v-.2a.421.421,0,0,0-.43-.421l-9.688.2A.421.421,0,0,0,1334.809,817.979Z" transform="translate(-1327.344 -800.904)" fill="#7ddaf4"/>
      <path id="Trazado_114364" data-name="Trazado 114364" d="M1335.645,823.154l1.049,14.14a.421.421,0,0,0,.45.389l8.108-.579a.421.421,0,0,0,.391-.426l-.191-13.562a.422.422,0,0,0-.421-.415h-8.965A.422.422,0,0,0,1335.645,823.154Z" transform="translate(-1327.453 -801.611)" fill="#7ddaf4"/>
      <path id="Trazado_114365" data-name="Trazado 114365" d="M1344.621,834.823a.06.06,0,0,1-.06-.06v-9.68a.9.9,0,0,0-.9-.9h0c-2.635.011-5.8.02-5.915-.006a.06.06,0,0,1-.044-.072.059.059,0,0,1,.07-.044c.112.017,2.312.019,5.888,0h0a1.023,1.023,0,0,1,1.024,1.024v9.68A.06.06,0,0,1,1344.621,834.823Z" transform="translate(-1327.722 -801.789)" fill="#bdf5fb"/>
      <g id="Grupo_87603" data-name="Grupo 87603" transform="translate(5.91 1.752)">
        <path id="Trazado_114366" data-name="Trazado 114366" d="M1344.818,818.581h-9.411a.712.712,0,0,1-.7-.617c-.918-6.933-1.452-12.262-1.682-16.772a.711.711,0,0,1,.727-.746l10.735.273a.708.708,0,0,1,.692.694l.353,16.443a.709.709,0,0,1-.709.725Zm-11.089-18.016a.592.592,0,0,0-.589.62c.23,4.506.765,9.833,1.682,16.763a.593.593,0,0,0,.586.513h9.411a.59.59,0,0,0,.59-.6l-.353-16.443a.59.59,0,0,0-.575-.578l-10.736-.272Z" transform="translate(-1333.02 -800.446)" fill="#91f1fa"/>
      </g>
      <path id="Trazado_114367" data-name="Trazado 114367" d="M1344.694,805.295h0l-10.952-.172a.06.06,0,0,1,0-.12h0l10.952.173a.059.059,0,0,1,.059.06A.06.06,0,0,1,1344.694,805.295Z" transform="translate(-1327.197 -799.291)" fill="#91f1fa"/>
      <path id="Trazado_114368" data-name="Trazado 114368" d="M1344.832,810.887H1334.8a.059.059,0,0,1-.06-.059.06.06,0,0,1,.06-.06h10.036a.06.06,0,0,1,.06.06A.059.059,0,0,1,1344.832,810.887Z" transform="translate(-1327.334 -800.047)" fill="#91f1fa"/>
      <path id="Trazado_114369" data-name="Trazado 114369" d="M1337.88,815.87c-1.547,0-2.735-.006-2.8-.024a.06.06,0,0,1-.039-.075.059.059,0,0,1,.072-.04c.217.036,6.564.015,9.893,0h0a.06.06,0,0,1,0,.119C1343.995,815.853,1340.445,815.87,1337.88,815.87Z" transform="translate(-1327.375 -800.697)" fill="#91f1fa"/>
    </g>
    <g id="Grupo_87606" data-name="Grupo 87606" transform="translate(1269.003 791.872)">
      <path id="Trazado_114370" data-name="Trazado 114370" d="M1305.714,801.2l-3.527-2.417a2,2,0,0,0-1.153-.349l-.771.01s-3.8,24.1-3.329,34.331c.042.9.255,3.632.255,3.632s.465.056.97.1a2.609,2.609,0,0,0,1.493-.327l5.041-2.84Z" transform="translate(-1285.315 -798.43)" fill="url(#linear-gradient-67)"/>
      <path id="Trazado_114371" data-name="Trazado 114371" d="M1285.97,798.727l13.095-.285a.781.781,0,0,1,.8.834l-2.534,36.157a1.182,1.182,0,0,1-.915,1.069h0l-11.853-.51a.655.655,0,0,1-.627-.62c-.2-3.748-1.16-24.316,1.2-35.94A.878.878,0,0,1,1285.97,798.727Z" transform="translate(-1283.569 -798.431)" fill="url(#linear-gradient-68)"/>
      <path id="Trazado_114372" data-name="Trazado 114372" d="M1297.922,802.486l-.016.3a.422.422,0,0,1-.414.4l-10.158.168a.421.421,0,0,1-.428-.421v-.56a.421.421,0,0,1,.425-.422l10.173.09A.422.422,0,0,1,1297.922,802.486Z" transform="translate(-1284.006 -798.892)" fill="#7ddaf4"/>
      <path id="Trazado_114373" data-name="Trazado 114373" d="M1297.5,807.7l-.071.654a.42.42,0,0,1-.426.375l-9.849-.158a.421.421,0,0,1-.414-.421v-.622a.421.421,0,0,1,.427-.421l9.92.127A.421.421,0,0,1,1297.5,807.7Z" transform="translate(-1283.985 -799.567)" fill="#7ddaf4"/>
      <path id="Trazado_114374" data-name="Trazado 114374" d="M1297.331,813.026l-.017.127a.423.423,0,0,1-.428.365l-9.727-.231a.421.421,0,0,1-.406-.49l.071-.434a.421.421,0,0,1,.439-.353l9.674.539A.421.421,0,0,1,1297.331,813.026Z" transform="translate(-1283.985 -800.21)" fill="#7ddaf4"/>
      <path id="Trazado_114375" data-name="Trazado 114375" d="M1296.865,817.979h0a.422.422,0,0,1-.418.371h-9.688a.422.422,0,0,1-.422-.422v-.2a.421.421,0,0,1,.43-.421l9.688.2A.422.422,0,0,1,1296.865,817.979Z" transform="translate(-1283.932 -800.904)" fill="#7ddaf4"/>
      <path id="Trazado_114376" data-name="Trazado 114376" d="M1296.109,823.154l-1.049,14.14a.422.422,0,0,1-.451.389l-8.107-.579a.421.421,0,0,1-.392-.426l.192-13.562a.421.421,0,0,1,.421-.415h8.965A.422.422,0,0,1,1296.109,823.154Z" transform="translate(-1283.902 -801.611)" fill="#7ddaf4"/>
      <g id="Grupo_87605" data-name="Grupo 87605" transform="translate(1.98 1.752)">
        <path id="Trazado_114377" data-name="Trazado 114377" d="M1287.587,834.823a.06.06,0,0,1-.06-.06v-9.68a1.024,1.024,0,0,1,1.028-1.024c3.578.016,5.779.015,5.888,0a.061.061,0,0,1,.07.048.059.059,0,0,1-.044.07c-.116.026-3.28.017-5.914.006h0a.9.9,0,0,0-.9.9v9.68A.059.059,0,0,1,1287.587,834.823Z" transform="translate(-1286.067 -803.54)" fill="#91f1fa" opacity="0.82"/>
        <path id="Trazado_114378" data-name="Trazado 114378" d="M1295.968,818.581h-9.411a.711.711,0,0,1-.71-.725l.353-16.443a.709.709,0,0,1,.692-.694l10.736-.273a.711.711,0,0,1,.727.746c-.23,4.51-.766,9.839-1.682,16.772A.712.712,0,0,1,1295.968,818.581Zm1.661-18.075v.06l-10.735.272a.589.589,0,0,0-.575.578l-.353,16.443a.589.589,0,0,0,.59.6h9.411a.592.592,0,0,0,.585-.513c.918-6.93,1.452-12.256,1.681-16.763a.583.583,0,0,0-.166-.441.591.591,0,0,0-.439-.178Z" transform="translate(-1285.847 -800.446)" fill="#91f1fa" opacity="0.82"/>
        <path id="Trazado_114379" data-name="Trazado 114379" d="M1286.9,805.295a.06.06,0,0,1-.06-.059.059.059,0,0,1,.059-.06l10.951-.173a.061.061,0,0,1,.061.059.06.06,0,0,1-.059.061l-10.951.172Z" transform="translate(-1285.977 -801.043)" fill="#91f1fa" opacity="0.82"/>
        <path id="Trazado_114380" data-name="Trazado 114380" d="M1296.934,810.887H1286.9a.059.059,0,0,1-.06-.059.06.06,0,0,1,.06-.06h10.036a.059.059,0,0,1,.059.06A.059.059,0,0,1,1296.934,810.887Z" transform="translate(-1285.977 -801.799)" fill="#91f1fa" opacity="0.82"/>
        <path id="Trazado_114381" data-name="Trazado 114381" d="M1293.869,815.87c-2.565,0-6.115-.016-7.131-.022a.06.06,0,0,1-.06-.06.059.059,0,0,1,.06-.059h0c3.334.017,9.692.038,9.895,0a.058.058,0,0,1,.073.039.061.061,0,0,1-.042.076C1296.6,815.864,1295.416,815.87,1293.869,815.87Z" transform="translate(-1285.956 -802.449)" fill="#91f1fa" opacity="0.82"/>
      </g>
    </g>
    <g id="Grupo_87607" data-name="Grupo 87607" transform="translate(1286.068 791.292)">
      <path id="Trazado_114382" data-name="Trazado 114382" d="M1304.813,836.886h20.577a2.038,2.038,0,0,0,2.037-2.118c-.264-6.816-1.168-28.182-2.37-35.65a.8.8,0,0,0-.818-.674c-2.583.084-11.783.3-18-.667a1.146,1.146,0,0,0-1.32,1.078l-1.71,36.351A1.605,1.605,0,0,0,1304.813,836.886Z" transform="translate(-1303.208 -797.762)" fill="url(#linear-gradient-69)"/>
      <path id="Trazado_114383" data-name="Trazado 114383" d="M1309.321,804.571l-.137,10.9a.879.879,0,0,0,.874.89l12.6.068a.877.877,0,0,0,.883-.906l-.341-10.65a.879.879,0,0,0-.856-.851l-12.117-.312A.877.877,0,0,0,1309.321,804.571Z" transform="translate(-1303.991 -798.541)" fill="#91f1fa"/>
      <path id="Trazado_114384" data-name="Trazado 114384" d="M1310.119,816.023a.485.485,0,0,1-.483-.492l.136-10.9a.488.488,0,0,1,.486-.48l12.131.313a.486.486,0,0,1,.473.47l.341,10.651a.487.487,0,0,1-.486.5Z" transform="translate(-1304.05 -798.6)" fill="#7ddaf4"/>
      <circle id="Elipse_4473" data-name="Elipse 4473" cx="0.409" cy="0.409" r="0.409" transform="translate(6.643 6.998)" fill="#91f1fa"/>
      <path id="Trazado_114385" data-name="Trazado 114385" d="M1313.2,806.145h0a.3.3,0,0,0,.269.388l8.239.362a.3.3,0,0,0,.31-.3v-.029a.3.3,0,0,0-.285-.3l-8.239-.333A.3.3,0,0,0,1313.2,806.145Z" transform="translate(-1304.516 -798.834)" fill="#91f1fa"/>
      <circle id="Elipse_4474" data-name="Elipse 4474" cx="0.409" cy="0.409" r="0.409" transform="translate(6.939 9.215)" fill="#91f1fa"/>
      <path id="Trazado_114386" data-name="Trazado 114386" d="M1313.542,808.7h0a.3.3,0,0,0,.269.389l8.239.362a.3.3,0,0,0,.31-.3v-.029a.3.3,0,0,0-.285-.3l-8.239-.334A.3.3,0,0,0,1313.542,808.7Z" transform="translate(-1304.56 -799.168)" fill="#91f1fa"/>
      <circle id="Elipse_4475" data-name="Elipse 4475" cx="0.409" cy="0.409" r="0.409" transform="translate(6.939 11.486)" fill="#91f1fa"/>
      <path id="Trazado_114387" data-name="Trazado 114387" d="M1313.542,811.31h0a.3.3,0,0,0,.269.388l8.239.362a.3.3,0,0,0,.31-.3v-.029a.3.3,0,0,0-.285-.3l-8.239-.334A.3.3,0,0,0,1313.542,811.31Z" transform="translate(-1304.56 -799.511)" fill="#91f1fa"/>
      <circle id="Elipse_4476" data-name="Elipse 4476" cx="0.409" cy="0.409" r="0.409" transform="translate(6.939 14.071)" fill="#91f1fa"/>
      <path id="Trazado_114388" data-name="Trazado 114388" d="M1313.542,814.285h0a.3.3,0,0,0,.269.388l8.239.362a.3.3,0,0,0,.31-.3v-.029a.3.3,0,0,0-.285-.3l-8.239-.334A.3.3,0,0,0,1313.542,814.285Z" transform="translate(-1304.56 -799.901)" fill="#91f1fa"/>
    </g>
  </g>
</svg>
