<svg xmlns="http://www.w3.org/2000/svg" width="56.689" height="56.716" viewBox="0 0 56.689 56.716">
  <g id="Grupo_87947" data-name="Grupo 87947" transform="translate(-0.127)">
    <g id="Grupo_87948" data-name="Grupo 87948" transform="translate(0.127 13.951)">
      <g id="Grupo_87947-2" data-name="Grupo 87947">
        <path id="Trazado_115611" data-name="Trazado 115611" d="M29.579,140.332A5.531,5.531,0,0,0,27.36,135.9a5.534,5.534,0,0,0-3.318-9.965H5.663A5.534,5.534,0,0,0,2.345,135.9a5.53,5.53,0,0,0,0,8.858,5.534,5.534,0,0,0,3.318,9.965h18.38a5.534,5.534,0,0,0,3.318-9.965A5.531,5.531,0,0,0,29.579,140.332ZM2.341,131.474a3.325,3.325,0,0,1,3.322-3.322h18.38a3.322,3.322,0,1,1,0,6.643H5.663A3.325,3.325,0,0,1,2.341,131.474Zm25.023,17.715a3.325,3.325,0,0,1-3.322,3.322H5.663a3.322,3.322,0,0,1,0-6.643h18.38A3.325,3.325,0,0,1,27.364,149.189Zm-3.322-5.536H5.663a3.322,3.322,0,1,1,0-6.643h18.38a3.322,3.322,0,1,1,0,6.643Z" transform="translate(-0.127 -125.938)" fill="#4dd0e1"/>
      </g>
    </g>
    <g id="Grupo_87950" data-name="Grupo 87950" transform="translate(5.257 18.221)">
      <g id="Grupo_87949" data-name="Grupo 87949">
        <path id="Trazado_115612" data-name="Trazado 115612" d="M56.121,164.489H47.54a1.107,1.107,0,0,0,0,2.214h8.581a1.107,1.107,0,1,0,0-2.214Z" transform="translate(-46.433 -164.489)" fill="#4dd0e1"/>
      </g>
    </g>
    <g id="Grupo_87952" data-name="Grupo 87952" transform="translate(22.336 18.221)">
      <g id="Grupo_87951" data-name="Grupo 87951">
        <path id="Trazado_115613" data-name="Trazado 115613" d="M202.507,164.809a1.106,1.106,0,1,0,.324.783A1.116,1.116,0,0,0,202.507,164.809Z" transform="translate(-200.617 -164.484)" fill="#4dd0e1"/>
      </g>
    </g>
    <g id="Grupo_87954" data-name="Grupo 87954" transform="translate(18.247 18.221)">
      <g id="Grupo_87953" data-name="Grupo 87953">
        <path id="Trazado_115614" data-name="Trazado 115614" d="M165.6,164.809a1.106,1.106,0,1,0,.324.783A1.118,1.118,0,0,0,165.6,164.809Z" transform="translate(-163.705 -164.484)" fill="#4dd0e1"/>
      </g>
    </g>
    <g id="Grupo_87956" data-name="Grupo 87956" transform="translate(5.257 27.079)">
      <g id="Grupo_87955" data-name="Grupo 87955">
        <path id="Trazado_115615" data-name="Trazado 115615" d="M56.121,244.45H47.54a1.107,1.107,0,0,0,0,2.214h8.581a1.107,1.107,0,0,0,0-2.214Z" transform="translate(-46.433 -244.45)" fill="#4dd0e1"/>
      </g>
    </g>
    <g id="Grupo_87958" data-name="Grupo 87958" transform="translate(22.336 27.078)">
      <g id="Grupo_87957" data-name="Grupo 87957">
        <path id="Trazado_115616" data-name="Trazado 115616" d="M202.507,244.769a1.108,1.108,0,1,0,.324.783A1.116,1.116,0,0,0,202.507,244.769Z" transform="translate(-200.617 -244.444)" fill="#4dd0e1"/>
      </g>
    </g>
    <g id="Grupo_87960" data-name="Grupo 87960" transform="translate(18.247 27.078)">
      <g id="Grupo_87959" data-name="Grupo 87959">
        <path id="Trazado_115617" data-name="Trazado 115617" d="M165.6,244.769a1.108,1.108,0,1,0,.324.783A1.116,1.116,0,0,0,165.6,244.769Z" transform="translate(-163.705 -244.444)" fill="#4dd0e1"/>
      </g>
    </g>
    <g id="Grupo_87962" data-name="Grupo 87962" transform="translate(5.257 35.937)">
      <g id="Grupo_87961" data-name="Grupo 87961">
        <path id="Trazado_115618" data-name="Trazado 115618" d="M56.121,324.41H47.54a1.107,1.107,0,1,0,0,2.214h8.581a1.107,1.107,0,1,0,0-2.214Z" transform="translate(-46.433 -324.41)" fill="#4dd0e1"/>
      </g>
    </g>
    <g id="Grupo_87964" data-name="Grupo 87964" transform="translate(22.336 35.936)">
      <g id="Grupo_87963" data-name="Grupo 87963">
        <path id="Trazado_115619" data-name="Trazado 115619" d="M202.507,324.73a1.108,1.108,0,1,0,.324.784A1.116,1.116,0,0,0,202.507,324.73Z" transform="translate(-200.617 -324.405)" fill="#4dd0e1"/>
      </g>
    </g>
    <g id="Grupo_87966" data-name="Grupo 87966" transform="translate(18.247 35.936)">
      <g id="Grupo_87965" data-name="Grupo 87965">
        <path id="Trazado_115620" data-name="Trazado 115620" d="M165.6,324.73a1.108,1.108,0,1,0,.324.784A1.116,1.116,0,0,0,165.6,324.73Z" transform="translate(-163.705 -324.405)" fill="#4dd0e1"/>
      </g>
    </g>
    <g id="Grupo_87968" data-name="Grupo 87968" transform="translate(31.761 5.979)">
      <g id="Grupo_87967" data-name="Grupo 87967">
        <path id="Trazado_115621" data-name="Trazado 115621" d="M292.925,96.49h-3.339V77.446h3.34a1.107,1.107,0,1,0,0-2.214h-3.34V56.187h2.689a1.107,1.107,0,1,0,0-2.214h-3.8a1.107,1.107,0,0,0-1.107,1.107V75.245h-.565a1.107,1.107,0,1,0,0,2.214h.565V97.6a1.107,1.107,0,0,0,1.107,1.107h4.446a1.107,1.107,0,1,0,0-2.214Z" transform="translate(-285.699 -53.973)" fill="#4dd0e1"/>
      </g>
    </g>
    <g id="Grupo_87970" data-name="Grupo 87970" transform="translate(41.315)">
      <g id="Grupo_87969" data-name="Grupo 87969">
        <path id="Trazado_115622" data-name="Trazado 115622" d="M386.337,0H373.05a1.107,1.107,0,0,0-1.107,1.107V15.279a1.107,1.107,0,0,0,1.107,1.107h13.286a1.107,1.107,0,0,0,1.107-1.107V1.107A1.107,1.107,0,0,0,386.337,0Zm-1.107,14.172H374.157V8.193h11.072Zm0-8.193H374.157V2.214h11.072Z" transform="translate(-371.943)" fill="#4dd0e1"/>
      </g>
    </g>
    <g id="Grupo_87972" data-name="Grupo 87972" transform="translate(44.553 2.934)">
      <g id="Grupo_87971" data-name="Grupo 87971">
        <path id="Trazado_115623" data-name="Trazado 115623" d="M403.068,26.807a1.106,1.106,0,1,0,.324.783A1.116,1.116,0,0,0,403.068,26.807Z" transform="translate(-401.178 -26.483)" fill="#4dd0e1"/>
      </g>
    </g>
    <g id="Grupo_87974" data-name="Grupo 87974" transform="translate(48.29 2.934)">
      <g id="Grupo_87973" data-name="Grupo 87973">
        <path id="Trazado_115624" data-name="Trazado 115624" d="M439.487,26.487h-3.469a1.107,1.107,0,1,0,0,2.214h3.469a1.107,1.107,0,1,0,0-2.214Z" transform="translate(-434.911 -26.487)" fill="#4dd0e1"/>
      </g>
    </g>
    <g id="Grupo_87976" data-name="Grupo 87976" transform="translate(41.315 20.165)">
      <g id="Grupo_87975" data-name="Grupo 87975">
        <path id="Trazado_115625" data-name="Trazado 115625" d="M386.337,182.037H373.05a1.107,1.107,0,0,0-1.107,1.107v14.172a1.107,1.107,0,0,0,1.107,1.107h13.286a1.107,1.107,0,0,0,1.107-1.107V183.144A1.107,1.107,0,0,0,386.337,182.037Zm-1.107,14.172H374.157V190.23h11.072Zm0-8.193H374.157v-3.764h11.072Z" transform="translate(-371.943 -182.037)" fill="#4dd0e1"/>
      </g>
    </g>
    <g id="Grupo_87978" data-name="Grupo 87978" transform="translate(44.553 23.099)">
      <g id="Grupo_87977" data-name="Grupo 87977">
        <path id="Trazado_115626" data-name="Trazado 115626" d="M403.068,208.847a1.106,1.106,0,1,0,.324.783A1.116,1.116,0,0,0,403.068,208.847Z" transform="translate(-401.178 -208.523)" fill="#4dd0e1"/>
      </g>
    </g>
    <g id="Grupo_87980" data-name="Grupo 87980" transform="translate(48.29 23.099)">
      <g id="Grupo_87979" data-name="Grupo 87979">
        <path id="Trazado_115627" data-name="Trazado 115627" d="M439.487,208.524h-3.469a1.107,1.107,0,1,0,0,2.214h3.469a1.107,1.107,0,1,0,0-2.214Z" transform="translate(-434.911 -208.524)" fill="#4dd0e1"/>
      </g>
    </g>
    <g id="Grupo_87982" data-name="Grupo 87982" transform="translate(41.315 40.33)">
      <g id="Grupo_87981" data-name="Grupo 87981">
        <path id="Trazado_115628" data-name="Trazado 115628" d="M386.337,364.073H373.05a1.107,1.107,0,0,0-1.107,1.107v14.172a1.107,1.107,0,0,0,1.107,1.107h13.286a1.107,1.107,0,0,0,1.107-1.107V365.18A1.107,1.107,0,0,0,386.337,364.073Zm-1.107,14.172H374.157v-5.979h11.072Zm0-8.193H374.157v-3.764h11.072Z" transform="translate(-371.943 -364.073)" fill="#4dd0e1"/>
      </g>
    </g>
    <g id="Grupo_87984" data-name="Grupo 87984" transform="translate(44.553 43.265)">
      <g id="Grupo_87983" data-name="Grupo 87983">
        <path id="Trazado_115629" data-name="Trazado 115629" d="M403.068,390.887a1.106,1.106,0,1,0,.324.783A1.111,1.111,0,0,0,403.068,390.887Z" transform="translate(-401.178 -390.563)" fill="#4dd0e1"/>
      </g>
    </g>
    <g id="Grupo_87986" data-name="Grupo 87986" transform="translate(48.29 43.264)">
      <g id="Grupo_87985" data-name="Grupo 87985">
        <path id="Trazado_115630" data-name="Trazado 115630" d="M439.487,390.56h-3.469a1.107,1.107,0,1,0,0,2.214h3.469a1.107,1.107,0,1,0,0-2.214Z" transform="translate(-434.911 -390.56)" fill="#4dd0e1"/>
      </g>
    </g>
    <g id="Grupo_87988" data-name="Grupo 87988" transform="translate(20.444 52.261)">
      <g id="Grupo_87987" data-name="Grupo 87987">
        <path id="Trazado_115631" data-name="Trazado 115631" d="M191.563,471.773h-6.92a1.107,1.107,0,1,0,0,2.214h6.92a1.107,1.107,0,1,0,0-2.214Z" transform="translate(-183.536 -471.773)" fill="#4dd0e1"/>
      </g>
    </g>
    <g id="Grupo_87990" data-name="Grupo 87990" transform="translate(0.127 52.261)">
      <g id="Grupo_87989" data-name="Grupo 87989">
        <path id="Trazado_115632" data-name="Trazado 115632" d="M7.545,471.773H1.234a1.107,1.107,0,1,0,0,2.214H7.545a1.107,1.107,0,1,0,0-2.214Z" transform="translate(-0.127 -471.773)" fill="#4dd0e1"/>
      </g>
    </g>
    <g id="Grupo_87992" data-name="Grupo 87992" transform="translate(11.623 45.008)">
      <g id="Grupo_87991" data-name="Grupo 87991">
        <path id="Trazado_115633" data-name="Trazado 115633" d="M108.332,411.533v-4.121a1.107,1.107,0,1,0-2.214,0v4.121a3.322,3.322,0,1,0,2.214,0Zm-1.107,4.238a1.107,1.107,0,1,1,1.107-1.107A1.108,1.108,0,0,1,107.225,415.772Z" transform="translate(-103.903 -406.305)" fill="#4dd0e1"/>
      </g>
    </g>
  </g>
</svg>
