<svg xmlns="http://www.w3.org/2000/svg" xmlns:xlink="http://www.w3.org/1999/xlink" width="230.363" height="134.612" viewBox="0 0 230.363 134.612">
  <defs>
    <linearGradient id="linear-gradient" x1="-3.12" y1="-18.081" x2="-1.545" y2="-9.236" gradientUnits="objectBoundingBox">
      <stop offset="0" stop-color="#fed830"/>
      <stop offset="1" stop-color="#ffbe22"/>
    </linearGradient>
    <linearGradient id="linear-gradient-2" x1="-3.345" y1="-19.376" x2="-1.771" y2="-10.531" xlink:href="#linear-gradient"/>
    <linearGradient id="linear-gradient-3" x1="-2.884" y1="-16.729" x2="-1.31" y2="-7.883" xlink:href="#linear-gradient"/>
    <linearGradient id="linear-gradient-4" x1="-2.909" y1="-16.875" x2="-1.335" y2="-8.029" gradientUnits="objectBoundingBox">
      <stop offset="0" stop-color="#000f5d"/>
      <stop offset="1" stop-color="#0f2691"/>
    </linearGradient>
    <linearGradient id="linear-gradient-5" x1="-2.373" y1="-13.794" x2="-0.799" y2="-4.949" xlink:href="#linear-gradient"/>
    <linearGradient id="linear-gradient-6" x1="0.126" y1="-1.986" x2="0.307" y2="-0.681" xlink:href="#linear-gradient"/>
    <linearGradient id="linear-gradient-7" x1="0.581" y1="-0.01" x2="0.7" y2="-1.135" gradientUnits="objectBoundingBox">
      <stop offset="0" stop-color="#4070e2"/>
      <stop offset="1" stop-color="#4f85ff"/>
    </linearGradient>
    <linearGradient id="linear-gradient-8" x1="0.21" y1="1.5" x2="0.45" y2="0.9" xlink:href="#linear-gradient-7"/>
    <linearGradient id="linear-gradient-9" x1="0.677" y1="-0.252" x2="-0.046" y2="2.82" xlink:href="#linear-gradient"/>
    <linearGradient id="linear-gradient-10" x1="0.833" y1="-0.853" x2="-0.155" y2="4.367" xlink:href="#linear-gradient"/>
    <linearGradient id="linear-gradient-11" x1="0.987" y1="-1.346" x2="-2.154" y2="10.559" xlink:href="#linear-gradient"/>
    <linearGradient id="linear-gradient-12" x1="0" y1="0.5" x2="1" y2="0.5" xlink:href="#linear-gradient"/>
    <linearGradient id="linear-gradient-13" x1="0" y1="0.5" x2="1" y2="0.5" xlink:href="#linear-gradient"/>
    <linearGradient id="linear-gradient-15" x1="0.617" y1="-0.427" x2="0.322" y2="1.873" xlink:href="#linear-gradient"/>
    <linearGradient id="linear-gradient-16" x1="1.214" y1="-1.5" x2="-0.527" y2="3.756" xlink:href="#linear-gradient"/>
    <linearGradient id="linear-gradient-17" x1="0.763" y1="-0.583" x2="0.022" y2="2.253" xlink:href="#linear-gradient"/>
    <linearGradient id="linear-gradient-20" x1="0" y1="0.5" x2="1" y2="0.5" xlink:href="#linear-gradient"/>
    <linearGradient id="linear-gradient-21" x1="0" y1="0.5" x2="1" y2="0.5" xlink:href="#linear-gradient"/>
    <linearGradient id="linear-gradient-22" y1="0.5" x2="1" y2="0.5" gradientUnits="objectBoundingBox">
      <stop offset="0" stop-color="#febe44"/>
      <stop offset="1" stop-color="#ffdc6f"/>
    </linearGradient>
    <linearGradient id="linear-gradient-24" x1="0.757" y1="-0.502" x2="0.107" y2="2.139" xlink:href="#linear-gradient"/>
    <linearGradient id="linear-gradient-26" x1="0" y1="0.5" x2="1" y2="0.5" xlink:href="#linear-gradient"/>
    <linearGradient id="linear-gradient-27" x1="0" y1="0.5" x2="1" y2="0.5" xlink:href="#linear-gradient"/>
    <linearGradient id="linear-gradient-30" x1="0.5" y1="-21.814" x2="0.5" y2="-11.381" xlink:href="#linear-gradient-4"/>
    <linearGradient id="linear-gradient-31" x1="0" y1="0.5" x2="1" y2="0.5" xlink:href="#linear-gradient-4"/>
    <linearGradient id="linear-gradient-32" y1="0.5" x2="1" y2="0.5" gradientUnits="objectBoundingBox">
      <stop offset="0" stop-color="#ffb96f"/>
      <stop offset="1" stop-color="#feddb1"/>
    </linearGradient>
    <linearGradient id="linear-gradient-33" x1="0.5" y1="-14.775" x2="0.5" y2="-7.561" xlink:href="#linear-gradient-4"/>
    <linearGradient id="linear-gradient-34" x1="0" y1="0.5" x2="1" y2="0.5" xlink:href="#linear-gradient-4"/>
    <linearGradient id="linear-gradient-35" x1="0" y1="0.5" x2="1" y2="0.5" xlink:href="#linear-gradient-32"/>
    <linearGradient id="linear-gradient-36" x1="-0.289" y1="1.193" x2="1.375" y2="0.002" xlink:href="#linear-gradient-4"/>
    <linearGradient id="linear-gradient-37" x1="1.314" y1="-0.062" x2="-2.293" y2="2.028" gradientUnits="objectBoundingBox">
      <stop offset="0" stop-color="#fed244"/>
      <stop offset="1" stop-color="#ffb96f"/>
    </linearGradient>
    <linearGradient id="linear-gradient-38" x1="0.673" y1="-4.23" x2="1.048" y2="-14.484" xlink:href="#linear-gradient-7"/>
    <linearGradient id="linear-gradient-39" x1="0.25" y1="-1.065" x2="0.483" y2="0.186" xlink:href="#linear-gradient-32"/>
    <linearGradient id="linear-gradient-40" x1="2.845" y1="-0.503" x2="-5.081" y2="3.117" xlink:href="#linear-gradient-37"/>
    <linearGradient id="linear-gradient-41" x1="2.222" y1="-0.121" x2="-8.391" y2="4.13" xlink:href="#linear-gradient-37"/>
    <linearGradient id="linear-gradient-42" x1="0" y1="0.5" x2="1" y2="0.5" xlink:href="#linear-gradient-32"/>
    <linearGradient id="linear-gradient-43" x1="0.504" y1="-0.004" x2="0.489" y2="1.888" xlink:href="#linear-gradient-32"/>
    <linearGradient id="linear-gradient-44" x1="0" y1="0.5" x2="1" y2="0.5" xlink:href="#linear-gradient-4"/>
    <linearGradient id="linear-gradient-46" x1="4.3" y1="-0.327" x2="1.522" y2="0.279" xlink:href="#linear-gradient-32"/>
    <linearGradient id="linear-gradient-47" x1="-44.797" y1="165.996" x2="-43.774" y2="165.996" xlink:href="#linear-gradient-4"/>
    <linearGradient id="linear-gradient-48" x1="-217.464" y1="742.263" x2="-214.174" y2="739.907" xlink:href="#linear-gradient-32"/>
    <linearGradient id="linear-gradient-49" x1="0.222" y1="-9.574" x2="0.387" y2="-3.525" xlink:href="#linear-gradient-32"/>
    <linearGradient id="linear-gradient-50" x1="0" y1="0.5" x2="1" y2="0.5" xlink:href="#linear-gradient-32"/>
    <linearGradient id="linear-gradient-51" x1="1.332" y1="-2.382" x2="0.979" y2="-1.236" xlink:href="#linear-gradient-37"/>
    <linearGradient id="linear-gradient-52" x1="-0.021" y1="-0.346" x2="0.342" y2="0.297" xlink:href="#linear-gradient-4"/>
    <linearGradient id="linear-gradient-53" x1="1.449" y1="-0.751" x2="0.78" y2="0.079" xlink:href="#linear-gradient-32"/>
    <linearGradient id="linear-gradient-54" x1="3.948" y1="-6.751" x2="2.319" y2="-3.356" xlink:href="#linear-gradient-4"/>
    <linearGradient id="linear-gradient-55" x1="0.162" y1="1.602" x2="1.197" y2="-1.187" xlink:href="#linear-gradient-32"/>
    <linearGradient id="linear-gradient-56" x1="3.173" y1="-6.554" x2="2.168" y2="-3.776" xlink:href="#linear-gradient-4"/>
    <linearGradient id="linear-gradient-57" x1="0.308" y1="1.698" x2="0.771" y2="-1.193" xlink:href="#linear-gradient-32"/>
    <linearGradient id="linear-gradient-58" x1="0.516" y1="0.411" x2="0.749" y2="2.003" gradientUnits="objectBoundingBox">
      <stop offset="0" stop-color="#fe8a44"/>
      <stop offset="1" stop-color="#ffb96f"/>
    </linearGradient>
    <linearGradient id="linear-gradient-59" x1="4.828" y1="-4.304" x2="2.644" y2="-1.881" xlink:href="#linear-gradient-4"/>
    <linearGradient id="linear-gradient-60" x1="0.316" y1="-0.281" x2="0.673" y2="1.373" xlink:href="#linear-gradient-32"/>
    <linearGradient id="linear-gradient-61" x1="2.056" y1="-0.043" x2="0.124" y2="0.527" xlink:href="#linear-gradient-32"/>
    <linearGradient id="linear-gradient-62" x1="0.954" y1="-0.715" x2="0.425" y2="0.863" xlink:href="#linear-gradient-32"/>
    <linearGradient id="linear-gradient-63" x1="0.121" y1="-0.334" x2="0.822" y2="0.994" xlink:href="#linear-gradient-4"/>
    <linearGradient id="linear-gradient-64" x1="2.051" y1="-3.636" x2="0.127" y2="1.446" xlink:href="#linear-gradient-32"/>
    <linearGradient id="linear-gradient-65" x1="2.702" y1="-2.089" x2="0.712" y2="0.219" xlink:href="#linear-gradient-32"/>
    <linearGradient id="linear-gradient-66" x1="1.77" y1="-0.942" x2="-0.638" y2="1.522" xlink:href="#linear-gradient-32"/>
  </defs>
  <g id="Grupo_87663" data-name="Grupo 87663" transform="translate(-1100.535 -745.275)">
    <g id="Grupo_87615" data-name="Grupo 87615" transform="translate(1101.151 748.602)">
      <g id="Grupo_87609" data-name="Grupo 87609" transform="translate(0 38.848)">
        <circle id="Elipse_4477" data-name="Elipse 4477" cx="3.261" cy="3.261" r="3.261" fill="url(#linear-gradient)"/>
      </g>
      <g id="Grupo_87610" data-name="Grupo 87610" transform="translate(22.033 43.649)">
        <path id="Trazado_114389" data-name="Trazado 114389" d="M1134.794,805.715a3.261,3.261,0,1,1-3.638-2.836A3.261,3.261,0,0,1,1134.794,805.715Z" transform="translate(-1128.296 -802.854)" fill="url(#linear-gradient-2)"/>
      </g>
      <g id="Grupo_87611" data-name="Grupo 87611" transform="translate(29.448 23.772)">
        <circle id="Elipse_4478" data-name="Elipse 4478" cx="3.261" cy="3.261" r="3.261" transform="matrix(0.976, -0.217, 0.217, 0.976, 0, 1.412)" fill="url(#linear-gradient-3)"/>
      </g>
      <g id="Grupo_87612" data-name="Grupo 87612" transform="translate(48.336 22.137)">
        <path id="Trazado_114390" data-name="Trazado 114390" d="M1167.036,779.347a3.262,3.262,0,1,1-3.639-2.835A3.262,3.262,0,0,1,1167.036,779.347Z" transform="translate(-1160.537 -776.487)" fill="url(#linear-gradient-4)"/>
      </g>
      <g id="Grupo_87613" data-name="Grupo 87613" transform="translate(56.311)">
        <path id="Trazado_114391" data-name="Trazado 114391" d="M1176.811,752.213a3.262,3.262,0,1,1-3.638-2.835A3.262,3.262,0,0,1,1176.811,752.213Z" transform="translate(-1170.312 -749.353)" fill="url(#linear-gradient-5)"/>
      </g>
      <g id="Grupo_87614" data-name="Grupo 87614" transform="translate(3.132 3.233)">
        <path id="Trazado_114392" data-name="Trazado 114392" d="M1127.525,797.518l-22.4-4.963.177-.8,21.728,4.815,8.031-19.064,18.176-2.253,7.956-21.937.771.279-8.128,22.41-18.2,2.257Z" transform="translate(-1105.129 -753.316)" fill="url(#linear-gradient-6)"/>
      </g>
    </g>
    <g id="Grupo_87616" data-name="Grupo 87616" transform="translate(1100.535 745.275)">
      <path id="Trazado_114393" data-name="Trazado 114393" d="M1278.134,802.565a1.418,1.418,0,0,1-1.385-1.391c-.142-7.788-2.572-46.457-36.626-54.538-37.914-9-55.264,29.56-55.264,29.56s-46.91-17.993-55.906,30.2c-29.413,7.06-37.055,45.473-17.925,64.243a16.447,16.447,0,0,0,11.373,4.706l184.206,1.659a12.127,12.127,0,0,0,11.737-8.674C1324.1,848.912,1331.639,803.818,1278.134,802.565Z" transform="translate(-1100.535 -745.275)" fill="url(#linear-gradient-7)"/>
      <path id="Trazado_114394" data-name="Trazado 114394" d="M1275.139,804.433a1.419,1.419,0,0,1-1.385-1.389c-.151-7.469-2.556-43.326-34.63-50.842-35.85-8.4-52.256,27.6-52.256,27.6s-44.357-16.8-52.864,28.2c-27.546,6.529-34.9,41.778-17.462,59.483a16.447,16.447,0,0,0,11.575,4.907l173.406,1.543a12.128,12.128,0,0,0,11.745-8.707C1318.676,846.794,1325.093,805.628,1275.139,804.433Z" transform="translate(-1101.75 -746.317)" fill="url(#linear-gradient-8)"/>
    </g>
    <g id="Grupo_87621" data-name="Grupo 87621" transform="translate(1280.085 746.366)">
      <g id="Grupo_87617" data-name="Grupo 87617" transform="translate(6.028 5.846)">
        <path id="Trazado_114395" data-name="Trazado 114395" d="M1332.331,756.5l4.295,6.53h-2.148l1.062,9.528h-5.95l1.133-9.39-2.719-.317Z" transform="translate(-1328.004 -754.279)" fill="#91e5fa"/>
        <path id="Trazado_114396" data-name="Trazado 114396" d="M1344.646,769.9l-4.295-6.591h2.148l-1.062-9.528h5.95l-1.133,9.452,2.719.317Z" transform="translate(-1330.278 -753.777)" fill="#91e5fa"/>
      </g>
      <g id="Grupo_87620" data-name="Grupo 87620">
        <g id="Grupo_87618" data-name="Grupo 87618" opacity="0.64">
          <path id="Trazado_114397" data-name="Trazado 114397" d="M1321.706,771.474a.386.386,0,0,1-.37-.277c-.1-.333-.186-.677-.263-1.021a.386.386,0,0,1,.754-.168c.073.328.157.655.25.972a.386.386,0,0,1-.371.5Z" transform="translate(-1320.698 -750.865)" fill="#91e5fa"/>
          <path id="Trazado_114398" data-name="Trazado 114398" d="M1321,762.877a.386.386,0,0,1-.386-.387c0-.366.013-.741.038-1.111.024-.339.058-.678.1-1.009a.386.386,0,0,1,.766.1c-.042.315-.075.638-.1.959-.024.353-.037.71-.037,1.058A.387.387,0,0,1,1321,762.877Zm.94-5.338a.392.392,0,0,1-.132-.023.387.387,0,0,1-.231-.5,15.822,15.822,0,0,1,.863-1.944.386.386,0,1,1,.684.361,15.007,15.007,0,0,0-.821,1.849A.388.388,0,0,1,1321.941,757.539Zm2.728-4.685a.386.386,0,0,1-.295-.636,16.044,16.044,0,0,1,1.48-1.526.386.386,0,0,1,.517.574,15.058,15.058,0,0,0-1.408,1.451A.384.384,0,0,1,1324.669,752.854Zm4.172-3.459a.386.386,0,0,1-.191-.722,15.789,15.789,0,0,1,1.912-.924.386.386,0,0,1,.289.716,15.056,15.056,0,0,0-1.819.879A.387.387,0,0,1,1328.841,749.395Zm12.535-1.227a.4.4,0,0,1-.122-.02,15.084,15.084,0,0,0-1.958-.507.386.386,0,0,1,.143-.76,15.953,15.953,0,0,1,2.058.533.386.386,0,0,1-.122.753Zm-7.429-.584a.386.386,0,0,1-.063-.767,15.931,15.931,0,0,1,2.115-.2.386.386,0,1,1,.023.772,15.187,15.187,0,0,0-2.012.2A.429.429,0,0,1,1333.948,747.584Z" transform="translate(-1320.615 -746.612)" fill="#91e5fa"/>
          <path id="Trazado_114399" data-name="Trazado 114399" d="M1350.607,750.635a.388.388,0,0,1-.22-.069c-.273-.19-.557-.374-.843-.546a.386.386,0,0,1,.4-.662c.3.18.6.373.886.573a.386.386,0,0,1-.221.7Z" transform="translate(-1325.908 -747.108)" fill="#91e5fa"/>
        </g>
        <g id="Grupo_87619" data-name="Grupo 87619" transform="translate(6.074 12.387)" opacity="0.64">
          <path id="Trazado_114400" data-name="Trazado 114400" d="M1358.75,763.583a.386.386,0,0,1-.383-.334c-.044-.33-.1-.663-.166-.99a.386.386,0,0,1,.757-.153c.07.344.129.693.175,1.041a.386.386,0,0,1-.332.434A.345.345,0,0,1,1358.75,763.583Z" transform="translate(-1333.609 -761.795)" fill="#91e5fa"/>
          <path id="Trazado_114401" data-name="Trazado 114401" d="M1338.727,782.117c-.139,0-.277,0-.416-.006a.385.385,0,0,1-.376-.4.375.375,0,0,1,.4-.376,15.223,15.223,0,0,0,1.987-.079.386.386,0,1,1,.082.769A15.9,15.9,0,0,1,1338.727,782.117Zm-3.689-.44a.4.4,0,0,1-.091-.011,16,16,0,0,1-1.995-.627.386.386,0,0,1,.279-.72,15.086,15.086,0,0,0,1.9.6.387.387,0,0,1-.091.762Zm8.557-.347a.386.386,0,0,1-.122-.753,14.962,14.962,0,0,0,1.84-.75.387.387,0,0,1,.339.7,15.892,15.892,0,0,1-1.935.789A.39.39,0,0,1,1343.594,781.33Zm4.692-2.529a.387.387,0,0,1-.24-.69,15.162,15.162,0,0,0,1.479-1.331.386.386,0,0,1,.553.539,15.963,15.963,0,0,1-1.554,1.4A.384.384,0,0,1,1348.286,778.8Zm3.562-3.969a.386.386,0,0,1-.327-.591,15.077,15.077,0,0,0,.94-1.753.387.387,0,0,1,.7.32,15.944,15.944,0,0,1-.99,1.843A.385.385,0,0,1,1351.848,774.832Zm2-4.943a.394.394,0,0,1-.082-.008.386.386,0,0,1-.3-.458,15.239,15.239,0,0,0,.287-1.969.386.386,0,1,1,.77.062,16.039,16.039,0,0,1-.3,2.068A.386.386,0,0,1,1353.85,769.889Z" transform="translate(-1328.916 -762.772)" fill="#91e5fa"/>
          <path id="Trazado_114402" data-name="Trazado 114402" d="M1329.283,782.026a.383.383,0,0,1-.214-.064c-.29-.193-.579-.4-.858-.614a.387.387,0,0,1,.471-.614c.264.2.539.4.816.583a.386.386,0,0,1-.215.708Z" transform="translate(-1328.06 -765.269)" fill="#91e5fa"/>
        </g>
      </g>
    </g>
    <g id="Grupo_87623" data-name="Grupo 87623" transform="translate(1165.227 833.477)">
      <path id="Trazado_114403" data-name="Trazado 114403" d="M1198.959,873.6H1182.92a3.089,3.089,0,0,1-3.088-3.188l.441-14.035a3.091,3.091,0,0,1,3.417-2.976l16.036,1.711a3.1,3.1,0,0,1,2.76,3.183l-.439,12.325A3.079,3.079,0,0,1,1198.959,873.6Zm-17.913-17.2-.442,14.036a2.319,2.319,0,0,0,2.316,2.39h16.039a2.309,2.309,0,0,0,2.316-2.235l.439-12.325a2.325,2.325,0,0,0-2.071-2.386l-16.036-1.711a2.317,2.317,0,0,0-2.562,2.231Z" transform="translate(-1179.83 -853.387)" fill="url(#linear-gradient-9)"/>
      <g id="Grupo_87622" data-name="Grupo 87622" transform="translate(2.034 3.125)" opacity="0.73">
        <path id="Trazado_114404" data-name="Trazado 114404" d="M1197.786,871.65h-14.338a1.124,1.124,0,0,1-.923-1.766l2.983-4.289a1.125,1.125,0,0,1,1.682-.187l1.135,1.024a.025.025,0,0,0,.021-.017l2.741-6.005a1.124,1.124,0,0,1,1.991-.1l5.677,9.65a1.124,1.124,0,0,1-.968,1.694Zm-11.335-5.435-.046,0-2.982,4.289a.027.027,0,0,0,0,.032.025.025,0,0,0,.027.016h14.338a.026.026,0,0,0,.026-.016.025.025,0,0,0,0-.03l-5.677-9.65c0-.008-.01-.012-.028-.015a.025.025,0,0,0-.026.017l-2.74,6.005a1.123,1.123,0,0,1-1.782.362Z" transform="translate(-1182.323 -857.684)" fill="url(#linear-gradient-10)"/>
        <path id="Trazado_114405" data-name="Trazado 114405" d="M1200.448,862.434a2.608,2.608,0,1,1,2.607-2.608A2.61,2.61,0,0,1,1200.448,862.434Zm0-4.122a1.514,1.514,0,1,0,1.514,1.514A1.515,1.515,0,0,0,1200.448,858.311Z" transform="translate(-1185.181 -857.217)" fill="url(#linear-gradient-11)"/>
      </g>
    </g>
    <g id="Grupo_87626" data-name="Grupo 87626" transform="translate(1168.984 796.572)">
      <path id="Trazado_114406" data-name="Trazado 114406" d="M1203.083,818.987h-.038a.6.6,0,0,1-.558-.635,6.227,6.227,0,0,0-1.442-4.275,4.707,4.707,0,0,0-3.812-1.141c-4.318.307-4.1,4.593-4.092,4.776a.6.6,0,1,1-1.193.073,5.477,5.477,0,0,1,5.2-6.041,5.835,5.835,0,0,1,4.744,1.49,7.345,7.345,0,0,1,1.787,5.2A.6.6,0,0,1,1203.083,818.987Z" transform="translate(-1185.817 -808.808)" fill="url(#linear-gradient-12)"/>
      <path id="Trazado_114407" data-name="Trazado 114407" d="M1198.584,827.015a1.56,1.56,0,1,1,1.561-1.561A1.562,1.562,0,0,1,1198.584,827.015Zm0-2.224a.664.664,0,1,0,.664.663A.665.665,0,0,0,1198.584,824.791Z" transform="translate(-1186.753 -811.051)" fill="url(#linear-gradient-13)"/>
      <g id="Grupo_87625" data-name="Grupo 87625" transform="translate(0)">
        <path id="Trazado_114408" data-name="Trazado 114408" d="M1197.026,830.121l-.19,0a5.6,5.6,0,0,1-4.155-1.518,7.288,7.288,0,0,1-1.678-5.373,1.771,1.771,0,0,1,1.76-1.705h.031l9.3.167a1.282,1.282,0,0,1,1.259,1.253,7.661,7.661,0,0,1-1.761,5.4A6.232,6.232,0,0,1,1197.026,830.121Zm-4.263-7.7a.871.871,0,0,0-.865.84c-.04,1.182.091,3.366,1.42,4.713a4.852,4.852,0,0,0,3.689,1.25,5.375,5.375,0,0,0,3.939-1.492,6.782,6.782,0,0,0,1.512-4.764.388.388,0,0,0-.379-.379l-9.3-.167Z" transform="translate(-1185.643 -810.615)" fill="url(#linear-gradient-12)"/>
        <g id="Grupo_87624" data-name="Grupo 87624">
          <path id="Trazado_114409" data-name="Trazado 114409" d="M1190.551,830.582q-.23,0-.445-.005c-2.519-.052-3.013-.5-3.166-.839-.886-1.947-3.825-17.11-1.817-19.6a.252.252,0,0,1,.163-.093c3.224-.471,19.375-2.755,20.7-1.543,1.451,1.326,2.142,17.247,1.286,18.934C1206.525,828.915,1195.721,830.582,1190.551,830.582Zm-5.084-20.044c-1.637,2.43,1.031,16.983,1.943,18.987.037.081.34.488,2.707.537,5.769.125,16.173-1.821,16.7-2.859.893-1.764-.105-17.345-1.174-18.321C1204.759,808.078,1192.846,809.465,1185.466,810.538Z" transform="translate(-1184.435 -808.151)" fill="url(#linear-gradient-15)"/>
        </g>
      </g>
    </g>
    <g id="Grupo_87628" data-name="Grupo 87628" transform="translate(1210.096 845.684)">
      <path id="Trazado_114410" data-name="Trazado 114410" d="M1245.915,886.273c-1.53,0-3.143-.649-3.6-1.6-.157-.329-.391-1.18.841-1.969a3.436,3.436,0,0,1,2.708-.689,1.759,1.759,0,0,1,1.1.841.386.386,0,0,1-.689.35,1.017,1.017,0,0,0-.629-.45,2.807,2.807,0,0,0-2.07.6c-.525.337-.713.668-.561.986.364.761,2.464,1.523,4.057.993,1.464-.487.734-6.343-.252-10.346a.386.386,0,0,1,.52-.45c.144.059,3.544,1.465,4.459,4.1a4.286,4.286,0,0,1-.445,3.635.386.386,0,0,1-.671-.381,3.545,3.545,0,0,0,.386-3,6.909,6.909,0,0,0-3.312-3.293c.616,2.727,1.934,9.68-.44,10.471A4.464,4.464,0,0,1,1245.915,886.273Z" transform="translate(-1236.183 -869.483)" fill="url(#linear-gradient-16)"/>
      <g id="Grupo_87627" data-name="Grupo 87627" transform="translate(0)">
        <path id="Trazado_114411" data-name="Trazado 114411" d="M1248.417,890.162a62.337,62.337,0,0,1-10.214-.762c-2.474-.475-2.886-1-2.979-1.359-.546-2.068-.892-17.51,1.505-19.627a.279.279,0,0,1,.177-.065c3.258.079,19.562.544,20.666,1.962,1.207,1.551-.791,17.361-1.916,18.881C1255.149,889.875,1252.026,890.162,1248.417,890.162ZM1237,868.867c-2.022,2.12-1.84,16.914-1.278,19.043.023.087.254.538,2.578.985,5.666,1.09,16.249.925,16.942-.009,1.176-1.589,2.813-17.116,1.924-18.258C1256.433,869.687,1244.456,869.051,1237,868.867Z" transform="translate(-1234.827 -868.349)" fill="url(#linear-gradient-17)"/>
      </g>
    </g>
    <g id="Grupo_87630" data-name="Grupo 87630" transform="translate(1204.868 763.343)">
      <g id="Grupo_87629" data-name="Grupo 87629">
        <path id="Trazado_114412" data-name="Trazado 114412" d="M1234.536,789.852c-.154,0-.3,0-.446,0-2.519-.052-3.012-.5-3.165-.839-.886-1.947-3.825-17.109-1.818-19.6a.262.262,0,0,1,.163-.094c3.224-.47,19.374-2.753,20.7-1.542,1.451,1.326,2.141,17.247,1.286,18.934C1250.509,788.185,1239.707,789.852,1234.536,789.852Zm-5.084-20.044c-1.637,2.43,1.031,16.983,1.942,18.987.038.081.341.487,2.708.537,5.765.117,16.172-1.821,16.7-2.859.893-1.764-.105-17.345-1.174-18.321C1248.744,767.349,1236.831,768.735,1229.451,769.808Z" transform="translate(-1228.419 -767.422)" fill="url(#linear-gradient-12)"/>
      </g>
      <path id="Trazado_114413" data-name="Trazado 114413" d="M1236.469,786.288a3.786,3.786,0,0,1-1.974-.295c-.813-.811-2.229-7.593-1.416-10.255.234-.767.634-1.21,1.187-1.317l.563-.109c1.769-.346,5.05-.986,7.88-1.355a4.273,4.273,0,0,0,.21-.7c.149-.61.249-1.013.569-1.049,3.418-.376,4.027-.007,4.171.4.236.669.915,3.785,1.406,6.653,1.009,5.9.515,6.243.3,6.391-.577.4-4.755.972-7.423,1.256C1240.089,786.107,1237.979,786.288,1236.469,786.288Zm-2.106-11.361c-.352.068-.618.391-.792.962-.83,2.716.8,9.249,1.286,9.739.288.219,2.642.24,7.117-.239a39.054,39.054,0,0,0,7.1-1.157c.033-.043.387-.661-.541-6.026-.523-3.028-1.164-5.872-1.359-6.426-.008-.017-.233-.431-3.557-.07a4.492,4.492,0,0,0-.2.667c-.148.6-.255,1.039-.581,1.082-2.828.365-6.135,1.011-7.911,1.358Z" transform="translate(-1229.232 -768.09)" fill="url(#linear-gradient-12)"/>
      <path id="Trazado_114414" data-name="Trazado 114414" d="M1235.095,777.924a.257.257,0,0,1-.255-.232.61.61,0,0,1,.426-.622,2.528,2.528,0,0,1,.779-.189.257.257,0,1,1,.052.512,2.034,2.034,0,0,0-.612.142c-.095.045-.135.088-.133.1a.257.257,0,0,1-.23.282Z" transform="translate(-1229.601 -769.164)" fill="url(#linear-gradient-20)"/>
      <path id="Trazado_114415" data-name="Trazado 114415" d="M1238.57,776.8a.258.258,0,0,1-.065-.508,20.912,20.912,0,0,1,4.776-.658.258.258,0,0,1-.006.516h-.007a20.3,20.3,0,0,0-4.632.641A.258.258,0,0,1,1238.57,776.8Z" transform="translate(-1230.241 -768.935)" fill="url(#linear-gradient-21)"/>
    </g>
    <g id="Grupo_87642" data-name="Grupo 87642" transform="translate(1251.927 754.921)">
      <g id="Grupo_87637" data-name="Grupo 87637" transform="translate(15.45 16.288)">
        <g id="Grupo_87631" data-name="Grupo 87631" transform="translate(0 14.665)">
          <path id="Trazado_114416" data-name="Trazado 114416" d="M1348.324,835.415a.257.257,0,0,1-.108-.491c.305-.14.614-.29.917-.445a.257.257,0,0,1,.234.458c-.31.158-.625.311-.937.454A.247.247,0,0,1,1348.324,835.415Z" transform="translate(-1312.962 -802.296)" fill="#91e5fa"/>
          <path id="Trazado_114417" data-name="Trazado 114417" d="M1330.039,831.37c-.143,0-.279,0-.418,0a.258.258,0,0,1-.254-.262.261.261,0,0,1,.262-.254c.136,0,.277.009.41,0,.557,0,1.123-.02,1.682-.058a.261.261,0,0,1,.274.24.257.257,0,0,1-.239.274C1331.186,831.349,1330.608,831.37,1330.039,831.37Zm-3.832-.3a.23.23,0,0,1-.041,0c-.7-.109-1.4-.251-2.093-.422a.257.257,0,1,1,.123-.5c.676.166,1.366.305,2.05.412a.258.258,0,0,1-.039.512Zm8.931-.229a.258.258,0,0,1-.052-.51c.682-.143,1.365-.315,2.027-.513a.257.257,0,1,1,.148.493c-.676.2-1.373.379-2.07.525A.306.306,0,0,1,1335.138,830.843Zm-14.271-1.24a.249.249,0,0,1-.1-.019c-.656-.264-1.311-.559-1.946-.878a.257.257,0,1,1,.231-.46c.623.313,1.264.6,1.907.86a.258.258,0,0,1-.1.5Zm-4.878-2.622a.264.264,0,0,1-.147-.045c-.582-.4-1.154-.835-1.7-1.287a.258.258,0,0,1,.328-.4c.537.443,1.1.867,1.668,1.26a.257.257,0,0,1-.146.469Zm-4.177-3.634a.258.258,0,0,1-.189-.083c-.481-.523-.943-1.072-1.376-1.633a.257.257,0,1,1,.407-.315c.424.549.878,1.087,1.349,1.6a.258.258,0,0,1-.19.432Zm-3.266-4.468a.257.257,0,0,1-.224-.13c-.352-.618-.681-1.256-.978-1.9a.258.258,0,0,1,.468-.216c.29.629.612,1.254.957,1.858a.257.257,0,0,1-.1.351A.262.262,0,0,1,1308.546,818.879Zm-2.187-5.085a.257.257,0,0,1-.246-.184c-.2-.677-.383-1.373-.529-2.068a.258.258,0,1,1,.5-.106c.144.68.318,1.362.518,2.026a.256.256,0,0,1-.172.321A.26.26,0,0,1,1306.36,813.793Zm-1-5.446a.257.257,0,0,1-.256-.239c-.043-.6-.064-1.2-.064-1.792,0-.115,0-.229,0-.344a.258.258,0,0,1,.258-.254h0a.258.258,0,0,1,.254.261c0,.112,0,.224,0,.336,0,.582.02,1.172.062,1.755a.256.256,0,0,1-.238.275Zm.225-5.533a.326.326,0,0,1-.039,0,.257.257,0,0,1-.215-.294c.108-.7.248-1.4.416-2.1a.257.257,0,1,1,.5.122c-.164.676-.3,1.366-.407,2.051A.258.258,0,0,1,1305.584,802.815Z" transform="translate(-1305.038 -795.993)" fill="#91e5fa"/>
          <path id="Trazado_114418" data-name="Trazado 114418" d="M1307.44,796.5a.242.242,0,0,1-.095-.019.257.257,0,0,1-.144-.334c.128-.32.264-.642.406-.958a.257.257,0,1,1,.47.21c-.139.309-.272.625-.4.938A.258.258,0,0,1,1307.44,796.5Z" transform="translate(-1305.433 -795.037)" fill="#91e5fa"/>
        </g>
        <g id="Grupo_87632" data-name="Grupo 87632" transform="translate(15.403)">
          <path id="Trazado_114419" data-name="Trazado 114419" d="M1324.175,779.74a.258.258,0,0,1-.1-.5c.321-.13.648-.255.972-.373a.258.258,0,1,1,.174.485c-.317.113-.638.237-.951.364A.24.24,0,0,1,1324.175,779.74Z" transform="translate(-1323.917 -777.392)" fill="#91e5fa"/>
          <path id="Trazado_114420" data-name="Trazado 114420" d="M1358.238,809.366a.291.291,0,0,1-.073-.011.259.259,0,0,1-.174-.321c.194-.655.363-1.327.5-2a.258.258,0,0,1,.505.1c-.141.683-.313,1.369-.511,2.038A.259.259,0,0,1,1358.238,809.366Zm.96-5.364h-.018a.258.258,0,0,1-.24-.274c.036-.534.054-1.077.054-1.613,0-.148,0-.3,0-.444a.258.258,0,0,1,.253-.262h0a.257.257,0,0,1,.257.252c0,.152,0,.3,0,.454,0,.547-.018,1.1-.055,1.647A.257.257,0,0,1,1359.2,804Zm-.24-5.444a.257.257,0,0,1-.255-.218c-.1-.676-.237-1.355-.4-2.019a.258.258,0,0,1,.5-.12c.163.677.3,1.371.406,2.061a.257.257,0,0,1-.215.294Zm-1.413-5.261a.258.258,0,0,1-.24-.164c-.249-.636-.528-1.269-.83-1.882a.258.258,0,0,1,.463-.227c.308.625.593,1.272.848,1.921a.258.258,0,0,1-.146.334A.272.272,0,0,1,1357.545,793.3Zm-2.533-4.819a.258.258,0,0,1-.214-.113c-.383-.565-.794-1.122-1.224-1.654a.258.258,0,0,1,.4-.324c.438.543.858,1.112,1.249,1.689a.258.258,0,0,1-.213.4Zm-3.53-4.149a.255.255,0,0,1-.177-.07c-.5-.468-1.02-.922-1.555-1.348a.258.258,0,0,1,.321-.4c.546.435,1.079.9,1.587,1.376a.257.257,0,0,1-.176.445Zm-4.351-3.281a.259.259,0,0,1-.131-.036c-.586-.349-1.2-.678-1.81-.977a.258.258,0,1,1,.225-.463c.628.306,1.251.642,1.849,1a.257.257,0,0,1-.132.479Zm-4.96-2.254a.253.253,0,0,1-.08-.013c-.65-.213-1.318-.4-1.981-.556a.257.257,0,1,1,.118-.5c.679.16,1.359.351,2.023.568a.258.258,0,0,1-.08.5Zm-12.835-.676a.257.257,0,0,1-.053-.509c.679-.144,1.375-.261,2.071-.349a.261.261,0,0,1,.288.224.257.257,0,0,1-.224.287c-.681.086-1.364.2-2.03.343A.289.289,0,0,1,1329.336,778.118Zm7.5-.433a.121.121,0,0,1-.024,0c-.679-.064-1.371-.1-2.054-.106a.257.257,0,0,1,0-.515h0c.7.006,1.405.043,2.1.108a.258.258,0,0,1-.024.514Z" transform="translate(-1324.868 -777.062)" fill="#91e5fa"/>
          <path id="Trazado_114421" data-name="Trazado 114421" d="M1362.764,821.367a.258.258,0,0,1-.23-.374c.153-.3.3-.612.44-.919a.258.258,0,1,1,.469.213c-.142.313-.293.628-.449.937A.259.259,0,0,1,1362.764,821.367Z" transform="translate(-1331.024 -784.955)" fill="#91e5fa"/>
        </g>
        <g id="Grupo_87636" data-name="Grupo 87636" transform="translate(5.66 5.873)">
          <g id="Grupo_87633" data-name="Grupo 87633">
            <path id="Trazado_114422" data-name="Trazado 114422" d="M1347.115,814.034a.3.3,0,0,0,.028-.344l-1.857-3.1a15.738,15.738,0,0,0,1.544-4.866l3.3-1.467a.3.3,0,0,0,.176-.3l-.372-4.323a.3.3,0,0,0-.224-.263l-3.507-.881a15.741,15.741,0,0,0-2.352-4.53l1.3-3.376a.3.3,0,0,0-.086-.335l-3.32-2.793a.3.3,0,0,0-.344-.028l-3.1,1.858a15.745,15.745,0,0,0-4.866-1.544l-1.467-3.3a.3.3,0,0,0-.3-.175l-4.322.372a.3.3,0,0,0-.263.224l-.881,3.506a15.747,15.747,0,0,0-4.531,2.353l-3.375-1.3a.3.3,0,0,0-.335.086l-2.793,3.32a.3.3,0,0,0-.028.344l1.857,3.1a15.793,15.793,0,0,0-1.544,4.867l-3.3,1.467a.3.3,0,0,0-.175.3l.372,4.323a.3.3,0,0,0,.224.263l3.506.881a15.765,15.765,0,0,0,2.352,4.53l-1.3,3.376a.3.3,0,0,0,.087.334l3.32,2.793a.3.3,0,0,0,.344.028l3.1-1.858a15.751,15.751,0,0,0,4.866,1.544l1.468,3.3a.3.3,0,0,0,.3.175l4.322-.372a.3.3,0,0,0,.264-.224l.881-3.506a15.743,15.743,0,0,0,4.53-2.353l3.376,1.3a.3.3,0,0,0,.334-.086Z" transform="translate(-1311.976 -784.261)" fill="#91e5fa"/>
          </g>
          <g id="Grupo_87634" data-name="Grupo 87634" transform="translate(15.055 15.055)">
            <path id="Trazado_114423" data-name="Trazado 114423" d="M1334.545,810.936a4.11,4.11,0,1,1,1.34-.226A4.116,4.116,0,0,1,1334.545,810.936Zm0-7.706a3.607,3.607,0,0,0-1.178.2,3.6,3.6,0,1,0,4.573,2.222h0a3.6,3.6,0,0,0-3.395-2.422Z" transform="translate(-1330.429 -802.714)" fill="#bdedfb"/>
          </g>
          <g id="Grupo_87635" data-name="Grupo 87635" transform="translate(8.364 8.385)">
            <path id="Trazado_114424" data-name="Trazado 114424" d="M1332.948,815.995a10.742,10.742,0,0,1-10.68-9.808c-.027-.313-.04-.627-.04-.937a10.727,10.727,0,0,1,21.415-.9c.026.311.04.622.04.932a10.652,10.652,0,0,1-.086,1.352.258.258,0,0,1-.513-.032.225.225,0,0,1,0-.033,10.255,10.255,0,0,0,.081-1.287q0-.444-.037-.887c-.011-.132-.025-.264-.042-.395a10.212,10.212,0,0,0-20.345,1.253q0,.444.038.892a10.213,10.213,0,0,0,16.15,7.407.258.258,0,0,1,.36.058.257.257,0,0,1-.058.36,10.716,10.716,0,0,1-5.358,1.987C1333.564,815.982,1333.254,815.995,1332.948,815.995Z" transform="translate(-1322.228 -794.539)" fill="#bdedfb"/>
          </g>
        </g>
      </g>
      <g id="Grupo_87638" data-name="Grupo 87638" transform="translate(2.551 2.546)">
        <path id="Trazado_114425" data-name="Trazado 114425" d="M1309.351,775.97l-1.176-1.651a8.8,8.8,0,0,0,.646-2.787l1.78-.966a.166.166,0,0,0,.085-.174l-.4-2.4a.166.166,0,0,0-.136-.137l-2-.336a8.845,8.845,0,0,0-1.515-2.426l.576-1.943a.168.168,0,0,0-.063-.183l-1.978-1.413a.167.167,0,0,0-.193,0l-1.651,1.176a8.823,8.823,0,0,0-2.786-.646l-.967-1.78a.166.166,0,0,0-.174-.085l-2.4.4a.165.165,0,0,0-.136.136l-.337,2a8.787,8.787,0,0,0-2.425,1.515l-1.943-.576a.165.165,0,0,0-.183.063l-1.413,1.978a.165.165,0,0,0,0,.193l1.175,1.651a8.842,8.842,0,0,0-.646,2.787l-1.78.966a.167.167,0,0,0-.085.174l.4,2.4a.167.167,0,0,0,.137.137l2,.336a8.807,8.807,0,0,0,1.515,2.426l-.576,1.943a.166.166,0,0,0,.063.183l1.979,1.413a.166.166,0,0,0,.193,0l1.651-1.176a8.825,8.825,0,0,0,2.787.646l.966,1.78a.166.166,0,0,0,.174.085l2.4-.4a.167.167,0,0,0,.137-.136l.336-2a8.827,8.827,0,0,0,2.426-1.516l1.943.576a.166.166,0,0,0,.183-.063l1.413-1.978A.168.168,0,0,0,1309.351,775.97Z" transform="translate(-1289.227 -760.218)" fill="#91e5fa"/>
      </g>
      <g id="Grupo_87639" data-name="Grupo 87639" transform="translate(10.864 10.859)">
        <path id="Trazado_114426" data-name="Trazado 114426" d="M1301.835,775.243a2.417,2.417,0,1,1,2.213-3.386h0a2.419,2.419,0,0,1-2.213,3.386Zm0-4.319a1.9,1.9,0,1,0,1.742,1.14h0a1.9,1.9,0,0,0-1.742-1.14Z" transform="translate(-1299.417 -770.408)" fill="#bdedfb"/>
      </g>
      <g id="Grupo_87640" data-name="Grupo 87640" transform="translate(0 11.39)">
        <path id="Trazado_114427" data-name="Trazado 114427" d="M1312.464,785.759a.258.258,0,0,1-.163-.457c.259-.212.512-.438.754-.671a.258.258,0,1,1,.357.371c-.251.241-.516.476-.785.7A.26.26,0,0,1,1312.464,785.759Z" transform="translate(-1290.908 -773.545)" fill="#bdedfb"/>
        <path id="Trazado_114428" data-name="Trazado 114428" d="M1299.448,787.214a13.257,13.257,0,0,1-1.76-.117.257.257,0,1,1,.069-.51,12.691,12.691,0,0,0,1.991.109.253.253,0,0,1,.263.25.257.257,0,0,1-.251.264C1299.655,787.213,1299.551,787.214,1299.448,787.214Zm3.567-.5a.257.257,0,0,1-.07-.505,12.824,12.824,0,0,0,1.617-.582c.085-.037.168-.075.251-.113a.257.257,0,1,1,.216.467q-.13.061-.262.118a13.444,13.444,0,0,1-1.681.605A.266.266,0,0,1,1303.015,786.712Zm-8.481-.461a.26.26,0,0,1-.1-.019,13.485,13.485,0,0,1-1.854-.927.258.258,0,0,1,.266-.441,12.985,12.985,0,0,0,1.782.891.257.257,0,0,1-.1.5Zm-4.407-2.953a.254.254,0,0,1-.184-.077,13.23,13.23,0,0,1-1.331-1.592.257.257,0,1,1,.42-.3,12.668,12.668,0,0,0,1.278,1.529.258.258,0,0,1,0,.364A.254.254,0,0,1,1290.126,783.3Zm-2.86-4.469a.256.256,0,0,1-.24-.166,13.321,13.321,0,0,1-.589-1.989.258.258,0,0,1,.5-.107,12.835,12.835,0,0,0,.565,1.912.257.257,0,0,1-.148.332A.261.261,0,0,1,1287.266,778.828Z" transform="translate(-1286.161 -772.036)" fill="#bdedfb"/>
        <path id="Trazado_114429" data-name="Trazado 114429" d="M1286.359,772.6h-.012a.258.258,0,0,1-.246-.27c.017-.35.047-.7.091-1.045a.257.257,0,1,1,.511.064c-.042.33-.071.669-.087,1.006A.257.257,0,0,1,1286.359,772.6Z" transform="translate(-1286.101 -771.059)" fill="#bdedfb"/>
      </g>
      <g id="Grupo_87641" data-name="Grupo 87641" transform="translate(4.801)">
        <path id="Trazado_114430" data-name="Trazado 114430" d="M1292.244,761.031a.258.258,0,0,1-.163-.458c.272-.22.555-.432.842-.629a.257.257,0,0,1,.291.424c-.276.19-.548.393-.808.6A.255.255,0,0,1,1292.244,761.031Z" transform="translate(-1291.985 -757.614)" fill="#bdedfb"/>
        <path id="Trazado_114431" data-name="Trazado 114431" d="M1314.173,768.581a.258.258,0,0,1-.255-.217,12.813,12.813,0,0,0-.458-1.907.257.257,0,0,1,.49-.158,13.326,13.326,0,0,1,.477,1.983.258.258,0,0,1-.214.3A.236.236,0,0,1,1314.173,768.581Zm-1.838-4.886a.257.257,0,0,1-.219-.121,12.687,12.687,0,0,0-1.166-1.575.258.258,0,1,1,.389-.338,13.26,13.26,0,0,1,1.213,1.64.257.257,0,0,1-.082.355A.253.253,0,0,1,1312.335,763.695Zm-3.605-3.773a.258.258,0,0,1-.147-.046,12.847,12.847,0,0,0-1.693-.99.258.258,0,0,1,.226-.463,13.436,13.436,0,0,1,1.761,1.03.257.257,0,0,1-.147.469Zm-11.942-1.517a.258.258,0,0,1-.089-.5,13.391,13.391,0,0,1,1.961-.56.258.258,0,0,1,.1.505,12.9,12.9,0,0,0-1.886.538A.246.246,0,0,1,1296.788,758.4Zm7.144-.538a.289.289,0,0,1-.053,0,12.714,12.714,0,0,0-1.944-.249.259.259,0,0,1-.245-.271.266.266,0,0,1,.27-.244,13.324,13.324,0,0,1,2.023.259.258.258,0,0,1-.051.51Z" transform="translate(-1292.822 -757.098)" fill="#bdedfb"/>
        <path id="Trazado_114432" data-name="Trazado 114432" d="M1318.06,776.067a.267.267,0,0,1-.044,0,.258.258,0,0,1-.21-.3c.058-.332.1-.669.134-1a.258.258,0,0,1,.513.048c-.033.344-.08.7-.14,1.04A.257.257,0,0,1,1318.06,776.067Z" transform="translate(-1296.74 -760.308)" fill="#bdedfb"/>
      </g>
      <path id="Trazado_114433" data-name="Trazado 114433" d="M1300.94,778.08a6.134,6.134,0,0,1-6.037-5.117,6.25,6.25,0,0,1-.085-1.02,6.124,6.124,0,0,1,12.165-.994h0c.007.038.012.074.018.111a6.223,6.223,0,0,1,.063,1.127l0,.064a.258.258,0,0,1-.515-.011v-.012c0-.087.006-.174.006-.261a5.763,5.763,0,0,0-.077-.932,5.609,5.609,0,1,0-1.9,5.2.258.258,0,0,1,.363.029.254.254,0,0,1,.062.166.258.258,0,0,1-.09.2,6.14,6.14,0,0,1-3.969,1.457Z" transform="translate(-1287.706 -758.706)" fill="#bdedfb"/>
    </g>
    <path id="Trazado_114434" data-name="Trazado 114434" d="M1251.624,814.782v-.047h-.056a17.268,17.268,0,0,0-22.166,0l-.058,0v.048a17.308,17.308,0,1,0,22.278,0Zm4.331,18.943-3.69-.032a22.016,22.016,0,0,0,.752-5.393l3.839-.024.113,0A16.391,16.391,0,0,1,1255.955,833.725Zm-31.95-5.444,3.069.023a23.134,23.134,0,0,0,.19,2.61,21.174,21.174,0,0,0,.565,2.788l-2.411.016-.4.015A16.388,16.388,0,0,1,1224.005,828.281Zm1.178-6.389.057.056,2.689.022c-.025.084-.052.166-.077.25a21.122,21.122,0,0,0-.586,2.864,22.757,22.757,0,0,0-.185,2.284l-2.97.017-.1,0A16.385,16.385,0,0,1,1225.183,821.892Zm25.948,11.795-5.834-.017c.174-1.686.263-3.455.276-5.336l3.1-.006,3.236-.02a20.938,20.938,0,0,1-.715,5.172C1251.173,833.549,1251.151,833.617,1251.131,833.686Zm.064-11.171a20.854,20.854,0,0,1,.707,4.84l-6.334-.017a49.523,49.523,0,0,0-.348-5.336l2.8-.006,3.019-.02C1251.091,822.154,1251.146,822.333,1251.2,822.515Zm-8.127,17.2h-5.075a7.327,7.327,0,0,1-.288-.909c-.166-.673-.312-1.3-.445-2.062-.121-.7-.224-1.376-.313-2.114l3.54.028,3.629,0q-.13,1.076-.3,2.084c-.133.768-.277,1.324-.44,1.993A7.151,7.151,0,0,1,1243.068,839.714Zm-2.584-6.059-3.647.006c-.038-.391-.073-.79-.1-1.2-.1-1.339-.149-2.726-.152-4.128l3.9.01,4.008-.007c-.007,1.38-.059,2.744-.159,4.057-.032.436-.071.858-.112,1.273ZM1236.835,822l3.651.01,3.676-.007c.06.521.116,1.052.161,1.6.1,1.211.155,2.461.168,3.725l-4.007-.011-3.9.006c.009-1.323.048-2.527.121-3.663C1236.739,823.092,1236.785,822.542,1236.835,822Zm5.621-7.332-1.972-.01-2.2,0c.078-.209.157-.405.24-.59a7.016,7.016,0,0,1,.482-.917,3.079,3.079,0,0,1,.614-.734,1.37,1.37,0,0,1,.349-.218.858.858,0,0,1,.326-.067h.025a.924.924,0,0,1,.354.088,1.683,1.683,0,0,1,.36.233,3.514,3.514,0,0,1,.639.733A8.616,8.616,0,0,1,1242.457,814.67Zm-4.505,1.005,2.536.006,2.351-.007c.155.453.3.933.441,1.46.179.676.334,1.372.476,2.129.106.565.2,1.146.281,1.739l-3.551-.011-3.546.006c.066-.578.14-1.144.224-1.7.12-.77.251-1.473.4-2.147C1237.687,816.619,1237.815,816.132,1237.951,815.675Zm5.557-1a10.279,10.279,0,0,0-1.051-2.023c-.077-.109-.152-.208-.227-.3.16.04.321.079.479.128a10.08,10.08,0,0,1,2.448,1.136,11.373,11.373,0,0,1,1.411,1.077Zm-5.295-2.035a7.918,7.918,0,0,0-.56,1.037c-.138.3-.269.627-.4.989h-.235c-.627,0-1.256,0-1.883.007l-1.58.011a11.456,11.456,0,0,1,1.4-1.068,10.109,10.109,0,0,1,2.448-1.139,9.311,9.311,0,0,1,1.125-.264A5.166,5.166,0,0,0,1238.214,812.64ZM1237.243,841a1.148,1.148,0,0,0,.14.383,10.108,10.108,0,0,0,1.033,2.086c.081.118.161.224.241.325a9.4,9.4,0,0,1-1.252-.291,10.051,10.051,0,0,1-2.444-1.127,12.846,12.846,0,0,1-1.744-1.377Zm3.162,2.9a.885.885,0,0,1-.2-.054,1.374,1.374,0,0,1-.346-.212,3.2,3.2,0,0,1-.625-.721,9.008,9.008,0,0,1-.911-1.88c0-.012-.008-.029-.013-.029h4.43a9.471,9.471,0,0,1-.886,1.862,3.406,3.406,0,0,1-.618.736,1.561,1.561,0,0,1-.347.228.984.984,0,0,1-.164.057C1240.623,843.893,1240.514,843.893,1240.405,843.9Zm2.284-.5a10.382,10.382,0,0,0,1.016-2.085c.039-.106.076-.316.114-.316h3.085a13.022,13.022,0,0,1-1.751,1.38,10.127,10.127,0,0,1-2.448,1.13c-.036.011-.073.016-.109.027C1242.628,843.493,1242.659,843.45,1242.69,843.4Zm2.4-22.4c-.1-.654-.2-1.3-.33-1.936-.155-.783-.324-1.5-.516-2.2-.117-.426-.239-.823-.366-1.2l1.96-.006,1.709-.015a14.533,14.533,0,0,1,1.424,1.835,17.072,17.072,0,0,1,1.752,3.537Zm-9.951-5.339c.6.005,1.2.006,1.792.007-.116.394-.227.809-.332,1.255-.165.694-.308,1.417-.441,2.21-.1.6-.187,1.225-.265,1.862l-2.938,0-3.548.023a17.087,17.087,0,0,1,1.748-3.536,14.448,14.448,0,0,1,1.429-1.845Zm-5.948,6.315,6.591.018c-.053.518-.1,1.045-.142,1.595-.055.731-.1,1.483-.124,2.236-.016.455-.032.968-.039,1.5l-3.175,0-4.073.024c.022-.716.078-1.429.169-2.126a20.364,20.364,0,0,1,.536-2.714c.05-.182.1-.361.157-.54Zm-.254,11.5a20.478,20.478,0,0,1-.538-2.714,22.027,22.027,0,0,1-.176-2.451l7.254.018c.013,1.431.075,2.848.187,4.216.032.38.067.751.1,1.117l-2.812.005-3.955.025C1228.976,833.621,1228.953,833.549,1228.933,833.477Zm6.946,1.185c.1.8.216,1.58.354,2.337.144.79.3,1.365.477,2.057.072.28.146.657.221.657h-4.643a4.826,4.826,0,0,1-1.131-1.359,16.685,16.685,0,0,1-1.863-3.784Zm8.252,5.052c.082-.258.161-.42.238-.724.176-.7.33-1.389.473-2.178.132-.74.244-1.475.34-2.248h2.836l2.813.029a16.332,16.332,0,0,1-1.871,3.745,4.973,4.973,0,0,1-1.128,1.377Zm8.879-12.354a21.948,21.948,0,0,0-.769-5.136c-.024-.086-.052-.17-.077-.256l3.385-.024.261-.006a16.384,16.384,0,0,1,1.15,5.452Zm-3.528-12.655-1.459-.007c-.019-.019-.037-.039-.056-.058a13.1,13.1,0,0,0-2.292-1.85,11.391,11.391,0,0,0-1.781-.9,16.418,16.418,0,0,1,6.319,2.829Zm-15.052-1.92a13.056,13.056,0,0,0-2.3,1.849c-.02.02-.039.042-.06.063l-.563,0-.746.009a16.47,16.47,0,0,1,4.165-2.216C1234.763,812.588,1234.6,812.682,1234.431,812.785Zm-4.1,28.216h1.434c.12.258.24.253.363.377a13.113,13.113,0,0,0,2.3,1.848c.2.123.4.237.6.347a16.427,16.427,0,0,1-4.7-2.579Zm15.353,2.216a13.011,13.011,0,0,0,2.293-1.845c.122-.122.24-.113.357-.371h2.318a16.5,16.5,0,0,1-6.864,3.18A11.333,11.333,0,0,0,1245.683,843.217Zm9.747-22.159-3.572-.032a18.221,18.221,0,0,0-2.036-4.111c-.3-.446-.618-.87-.951-1.275l.53,0c.6-.006,1.19-.013,1.779-.023l.149,0A16.567,16.567,0,0,1,1255.43,821.058Zm-25.791-5.442.146,0c.481.007.964.012,1.446.017a15.44,15.44,0,0,0-.952,1.274,18.285,18.285,0,0,0-2.046,4.126l-2.686.017A16.576,16.576,0,0,1,1229.639,815.616Zm-4.259,19,2.735.022a17.4,17.4,0,0,0,2.156,4.312,6.722,6.722,0,0,0,.666.767h-.606c-.269,0-.488.366-.488.636a1.349,1.349,0,0,0,.013.184A16.311,16.311,0,0,1,1225.38,834.613Zm26.4,5.253c-.021,0-.042-.153-.064-.153h-2.557a6.565,6.565,0,0,0,.668-.774,17.819,17.819,0,0,0,2.151-4.38l3.568.011.049-.056A16.324,16.324,0,0,1,1251.782,839.866Z" transform="translate(-22.586 -12.05)" fill="url(#linear-gradient-22)"/>
    <g id="Grupo_87643" data-name="Grupo 87643" transform="translate(1249.291 821.454)">
      <path id="Trazado_114435" data-name="Trazado 114435" d="M1290.677,859.555a1.649,1.649,0,0,1-1.645-1.647V845.68a.258.258,0,0,1,.516,0v12.228a1.132,1.132,0,0,0,1.2,1.13l14.49-.862a1.134,1.134,0,0,0,1.065-1.131V845.039a1.131,1.131,0,0,0-1.244-1.127L1293,845.106a1.133,1.133,0,0,0-.805,1.792l4.6,6.345a1.119,1.119,0,0,0,.908.467,1.131,1.131,0,0,0,.915-.452l5.064-6.747a.258.258,0,1,1,.412.309l-5.064,6.747a1.632,1.632,0,0,1-1.317.658h-.015a1.633,1.633,0,0,1-1.32-.681l-4.6-6.345a1.647,1.647,0,0,1,1.172-2.606l12.053-1.194a1.647,1.647,0,0,1,1.81,1.639v12.005a1.65,1.65,0,0,1-1.55,1.645l-14.489.862C1290.744,859.554,1290.71,859.555,1290.677,859.555Z" transform="translate(-1284.005 -839.524)" fill="url(#linear-gradient-12)"/>
      <path id="Trazado_114436" data-name="Trazado 114436" d="M1306.98,863.469h-19.837a3.717,3.717,0,0,1-3.728-3.6l-.542-15.243a3.742,3.742,0,0,1,3.332-3.842l19.833-2.115a3.729,3.729,0,0,1,4.124,3.591l.547,17.359a3.729,3.729,0,0,1-3.728,3.848Zm-.537-24.047a3.075,3.075,0,0,0-.323.017l-19.833,2.116a2.967,2.967,0,0,0-2.642,3.046l.542,15.243a2.948,2.948,0,0,0,2.956,2.852h19.837a2.956,2.956,0,0,0,2.956-3.05l-.546-17.359a2.959,2.959,0,0,0-2.947-2.865Z" transform="translate(-1282.87 -838.65)" fill="url(#linear-gradient-24)"/>
    </g>
    <g id="Grupo_87644" data-name="Grupo 87644" transform="translate(1241.313 787.525)">
      <path id="Trazado_114437" data-name="Trazado 114437" d="M1284.62,815.636a46.661,46.661,0,0,1-8.142-.627c-2.13-.433-2.492-.939-2.579-1.283-.432-1.713-1.832-14.567.521-16.6a.253.253,0,0,1,.178-.062c3.148.112,18.9.739,19.945,2.107,1.132,1.487-1.95,14.077-3.015,15.481C1291,815.342,1287.97,815.636,1284.62,815.636Zm-9.934-18.055c-1.936,1.981-.79,14.033-.287,16.019.02.082.221.506,2.182.9a45.945,45.945,0,0,0,8.725.622c3.622-.051,5.551-.443,5.811-.786.489-.645,1.477-3.947,2.249-7.517.972-4.49,1.085-6.922.765-7.341C1293.445,798.58,1281.887,797.84,1274.686,797.581Z" transform="translate(-1273.09 -797.062)" fill="url(#linear-gradient-12)"/>
      <path id="Trazado_114438" data-name="Trazado 114438" d="M1279.409,814.422h-1.357a.257.257,0,0,1-.257-.258v-4.057a.257.257,0,0,1,.257-.258h1.357a.257.257,0,0,1,.257.258v4.057A.257.257,0,0,1,1279.409,814.422Zm-1.1-.515h.841v-3.542h-.841Z" transform="translate(-1273.957 -799.417)" fill="url(#linear-gradient-26)"/>
      <path id="Trazado_114439" data-name="Trazado 114439" d="M1282.572,813.826h-1.854a.258.258,0,0,1-.258-.258v-6.7a.258.258,0,0,1,.258-.258h1.854a.257.257,0,0,1,.258.258v6.7A.257.257,0,0,1,1282.572,813.826Zm-1.6-.515h1.339v-6.183h-1.339Z" transform="translate(-1274.448 -798.821)" fill="url(#linear-gradient-27)"/>
      <path id="Trazado_114440" data-name="Trazado 114440" d="M1286.693,813.506h-2.573a.257.257,0,0,1-.258-.258v-8.115a.257.257,0,0,1,.258-.257h2.573a.258.258,0,0,1,.258.257v8.115A.258.258,0,0,1,1286.693,813.506Zm-2.316-.515h2.058v-7.6h-2.058Z" transform="translate(-1275.074 -798.501)" fill="url(#linear-gradient-21)"/>
      <path id="Trazado_114441" data-name="Trazado 114441" d="M1292.287,813.122h-3.081a.257.257,0,0,1-.257-.258v-9.818a.257.257,0,0,1,.257-.257h3.081a.257.257,0,0,1,.258.257v9.818A.257.257,0,0,1,1292.287,813.122Zm-2.824-.515h2.567v-9.3h-2.567Z" transform="translate(-1276.011 -798.117)" fill="url(#linear-gradient-12)"/>
    </g>
    <g id="Grupo_87645" data-name="Grupo 87645" transform="translate(1274.299 849.004)">
      <path id="Trazado_114442" data-name="Trazado 114442" d="M1358.411,875.763H1315.2a1.672,1.672,0,0,1-1.673-1.672h0a1.673,1.673,0,0,1,1.673-1.672h43.215a1.672,1.672,0,0,1,1.672,1.672h0A1.671,1.671,0,0,1,1358.411,875.763Z" transform="translate(-1313.523 -872.419)" fill="#7dccf4"/>
      <path id="Trazado_114443" data-name="Trazado 114443" d="M1364.775,883.792H1321.56a1.673,1.673,0,0,1-1.672-1.672h0a1.672,1.672,0,0,1,1.672-1.672h43.214a1.672,1.672,0,0,1,1.672,1.672h0A1.673,1.673,0,0,1,1364.775,883.792Z" transform="translate(-1314.695 -873.898)" fill="#7dccf4"/>
      <path id="Trazado_114444" data-name="Trazado 114444" d="M1352.486,899.85H1321.56a1.673,1.673,0,0,1-1.672-1.672h0a1.673,1.673,0,0,1,1.672-1.672h30.925a1.673,1.673,0,0,1,1.672,1.672h0A1.673,1.673,0,0,1,1352.486,899.85Z" transform="translate(-1314.695 -876.855)" fill="#7dccf4"/>
      <path id="Trazado_114445" data-name="Trazado 114445" d="M1370.715,891.821H1327.5a1.673,1.673,0,0,1-1.672-1.672h0a1.672,1.672,0,0,1,1.672-1.672h43.214a1.672,1.672,0,0,1,1.672,1.672h0A1.673,1.673,0,0,1,1370.715,891.821Z" transform="translate(-1315.789 -875.376)" fill="#7dccf4"/>
    </g>
    <g id="Grupo_87646" data-name="Grupo 87646" transform="translate(1107.785 794.355)">
      <path id="Trazado_114446" data-name="Trazado 114446" d="M1154.309,808.778h-43.214a1.673,1.673,0,0,1-1.672-1.672h0a1.672,1.672,0,0,1,1.672-1.672h43.214a1.672,1.672,0,0,1,1.672,1.672h0A1.673,1.673,0,0,1,1154.309,808.778Z" transform="translate(-1109.422 -805.434)" fill="#7dccf4"/>
      <path id="Trazado_114447" data-name="Trazado 114447" d="M1160.674,816.807h-43.215a1.672,1.672,0,0,1-1.672-1.672h0a1.672,1.672,0,0,1,1.672-1.672h43.215a1.672,1.672,0,0,1,1.672,1.672h0A1.672,1.672,0,0,1,1160.674,816.807Z" transform="translate(-1110.594 -806.912)" fill="#7dccf4"/>
      <path id="Trazado_114448" data-name="Trazado 114448" d="M1148.385,832.865h-30.926a1.672,1.672,0,0,1-1.672-1.672h0a1.672,1.672,0,0,1,1.672-1.672h30.926a1.673,1.673,0,0,1,1.672,1.672h0A1.673,1.673,0,0,1,1148.385,832.865Z" transform="translate(-1110.594 -809.87)" fill="#7dccf4"/>
      <path id="Trazado_114449" data-name="Trazado 114449" d="M1166.614,824.836H1123.4a1.673,1.673,0,0,1-1.672-1.672h0a1.673,1.673,0,0,1,1.672-1.672h43.214a1.673,1.673,0,0,1,1.672,1.672h0A1.673,1.673,0,0,1,1166.614,824.836Z" transform="translate(-1111.688 -808.391)" fill="#7dccf4"/>
    </g>
    <g id="Grupo_87659" data-name="Grupo 87659" transform="translate(1107.16 756.406)">
      <g id="Grupo_87658" data-name="Grupo 87658">
        <g id="Grupo_87656" data-name="Grupo 87656" transform="translate(26.522)">
          <g id="Grupo_87652" data-name="Grupo 87652" transform="translate(0 9.157)">
            <g id="Grupo_87647" data-name="Grupo 87647" transform="translate(12.5 46.328)">
              <path id="Trazado_114450" data-name="Trazado 114450" d="M1162.579,831.481c-1.074.092-2.939.243-4.408.308a4.249,4.249,0,0,1-1.686-.166c0,.034,0,.064,0,.094a.305.305,0,0,0,.289.287,51.775,51.775,0,0,0,5.773.006.217.217,0,0,0,.176-.326A1.754,1.754,0,0,0,1162.579,831.481Z" transform="translate(-1156.486 -827.766)" fill="url(#linear-gradient-30)"/>
              <path id="Trazado_114451" data-name="Trazado 114451" d="M1158.172,831.3c1.469-.065,3.333-.216,4.408-.308-1.057-1.3-4.408-2.169-4.408-2.169h-.947a3.969,3.969,0,0,0-.738,2.312A4.249,4.249,0,0,0,1158.172,831.3Z" transform="translate(-1156.486 -827.276)" fill="url(#linear-gradient-31)"/>
              <path id="Trazado_114452" data-name="Trazado 114452" d="M1157.2,826.927l.088,1.753a.4.4,0,0,0,.342.377,1.568,1.568,0,0,0,.711-.059.473.473,0,0,0,.318-.365l.307-1.707Z" transform="translate(-1156.616 -826.927)" fill="url(#linear-gradient-32)"/>
            </g>
            <g id="Grupo_87649" data-name="Grupo 87649" transform="translate(0 44.689)">
              <g id="Grupo_87648" data-name="Grupo 87648" transform="translate(0 1.627)">
                <path id="Trazado_114453" data-name="Trazado 114453" d="M1141.946,831.714a.849.849,0,0,1-.765-.565l0,.007a.606.606,0,0,0,.408.69,2.659,2.659,0,0,0,1.129.176,1.124,1.124,0,0,0,.848-.39l0,0A2.841,2.841,0,0,1,1141.946,831.714Z" transform="translate(-1141.164 -827.694)" fill="url(#linear-gradient-33)"/>
                <path id="Trazado_114454" data-name="Trazado 114454" d="M1144.146,826.914h-.781c-1.189-.024-1.936,2.484-2.181,3.455a.849.849,0,0,0,.765.565,2.84,2.84,0,0,0,1.62-.086,7.469,7.469,0,0,0,1.115-2.807A.985.985,0,0,0,1144.146,826.914Z" transform="translate(-1141.168 -826.914)" fill="url(#linear-gradient-34)"/>
              </g>
              <path id="Trazado_114455" data-name="Trazado 114455" d="M1143.88,824.919l-.434,1.725a.468.468,0,0,0,.244.53,1.66,1.66,0,0,0,.9.217.39.39,0,0,0,.319-.26l.636-1.814Z" transform="translate(-1141.581 -824.919)" fill="url(#linear-gradient-35)"/>
            </g>
            <path id="Trazado_114456" data-name="Trazado 114456" d="M1143.347,820a5.274,5.274,0,0,0,2.294.542c6.319-15.169,8.9-17.324,8.9-17.324-.912,5.725-.147,18.4-.147,18.4a3.791,3.791,0,0,0,2.387,0,97.711,97.711,0,0,1,3.228-23.992c-4.272-.1-6.543-1.557-7.285-2.144C1149.168,801.218,1143.347,820,1143.347,820Z" transform="translate(-1141.566 -774.808)" fill="url(#linear-gradient-36)"/>
            <path id="Trazado_114457" data-name="Trazado 114457" d="M1155.842,774.073c-.808,4.033-.518,11.251-.328,14.543a6.511,6.511,0,0,1-1.115,3.084.273.273,0,0,0,.111.386,19.026,19.026,0,0,0,7.268,2.015.49.49,0,0,0,.493-.365,95.545,95.545,0,0,1,5.5-15.582C1164.509,772.939,1155.842,774.073,1155.842,774.073Z" transform="translate(-1143.594 -770.847)" fill="url(#linear-gradient-37)"/>
            <path id="Trazado_114458" data-name="Trazado 114458" d="M1157.557,803.955a.2.2,0,0,1-.105-.03.2.2,0,0,1-.068-.277,6.347,6.347,0,0,1,2.506-2.176.2.2,0,0,1,.175.365,6.046,6.046,0,0,0-2.336,2.022A.2.2,0,0,1,1157.557,803.955Z" transform="translate(-1144.146 -775.908)" fill="url(#linear-gradient-38)"/>
            <g id="Grupo_87650" data-name="Grupo 87650" transform="translate(7.072 3.226)">
              <path id="Trazado_114459" data-name="Trazado 114459" d="M1149.96,788.22a13.878,13.878,0,0,0,2.563,6.1l.583-.476a18.007,18.007,0,0,1-.291-5.835A6.99,6.99,0,0,0,1149.96,788.22Z" transform="translate(-1149.856 -776.645)" fill="url(#linear-gradient-39)"/>
              <path id="Trazado_114460" data-name="Trazado 114460" d="M1155.911,779.072l-.9-4.976s-6.033,4.612-5.071,11.574a6.99,6.99,0,0,1,2.855-.206A9.768,9.768,0,0,1,1155.911,779.072Z" transform="translate(-1149.833 -774.096)" fill="url(#linear-gradient-40)"/>
            </g>
            <g id="Grupo_87651" data-name="Grupo 87651" transform="translate(21.851 7.307)">
              <path id="Trazado_114461" data-name="Trazado 114461" d="M1170.276,779.1l-2.329,5.016c.376,3.028,2,4.338,3.757,4.84a10.64,10.64,0,0,1,.782-3.267C1170.245,783.374,1170.276,779.1,1170.276,779.1Z" transform="translate(-1167.947 -779.098)" fill="url(#linear-gradient-41)"/>
              <path id="Trazado_114462" data-name="Trazado 114462" d="M1173.334,787.175a10.64,10.64,0,0,0-.782,3.267c4.68,1.815,5.918-1.706,5.918-1.706l-.865-.153A4.9,4.9,0,0,1,1173.334,787.175Z" transform="translate(-1168.795 -780.585)" fill="url(#linear-gradient-42)"/>
            </g>
            <path id="Trazado_114463" data-name="Trazado 114463" d="M1167.181,771.256l-1.124,4.133a.8.8,0,0,1-1.075.535,16.313,16.313,0,0,1-1.62-.74,1.084,1.084,0,0,1-.383-1.557l2.337-3.485Z" transform="translate(-1145.147 -770.142)" fill="url(#linear-gradient-43)"/>
          </g>
          <path id="Trazado_114464" data-name="Trazado 114464" d="M1175.6,785.7l-28.812,10.486a2.206,2.206,0,0,0-1.254,2.986l.088.193a2.051,2.051,0,0,0,2.727,1.012l27.975-12.942Z" transform="translate(-1141.933 -763.85)" fill="url(#linear-gradient-44)"/>
          <g id="Grupo_87653" data-name="Grupo 87653" transform="translate(32.691 1.574)" opacity="0.17">
            <ellipse id="Elipse_4479" data-name="Elipse 4479" cx="14.223" cy="13.966" rx="14.223" ry="13.966" fill="#bdedfb"/>
          </g>
          <path id="Trazado_114465" data-name="Trazado 114465" d="M1195.095,758.918a15.543,15.543,0,1,0,15.827,15.54A15.685,15.685,0,0,0,1195.095,758.918Zm0,28.8a13.26,13.26,0,1,1,13.5-13.257A13.381,13.381,0,0,1,1195.095,787.716Z" transform="translate(-1148.181 -758.918)" fill="url(#linear-gradient-44)"/>
          <g id="Grupo_87654" data-name="Grupo 87654" transform="translate(32.064 0.939)">
            <path id="Trazado_114466" data-name="Trazado 114466" d="M1180.693,776.618a.129.129,0,0,1-.128-.113c-.047-.369-.08-.745-.1-1.116a.129.129,0,0,1,.258-.012c.018.365.051.734.1,1.1a.129.129,0,0,1-.111.144Zm.108-4.345-.023,0a.13.13,0,0,1-.1-.15,14.363,14.363,0,0,1,.855-2.926h0a14.812,14.812,0,0,1,13.785-9.125,15.014,15.014,0,0,1,7.983,2.282.129.129,0,1,1-.137.218,14.758,14.758,0,0,0-7.846-2.242,14.557,14.557,0,0,0-13.548,8.965h0a14.119,14.119,0,0,0-.84,2.874A.128.128,0,0,1,1180.8,772.272Z" transform="translate(-1180.466 -760.069)" fill="#91e5fa"/>
          </g>
          <g id="Grupo_87655" data-name="Grupo 87655" transform="translate(19.268 4.911)">
            <path id="Trazado_114467" data-name="Trazado 114467" d="M1170.379,767.509c.01.071-.938,4.716-.938,4.716l-2.641-.6.244-4.536S1170.207,766.321,1170.379,767.509Z" transform="translate(-1165.153 -765.289)" fill="url(#linear-gradient-46)"/>
            <path id="Trazado_114468" data-name="Trazado 114468" d="M1167.275,767.751l-.316,2.378a.3.3,0,0,0,0,.091c.026.187.165.822.806.64a3.01,3.01,0,0,1,1.482-.193.334.334,0,0,1,.23.388,14.449,14.449,0,0,1-.608,2.164.333.333,0,0,1-.405.2,10.783,10.783,0,0,1-2.328-.952.334.334,0,0,1-.163-.3c.025-.6.1-2.426.036-2.937-.055-.48-.645-.768-.9-.87a.33.33,0,0,1-.183-.184.868.868,0,0,1,.584-1.266.336.336,0,0,0,.212-.434.871.871,0,0,1,.488-1.2,1.229,1.229,0,0,1,1.465.353.335.335,0,0,0,.427.051.264.264,0,0,1,.3.011.33.33,0,0,0,.468-.142,1,1,0,0,1,1.163-.579,1.6,1.6,0,0,1,1.006,2.283c-.312.768-1.583.476-2.221.088a1.434,1.434,0,0,0-1.387.18A.335.335,0,0,0,1167.275,767.751Z" transform="translate(-1164.79 -764.937)" fill="url(#linear-gradient-47)"/>
            <path id="Trazado_114469" data-name="Trazado 114469" d="M1165.895,770.837s.487-1.362-.013-1.7-1.24-.161-1.078.826C1165.007,771.2,1165.895,770.837,1165.895,770.837Z" transform="translate(-1164.781 -765.683)" fill="url(#linear-gradient-48)"/>
          </g>
          <path id="Trazado_114470" data-name="Trazado 114470" d="M1153.4,795.031l2.723-.222,1.18,1.088s-.279.386-1.151.164a12.5,12.5,0,0,0-2.067-.277s-1.2.543-1.22-.472Z" transform="translate(-1143.319 -765.528)" fill="url(#linear-gradient-49)"/>
          <path id="Trazado_114471" data-name="Trazado 114471" d="M1179.317,789.413c.236.184,1.043-.2,1.536-.466a.569.569,0,0,0,.275-.671c-.119-.374-.317-.858-.561-.919C1180.163,787.255,1178.347,788.654,1179.317,789.413Z" transform="translate(-1148.138 -764.154)" fill="url(#linear-gradient-50)"/>
          <path id="Trazado_114472" data-name="Trazado 114472" d="M1147.486,802.182a.127.127,0,0,1-.042-.007c-1.137-.393-1.4-1.067-1.424-1.563a1.736,1.736,0,0,1,1.132-1.673l3.459-1.349a.129.129,0,0,1,.094.24l-3.46,1.349a1.478,1.478,0,0,0-.967,1.422c.026.605.447,1.054,1.25,1.331a.129.129,0,0,1-.042.25Z" transform="translate(-1142.058 -766.038)" fill="#91e5fa"/>
          <path id="Trazado_114473" data-name="Trazado 114473" d="M1152.983,797.289a.129.129,0,0,1-.12-.082.128.128,0,0,1,.073-.167l.448-.175a.129.129,0,0,1,.094.241l-.449.175A.133.133,0,0,1,1152.983,797.289Z" transform="translate(-1143.317 -765.905)" fill="#91e5fa"/>
        </g>
        <g id="Grupo_87657" data-name="Grupo 87657" transform="translate(0 59.806)">
          <path id="Trazado_114474" data-name="Trazado 114474" d="M1167.265,894.167a.506.506,0,0,1-.506-.506V833.176a.506.506,0,0,1,1.012,0v60.485A.506.506,0,0,1,1167.265,894.167Z" transform="translate(-1119.356 -832.306)" fill="#bdedfb"/>
          <path id="Trazado_114475" data-name="Trazado 114475" d="M1150.457,894.167a.506.506,0,0,1-.506-.506V833.176a.506.506,0,0,1,1.012,0v60.485A.506.506,0,0,1,1150.457,894.167Z" transform="translate(-1116.26 -832.306)" fill="#bdedfb"/>
          <path id="Trazado_114476" data-name="Trazado 114476" d="M1109.161,894.55a.505.505,0,0,1-.465-.7l25.876-60.868a.506.506,0,1,1,.932.4l-25.877,60.868A.505.505,0,0,1,1109.161,894.55Z" transform="translate(-1108.655 -832.306)" fill="#bdedfb"/>
          <path id="Trazado_114477" data-name="Trazado 114477" d="M1128.753,894.55a.519.519,0,0,1-.2-.04.507.507,0,0,1-.268-.664l25.877-60.868a.506.506,0,1,1,.931.4l-25.876,60.868A.506.506,0,0,1,1128.753,894.55Z" transform="translate(-1112.263 -832.306)" fill="#bdedfb"/>
          <path id="Trazado_114478" data-name="Trazado 114478" d="M1162.831,833.65h-23.7a.713.713,0,0,1-.713-.713h0a.713.713,0,0,1,.713-.713h23.7a.713.713,0,0,1,.713.713h0A.713.713,0,0,1,1162.831,833.65Z" transform="translate(-1114.136 -832.224)" fill="#bdedfb"/>
          <path id="Trazado_114479" data-name="Trazado 114479" d="M1152.06,845.09h-16.031a.506.506,0,1,1,0-1.012h16.031a.506.506,0,1,1,0,1.012Z" transform="translate(-1113.603 -834.407)" fill="#bdedfb"/>
          <rect id="Rectngulo_34788" data-name="Rectngulo 34788" width="16.031" height="1.012" transform="translate(17.507 21.183)" fill="#bdedfb"/>
          <rect id="Rectngulo_34789" data-name="Rectngulo 34789" width="16.031" height="1.012" transform="translate(12.745 32.694)" fill="#bdedfb"/>
          <path id="Trazado_114480" data-name="Trazado 114480" d="M1134.073,887.421h-16.031a.506.506,0,1,1,0-1.012h16.031a.506.506,0,1,1,0,1.012Z" transform="translate(-1110.291 -842.203)" fill="#bdedfb"/>
          <path id="Trazado_114481" data-name="Trazado 114481" d="M1128.155,901.531h-16.031a.506.506,0,0,1,0-1.013h16.031a.506.506,0,0,1,0,1.013Z" transform="translate(-1109.201 -844.801)" fill="#bdedfb"/>
        </g>
      </g>
      <path id="Trazado_114482" data-name="Trazado 114482" d="M1187.422,773.155l5.243,4.081,10.065-8.25,2.6,2.965L1192.665,785.2l-8.113-8.887Z" transform="translate(-1122.632 -760.772)" fill="url(#linear-gradient-51)"/>
    </g>
    <g id="Grupo_87662" data-name="Grupo 87662" transform="translate(1271.662 817.923)">
      <path id="Trazado_114483" data-name="Trazado 114483" d="M1328.3,844.167s1.2.582,1.416,1.25c.176.536,1.5.6,1.628,1.659a1.211,1.211,0,0,0,1.012,1.063c1.35.206,3.432.908,3.764,3.252.254,1.79-.658,2.468-1.615,2.7a1.355,1.355,0,0,0-1.028,1.566c.136.68-.068,1.468-1.247,2.09-2.643,1.4-5.283-3.3-5.283-3.3l-.541-8.2Z" transform="translate(-1313.258 -836.135)" fill="url(#linear-gradient-52)"/>
      <path id="Trazado_114484" data-name="Trazado 114484" d="M1313.349,838.863s3.4,9.272,9.2,12.17c0,0-1.929,3.147-2.935,3.338,0,0-6.191-7.923-6.822-14.416Z" transform="translate(-1310.75 -835.158)" fill="url(#linear-gradient-53)"/>
      <path id="Trazado_114485" data-name="Trazado 114485" d="M1342.043,907.105l.171,1.407a1.888,1.888,0,0,0,.932.975,4.288,4.288,0,0,0,1.354.078c.311-.033.618-.863.523-1.161a5.118,5.118,0,0,0-.943-1.837h-1.56A.481.481,0,0,0,1342.043,907.105Z" transform="translate(-1316.137 -847.627)" fill="url(#linear-gradient-54)"/>
      <path id="Trazado_114486" data-name="Trazado 114486" d="M1326.8,887.037l-.263,1.548s.882,8.931,1.039,12.5a2.8,2.8,0,0,1-.414,1.591l-1.534,2.49,3.9-2.3.078-.476-.637-.877.835-10a3.068,3.068,0,0,0-.35-1.7l-.805-1.514Z" transform="translate(-1313.115 -844.03)" fill="url(#linear-gradient-55)"/>
      <path id="Trazado_114487" data-name="Trazado 114487" d="M1325.244,908.87h1.243a.749.749,0,0,0,.594-.291c.388-.5,1.191-1.486,1.575-1.512.516-.035.45,1.8.45,1.8h.29l.367-2.284a1.352,1.352,0,0,0-.709-1.413h0a1.911,1.911,0,0,1-.76,1.26c-.641.387-2.607,1.77-2.607,1.77a1.768,1.768,0,0,0-.505.014A.329.329,0,0,0,1325.244,908.87Z" transform="translate(-1312.983 -847.37)" fill="url(#linear-gradient-56)"/>
      <path id="Trazado_114488" data-name="Trazado 114488" d="M1333.61,887.793s5.165,9.8,5.987,12.035a21.455,21.455,0,0,1,1.119,4.28c.017.276.361.541,1.308.541a.908.908,0,0,0,.845-.386.553.553,0,0,0,.02-.534c-.3-.6-1.247-2.537-1.6-3.414-.419-1.046-1.321-5.788-1.815-7.437a8.752,8.752,0,0,0-3.208-5.085S1334.79,886.345,1333.61,887.793Z" transform="translate(-1314.585 -844.051)" fill="url(#linear-gradient-57)"/>
      <path id="Trazado_114489" data-name="Trazado 114489" d="M1327.971,865.593a9.39,9.39,0,0,1,2.043-8.839c-2.129-2.044-6.01-2.975-6.01-2.975s-3.7,2.707-3.263,4.826c.258,1.242,2.6,7.438,2.6,7.438A5.152,5.152,0,0,0,1327.971,865.593Z" transform="translate(-1312.208 -837.905)" fill="url(#linear-gradient-58)"/>
      <path id="Trazado_114490" data-name="Trazado 114490" d="M1331.441,871.055c-.543-1.633-2.954-2.8-2.954-2.8a5.152,5.152,0,0,1-4.628.451,6.43,6.43,0,0,0-.15,3.586c1.6,5.059,2.668,15.716,2.441,12.83,3.319.672,8.422-.676,8.422-.676C1332.457,880.7,1331.983,872.689,1331.441,871.055Z" transform="translate(-1312.724 -840.572)" fill="url(#linear-gradient-59)"/>
      <path id="Trazado_114491" data-name="Trazado 114491" d="M1327.242,849.1l1.083,4.866c.1.429-.287.359-.72.277a2.886,2.886,0,0,1-1.929-.962.518.518,0,0,1-.055-.184l-.466-3.374a.606.606,0,0,1,.355-.637l.9-.4A.606.606,0,0,1,1327.242,849.1Z" transform="translate(-1313.026 -836.959)" fill="url(#linear-gradient-60)"/>
      <path id="Trazado_114492" data-name="Trazado 114492" d="M1331.724,857.426s7.56,5.409.967,11.093a1.7,1.7,0,0,1-.746.432,8.248,8.248,0,0,0-1.363.925.256.256,0,0,1-.375-.068h0a.354.354,0,0,1-.02-.336l.936-1.979a.722.722,0,0,1,.938-.04h0a.357.357,0,0,0,.54-.122c.51-1.039,1.472-4.091-2.467-7.542a.426.426,0,0,1-.095-.519C1330.316,858.739,1330.949,857.683,1331.724,857.426Z" transform="translate(-1313.918 -838.577)" fill="url(#linear-gradient-61)"/>
      <g id="Grupo_87660" data-name="Grupo 87660" transform="translate(10.376 5.782)">
        <path id="Trazado_114493" data-name="Trazado 114493" d="M1325.578,843.512a4.8,4.8,0,0,0-2.155,2.4c-.872,1.854-.221,2.709.6,2.828a3.829,3.829,0,0,0,3.336-1.1C1328.65,846.439,1327.245,842.87,1325.578,843.512Z" transform="translate(-1323.008 -841.782)" fill="url(#linear-gradient-62)"/>
        <path id="Trazado_114494" data-name="Trazado 114494" d="M1326.759,846.274s.968-2.713-1.437-2.745l-.566.4a1.542,1.542,0,0,1,.566-2.222,2.618,2.618,0,0,1,3.759,1.827c.616,1.951.721,3.257-.3,4.19s-1.447-.125-1.447-.125.558-.873.33-1.34-.751.1-.751.1Z" transform="translate(-1323.281 -841.409)" fill="url(#linear-gradient-63)"/>
        <path id="Trazado_114495" data-name="Trazado 114495" d="M1327.152,847.673s.49-1.4,1.142-.841-.53,1.291-.994,1.529Z" transform="translate(-1323.771 -842.384)" fill="url(#linear-gradient-64)"/>
      </g>
      <g id="Grupo_87661" data-name="Grupo 87661" transform="translate(0)">
        <path id="Trazado_114496" data-name="Trazado 114496" d="M1312.563,839.715c-.052.165.549.416.9-.259a6.382,6.382,0,0,0,.016-1.972,25.843,25.843,0,0,0-3.024-3.162.475.475,0,0,0-.06.66l.968,1.008a4.689,4.689,0,0,0-.565,1.117,1.361,1.361,0,0,0,.135,1c.17.306.4.7.621,1.015A1.342,1.342,0,0,0,1312.563,839.715Z" transform="translate(-1310.29 -834.322)" fill="url(#linear-gradient-65)"/>
        <path id="Trazado_114497" data-name="Trazado 114497" d="M1313.242,838.661l-.277-.745-.882-.748c-.183.094-.285.249-.088.568a10.139,10.139,0,0,1,.461,1.8Z" transform="translate(-1310.584 -834.846)" fill="url(#linear-gradient-66)"/>
      </g>
    </g>
  </g>
</svg>
