<svg xmlns="http://www.w3.org/2000/svg" xmlns:xlink="http://www.w3.org/1999/xlink" width="352.555" height="335.7" viewBox="0 0 352.555 335.7">
  <defs>
    <linearGradient id="linear-gradient" x1="-2.907" y1="-0.369" x2="-1.873" y2="-0.369" gradientUnits="objectBoundingBox">
      <stop offset="0" stop-color="#ffc444"/>
      <stop offset="0.996" stop-color="#f36f56"/>
    </linearGradient>
    <clipPath id="clip-path">
      <path id="Trazado_116665" data-name="Trazado 116665" d="M1735.431,2553.1l22.616,20.015s14.524-7.834,16.228-20.926c3.476-26.713,26.629-21.8,36.634-21.2,15.089.913,28.783-4.863,19.543-20.832s21.908-24.625,46.063-19.639c23.638,4.88,45.951-34.323-4.239-49.581-29.974-9.113-46.649,16.46-58.139,27.372s-29.939-3.67-36.7,16.1c-5.777,16.885-3.972,34.523-18.931,36.407S1734.358,2531.527,1735.431,2553.1Z" fill="url(#linear-gradient)"/>
    </clipPath>
    <linearGradient id="linear-gradient-3" x1="33.068" y1="-6.662" x2="32.708" y2="-5.387" xlink:href="#linear-gradient"/>
    <linearGradient id="linear-gradient-4" x1="7.294" y1="1.672" x2="7.905" y2="2.608" gradientUnits="objectBoundingBox">
      <stop offset="0" stop-color="#4859ff"/>
      <stop offset="1" stop-color="#33cdfb"/>
    </linearGradient>
    <clipPath id="clip-path-2">
      <path id="Trazado_116672" data-name="Trazado 116672" d="M1764.265,2552.253,1705.529,2547c-2.824-8.173-6.091-23.076,6.469-25.554,17.463-3.446,19.8-31.929,15.79-42.4-4.97-12.963-15.894-43.359,11.005-49.089,22.392-4.771,37.974-3.489,41.318-30.1s19.9-42.035,45.418-38.344c26.857,3.884,51.269-28.275,72.6-15.1,37.163,22.955-1.7,79.027-49.677,92.261s-22.2,31.4-22.413,53.39c-.294,30.018-42.546,20.136-54.614,30.949C1761.961,2531.482,1762.743,2544.313,1764.265,2552.253Z" fill="none"/>
    </clipPath>
    <linearGradient id="linear-gradient-5" x1="0.86" y1="-0.265" x2="-0.019" y2="1.502" gradientUnits="objectBoundingBox">
      <stop offset="0" stop-color="#3a46f9"/>
      <stop offset="0.996" stop-color="#258fd7"/>
    </linearGradient>
    <linearGradient id="linear-gradient-6" y1="0.5" x2="1" y2="0.5" gradientUnits="objectBoundingBox">
      <stop offset="0" stop-color="#40447e"/>
      <stop offset="0.996" stop-color="#3c3b6b"/>
    </linearGradient>
    <linearGradient id="linear-gradient-7" y1="0.5" x2="1" y2="0.5" gradientUnits="objectBoundingBox">
      <stop offset="0" stop-color="#2b648c"/>
      <stop offset="0.996" stop-color="#04234f"/>
    </linearGradient>
    <linearGradient id="linear-gradient-24" y1="0.5" x2="1" y2="0.5" gradientUnits="objectBoundingBox">
      <stop offset="0" stop-color="#5453f9"/>
      <stop offset="0.996" stop-color="#1d76d7"/>
    </linearGradient>
    <linearGradient id="linear-gradient-26" x1="1.688" y1="1.584" x2="1.381" y2="0.014" gradientUnits="objectBoundingBox">
      <stop offset="0.004" stop-color="#5872e3"/>
      <stop offset="1" stop-color="#4451f6"/>
    </linearGradient>
    <linearGradient id="linear-gradient-27" x1="0.561" y1="1.156" x2="0.511" y2="0.512" gradientUnits="objectBoundingBox">
      <stop offset="0" stop-color="#311944"/>
      <stop offset="1" stop-color="#893976"/>
    </linearGradient>
    <linearGradient id="linear-gradient-28" x1="0.965" y1="-0.515" x2="-0.193" y2="1.735" xlink:href="#linear-gradient"/>
    <linearGradient id="linear-gradient-29" x1="-91.885" y1="-100.826" x2="-91.787" y2="-101.171" xlink:href="#linear-gradient-27"/>
    <linearGradient id="linear-gradient-30" x1="-91.712" y1="-101.969" x2="-93.198" y2="-99.636" xlink:href="#linear-gradient"/>
    <linearGradient id="linear-gradient-31" x1="1.184" y1="0.022" x2="0.806" y2="0.269" xlink:href="#linear-gradient"/>
    <linearGradient id="linear-gradient-32" x1="2.037" y1="-0.14" x2="-1.168" y2="1.079" xlink:href="#linear-gradient"/>
    <linearGradient id="linear-gradient-33" x1="0.925" y1="0.275" x2="-0.529" y2="1.073" xlink:href="#linear-gradient"/>
    <linearGradient id="linear-gradient-34" x1="1.121" y1="0.251" x2="-0.786" y2="1.047" xlink:href="#linear-gradient"/>
    <linearGradient id="linear-gradient-35" x1="-38.39" y1="0.82" x2="-37.456" y2="5.546" xlink:href="#linear-gradient"/>
    <linearGradient id="linear-gradient-36" x1="22.224" y1="-4.109" x2="23.22" y2="-4.109" gradientUnits="objectBoundingBox">
      <stop offset="0" stop-color="#444b8c"/>
      <stop offset="0.996" stop-color="#26264f"/>
    </linearGradient>
    <linearGradient id="linear-gradient-37" x1="0" y1="0.5" x2="1" y2="0.5" xlink:href="#linear-gradient"/>
    <linearGradient id="linear-gradient-38" x1="59.411" y1="-58.797" x2="60.374" y2="-58.797" xlink:href="#linear-gradient-36"/>
    <linearGradient id="linear-gradient-40" x1="-33.069" y1="0.836" x2="-33.87" y2="0.171" xlink:href="#linear-gradient-6"/>
    <linearGradient id="linear-gradient-41" x1="-59.37" y1="-0.004" x2="-60.504" y2="-0.653" xlink:href="#linear-gradient-6"/>
    <linearGradient id="linear-gradient-42" x1="-23.38" y1="0.386" x2="-22.828" y2="2.163" xlink:href="#linear-gradient"/>
    <linearGradient id="linear-gradient-43" x1="-24.603" y1="1.627" x2="-24.35" y2="0.675" xlink:href="#linear-gradient"/>
    <linearGradient id="linear-gradient-44" x1="-31.306" y1="0.293" x2="-30.742" y2="2.456" xlink:href="#linear-gradient"/>
    <linearGradient id="linear-gradient-45" x1="-26.453" y1="3.338" x2="-26.574" y2="0.667" xlink:href="#linear-gradient-27"/>
    <linearGradient id="linear-gradient-46" x1="-79.182" y1="-0.345" x2="-79.055" y2="1.229" xlink:href="#linear-gradient-27"/>
    <linearGradient id="linear-gradient-47" x1="0" y1="0.5" x2="1" y2="0.5" xlink:href="#linear-gradient"/>
    <linearGradient id="linear-gradient-48" x1="-20.537" y1="0.691" x2="-20.726" y2="0.249" xlink:href="#linear-gradient-36"/>
    <linearGradient id="linear-gradient-49" x1="-21.281" y1="1.422" x2="-20.86" y2="0.015" xlink:href="#linear-gradient-27"/>
    <linearGradient id="linear-gradient-50" x1="-23.326" y1="0.5" x2="-22.326" y2="0.5" xlink:href="#linear-gradient-27"/>
    <linearGradient id="linear-gradient-52" x1="0.537" y1="0.002" x2="0.441" y2="1.962" xlink:href="#linear-gradient"/>
    <linearGradient id="linear-gradient-53" x1="6.426" y1="-7.863" x2="5.749" y2="-9.406" gradientUnits="objectBoundingBox">
      <stop offset="0" stop-color="#311944"/>
      <stop offset="1" stop-color="#6b3976"/>
    </linearGradient>
    <linearGradient id="linear-gradient-55" x1="7.18" y1="-11.675" x2="6.395" y2="-13.864" xlink:href="#linear-gradient-53"/>
    <linearGradient id="linear-gradient-56" x1="0" y1="0.5" x2="1" y2="0.5" xlink:href="#linear-gradient"/>
  </defs>
  <g id="Grupo_88169" data-name="Grupo 88169" transform="translate(-1580.473 -2339.14)">
    <path id="Trazado_116655" data-name="Trazado 116655" d="M1836.536,2359.317c11.322,16.208-1.953,42.484,14.846,54.674,16.353,11.865,36.442-7.584,51.854,2.63,22.862,15.151,18.687,84.482-14.739,127.559-10.052,12.954-18.451,18-22.171,32.646-7.988,31.459,20.086,50.173,14.743,65.733-12.029,35.034-197.028,64.431-271.257-40.858-34.669-49.174-39.856-120.182-8.881-174.113C1656.9,2330.136,1811.132,2322.95,1836.536,2359.317Z" fill="#f4f7fa"/>
    <g id="Grupo_88147" data-name="Grupo 88147">
      <g id="Grupo_88142" data-name="Grupo 88142">
        <path id="Trazado_116656" data-name="Trazado 116656" d="M1735.431,2553.1l22.616,20.015s14.524-7.834,16.228-20.926c3.476-26.713,26.629-21.8,36.634-21.2,15.089.913,28.783-4.863,19.543-20.832s21.908-24.625,46.063-19.639c23.638,4.88,45.951-34.323-4.239-49.581-29.974-9.113-46.649,16.46-58.139,27.372s-29.939-3.67-36.7,16.1c-5.777,16.885-3.972,34.523-18.931,36.407S1734.358,2531.527,1735.431,2553.1Z" fill="url(#linear-gradient)"/>
        <g id="Grupo_88141" data-name="Grupo 88141" clip-path="url(#clip-path)">
          <path id="Trazado_116657" data-name="Trazado 116657" d="M1735.431,2553.1l22.616,20.015s14.524-7.834,16.228-20.926c3.476-26.713,26.629-21.8,36.634-21.2,15.089.913,26.994-4.625,21.449-19.959-6.273-17.35,20-25.5,44.157-20.512,23.638,4.88,45.951-34.323-4.239-49.581-29.974-9.113-46.649,16.46-58.139,27.372s-29.939-3.67-36.7,16.1c-5.777,16.885-3.972,34.523-18.931,36.407S1734.358,2531.527,1735.431,2553.1Z" fill="url(#linear-gradient-3)"/>
          <g id="Grupo_88140" data-name="Grupo 88140" opacity="0.5" style="mix-blend-mode: soft-light;isolation: isolate">
            <path id="Trazado_116658" data-name="Trazado 116658" d="M1743.361,2563.861l.546.33c.2-.338,20.761-34.11,51.235-61.444,28.074-25.183,70.555-49.9,113.5-24.619l.323-.549c-19.118-11.252-39.734-13.705-61.275-7.291-17.207,5.123-35.035,15.887-52.987,31.992C1764.165,2529.679,1743.566,2563.523,1743.361,2563.861Z" fill="#beb8f2"/>
            <path id="Trazado_116659" data-name="Trazado 116659" d="M1838.809,2473.357l.526.36c11.993-17.507,37.825-34.589,38.084-34.76l-.35-.533C1876.808,2438.595,1850.872,2455.748,1838.809,2473.357Z" fill="#beb8f2"/>
            <path id="Trazado_116660" data-name="Trazado 116660" d="M1853.278,2469.476c24.935,4.211,35.7,22.3,35.8,22.488l.551-.32c-.107-.185-11.009-18.534-36.248-22.8Z" fill="#beb8f2"/>
            <path id="Trazado_116661" data-name="Trazado 116661" d="M1776.193,2521.7c25.26-17.785,60.761,3.789,61.089,4.029l.408-.49c-.3-.265-36.38-22-61.864-4.06Z" fill="#beb8f2"/>
            <path id="Trazado_116662" data-name="Trazado 116662" d="M1784.487,2512.034l.554.316c9.785-17.113,2.909-40.933,2.838-41.172l-.611.181C1787.338,2471.595,1794.136,2495.159,1784.487,2512.034Z" fill="#beb8f2"/>
            <path id="Trazado_116663" data-name="Trazado 116663" d="M1747.259,2558.948c8.442-8.152,27.091-4.019,27.278-3.977l.142-.621c-.779-.178-19.172-4.253-27.863,4.139Z" fill="#beb8f2"/>
            <path id="Trazado_116664" data-name="Trazado 116664" d="M1752.019,2550.885l.542.336c4.893-7.885,1.292-24.678.109-30.2-.167-.78-.311-1.453-.313-1.578l-.638,0a14.737,14.737,0,0,0,.328,1.71C1753.217,2526.614,1756.776,2543.219,1752.019,2550.885Z" fill="#beb8f2"/>
          </g>
        </g>
      </g>
      <g id="Grupo_88146" data-name="Grupo 88146">
        <path id="Trazado_116666" data-name="Trazado 116666" d="M1756.287,2558.751c-2.492-.525-14.521,21.217-20.487,3.981-1.491-4.306-2.4-18.855-21-21.042l-10.834-1.273c-2.452-8.391-3.208-16.754,8.036-18.972,17.462-3.446,19.8-31.929,15.79-42.4-4.97-12.963-15.894-43.359,11-49.089,22.393-4.771,37.975-3.489,41.319-30.1s19.9-42.035,45.418-38.344c26.857,3.884,51.269-28.275,72.6-15.1,37.163,22.956-1.7,79.028-49.677,92.262s-22.2,31.4-22.412,53.39a38.02,38.02,0,0,1-1.644,8.83c-7.021,22.4-31.164,24.384-49.728,41.677C1749.346,2566.146,1760.486,2559.636,1756.287,2558.751Z" fill="url(#linear-gradient-4)"/>
        <g id="Grupo_88145" data-name="Grupo 88145">
          <g id="Grupo_88144" data-name="Grupo 88144" clip-path="url(#clip-path-2)">
            <g id="Grupo_88143" data-name="Grupo 88143" opacity="0.5" style="mix-blend-mode: soft-light;isolation: isolate">
              <path id="Trazado_116667" data-name="Trazado 116667" d="M1737.273,2541.037l-1.231-.344c24.532-84.772,92.629-156.913,177.715-188.269l.485,1.129C1829.515,2384.777,1761.7,2456.617,1737.273,2541.037Z" fill="#fefbc0"/>
              <path id="Trazado_116668" data-name="Trazado 116668" d="M1754.852,2496l-1.273-.109c2.466-34.613-26.928-64.263-27.225-64.559l.914-.824C1727.569,2430.8,1757.357,2460.836,1754.852,2496Z" fill="#fefbc0"/>
              <path id="Trazado_116669" data-name="Trazado 116669" d="M1742.237,2525.569l-1.079-.667c19.81-29.383,87.505-28.008,88.187-27.991l-.005,1.21C1828.665,2498.1,1761.67,2496.746,1742.237,2525.569Z" fill="#fcfdfe"/>
              <path id="Trazado_116670" data-name="Trazado 116670" d="M1805.412,2424.873l-1.134-.579c13.528-24.541-1.289-65.341-1.44-65.75l1.2-.377C1804.194,2358.581,1819.19,2399.879,1805.412,2424.873Z" fill="#fefbc0"/>
              <path id="Trazado_116671" data-name="Trazado 116671" d="M1848.92,2387.689l-.594-1.083c29.743-14.175,73.324-1.227,73.762-1.094l-.364,1.151C1921.292,2386.531,1878.2,2373.735,1848.92,2387.689Z" fill="#fefbc0"/>
            </g>
          </g>
        </g>
      </g>
    </g>
    <g id="Grupo_88148" data-name="Grupo 88148">
      <path id="Trazado_116673" data-name="Trazado 116673" d="M1872.87,2631.487l-264.549-2.3V2636a3.615,3.615,0,0,0,2.717,3.7l74.806,13.425a10.307,10.307,0,0,0,2.684.126l181.467-15.306a3.441,3.441,0,0,0,2.875-3.616Z" fill="#97a6b7"/>
      <path id="Trazado_116674" data-name="Trazado 116674" d="M1787.709,2620.436l-176.476,12.471a5.256,5.256,0,0,1-5.726-5.3V2501.451a5.717,5.717,0,0,1,5.726-5.7h176.476a4.944,4.944,0,0,1,4.7,5.155v114.045A5.388,5.388,0,0,1,1787.709,2620.436Z" fill="#97a6b7"/>
      <path id="Trazado_116675" data-name="Trazado 116675" d="M1790.522,2620.436l-176.475,12.471a5.256,5.256,0,0,1-5.726-5.3V2501.451a5.717,5.717,0,0,1,5.726-5.7h176.475a4.944,4.944,0,0,1,4.706,5.155v114.045A5.388,5.388,0,0,1,1790.522,2620.436Z" fill="#d8dee8"/>
      <path id="Trazado_116676" data-name="Trazado 116676" d="M1785.025,2612.4l-164.369,10.833a4.307,4.307,0,0,1-4.658-4.348V2508.428a4.682,4.682,0,0,1,4.658-4.674l164.369-.68a4.051,4.051,0,0,1,3.882,4.224v100.6A4.412,4.412,0,0,1,1785.025,2612.4Z" fill="url(#linear-gradient-5)"/>
      <path id="Trazado_116677" data-name="Trazado 116677" d="M1708.517,2499.2a2.034,2.034,0,1,1-2.03-2.121A2.086,2.086,0,0,1,1708.517,2499.2Z" fill="#fff"/>
      <path id="Trazado_116678" data-name="Trazado 116678" d="M1786.119,2619.87,1608.321,2633l77.523,13.912a10.307,10.307,0,0,0,2.684.126l184.342-15.549-83.923-11.527A13.511,13.511,0,0,0,1786.119,2619.87Z" fill="#d8dee8"/>
      <path id="Trazado_116679" data-name="Trazado 116679" d="M1634.265,2633.328l148.022-11.092,45.812,6.242-146.747,11.856Z" opacity="0.3" fill="url(#linear-gradient-6)" style="mix-blend-mode: multiply;isolation: isolate"/>
      <path id="Trazado_116680" data-name="Trazado 116680" d="M1748,2585.835c-13.6-7.32-24.3,1.955-34.625-7.2-6.259-5.549-3.186-9.686-10.888-17.977-8.53-9.183-14.083-6.1-22.656-14.361-10.839-10.451-5.418-18.582-14.754-26.085-11.327-9.1-23.542-.677-34.325-9.407-4.65-3.765-7.2-9.238-8.534-15.06h-10.55a3.35,3.35,0,0,0-3.35,3.347v130.775a3.079,3.079,0,0,0,3.35,3.109l179.858-12.767a2.894,2.894,0,0,0,2.167-1.325c-13.166-.48-21.254-4.893-26.425-9.456C1757.156,2600.506,1758.911,2591.7,1748,2585.835Z" fill="#fff" opacity="0.48" style="mix-blend-mode: soft-light;isolation: isolate"/>
    </g>
    <g id="Grupo_88159" data-name="Grupo 88159">
      <g id="Grupo_88156" data-name="Grupo 88156">
        <g id="Grupo_88153" data-name="Grupo 88153">
          <g id="Grupo_88150" data-name="Grupo 88150">
            <path id="Trazado_116681" data-name="Trazado 116681" d="M1627.355,2465.55a6.257,6.257,0,0,1-6.378,5.977,6.06,6.06,0,0,1-6.268-5.948,6.257,6.257,0,0,1,6.4-5.978A6.061,6.061,0,0,1,1627.355,2465.55Zm-9.926.023a3.46,3.46,0,0,0,3.576,3.4,3.572,3.572,0,0,0,3.644-3.412,3.46,3.46,0,0,0-3.57-3.4A3.573,3.573,0,0,0,1617.429,2465.573Z" fill="url(#linear-gradient-7)"/>
            <path id="Trazado_116682" data-name="Trazado 116682" d="M1633.061,2436.977a6.186,6.186,0,0,1-6.359,5.922,6.1,6.1,0,0,1-6.25-5.987,6.187,6.187,0,0,1,6.38-5.922A6.1,6.1,0,0,1,1633.061,2436.977Zm-9.9-.051a3.484,3.484,0,0,0,3.566,3.418,3.532,3.532,0,0,0,3.633-3.381,3.484,3.484,0,0,0-3.559-3.418A3.533,3.533,0,0,0,1623.164,2436.926Z" fill="url(#linear-gradient-7)"/>
            <path id="Trazado_116683" data-name="Trazado 116683" d="M1612.533,2408.474a6.386,6.386,0,1,1-6.3-6.067A6.184,6.184,0,0,1,1612.533,2408.474Zm-10.005-.125a3.646,3.646,0,1,0,3.68-3.373A3.545,3.545,0,0,0,1602.528,2408.349Z" fill="url(#linear-gradient-7)"/>
            <path id="Trazado_116684" data-name="Trazado 116684" d="M1650.273,2406.2a6.258,6.258,0,1,1-6.173-6.011A6.084,6.084,0,0,1,1650.273,2406.2Zm-9.809-.13a3.573,3.573,0,1,0,3.608-3.337A3.495,3.495,0,0,0,1640.464,2406.065Z" fill="url(#linear-gradient-7)"/>
            <g id="Grupo_88149" data-name="Grupo 88149">
              <path id="Trazado_116685" data-name="Trazado 116685" d="M1670.483,2450.172l-.028,2.526-21.517-.023-24.53,12.836-1.291-2.233,25.156-13.144Z" fill="url(#linear-gradient-7)"/>
              <path id="Trazado_116686" data-name="Trazado 116686" d="M1670.646,2435.184l-.028,2.526-38.912-.2.028-2.552Z" fill="url(#linear-gradient-7)"/>
              <path id="Trazado_116687" data-name="Trazado 116687" d="M1670.81,2420.2l-.028,2.526-25.527-.23-20.112-12.581-13.988-.171.028-2.566,14.786.191,20.1,12.592Z" fill="url(#linear-gradient-7)"/>
              <path id="Trazado_116688" data-name="Trazado 116688" d="M1670.974,2405.207l-.028,2.526-22.455-.291.028-2.541Z" fill="url(#linear-gradient-7)"/>
            </g>
          </g>
          <g id="Grupo_88152" data-name="Grupo 88152">
            <path id="Trazado_116689" data-name="Trazado 116689" d="M1812.7,2394.843a5.637,5.637,0,0,1,5.76-5.56,5.721,5.721,0,0,1,5.618,5.753,5.639,5.639,0,0,1-5.742,5.561A5.722,5.722,0,0,1,1812.7,2394.843Zm8.943.152a3.266,3.266,0,0,0-3.209-3.285,3.22,3.22,0,0,0-3.287,3.174,3.266,3.266,0,0,0,3.216,3.285A3.218,3.218,0,0,0,1821.644,2395Z" fill="url(#linear-gradient-7)"/>
            <path id="Trazado_116690" data-name="Trazado 116690" d="M1807.5,2422.016a5.705,5.705,0,1,1,5.652,5.719A5.7,5.7,0,0,1,1807.5,2422.016Zm8.968.085a3.257,3.257,0,1,0-3.29,3.2A3.244,3.244,0,0,0,1816.471,2422.1Z" fill="url(#linear-gradient-7)"/>
            <path id="Trazado_116691" data-name="Trazado 116691" d="M1825.986,2449.007a5.708,5.708,0,0,1,5.717-5.624,5.589,5.589,0,0,1,5.577,5.648,5.71,5.71,0,0,1-5.7,5.623A5.586,5.586,0,0,1,1825.986,2449.007Zm8.876.019a3.19,3.19,0,0,0-3.185-3.225,3.258,3.258,0,0,0-3.262,3.211,3.189,3.189,0,0,0,3.191,3.224A3.259,3.259,0,0,0,1834.862,2449.026Z" fill="url(#linear-gradient-7)"/>
            <path id="Trazado_116692" data-name="Trazado 116692" d="M1791.675,2451.584a5.8,5.8,0,0,1,5.826-5.68,5.661,5.661,0,0,1,5.682,5.7,5.8,5.8,0,0,1-5.807,5.681A5.663,5.663,0,0,1,1791.675,2451.584Zm9.046.013a3.233,3.233,0,0,0-3.247-3.252,3.307,3.307,0,0,0-3.323,3.243,3.232,3.232,0,0,0,3.252,3.252A3.309,3.309,0,0,0,1800.721,2451.6Z" fill="url(#linear-gradient-7)"/>
            <g id="Grupo_88151" data-name="Grupo 88151">
              <path id="Trazado_116693" data-name="Trazado 116693" d="M1772.761,2409.033l.027-2.458,20.144.275,22.433-11.919,1.163,2.144-22.983,12.228Z" fill="url(#linear-gradient-7)"/>
              <path id="Trazado_116694" data-name="Trazado 116694" d="M1772.6,2423.617l.027-2.458,36.108.349-.027,2.434Z" fill="url(#linear-gradient-7)"/>
              <path id="Trazado_116695" data-name="Trazado 116695" d="M1772.441,2438.2l.027-2.458,23.853.136,18.348,11.888,12.545.031-.027,2.421-13.266-.024-18.356-11.878Z" fill="url(#linear-gradient-7)"/>
              <path id="Trazado_116696" data-name="Trazado 116696" d="M1772.281,2452.786l.027-2.458,21.017.036-.027,2.444Z" fill="url(#linear-gradient-7)"/>
            </g>
          </g>
        </g>
        <g id="Grupo_88154" data-name="Grupo 88154">
          <path id="Trazado_116697" data-name="Trazado 116697" d="M1756.983,2482.571l-76.322.54c-9.916.07-17.909-7.6-17.805-17.122l.821-75.035c.1-9.528,8.264-17.074,18.177-16.857l76.3,1.669a17.14,17.14,0,0,1,16.921,17.117l-.8,72.825A17.289,17.289,0,0,1,1756.983,2482.571Z" fill="url(#linear-gradient-7)"/>
          <path id="Trazado_116698" data-name="Trazado 116698" d="M1759.49,2483l-76.323.544c-9.917.071-17.91-7.594-17.806-17.121l.821-75.036c.1-9.527,8.264-17.074,18.178-16.858l76.3,1.665a17.14,17.14,0,0,1,16.922,17.116l-.8,72.826A17.291,17.291,0,0,1,1759.49,2483Z" fill="url(#linear-gradient-24)"/>
          <path id="Trazado_116699" data-name="Trazado 116699" d="M1726.505,2449c-9.191-12.166.288-20.292-9.489-34.118-11.76-16.63-31.266-13.161-38.791-28.17a23.833,23.833,0,0,1-2.435-10.294,16.949,16.949,0,0,0-9.608,14.97l-.821,75.036c-.1,9.527,7.889,17.192,17.806,17.121l76.323-.544a17.447,17.447,0,0,0,16.363-11.594C1762.679,2456.935,1739.27,2465.9,1726.505,2449Z" fill="#fff" opacity="0.48" style="mix-blend-mode: soft-light;isolation: isolate"/>
        </g>
        <g id="Grupo_88155" data-name="Grupo 88155">
          <path id="Trazado_116700" data-name="Trazado 116700" d="M1745.37,2465.588l-50.856.121a10.928,10.928,0,0,1-11.153-10.891l.548-50.07a11.031,11.031,0,0,1,11.39-10.732l50.846.837a10.877,10.877,0,0,1,10.79,10.888l-.539,49.113A10.98,10.98,0,0,1,1745.37,2465.588Z" fill="url(#linear-gradient-7)"/>
          <path id="Trazado_116701" data-name="Trazado 116701" d="M1746.826,2464.137l-50.133.1a10.743,10.743,0,0,1-10.995-10.668l.536-49.031a10.838,10.838,0,0,1,11.227-10.505l50.125.837a10.693,10.693,0,0,1,10.637,10.666l-.528,48.092A10.785,10.785,0,0,1,1746.826,2464.137Z" fill="url(#linear-gradient-26)"/>
          <path id="Trazado_116702" data-name="Trazado 116702" d="M1726.505,2449c-9.191-12.166.288-20.292-9.489-34.118-7.722-10.921-18.775-13.175-27.6-17.687a10.381,10.381,0,0,0-3.185,7.344l-.536,49.031a10.743,10.743,0,0,0,10.995,10.668l50.133-.1a11,11,0,0,0,6.992-2.514C1743.812,2459.767,1733.536,2458.307,1726.505,2449Z" fill="#fff" opacity="0.48" style="mix-blend-mode: soft-light;isolation: isolate"/>
        </g>
      </g>
      <g id="Grupo_88158" data-name="Grupo 88158">
        <path id="Trazado_116703" data-name="Trazado 116703" d="M1745.529,2416.953l-48.381-.857a4.462,4.462,0,0,0-4.485,4.538v25.613c0,10.4,8.15,18.449,17.966,17.987l22.671-1.065c8.989-.423,16.112-8.558,16.112-18.18v-23.7A4.176,4.176,0,0,0,1745.529,2416.953Zm-18.8,33.868-9.227.273,2.463-11.211a6.257,6.257,0,0,1-3.79-5.858,6.161,6.161,0,0,1,5.97-6.341,6.083,6.083,0,0,1,5.873,6.268,6.363,6.363,0,0,1-3.706,5.869Z" fill="url(#linear-gradient-27)"/>
        <path id="Trazado_116704" data-name="Trazado 116704" d="M1749.349,2417.014l-48.126-.852a4.442,4.442,0,0,0-4.461,4.525v25.544c0,10.373,8.107,18.4,17.87,17.94l22.552-1.062c8.942-.421,16.028-8.535,16.028-18.132v-23.634A4.161,4.161,0,0,0,1749.349,2417.014Zm-18.706,33.78-9.178.271,2.45-11.181a6.24,6.24,0,0,1-3.77-5.842,6.138,6.138,0,0,1,5.938-6.324,6.058,6.058,0,0,1,5.843,6.25,6.351,6.351,0,0,1-3.687,5.855Z" fill="url(#linear-gradient-28)"/>
        <path id="Trazado_116705" data-name="Trazado 116705" d="M1723.915,2439.884l-2.45,11.181,9.178-.271-2.283-10.419c-3.134-2.392-6.033-4.464-8.141-7.33a6.827,6.827,0,0,0-.074,1A6.24,6.24,0,0,0,1723.915,2439.884Z" fill="none"/>
        <path id="Trazado_116706" data-name="Trazado 116706" d="M1728.36,2440.375l-.121-.552a6.351,6.351,0,0,0,3.687-5.855,5.872,5.872,0,0,0-11.707-.923C1722.327,2435.911,1725.226,2437.983,1728.36,2440.375Z" fill="none"/>
        <g id="Grupo_88157" data-name="Grupo 88157">
          <path id="Trazado_116707" data-name="Trazado 116707" d="M1731.18,2380.382l-2.551,3.121a.94.94,0,0,1-1.356.056l-7.826-6.824c-5.617-4.9-13.859-4.67-18.437.615l-5.236,6.044c-4.736,5.468-3.8,14.036,2.115,19.021l8.242,6.945a1.05,1.05,0,0,1,.167,1.459l-2.788,3.411a1.027,1.027,0,0,1-1.459.109l-8.323-6.967c-8.883-7.435-10.243-20.255-3.1-28.375l5.3-6.024c6.849-7.787,19.057-8.027,27.328-.772l7.754,6.8A1.01,1.01,0,0,1,1731.18,2380.382Z" fill="url(#linear-gradient-29)"/>
          <path id="Trazado_116708" data-name="Trazado 116708" d="M1733.636,2377.359l-2.543,3.11a.936.936,0,0,1-1.351.054l-7.8-6.829c-5.6-4.9-13.813-4.69-18.375.577l-5.218,6.023c-4.72,5.449-3.789,14,2.108,18.993l8.214,6.95a1.052,1.052,0,0,1,.166,1.458l-2.778,3.4a1.023,1.023,0,0,1-1.455.107l-8.294-6.973c-8.853-7.441-10.209-20.242-3.092-28.333l5.281-6c6.826-7.761,18.994-7.976,27.237-.716l7.728,6.806A1.01,1.01,0,0,1,1733.636,2377.359Z" fill="url(#linear-gradient-30)"/>
          <path id="Trazado_116709" data-name="Trazado 116709" d="M1696.309,2404.227l8.294,6.973a1.023,1.023,0,0,0,1.455-.107l2.778-3.4a1.052,1.052,0,0,0-.166-1.458l-8.214-6.95c-5.9-4.989-6.828-13.544-2.108-18.993l.653-.753a28.268,28.268,0,0,0-7.272-1.705C1686.354,2385.928,1688.141,2397.362,1696.309,2404.227Z" fill="#fff" opacity="0.48" style="mix-blend-mode: soft-light;isolation: isolate"/>
        </g>
        <path id="Trazado_116710" data-name="Trazado 116710" d="M1728.36,2440.375l2.283,10.419-9.178.271,2.45-11.181a6.24,6.24,0,0,1-3.77-5.842,6.827,6.827,0,0,1,.074-1,16.292,16.292,0,0,1-2.747-5.973,17.965,17.965,0,0,1,.71-10.61l-16.959-.3a4.442,4.442,0,0,0-4.461,4.525v25.544c0,10.373,8.107,18.4,17.87,17.94l22.552-1.062a15.538,15.538,0,0,0,6.536-1.795,41.082,41.082,0,0,0-3.185-7.53C1736.893,2447.132,1732.431,2443.483,1728.36,2440.375Z" fill="#fff" opacity="0.48" style="mix-blend-mode: soft-light;isolation: isolate"/>
      </g>
    </g>
    <g id="Grupo_88161" data-name="Grupo 88161">
      <path id="Trazado_116711" data-name="Trazado 116711" d="M1636.039,2508.235v126.733l85.907-5.771a3.469,3.469,0,0,0,3.465-3.238V2512.85a3.493,3.493,0,0,0-3.618-3.244Z" fill="url(#linear-gradient-31)"/>
      <path id="Trazado_116712" data-name="Trazado 116712" d="M1631.675,2511.982V2631.22l86.3-5.469a3.265,3.265,0,0,0,3.259-3.047V2516.285a3.286,3.286,0,0,0-3.4-3.053Z" fill="#d8dee8"/>
      <path id="Rectángulo_34824" data-name="Rectángulo 34824" d="M0,0H5.08A4.75,4.75,0,0,1,9.83,4.75V19.235a4.75,4.75,0,0,1-4.75,4.75H0a0,0,0,0,1,0,0V0A0,0,0,0,1,0,0Z" transform="translate(1721.971 2516.552)" fill="url(#linear-gradient-32)"/>
      <g id="Grupo_88160" data-name="Grupo 88160">
        <path id="Trazado_116713" data-name="Trazado 116713" d="M1714.039,2549.443l.717,3.673a29.113,29.113,0,0,0-4.561,2.279l-2.45-2.814a1.838,1.838,0,0,0-2.6-.16l-4.822,4.249a1.874,1.874,0,0,0-.189,2.627l2.471,2.853a29.949,29.949,0,0,0-2.834,4.26l-3.58-1.217a1.868,1.868,0,0,0-2.357,1.177l-2.112,6.13a1.858,1.858,0,0,0,1.138,2.376l3.591,1.227a29.873,29.873,0,0,0-.36,5.129l-3.757.767a1.911,1.911,0,0,0-1.482,2.222l1.194,6.4a1.841,1.841,0,0,0,2.178,1.484l3.769-.768a29.619,29.619,0,0,0,2.207,4.65l-2.9,2.575a1.933,1.933,0,0,0-.194,2.689l4.226,4.952a1.846,1.846,0,0,0,2.643.174l2.9-2.583a29.469,29.469,0,0,0,4.244,2.906l-1.247,3.706a1.921,1.921,0,0,0,1.165,2.433l6.143,2.128a1.875,1.875,0,0,0,2.388-1.2l1.227-3.677a28.813,28.813,0,0,0,5.153.342l.744,3.807a1.885,1.885,0,0,0,2.216,1.51l6.381-1.3a1.917,1.917,0,0,0,1.474-2.263l-.748-3.774a29.012,29.012,0,0,0,4.657-2.324l2.486,2.869a1.861,1.861,0,0,0,2.66.175l4.864-4.373a1.937,1.937,0,0,0,.154-2.7l-2.477-2.845a30.045,30.045,0,0,0,2.865-4.39l3.528,1.2a1.861,1.861,0,0,0,2.374-1.2l2.027-6.227a1.916,1.916,0,0,0-1.2-2.405l-3.494-1.188a29.841,29.841,0,0,0,.288-5.243l3.6-.735a1.875,1.875,0,0,0,1.449-2.225l-1.32-6.377a1.88,1.88,0,0,0-2.208-1.469l-3.594.732a29.556,29.556,0,0,0-2.315-4.666l2.729-2.433a1.876,1.876,0,0,0,.151-2.64l-4.268-4.828a1.853,1.853,0,0,0-2.621-.162l-2.746,2.441a29.454,29.454,0,0,0-4.289-2.84l1.167-3.5a1.858,1.858,0,0,0-1.169-2.35l-6.057-2.031a1.853,1.853,0,0,0-2.343,1.17l-1.179,3.5a28.824,28.824,0,0,0-5.1-.291l-.722-3.641a1.837,1.837,0,0,0-2.171-1.445l-6.255,1.276A1.866,1.866,0,0,0,1714.039,2549.443Zm-7.138,34.824a19.112,19.112,0,0,1,14.816-22.35,18.8,18.8,0,0,1,22.129,14.815,19.1,19.1,0,0,1-14.776,22.554A18.788,18.788,0,0,1,1706.9,2584.267Z" fill="#fff"/>
        <path id="Trazado_116714" data-name="Trazado 116714" d="M1746.537,2533l.211,1.08a8.582,8.582,0,0,0-1.341.67l-.721-.827a.541.541,0,0,0-.766-.048l-1.418,1.25a.551.551,0,0,0-.055.773l.726.838a8.92,8.92,0,0,0-.833,1.253l-1.053-.357a.549.549,0,0,0-.693.346l-.621,1.8a.546.546,0,0,0,.334.7l1.057.361a8.671,8.671,0,0,0-.106,1.508l-1.105.226a.561.561,0,0,0-.436.653l.351,1.883a.542.542,0,0,0,.641.437l1.108-.226a8.715,8.715,0,0,0,.649,1.367l-.852.758a.569.569,0,0,0-.057.791l1.243,1.456a.543.543,0,0,0,.777.051l.852-.76a8.627,8.627,0,0,0,1.249.855l-.367,1.09a.564.564,0,0,0,.342.715l1.807.626a.55.55,0,0,0,.7-.354l.361-1.081a8.4,8.4,0,0,0,1.516.1l.218,1.12a.555.555,0,0,0,.652.444l1.877-.383a.563.563,0,0,0,.433-.665l-.22-1.11a8.591,8.591,0,0,0,1.37-.683l.731.843a.547.547,0,0,0,.782.052l1.43-1.286a.569.569,0,0,0,.046-.795l-.729-.837a8.756,8.756,0,0,0,.843-1.291l1.037.355a.548.548,0,0,0,.7-.352l.6-1.832a.564.564,0,0,0-.352-.707l-1.028-.349a8.77,8.77,0,0,0,.085-1.542l1.06-.216a.551.551,0,0,0,.426-.654l-.388-1.876a.553.553,0,0,0-.65-.432l-1.056.215a8.809,8.809,0,0,0-.681-1.372l.8-.715a.552.552,0,0,0,.045-.777l-1.255-1.42a.545.545,0,0,0-.771-.047l-.808.718a8.67,8.67,0,0,0-1.261-.836l.343-1.028a.546.546,0,0,0-.344-.691l-1.781-.6a.544.544,0,0,0-.689.344l-.347,1.03a8.477,8.477,0,0,0-1.5-.085l-.212-1.071a.541.541,0,0,0-.639-.425l-1.839.375A.55.55,0,0,0,1746.537,2533Zm-2.1,10.241a5.621,5.621,0,0,1,4.357-6.573,5.528,5.528,0,0,1,6.508,4.357,5.617,5.617,0,0,1-4.345,6.633A5.526,5.526,0,0,1,1744.438,2543.246Z" fill="#fff"/>
      </g>
      <path id="Trazado_116715" data-name="Trazado 116715" d="M1630.692,2511.829v119.952a3.917,3.917,0,0,0,3.611,3.675l69.391,9.382a3.5,3.5,0,0,0,4.1-3.147V2509.236a3.443,3.443,0,0,0-3.733-3.171l-69.254,2.048A4,4,0,0,0,1630.692,2511.829Z" fill="url(#linear-gradient-33)"/>
      <path id="Trazado_116716" data-name="Trazado 116716" d="M1662.939,2607.863c-1-14.008,8.947-17.351,7.27-33.7-2.427-23.668-24.815-31.567-22.957-51.043a30.292,30.292,0,0,1,6.636-15.575l-19.076.564a4,4,0,0,0-4.12,3.716v119.952a3.917,3.917,0,0,0,3.611,3.675l53.461,7.228C1669.111,2629.244,1663.615,2617.32,1662.939,2607.863Z" opacity="0.3" fill="url(#linear-gradient-34)" style="mix-blend-mode: multiply;isolation: isolate"/>
    </g>
    <g id="Grupo_88168" data-name="Grupo 88168">
      <path id="Trazado_116717" data-name="Trazado 116717" d="M1825.708,2479.244c-4.184-4.467,7.4-21.25,13.6-28.6,5.416-6.425,10.982-13.028,17.818-12.192,6,.734,11.842,7.064,12.192,13.13C1870.258,2467.9,1831.656,2485.595,1825.708,2479.244Z" fill="url(#linear-gradient-35)"/>
      <path id="Trazado_116718" data-name="Trazado 116718" d="M1875.945,2651.7c.788.64.933,2.239,1.027,3.284a2.577,2.577,0,0,1,.012.865c-.381,1.2-2.714,1.329-6.371,1.7-5.781.591-7.5,1.045-7.953.185-.424-.806.6-2.126.717-2.271.621-.783,1.383-1.067,2.857-1.552,2.728-.9,4.57-1.39,5.128-1.538C1874.846,2651.448,1875.428,2651.281,1875.945,2651.7Z" fill="url(#linear-gradient-36)"/>
      <path id="Trazado_116719" data-name="Trazado 116719" d="M1872.508,2646.421l-.579,6.587a3.577,3.577,0,0,0,3.677.454l1.487-6.475Z" fill="url(#linear-gradient-37)"/>
      <path id="Trazado_116720" data-name="Trazado 116720" d="M1830.1,2650.855a3.255,3.255,0,0,1,.339,3.908c-.807.93-2.021.232-5.461.335-3.686.11-4.649.981-7.153.29-1.012-.28-2.8-.959-2.765-1.681.023-.508.933-.771,3.972-1.789,4.314-1.445,4.295-1.524,5.211-1.675C1826.545,2649.862,1828.856,2649.479,1830.1,2650.855Z" fill="url(#linear-gradient-38)"/>
      <path id="Trazado_116721" data-name="Trazado 116721" d="M1827.741,2644.844l-1.849,6.149a3.577,3.577,0,0,0,3.632.733l2.746-5.968Z" fill="url(#linear-gradient-37)"/>
      <path id="Trazado_116722" data-name="Trazado 116722" d="M1844.166,2510.164a576.118,576.118,0,0,1-18.2,136.47l7.076,1.9c5.984-5.579,13.532-14.363,17.175-26.775,2.26-7.7,1.507-11.663,2.941-21.138,2.283-15.087,6.908-22.992,11.688-35.158a200.186,200.186,0,0,0,12.095-48.424Z" fill="url(#linear-gradient-40)"/>
      <path id="Trazado_116723" data-name="Trazado 116723" d="M1865.457,2508.192q2.166,39.426,3.531,80.305,1.012,30.671,1.5,60.556l7.228.892a84.2,84.2,0,0,0,7.539-19.455c2.572-10.315,1.977-16.441,3.1-27.133,1.266-11.991,3.1-14.6,6.362-29.73,6.611-30.7,9.917-46.049,2.542-55.6C1894.87,2514.93,1887.365,2507.155,1865.457,2508.192Z" fill="url(#linear-gradient-41)"/>
      <path id="Trazado_116724" data-name="Trazado 116724" d="M1900.571,2442.132a112.251,112.251,0,0,0-24.039-4.014c-14.444-.817-21.666-1.225-26.784,2.215-11.82,7.944-2.669,26.28-7.508,71.733-.691,6.491-.846,13.028-1.346,19.537-.829,10.776-1.017,11.361-.267,12.453,4.7,6.847,22.244-3.481,47.956.6,14.387,2.284,20.911,7.547,24.853,3.751,4.6-4.427.653-16.333-2.741-26.583-3.895-11.766-6.3-11.917-8.513-20.778-2.312-9.261-.914-14.029-.554-28.634A258.745,258.745,0,0,0,1900.571,2442.132Z" fill="url(#linear-gradient-42)"/>
      <g id="Grupo_88162" data-name="Grupo 88162" opacity="0.3" style="mix-blend-mode: multiply;isolation: isolate">
        <path id="Trazado_116725" data-name="Trazado 116725" d="M1865.606,2527.464c6.72-.526,11.08,3.274,16.881.313,7.955-4.061,10.511-16.693,10-25.634-.77-13.585-8.527-17.166-7.19-25.947.723-4.749,4.113-11.054,16.286-17.5.163,5.421.132,10.042.041,13.713-.36,14.6-1.758,19.373.554,28.634,2.211,8.861,4.618,9.012,8.513,20.778,3.394,10.25,7.337,22.156,2.741,26.583-3.942,3.8-10.466-1.467-24.853-3.751-22.155-3.518-38.235,3.654-45.271,1.328C1851.814,2531.937,1859.525,2527.94,1865.606,2527.464Z" fill="url(#linear-gradient-43)"/>
      </g>
      <path id="Trazado_116726" data-name="Trazado 116726" d="M1891.4,2443.065c4.8-3.944,14.45.52,17.03,1.713,14.386,6.655,27.3,24.587,24.1,43.537-.479,2.842-2.7,16.136-13.962,22.577-10.157,5.812-23.871,4.317-34.86-3.914l-4.505-4-4.432-4.791a35.579,35.579,0,0,1,11.81-6.506c7.306-2.358,12.626,1.872,16.016-1.344,2.339-2.22,2.345-6.14,1.767-8.516-1.165-4.789-5.386-6.136-8.91-9.535C1887.182,2464.3,1885.657,2447.787,1891.4,2443.065Z" fill="url(#linear-gradient-44)"/>
      <g id="Grupo_88163" data-name="Grupo 88163">
        <path id="Trazado_116727" data-name="Trazado 116727" d="M1822.429,2504.929l64.333-.96-17.107,8.256-47.39-3.1Z" fill="url(#linear-gradient-45)"/>
        <path id="Trazado_116728" data-name="Trazado 116728" d="M1889.032,2505.679h0a2.864,2.864,0,0,1-1.885,2.691l-20.556,8.059-.094-5.587,20.265-6.873A1.779,1.779,0,0,1,1889.032,2505.679Z" fill="url(#linear-gradient-46)"/>
      </g>
      <path id="Trazado_116729" data-name="Trazado 116729" d="M1879.126,2501.872c.4-.088-1.923-4.707-3.743-4.174s-10.721,5.692-11.53,7.816l-.81,2.124a19.93,19.93,0,0,0,6.291-.506C1871.742,2506.323,1875.916,2502.588,1879.126,2501.872Z" fill="url(#linear-gradient-47)"/>
      <g id="Grupo_88165" data-name="Grupo 88165">
        <g id="Grupo_88164" data-name="Grupo 88164">
          <path id="Trazado_116730" data-name="Trazado 116730" d="M1864.791,2471.641l4.534,41.289c.157,1.424-1.838,3.547-3.269,3.479l-66.524-4.084a2.332,2.332,0,0,1-2.188-1.935l-8.35-39.877c-.249-1.451,2.36-2.95,3.832-2.909l69.712,1.96A2.333,2.333,0,0,1,1864.791,2471.641Z" fill="url(#linear-gradient-48)"/>
          <path id="Trazado_116731" data-name="Trazado 116731" d="M1863.27,2472.845l4.535,41.289a2.332,2.332,0,0,1-2.428,2.584l-67.365-3.189a2.332,2.332,0,0,1-2.188-1.935l-6.883-40.06a2.332,2.332,0,0,1,2.364-2.726l69.713,1.96A2.331,2.331,0,0,1,1863.27,2472.845Z" fill="url(#linear-gradient-49)"/>
        </g>
        <path id="Trazado_116732" data-name="Trazado 116732" d="M1823.714,2503.854c5.882-2.493,3.806-7.247,10.752-13.171,9.163-7.815,18.5-4.426,21.773-10.483,1.018-1.887,1.5-4.822-.269-9.574l5.048.142a2.331,2.331,0,0,1,2.252,2.077l4.535,41.289a2.332,2.332,0,0,1-2.428,2.584l-67.365-3.189a2.332,2.332,0,0,1-2.188-1.935l-.95-5.528a25.457,25.457,0,0,1,7.336-2.749C1812.093,2501.312,1816.942,2506.724,1823.714,2503.854Z" opacity="0.3" fill="url(#linear-gradient-50)" style="mix-blend-mode: multiply;isolation: isolate"/>
      </g>
      <path id="Trazado_116733" data-name="Trazado 116733" d="M1793.768,2507.754a.525.525,0,0,1,.472-.693c1.424-.073,4.726-.1,6.549,1.014,2.368,1.451,5.43,4.1,2.852,5.433l-2.408,1.248a.513.513,0,0,1-.352.048c-.856-.188-4.457-.987-4.851-1.185C1795.672,2513.438,1794.3,2509.364,1793.768,2507.754Z" fill="url(#linear-gradient-47)"/>
      <g id="Grupo_88167" data-name="Grupo 88167">
        <path id="Trazado_116734" data-name="Trazado 116734" d="M1875.453,2422.337a50.035,50.035,0,0,0,.894,10c.518,2.664.891,3.353,1.367,3.911.717.841,1.8,1.546,7.939,3.068,3.339.828,3.769.8,3.842,1.137.36,1.616-8.745,7.126-18.152,5.8-5.757-.813-11-4.1-10.674-5.822s6.074-.805,7.788-3.945c1.193-2.185-.144-5.286-1.724-7.855C1868.264,2425.766,1873.923,2425.2,1875.453,2422.337Z" fill="url(#linear-gradient-52)"/>
        <g id="Grupo_88166" data-name="Grupo 88166">
          <path id="Trazado_116735" data-name="Trazado 116735" d="M1864.768,2424.03a6.055,6.055,0,0,1,.123-6.948c1.347-1.714,3.467-1.958,4.736-2.1,3.678-.425,8.319,1.111,9.934,4.5.956,2.006-1.113,6.174-1.437,6.924-.367.847-1.032,1.138-1.647,1.778-.853.889-2.188,2.3-4.368,4.664a15.1,15.1,0,0,0-.835-2.5,13.384,13.384,0,0,0-1.747-2.933C1867.61,2425.073,1866.056,2425.74,1864.768,2424.03Z" fill="url(#linear-gradient-53)"/>
          <path id="Trazado_116736" data-name="Trazado 116736" d="M1875.218,2430.852a8.218,8.218,0,0,1-7.232,3.654c-4.31-.281-4.942-9.947-2.189-12a5.443,5.443,0,0,1,4.254-.549c.883.247,1.183.614,2.634.991,1.339.347,1.717.2,2.121.539.505.425.876,1.468.032,4.294a2.343,2.343,0,0,1,2.508-.822,1.467,1.467,0,0,1,.574.559C1878.523,2428.624,1877.515,2430.034,1875.218,2430.852Z" fill="url(#linear-gradient-47)"/>
          <path id="Trazado_116737" data-name="Trazado 116737" d="M1875,2422.911c-.208.155.427.93.475,2.028a5.278,5.278,0,0,1-4.265,4.905c-1.3.128-1.658-.656-3.808-.883a9.848,9.848,0,0,0-3.137.181c-.676,2.337-.04,4.667,1.522,5.748,1.682,1.163,3.83.457,4.728.162a6.162,6.162,0,0,0,3.532-2.592c1.048-1.84.019-2.949,1.222-4.193.607-.627,1.4-.9,2.179-2.114a6.043,6.043,0,0,0,.438-.819C1876.774,2424.155,1875.3,2422.686,1875,2422.911Z" fill="url(#linear-gradient-55)"/>
          <path id="Trazado_116738" data-name="Trazado 116738" d="M1865.831,2430.008a5.236,5.236,0,0,0,2.539.4c.078,0,.165.019.175.059a1.975,1.975,0,0,1-1.946.57c-.675-.19-1.2-.829-1.11-.992C1865.528,2429.972,1865.68,2429.981,1865.831,2430.008Z" fill="url(#linear-gradient-56)"/>
        </g>
      </g>
    </g>
  </g>
</svg>
