<svg xmlns="http://www.w3.org/2000/svg" width="55.679" height="55.643" viewBox="0 0 55.679 55.643">
  <g id="Grupo_87994" data-name="Grupo 87994" transform="translate(0 -0.992)">
    <path id="Trazado_115645" data-name="Trazado 115645" d="M202.387,319.683h-2.872a.816.816,0,0,0,0,1.632h2.872a.816.816,0,0,0,0-1.632Z" transform="translate(-177.048 -283.966)" fill="#4dd0e1"/>
    <path id="Trazado_115646" data-name="Trazado 115646" d="M202.233,354.3a.816.816,0,0,0,0-1.632h-2.718a.816.816,0,0,0,0,1.632Z" transform="translate(-177.048 -313.359)" fill="#4dd0e1"/>
    <path id="Trazado_115647" data-name="Trazado 115647" d="M25.536,25.92a2.394,2.394,0,1,0,2.394,2.394A2.4,2.4,0,0,0,25.536,25.92Zm0,3.157a.763.763,0,1,1,.763-.763A.764.764,0,0,1,25.536,29.077Z" transform="translate(-20.62 -22.212)" fill="#4dd0e1"/>
    <path id="Trazado_115648" data-name="Trazado 115648" d="M81.474,25.92a2.394,2.394,0,1,0,2.394,2.394A2.4,2.4,0,0,0,81.474,25.92Zm0,3.157a.763.763,0,1,1,.763-.763A.764.764,0,0,1,81.474,29.077Z" transform="translate(-70.463 -22.212)" fill="#4dd0e1"/>
    <path id="Trazado_115649" data-name="Trazado 115649" d="M137.416,25.92a2.394,2.394,0,1,0,2.394,2.394A2.4,2.4,0,0,0,137.416,25.92Zm0,3.157a.763.763,0,1,1,.763-.763A.763.763,0,0,1,137.416,29.077Z" transform="translate(-120.31 -22.212)" fill="#4dd0e1"/>
    <path id="Trazado_115650" data-name="Trazado 115650" d="M60.436,252.826H51.307a2.394,2.394,0,0,0-2.391,2.392v8.107a2.394,2.394,0,0,0,2.391,2.391h9.129a2.394,2.394,0,0,0,2.391-2.391v-8.107A2.394,2.394,0,0,0,60.436,252.826Zm-.5,1.632-4.069,3.6-4.068-3.6Zm-9.392,8.313v-7.245l4.093,3.622Zm.977,1.314,4.347-3.847,4.346,3.847Zm9.67-1.314L57.1,259.148l4.093-3.622Z" transform="translate(-43.586 -224.394)" fill="#4dd0e1"/>
    <path id="Trazado_115651" data-name="Trazado 115651" d="M203.151,256.35h-3.637a.816.816,0,0,0,0,1.632h3.637a.816.816,0,0,0,0-1.632Z" transform="translate(-177.048 -227.534)" fill="#4dd0e1"/>
    <path id="Trazado_115652" data-name="Trazado 115652" d="M376.381,257.982h2.257a.816.816,0,0,0,0-1.632h-2.257a.816.816,0,0,0,0,1.632Z" transform="translate(-334.643 -227.534)" fill="#4dd0e1"/>
    <path id="Trazado_115653" data-name="Trazado 115653" d="M203.967,290.152a.816.816,0,0,0-.816-.816h-3.637a.816.816,0,0,0,0,1.632h3.637A.816.816,0,0,0,203.967,290.152Z" transform="translate(-177.048 -256.926)" fill="#4dd0e1"/>
    <path id="Trazado_115654" data-name="Trazado 115654" d="M202.7,138.1h2.371a.816.816,0,0,0,0-1.631H202.7a.816.816,0,0,0,0,1.631Z" transform="translate(-179.883 -120.716)" fill="#4dd0e1"/>
    <path id="Trazado_115655" data-name="Trazado 115655" d="M264.106,137.286a.815.815,0,0,0-.816-.816H248.825a.816.816,0,0,0,0,1.631H263.29A.815.815,0,0,0,264.106,137.286Z" transform="translate(-220.986 -120.716)" fill="#4dd0e1"/>
    <path id="Trazado_115656" data-name="Trazado 115656" d="M312.868,176.863h5.29a.816.816,0,1,0,0-1.632h-5.29a.816.816,0,0,0,0,1.632Z" transform="translate(-278.05 -155.254)" fill="#4dd0e1"/>
    <path id="Trazado_115657" data-name="Trazado 115657" d="M272.341,175.231a.816.816,0,0,0,0,1.632h1.649a.816.816,0,1,0,0-1.632Z" transform="translate(-241.939 -155.254)" fill="#4dd0e1"/>
    <path id="Trazado_115658" data-name="Trazado 115658" d="M208.446,176.047a.816.816,0,0,0-.816-.816H202.7a.816.816,0,1,0,0,1.632h4.935A.816.816,0,0,0,208.446,176.047Z" transform="translate(-179.883 -155.254)" fill="#4dd0e1"/>
    <path id="Trazado_115659" data-name="Trazado 115659" d="M43.975,124.543v-1.152a1.065,1.065,0,0,1,.5-.971,1.036,1.036,0,0,1,.417-.124.8.8,0,0,0,.735-.795v-.039a.8.8,0,0,0-.8-.8h-.045a2.561,2.561,0,0,0-2.439,2.726v.717l-.778.523a1.123,1.123,0,0,0-.469,1.186,1.151,1.151,0,0,0,.491.694l.756.508v.717a2.561,2.561,0,0,0,2.439,2.726h.027a.816.816,0,0,0,.025-1.631,1.146,1.146,0,0,1-.433-.144c-.183-.109-.426-.326-.426-.951v-1.152a.815.815,0,0,0-.361-.677l-.511-.344.511-.343A.817.817,0,0,0,43.975,124.543Z" transform="translate(-36.593 -106.633)" fill="#4dd0e1"/>
    <path id="Trazado_115660" data-name="Trazado 115660" d="M82.361,180.145a.815.815,0,0,1-.817-.816.8.8,0,0,1,.138-.452.769.769,0,0,1,.1-.124.815.815,0,0,1,1.154,0,.842.842,0,0,1,.24.577.816.816,0,0,1-.816.816Z" transform="translate(-72.659 -158.178)" fill="#4dd0e1"/>
    <path id="Trazado_115661" data-name="Trazado 115661" d="M152.251,124.631l-.778-.523v-.717a2.56,2.56,0,0,0-2.439-2.726h-.045a.8.8,0,0,0-.8.8v.039a.8.8,0,0,0,.735.795,1.036,1.036,0,0,1,.417.124,1.065,1.065,0,0,1,.5.971v1.152a.816.816,0,0,0,.361.677l.511.344-.511.343a.817.817,0,0,0-.361.677v1.152c0,.625-.243.842-.426.951a1.161,1.161,0,0,1-.433.144.816.816,0,0,0,.026,1.631h.026a2.56,2.56,0,0,0,2.439-2.726v-.717l.757-.508a1.149,1.149,0,0,0,.49-.694A1.122,1.122,0,0,0,152.251,124.631Z" transform="translate(-132.045 -106.633)" fill="#4dd0e1"/>
    <path id="Trazado_115662" data-name="Trazado 115662" d="M108.763,178.877a.833.833,0,0,0-.518-.348.794.794,0,0,0-.319,0,.782.782,0,0,0-.153.047.852.852,0,0,0-.365.3.835.835,0,0,0,.1,1.03.728.728,0,0,0,.264.176.821.821,0,0,0,.43.046.87.87,0,0,0,.221-.06.821.821,0,0,0,.461-.9A.791.791,0,0,0,108.763,178.877Z" transform="translate(-95.587 -158.178)" fill="#4dd0e1"/>
    <path id="Trazado_115663" data-name="Trazado 115663" d="M134.4,178.879a.809.809,0,0,0-1.252-.127.78.78,0,0,0-.176.265.816.816,0,0,0,1.33.89A.807.807,0,0,0,134.4,178.879Z" transform="translate(-118.427 -158.178)" fill="#4dd0e1"/>
    <path id="Trazado_115664" data-name="Trazado 115664" d="M18.05,48.635H3.261A1.632,1.632,0,0,1,1.632,47V10.967H47.643v7.151a.816.816,0,1,0,1.631,0V4.254A3.265,3.265,0,0,0,46.012.992H3.261A3.265,3.265,0,0,0,0,4.254V47a3.265,3.265,0,0,0,3.261,3.261H18.05a.816.816,0,1,0,0-1.631ZM1.632,4.254a1.631,1.631,0,0,1,1.63-1.63H46.012a1.632,1.632,0,0,1,1.63,1.63V9.336H1.632Z" fill="#4dd0e1"/>
    <path id="Trazado_115665" data-name="Trazado 115665" d="M236.947,219.7h-5.94l4.292-4.292a1.477,1.477,0,0,0,0-2.086l-3.282-3.282V198.246a.816.816,0,1,0-1.631,0v10.16l-1.465-1.465a1.478,1.478,0,0,0-2.086,0l-4.292,4.292v-5.94a1.477,1.477,0,0,0-1.475-1.475h-9.021a1.477,1.477,0,0,0-1.475,1.475v8.069c0,.006,0,.011,0,.016s0,.011,0,.016v10.273H205.9a.816.816,0,0,0,0,1.632h4.666v.163a6.14,6.14,0,0,0,1.544,4.364,5.8,5.8,0,0,0,4.075,1.841l.145,0h20.611a1.477,1.477,0,0,0,1.475-1.475v-9.021A1.476,1.476,0,0,0,236.947,219.7ZM212.2,205.45h8.708v7.1H212.2Zm0,8.762h7.361l-6.53,6.531a5.809,5.809,0,0,0-.686.567H212.2Zm7.1,15.826h-2.965a4.137,4.137,0,0,1-4.132-4.132v-.443a4.137,4.137,0,0,1,4.132-4.133H219.3ZM216.941,219.7l-.278-.279,5.019-5.019,5.3,5.3Zm11.087,10.339h-7.1V221.33h7.1Zm-5.17-16.813,5.019-5.019,6.157,6.157-5.019,5.019Zm13.932,16.813h-7.1V221.33h7.1Z" transform="translate(-182.742 -175.034)" fill="#4dd0e1"/>
    <path id="Trazado_115666" data-name="Trazado 115666" d="M278.824,436.064a2.527,2.527,0,1,0,2.527-2.528A2.531,2.531,0,0,0,278.824,436.064Zm3.423,0a.9.9,0,1,1-.9-.9A.9.9,0,0,1,282.247,436.064Z" transform="translate(-248.443 -385.413)" fill="#4dd0e1"/>
  </g>
</svg>
