<svg xmlns="http://www.w3.org/2000/svg" xmlns:xlink="http://www.w3.org/1999/xlink" width="337.098" height="335.7" viewBox="0 0 337.098 335.7">
  <defs>
    <linearGradient id="linear-gradient" x1="1.087" y1="-0.027" x2="0.798" y2="0.192" gradientUnits="objectBoundingBox">
      <stop offset="0" stop-color="#ffc444"/>
      <stop offset="0.996" stop-color="#f36f56"/>
    </linearGradient>
    <linearGradient id="linear-gradient-2" x1="0.201" y1="0.023" x2="1.193" y2="1.294" xlink:href="#linear-gradient"/>
    <linearGradient id="linear-gradient-3" x1="0.73" y1="0.758" x2="-0.115" y2="-0.571" xlink:href="#linear-gradient"/>
    <linearGradient id="linear-gradient-4" y1="0.5" x2="1" y2="0.5" gradientUnits="objectBoundingBox">
      <stop offset="0" stop-color="#311944"/>
      <stop offset="1" stop-color="#893976"/>
    </linearGradient>
    <linearGradient id="linear-gradient-5" x1="1.069" y1="-0.986" x2="0.322" y2="0.94" gradientUnits="objectBoundingBox">
      <stop offset="0.004" stop-color="#668de3"/>
      <stop offset="1" stop-color="#155bf6"/>
    </linearGradient>
    <linearGradient id="linear-gradient-6" x1="-0.926" y1="-3.171" x2="0.962" y2="1.44" xlink:href="#linear-gradient-5"/>
    <linearGradient id="linear-gradient-7" x1="0.908" y1="-0.734" x2="0.034" y2="2.341" xlink:href="#linear-gradient-5"/>
    <linearGradient id="linear-gradient-8" y1="0.5" x2="1" y2="0.5" gradientUnits="objectBoundingBox">
      <stop offset="0" stop-color="#444b8c"/>
      <stop offset="0.996" stop-color="#26264f"/>
    </linearGradient>
    <clipPath id="clip-path">
      <path id="Trazado_116477" data-name="Trazado 116477" d="M-2223.076,2167.749a14.294,14.294,0,0,1-14.6,14.2,15.041,15.041,0,0,1-15.005-14.835,14.287,14.287,0,0,1,15.005-14.194A15.052,15.052,0,0,1-2223.076,2167.749Z" fill="none"/>
    </clipPath>
    <linearGradient id="linear-gradient-10" x1="43.223" y1="-207.487" x2="-75.679" y2="371.376" gradientUnits="objectBoundingBox">
      <stop offset="0.004" stop-color="#e38ddd"/>
      <stop offset="1" stop-color="#9571f6"/>
    </linearGradient>
    <linearGradient id="linear-gradient-11" y1="0.5" x2="1" y2="0.5" gradientUnits="objectBoundingBox">
      <stop offset="0" stop-color="#ab316d"/>
      <stop offset="1" stop-color="#792d3d"/>
    </linearGradient>
    <linearGradient id="linear-gradient-12" x1="0.795" y1="-0.039" x2="0.001" y2="1.412" gradientUnits="objectBoundingBox">
      <stop offset="0" stop-color="#ff9085"/>
      <stop offset="1" stop-color="#fb6fbb"/>
    </linearGradient>
    <clipPath id="clip-path-2">
      <path id="Trazado_116490" data-name="Trazado 116490" d="M-2257.167,2124.712c.031,22.956-17.77,41.88-40.027,42.489-22.558.616-41.439-17.763-41.9-41.28-.465-23.765,18.03-43.253,41.025-43.3C-2275.386,2082.579-2257.2,2101.52-2257.167,2124.712Z" fill="none"/>
    </clipPath>
    <linearGradient id="linear-gradient-13" x1="0.543" y1="0.919" x2="0.456" y2="0.019" gradientUnits="objectBoundingBox">
      <stop offset="0" stop-color="#311944"/>
      <stop offset="1" stop-color="#6b3976"/>
    </linearGradient>
    <linearGradient id="linear-gradient-14" x1="0.538" y1="0.919" x2="0.448" y2="-0.014" xlink:href="#linear-gradient-13"/>
    <linearGradient id="linear-gradient-15" x1="0.49" y1="0.111" x2="0.507" y2="1.279" xlink:href="#linear-gradient"/>
    <linearGradient id="linear-gradient-16" x1="0.488" y1="1.059" x2="0.528" y2="-0.19" xlink:href="#linear-gradient-11"/>
    <linearGradient id="linear-gradient-17" x1="0.468" y1="0.844" x2="0.546" y2="-0.103" xlink:href="#linear-gradient-11"/>
    <linearGradient id="linear-gradient-18" x1="0.405" y1="1.581" x2="0.768" y2="-1.92" xlink:href="#linear-gradient-11"/>
    <linearGradient id="linear-gradient-19" x1="0.429" y1="1.371" x2="0.779" y2="-2.134" xlink:href="#linear-gradient-11"/>
    <linearGradient id="linear-gradient-20" x1="0.493" y1="1.208" x2="0.546" y2="-2.315" xlink:href="#linear-gradient"/>
    <linearGradient id="linear-gradient-21" x1="53.949" y1="-2.409" x2="54.129" y2="2.649" gradientUnits="objectBoundingBox">
      <stop offset="0.004" stop-color="#0b234f"/>
      <stop offset="1" stop-color="#31618c"/>
    </linearGradient>
    <linearGradient id="linear-gradient-22" x1="199.898" y1="1.151" x2="199.776" y2="-5.069" xlink:href="#linear-gradient-11"/>
    <linearGradient id="linear-gradient-23" x1="85.082" y1="-1.484" x2="85.367" y2="1.472" gradientUnits="objectBoundingBox">
      <stop offset="0.004" stop-color="#26264f"/>
      <stop offset="1" stop-color="#444b8c"/>
    </linearGradient>
    <linearGradient id="linear-gradient-24" x1="142.107" y1="1.353" x2="142.021" y2="-3.032" xlink:href="#linear-gradient-11"/>
    <linearGradient id="linear-gradient-25" x1="0" y1="0.5" x2="1" y2="0.5" xlink:href="#linear-gradient-5"/>
    <linearGradient id="linear-gradient-28" x1="617.391" y1="-5.177" x2="615.902" y2="-2.011" xlink:href="#linear-gradient-11"/>
    <linearGradient id="linear-gradient-29" x1="-1.069" y1="-0.77" x2="-0.676" y2="1.127" xlink:href="#linear-gradient"/>
    <linearGradient id="linear-gradient-30" x1="-5.021" y1="-1.25" x2="-4.013" y2="-1.25" xlink:href="#linear-gradient"/>
    <linearGradient id="linear-gradient-31" x1="-5.021" y1="-1.25" x2="-4.013" y2="-1.25" xlink:href="#linear-gradient"/>
    <linearGradient id="linear-gradient-32" x1="-0.906" y1="-0.748" x2="-0.626" y2="0.239" xlink:href="#linear-gradient"/>
    <linearGradient id="linear-gradient-33" x1="-114.316" y1="-14.603" x2="-113.773" y2="-12.083" xlink:href="#linear-gradient-12"/>
    <linearGradient id="linear-gradient-34" x1="-53.381" y1="-40.849" x2="-54.182" y2="-40.06" xlink:href="#linear-gradient-11"/>
    <linearGradient id="linear-gradient-35" x1="-531.675" y1="-945.318" x2="-535.585" y2="-940.159" xlink:href="#linear-gradient-11"/>
    <linearGradient id="linear-gradient-36" x1="-1.086" y1="-1.011" x2="-0.773" y2="0.133" xlink:href="#linear-gradient"/>
    <linearGradient id="linear-gradient-37" x1="0" y1="0.5" x2="1" y2="0.5" xlink:href="#linear-gradient-13"/>
  </defs>
  <g id="Grupo_88115" data-name="Grupo 88115" transform="translate(2398.877 -1981.081)">
    <path id="Trazado_116441" data-name="Trazado 116441" d="M-2317.841,2001.258c-11.322,16.207,1.953,42.484-14.846,54.673-16.353,11.866-36.442-7.583-51.854,2.631-22.862,15.151-18.687,84.482,14.739,127.558,10.052,12.955,18.452,17.995,22.171,32.647,7.988,31.459-20.085,50.173-14.743,65.732,12.029,35.034,197.028,64.432,271.258-40.857,34.668-49.174,39.855-120.182,8.88-174.113C-2138.207,1972.077-2292.437,1964.891-2317.841,2001.258Z" fill="#f4f7fa"/>
    <g id="Grupo_88096" data-name="Grupo 88096">
      <path id="Trazado_116442" data-name="Trazado 116442" d="M-2297.917,2049.714c4.353.367,8.2-3.157,8.6-7.87s-2.81-8.832-7.163-9.2c-.226-.019-.449-.021-.671-.02a49.531,49.531,0,0,0-1.134-7.137c.207-.084.413-.172.616-.276a8.962,8.962,0,0,0,3.867-11.416,7.59,7.59,0,0,0-10.5-4.031c-.207.107-.405.227-.6.349a45.334,45.334,0,0,0-4.292-5.511c.144-.188.286-.379.418-.583a8.962,8.962,0,0,0-1.9-11.9,7.588,7.588,0,0,0-11.03,2.217c-.129.2-.244.4-.355.612a40.13,40.13,0,0,0-6.3-2.409c.038-.238.074-.477.094-.721.4-4.713,1.256-10.035-3.1-10.333-10.082-.691-12.265,4.292-12.662,9.005-.02.244-.025.486-.027.727a40.181,40.181,0,0,0-6.615,1.321c-.075-.223-.153-.444-.247-.663-1.833-4.265-1.5-7.111-5.668-5.512-9.084,3.485-10.536,8.632-8.7,12.9.1.223.2.435.315.644a45.4,45.4,0,0,0-5.154,4.716c-.172-.153-.346-.3-.533-.444a7.589,7.589,0,0,0-11.03,2.217,8.961,8.961,0,0,0,1.9,11.9c.183.137.371.258.561.376a49.491,49.491,0,0,0-2.311,6.847c-.219-.038-.44-.074-.665-.093-4.353-.366-8.2,3.158-8.6,7.871s2.81,8.832,7.163,9.2c.226.019.449.021.671.02a49.323,49.323,0,0,0,1.134,7.136c-.207.085-.413.173-.616.277a8.961,8.961,0,0,0-3.867,11.416,7.588,7.588,0,0,0,10.5,4.03c.207-.106.405-.226.6-.349a45.163,45.163,0,0,0,4.292,5.512c-.145.188-.287.379-.418.583a8.96,8.96,0,0,0,1.9,11.9c3.571,2.674,11.3,1.451,13.823-2.448.129-.2-2.55-.174-2.438-.381a40.131,40.131,0,0,0,6.3,2.409c-.038.237-.074.477-.094.721-.4,4.713,2.81,8.831,7.163,9.2s8.2-3.157,8.6-7.871c.02-.244.025-.485.027-.726a40.185,40.185,0,0,0,6.614-1.321c.076.222.154.444.248.663a7.589,7.589,0,0,0,10.5,4.03,8.961,8.961,0,0,0,3.867-11.415c-.1-.223-.2-.435-.315-.644a45.371,45.371,0,0,0,5.154-4.717c.171.154.346.3.533.445a7.589,7.589,0,0,0,11.03-2.217,8.963,8.963,0,0,0-1.9-11.9c-.183-.137-.372-.258-.561-.376a49.441,49.441,0,0,0,2.311-6.846C-2298.363,2049.66-2298.142,2049.7-2297.917,2049.714Zm-44.757,18.843c-15.8-1.332-27.449-16.284-26.008-33.4s15.423-29.908,31.228-28.577,27.449,16.284,26.008,33.4S-2326.869,2069.888-2342.674,2068.557Z" fill="#bfc6d1"/>
      <path id="Trazado_116443" data-name="Trazado 116443" d="M-2297.668,2025.212a8.962,8.962,0,0,0,3.867-11.416,7.59,7.59,0,0,0-10.5-4.031c-.207.107-.405.227-.6.349a45.238,45.238,0,0,0-4.292-5.511c.144-.188.286-.379.418-.583,2.52-3.9,4.457-11.632.63-13.926-7.263-4.353-11.043.343-13.563,4.242-.129.2-.244.4-.355.612a40.1,40.1,0,0,0-6.3-2.409c.039-.238.075-.477.095-.721a8.85,8.85,0,0,0-2.163-6.652q-1.456,11.055-2.726,22.132c13.564,3.415,23.023,17.159,21.716,32.682-1.108,13.154-9.628,23.748-20.686,27.345.025,1.438.062,2.88.049,4.319-.036,3.907-.29,7.823-.547,11.735q1.609-.325,3.18-.778c.076.222.154.444.248.663,1.833,4.265,5.928,6.858,13.229,3.432,4.039-1.9,2.975-6.552,1.142-10.817-.1-.223-.2-.435-.315-.644a45.462,45.462,0,0,0,5.154-4.717c.171.154.346.3.533.445,3.571,2.674,11.583,1.173,14.1-2.726s-1.406-8.718-4.977-11.393c-.183-.137-.372-.258-.561-.376a49.441,49.441,0,0,0,2.311-6.846c.219.038.44.073.665.092,4.353.367,8.2-3.157,8.6-7.871s-2.81-8.831-7.163-9.2c-.226-.019-.449-.021-.671-.02a49.531,49.531,0,0,0-1.134-7.137C-2298.077,2025.4-2297.871,2025.316-2297.668,2025.212Z" fill="#bfc6d1"/>
      <path id="Trazado_116444" data-name="Trazado 116444" d="M-2293.856,2048.579c4.353.367,8.2-3.157,8.6-7.87s-2.81-8.832-7.163-9.2c-.226-.019-.449-.021-.672-.02a49.394,49.394,0,0,0-1.133-7.137c.207-.084.413-.172.616-.277a8.961,8.961,0,0,0,3.867-11.415,7.59,7.59,0,0,0-10.5-4.031c-.207.107-.405.227-.6.349a45.259,45.259,0,0,0-4.292-5.511c.144-.188.286-.379.418-.583a8.962,8.962,0,0,0-1.9-11.9,7.588,7.588,0,0,0-11.03,2.217c-.129.2-.244.4-.355.612a40.092,40.092,0,0,0-6.3-2.409c.039-.238.075-.477.095-.721.4-4.713-2.81-8.832-7.163-9.2s-8.2,3.157-8.6,7.87c-.02.245-.026.486-.027.727a40.181,40.181,0,0,0-6.615,1.321c-.075-.223-.153-.444-.247-.663a7.59,7.59,0,0,0-10.5-4.031,8.962,8.962,0,0,0-3.867,11.416c.1.223.2.435.315.644a45.314,45.314,0,0,0-5.154,4.716c-.172-.153-.347-.3-.533-.444a7.588,7.588,0,0,0-11.03,2.217,8.96,8.96,0,0,0,1.9,11.9c.183.137.371.258.561.376a49.448,49.448,0,0,0-2.311,6.847c-.219-.039-.44-.074-.665-.093-4.354-.366-8.2,3.158-8.6,7.871s2.81,8.832,7.163,9.2c.225.019.449.021.671.019a49.315,49.315,0,0,0,1.134,7.137c-.207.085-.413.173-.616.277a8.961,8.961,0,0,0-3.867,11.416,7.589,7.589,0,0,0,10.5,4.03c.207-.106.405-.226.6-.349a45.212,45.212,0,0,0,4.292,5.512c-.145.188-.287.379-.418.583a8.96,8.96,0,0,0,1.9,11.9,7.589,7.589,0,0,0,11.03-2.217c.129-.2.243-.405.355-.612a40.131,40.131,0,0,0,6.3,2.409c-.038.237-.074.476-.095.721-.4,4.713,2.811,8.831,7.164,9.2s8.2-3.157,8.6-7.871c.02-.244.025-.485.027-.726a40.185,40.185,0,0,0,6.614-1.321c.076.222.154.444.248.663a7.589,7.589,0,0,0,10.5,4.03,8.961,8.961,0,0,0,3.867-11.415c-.1-.223-.2-.435-.315-.644a45.439,45.439,0,0,0,5.154-4.717c.171.154.346.3.533.445a7.589,7.589,0,0,0,11.03-2.217,8.963,8.963,0,0,0-1.9-11.9c-.183-.137-.372-.258-.561-.376a49.441,49.441,0,0,0,2.311-6.846C-2294.3,2048.525-2294.082,2048.56-2293.856,2048.579Zm-44.757,18.843c-15.8-1.332-27.449-16.284-26.008-33.4s15.423-29.908,31.228-28.577,27.449,16.284,26.008,33.4S-2322.808,2068.753-2338.613,2067.422Z" fill="#d8dee8"/>
    </g>
    <g id="Grupo_88098" data-name="Grupo 88098">
      <path id="Trazado_116445" data-name="Trazado 116445" d="M-2169.329,2232.884a25.922,25.922,0,0,1-14.106-3.649c-12.874-7.717-31.9-20.463-49.013-37.146-21.717-21.171-34.2-42.691-36.925-63.823l-.043-.332-.53-90.169c0-17.821,11.623-32.286,33.446-41.791,18.029-7.853,41.926-11.744,67.171-11.014,24.952.723,48.04,5.871,65.129,14.449,20.314,10.2,30.973,24.528,30.973,41.519l-.483,86.157-.04.317c-2.494,20.236-13.975,41.153-34.266,62.3-16.276,16.965-34.668,30.41-47.3,38.74A26.848,26.848,0,0,1-2169.329,2232.884Z" fill="url(#linear-gradient)"/>
      <path id="Trazado_116446" data-name="Trazado 116446" d="M-2164.377,2232.884a25.319,25.319,0,0,1-13.92-3.649c-12.7-7.717-31.477-20.463-48.366-37.146-21.43-21.171-33.743-42.691-36.437-63.823l-.042-.332-.523-90.169c0-17.821,11.47-32.286,33-41.791,17.791-7.853,41.372-11.744,66.284-11.014,24.621.723,47.405,5.871,64.268,14.449,20.046,10.2,30.564,24.528,30.564,41.519l-.477,86.157-.039.317c-2.462,20.236-13.791,41.153-33.814,62.3-16.061,16.965-34.209,30.41-46.674,38.74A26.245,26.245,0,0,1-2164.377,2232.884Z" fill="url(#linear-gradient-2)"/>
      <path id="Trazado_116447" data-name="Trazado 116447" d="M-2257.711,2037.829l.526,89.715c5.906,45.774,59.7,82.834,83.131,96.915a20.686,20.686,0,0,0,21.957-.591c22.941-15.095,73.79-53.1,79.223-97.109l.482-85.92C-2072.392,1977.094-2257.711,1971.266-2257.711,2037.829Z" fill="url(#linear-gradient-3)"/>
      <path id="Trazado_116448" data-name="Trazado 116448" d="M-2163.048,2210.63a3.2,3.2,0,0,1-1.736-.459c-9.647-5.842-28.348-18.078-44.616-34.059-17.573-17.261-27.708-34.044-30.032-49.806l-.516-88.228c.022-8.466,6.723-15.711,19.859-21.508,14.664-6.472,35.489-9.868,57.041-9.356,21.338.506,41.555,4.8,55.562,11.752,12.389,6.148,18.652,13.4,18.672,21.568l-.48,85.174c-2.169,15.252-11.681,31.7-28.383,48.981-15.7,16.252-34.048,29.135-43.636,35.4A3.306,3.306,0,0,1-2163.048,2210.63Z" fill="url(#linear-gradient-4)"/>
      <path id="Trazado_116449" data-name="Trazado 116449" d="M-2165.249,2204.6c-9.743-6-27.067-17.587-42.182-32.462-16.514-16.253-26.071-31.849-28.318-46.28l-.511-87.716c.015-6.053,5.579-11.6,16.494-16.438,13.892-6.151,33.794-9.392,54.516-8.927,20.524.461,39.869,4.514,53.163,11.092,10.329,5.111,15.555,10.685,15.569,16.588l-.48,84.861c-2.107,14-11.122,29.314-26.885,45.6C-2138.518,2186.035-2155.551,2198.193-2165.249,2204.6Z" fill="#f4f7fa"/>
      <g id="Grupo_88097" data-name="Grupo 88097">
        <path id="Trazado_116450" data-name="Trazado 116450" d="M-2130.39,2089.755l-65.6.584a9.038,9.038,0,0,0-9.152,8.779v42.033a8.471,8.471,0,0,0,9.118,8.269l65.373-2.677a8.8,8.8,0,0,0,8.445-8.6l.208-40.155A8.225,8.225,0,0,0-2130.39,2089.755Z" fill="url(#linear-gradient-5)"/>
        <path id="Trazado_116451" data-name="Trazado 116451" d="M-2154.215,2113.859a8.122,8.122,0,0,0-8.835-8,8.677,8.677,0,0,0-8.123,7.925,7.9,7.9,0,0,0,4.23,7.467,2.931,2.931,0,0,1,1.471,3.127l-1.9,10.619a2.134,2.134,0,0,0,2.242,2.491l4.8-.169a2.309,2.309,0,0,0,2.238-2.635l-1.834-10.517a3.132,3.132,0,0,1,1.565-3.185A8.388,8.388,0,0,0-2154.215,2113.859Z" opacity="0.8" fill="url(#linear-gradient-6)" style="mix-blend-mode: multiply;isolation: isolate"/>
        <path id="Trazado_116452" data-name="Trazado 116452" d="M-2131.311,2085.586a3.5,3.5,0,0,1-3.555-3.5l.04-9.157a17.013,17.013,0,0,0-17.038-16.855l-21.413-.213c-9.807-.1-17.869,7.549-17.878,17.036l-.008,9.446a3.758,3.758,0,0,1-3.818,3.656,3.711,3.711,0,0,1-3.829-3.621l0-9.485c.006-13.559,11.553-24.446,25.544-24.252l21.423.3c13.458.187,24.209,10.958,24.146,23.994l-.044,9.12A3.579,3.579,0,0,1-2131.311,2085.586Z" fill="url(#linear-gradient-7)"/>
      </g>
    </g>
    <g id="Grupo_88105" data-name="Grupo 88105">
      <path id="Trazado_116453" data-name="Trazado 116453" d="M-2063.744,2288.836l-325.763-2.777v8.216a4.373,4.373,0,0,0,3.345,4.464l92.116,16.179a12.94,12.94,0,0,0,3.3.152l223.457-18.447a4.171,4.171,0,0,0,3.54-4.358Z" fill="#26264f"/>
      <g id="Grupo_88099" data-name="Grupo 88099">
        <path id="Trazado_116454" data-name="Trazado 116454" d="M-2181.962,2275.669l-204.176,15.03a6.189,6.189,0,0,1-6.625-6.384V2132.271a6.754,6.754,0,0,1,6.625-6.871h204.176c3.01,0,5.443,2.781,5.443,6.212v137.445C-2176.519,2272.487-2178.952,2275.448-2181.962,2275.669Z" fill="#26264f"/>
        <path id="Trazado_116455" data-name="Trazado 116455" d="M-2178.707,2275.669l-204.176,15.03a6.189,6.189,0,0,1-6.624-6.384V2132.271a6.754,6.754,0,0,1,6.624-6.871h204.176c3.01,0,5.444,2.781,5.444,6.212v137.445C-2173.263,2272.487-2175.7,2275.448-2178.707,2275.669Z" fill="url(#linear-gradient-8)"/>
        <path id="Trazado_116456" data-name="Trazado 116456" d="M-2185.067,2265.979l-190.169,13.056a5.073,5.073,0,0,1-5.389-5.24V2140.68a5.534,5.534,0,0,1,5.389-5.633l190.169-.82c2.483-.01,4.491,2.269,4.491,5.091v121.243C-2180.576,2263.383-2182.584,2265.809-2185.067,2265.979Z" fill="#fff"/>
        <path id="Trazado_116457" data-name="Trazado 116457" d="M-2273.584,2129.558a2.469,2.469,0,0,1-2.348,2.566,2.456,2.456,0,0,1-2.354-2.556,2.468,2.468,0,0,1,2.354-2.566A2.458,2.458,0,0,1-2273.584,2129.558Z" fill="#fff"/>
      </g>
      <path id="Trazado_116458" data-name="Trazado 116458" d="M-2170.569,2274.835l-218.938,15.821,95.461,16.766a12.94,12.94,0,0,0,3.3.152l227-18.738-103.342-13.893A17.045,17.045,0,0,0-2170.569,2274.835Z" fill="url(#linear-gradient-8)"/>
      <path id="Trazado_116459" data-name="Trazado 116459" d="M-2357.561,2290.792l182.273-13.367,56.412,7.522-180.7,14.289Z" fill="#26264f"/>
      <g id="Grupo_88104" data-name="Grupo 88104">
        <path id="Trazado_116460" data-name="Trazado 116460" d="M-2298.5,2273.544l-77.578,5.22a3.942,3.942,0,0,1-4.207-3.933v-135.87a3.942,3.942,0,0,1,3.926-3.942l77.859-.314Z" fill="#d8dee8"/>
        <path id="Trazado_116461" data-name="Trazado 116461" d="M-2198.32,2199.452l-81.738,2.872v-8.265l81.738-2.562Z" fill="#d8dee8"/>
        <path id="Trazado_116462" data-name="Trazado 116462" d="M-2198.32,2212.483l-81.738,3.381V2207.6l81.738-3.07Z" fill="#d8dee8"/>
        <path id="Trazado_116463" data-name="Trazado 116463" d="M-2306.506,2200.936l-46.935,1.6v-6.177l46.935-1.471Z" fill="#fff"/>
        <path id="Trazado_116464" data-name="Trazado 116464" d="M-2306.506,2210.845l-46.935,1.811v-6.177l46.935-1.682Z" fill="#fff"/>
        <path id="Trazado_116465" data-name="Trazado 116465" d="M-2306.506,2220.753l-46.935,2.022V2216.6l46.935-1.893Z" fill="#fff"/>
        <path id="Trazado_116466" data-name="Trazado 116466" d="M-2306.506,2230.662l-46.935,2.233v-6.177l46.935-2.1Z" fill="#fff"/>
        <path id="Trazado_116467" data-name="Trazado 116467" d="M-2243.938,2227.685l-36.12,1.719v-8.265l36.12-1.581Z" fill="#d8dee8"/>
        <g id="Grupo_88103" data-name="Grupo 88103">
          <path id="Trazado_116468" data-name="Trazado 116468" d="M-2219.193,2167.832a18.163,18.163,0,0,1-18.486,18.046,19.108,19.108,0,0,1-19.135-18.849A18.153,18.153,0,0,1-2237.679,2149,19.127,19.127,0,0,1-2219.193,2167.832Z" fill="#d8dee8"/>
          <path id="Trazado_116469" data-name="Trazado 116469" d="M-2221.354,2167.785a16.007,16.007,0,0,1-16.325,15.9,16.84,16.84,0,0,1-16.828-16.611,16,16,0,0,1,16.828-15.892A16.855,16.855,0,0,1-2221.354,2167.785Z" fill="#fff" opacity="0.9"/>
          <g id="Grupo_88102" data-name="Grupo 88102">
            <g id="Grupo_88101" data-name="Grupo 88101" clip-path="url(#clip-path)">
              <g id="Grupo_88100" data-name="Grupo 88100">
                <path id="Trazado_116470" data-name="Trazado 116470" d="M-2239.027,2168.848a2.238,2.238,0,0,0,1.351.53,2.15,2.15,0,0,0,1.358-.484,5.287,5.287,0,0,0,1.721-4.057c0-2.308-1.377-3.8-3.079-3.847s-3.1,1.379-3.1,3.7A5.533,5.533,0,0,0-2239.027,2168.848Z" fill="#d8dee8"/>
                <path id="Trazado_116471" data-name="Trazado 116471" d="M-2230.488,2174.857a9.026,9.026,0,0,0-1.109-1.722c-.041-.051-.125-.1-.173-.15,0-.005-.019-.009-.023-.014s-.03-.029-.043-.044-.042-.046-.063-.068a.18.18,0,0,0-.032-.036c-.043-.051-.091-.1-.136-.149l-.024-.025-.052-.053-.006-.007-.038-.04c-.017-.015-.033-.032-.049-.048a.321.321,0,0,0-.031-.032l-.1-.092-.02-.019-.124-.115-.052-.048c-.033-.029-.066-.059-.1-.087l-.024-.02a7.911,7.911,0,0,0-3.329-1.7c-.042-.011-.084-.02-.125-.029h0l0,0a7.688,7.688,0,0,0-1.14-.155c-.131-.008-.26-.018-.392-.021-.558-.01-1.1.447-1.627.148h-.018v0h-.009a.041.041,0,0,1-.016-.006l0,.006h0a7.817,7.817,0,0,0-5.442,4.317,7.324,7.324,0,0,0-.628,2.967v.243l15.529.177v-.24a9.461,9.461,0,0,0-.6-2.945Z" fill="#d8dee8"/>
                <path id="Trazado_116472" data-name="Trazado 116472" d="M-2245.814,2165.949c1.728.039,3.125-2.237,3.125-4.564s-1.4-3.833-3.125-3.886-3.143,1.379-3.143,3.719S-2247.547,2165.91-2245.814,2165.949Z" fill="#d8dee8"/>
                <path id="Trazado_116473" data-name="Trazado 116473" d="M-2240.668,2169.024s.007-.177.011-.177h0c.1,0,.211.178.318.059.007.008,0,.1.006.108l-.011.089v0l.033-.254h0v0l-.006,0h0c-.3,0-.623-.447-.968-.7.005.008.011.07.015.079l-.006.022a7.737,7.737,0,0,0-4.444-1.5,7.488,7.488,0,0,0-7.759,7.483v.04l7.26.109-.053.028A8.7,8.7,0,0,1-2240.668,2169.024Z" fill="#d8dee8"/>
                <path id="Trazado_116474" data-name="Trazado 116474" d="M-2240.311,2169.121a.575.575,0,0,1,.126.106.538.538,0,0,0-.126-.109Z" fill="url(#linear-gradient-10)"/>
                <path id="Trazado_116475" data-name="Trazado 116475" d="M-2229.762,2166.311c1.678.038,3.034-2.206,3.034-4.5s-1.356-3.778-3.034-3.828-3.052,1.359-3.052,3.665S-2231.446,2166.273-2229.762,2166.311Z" fill="#d8dee8"/>
                <path id="Trazado_116476" data-name="Trazado 116476" d="M-2230,2167.109a7.129,7.129,0,0,0-4.14,1.2,6.97,6.97,0,0,0-1.039.865l.034,0c.142.042.3-.035.436.016a9.812,9.812,0,0,1,5.444,5.446l6.546.1v-.04A7.458,7.458,0,0,0-2230,2167.109Z" fill="#d8dee8"/>
              </g>
            </g>
          </g>
        </g>
      </g>
      <path id="Trazado_116478" data-name="Trazado 116478" d="M-2382.883,2290.7l203.143-14.954,1.033-.076a5.48,5.48,0,0,0,3.6-1.82c-14.618-.8-23.7-5.988-29.555-11.348-11.762-10.765-9.722-21.38-22.406-28.458-15.821-8.828-28.261,2.358-40.266-8.679-7.278-6.691-3.705-11.68-12.661-21.68-9.919-11.075-16.377-7.352-26.346-17.319-12.6-12.6-6.3-22.409-17.158-31.458-13.172-10.977-27.377-.817-39.915-11.345-5.408-4.54-8.376-11.142-9.925-18.162h-9.54a6.754,6.754,0,0,0-6.624,6.871v152.044A6.188,6.188,0,0,0-2382.883,2290.7Z" fill="#fff" opacity="0.48" style="mix-blend-mode: soft-light;isolation: isolate"/>
    </g>
    <g id="Grupo_88111" data-name="Grupo 88111">
      <path id="Trazado_116479" data-name="Trazado 116479" d="M-2254.319,2124.623c0,26.36-20.436,48.1-46,48.847-25.959.758-47.758-20.352-48.326-47.455-.576-27.434,20.78-49.92,47.32-49.92C-2275.2,2076.095-2254.319,2097.95-2254.319,2124.623Z" fill="url(#linear-gradient-11)"/>
      <path id="Trazado_116480" data-name="Trazado 116480" d="M-2251.131,2124.623c0,26.36-20.436,48.1-46,48.847-25.96.758-47.758-20.352-48.327-47.455-.575-27.434,20.781-49.92,47.321-49.92C-2272.011,2076.095-2251.131,2097.95-2251.131,2124.623Z" fill="url(#linear-gradient-12)"/>
      <path id="Trazado_116481" data-name="Trazado 116481" d="M-2257.167,2124.712a43.034,43.034,0,0,1-11.978,29.963c-7.2,7.482-48.171,9.016-55.578,2.52a42.523,42.523,0,0,1-14.37-31.274c-.465-23.765,18.03-43.253,41.025-43.3C-2275.386,2082.579-2257.2,2101.52-2257.167,2124.712Z" fill="#fff"/>
      <g id="Grupo_88110" data-name="Grupo 88110">
        <g id="Grupo_88109" data-name="Grupo 88109" clip-path="url(#clip-path-2)">
          <g id="Grupo_88108" data-name="Grupo 88108">
            <g id="Grupo_88107" data-name="Grupo 88107">
              <path id="Trazado_116482" data-name="Trazado 116482" d="M-2297.232,2139.2c-7.76.973-10.185,3.859-13.3,1.931-2.841-1.757-1.725-4.7-4.767-6.735-4.27-2.852-9.33,1.031-11.372-1.418-1.6-1.918,1.4-4.413.777-9.539-.74-6.112-5.574-7.369-4.964-12.291a10.221,10.221,0,0,1,3.416-6c2.156-1.777,3.238-.857,5.228-2.478,2.884-2.348,1.6-5.086,4.543-7.811.229-.212,3.147-2.839,6.269-2.153,2.413.531,2.4,2.484,4.426,2.995,3.622.912,5.584-4.862,10.085-4.831,3.549.024,3.723,3.632,8.038,4.483,5.3,1.045,9.133-3.6,11.205-1.758,1.327,1.179-.147,3.175,1.381,5.422,1.671,2.457,4.182,1.162,6.939,3.728a9.342,9.342,0,0,1,2.975,6.78c-.092,2.655-1.634,3.324-1.285,5.671.341,2.289,1.914,2.362,2.316,4.548.453,2.458-.986,5.37-2.909,6.962-2.639,2.186-5.033.93-6.5,3.1-1.1,1.623-.114,2.848-1.041,4.754-.893,1.836-2.9,2.938-6.734,3.834C-2289.215,2139.959-2290.834,2138.4-2297.232,2139.2Z" fill="url(#linear-gradient-13)"/>
              <g id="Grupo_88106" data-name="Grupo 88106" opacity="0.3" style="mix-blend-mode: multiply;isolation: isolate">
                <path id="Trazado_116483" data-name="Trazado 116483" d="M-2272.329,2125.548c-4.437-.852-4.874-5.13-9.578-6.424-8.106-2.231-14.794,8.23-18.886,5.723-3.923-2.4,1.293-12.54-4.126-18.547-4.011-4.445-10.05-2.445-11.429-5.772-.625-1.509-.2-3.9,3.078-7.876a9.233,9.233,0,0,0-4.4,2.206c-2.945,2.725-1.659,5.463-4.543,7.811-1.99,1.621-3.072.7-5.228,2.478a10.221,10.221,0,0,0-3.416,6c-.61,4.922,4.224,6.179,4.964,12.291.621,5.126-2.376,7.621-.777,9.539,2.042,2.449,7.1-1.434,11.372,1.418,3.042,2.031,1.926,4.978,4.767,6.735,3.116,1.928,5.541-.958,13.3-1.931,6.4-.8,8.017.756,14.725-.809,3.839-.9,5.841-2,6.734-3.834.927-1.906-.056-3.131,1.041-4.754,1.467-2.171,3.861-.915,6.5-3.1a8.526,8.526,0,0,0,1.859-2.211A9.3,9.3,0,0,1-2272.329,2125.548Z" fill="url(#linear-gradient-14)"/>
              </g>
            </g>
            <path id="Trazado_116484" data-name="Trazado 116484" d="M-2325.91,2169.339c2.728,4.146,12.191,1.819,29.969,1.1,17.724-.711,25.559.921,28.269-3.213,1.258-1.919.772-4.1-.153-8.241-.633-2.838-1.873-8.4-6.4-12.144-5.587-4.622-13.393-4.2-21.281-3.777-8.291.447-19.8,1.067-26.115,8.6-4.42,5.272-4.764,12.108-4.8,13.115C-2326.517,2167.163-2326.561,2168.35-2325.91,2169.339Z" fill="url(#linear-gradient-15)"/>
            <path id="Trazado_116485" data-name="Trazado 116485" d="M-2299.81,2129.619s1.2,12.63-7.394,15.326a1.265,1.265,0,0,0-.386,2.193c2.756,2.132,7.711,5.515,11.8,5.872,4.247.37,9.242-4.241,11.793-6.96a1.246,1.246,0,0,0-.665-2.087c-3.656-.6-10.248-3.166-9.67-13.945Z" fill="url(#linear-gradient-16)"/>
            <path id="Trazado_116486" data-name="Trazado 116486" d="M-2305.7,2120.551s-.461,12.7,8.386,12.405c8.8-.3,8.088-11.06,7.576-13.845,0,0,0-7.372-5.884-6.674C-2301.524,2113.137-2305.5,2115.1-2305.7,2120.551Z" fill="url(#linear-gradient-17)"/>
            <path id="Trazado_116487" data-name="Trazado 116487" d="M-2290.39,2123.621s.816-3.32,2.571-1.707c2.546,2.341-2.82,5.116-2.82,5.116Z" fill="url(#linear-gradient-18)"/>
            <path id="Trazado_116488" data-name="Trazado 116488" d="M-2304.815,2123.827s-.893-3.312-2.633-1.642c-2.53,2.428,2.954,5.057,2.954,5.057Z" fill="url(#linear-gradient-19)"/>
            <path id="Trazado_116489" data-name="Trazado 116489" d="M-2305.976,2120.38a.269.269,0,0,0,.513.01,8.788,8.788,0,0,1,7.415-5.958c4.438-.53,6.825,2.817,7.869,4.911a.5.5,0,0,0,.939-.191c.271-3.056-.183-8.949-7.746-8.871C-2306.576,2110.379-2306.753,2117.906-2305.976,2120.38Z" fill="url(#linear-gradient-20)"/>
          </g>
        </g>
      </g>
    </g>
    <g id="Grupo_88114" data-name="Grupo 88114">
      <path id="Trazado_116491" data-name="Trazado 116491" d="M-2176.678,2310.756s-8.468,3.849-8.606,4.464,5.446-.206,7.725-.118,4.155-.585,3.949-1.551-1-3.394-1-3.394Z" fill="url(#linear-gradient-21)"/>
      <path id="Trazado_116492" data-name="Trazado 116492" d="M-2176.988,2307.633l.515,3.813a2.991,2.991,0,0,0,2.242-.087l.384-4.182Z" fill="url(#linear-gradient-22)"/>
      <path id="Trazado_116493" data-name="Trazado 116493" d="M-2137.108,2307.724l.985,1.582a1.887,1.887,0,0,1,.225,1.478c-.344,1.315-1.032,3.878-1.332,4.546-.409.91-5.889,1.451-5.889,1.451s-.488-.688.65-1.519,1.869-.961,2.27-2.186a32.051,32.051,0,0,0,.67-4.693Z" fill="url(#linear-gradient-23)"/>
      <path id="Trazado_116494" data-name="Trazado 116494" d="M-2141.208,2303.706c.36.287,2.12,5.629,2.12,5.629s.57.729,1.652-.346.489-.483.489-.483l-.2-5.254Z" fill="url(#linear-gradient-24)"/>
      <path id="Trazado_116495" data-name="Trazado 116495" d="M-2181.647,2231.034c-.447,11.373-.465,23.73.19,36.93.736,14.865,2.217,28.6,4.083,41.057.694.022,1.422.026,2.184,0q.771-.022,1.494-.073a94.343,94.343,0,0,0,3.137-10.035,96.423,96.423,0,0,0,2.191-11.749c1.631-12.882-.28-14.006,1.043-23.552,1.172-8.455,2.839-8.785,4.8-20.789,2.123-13.025.542-14.979-.226-15.685C-2166.027,2224.138-2173.712,2226.184-2181.647,2231.034Z" fill="url(#linear-gradient-25)"/>
      <path id="Trazado_116496" data-name="Trazado 116496" d="M-2162.755,2227.143c-3.121-2.866-10.257-1.131-17.8,3.244,8.671,9.368,9.617,15.446,8.577,19.389-1.175,4.457-4.747,5.741-4.733,10.614.017,5.989,5.422,7.575,5.307,13.913-.076,4.19-2.451,4.147-3.012,9.323-.664,6.124,2.439,8.234,1.434,12.765-.432,1.95-1.666,4.5-5.181,7.121.253,1.86.513,3.7.784,5.509.693.022,1.422.026,2.184,0q.771-.022,1.494-.073a94.389,94.389,0,0,0,3.137-10.034,96.471,96.471,0,0,0,2.191-11.75c1.631-12.882-.28-14.006,1.043-23.552,1.172-8.455,2.839-8.786,4.8-20.789C-2160.406,2229.8-2161.987,2227.849-2162.755,2227.143Z" opacity="0.3" fill="url(#linear-gradient-25)" style="mix-blend-mode: multiply;isolation: isolate"/>
      <path id="Trazado_116497" data-name="Trazado 116497" d="M-2176.276,2230.843a255.618,255.618,0,0,1,22.722,40.8,255.391,255.391,0,0,1,12.288,34.137,4.552,4.552,0,0,0,2.5.387,4.654,4.654,0,0,0,2.831-1.529,73.606,73.606,0,0,0,.649-18.135,62.5,62.5,0,0,0-2.55-13.63c-2.061-6.649-3.479-7.023-6.168-14.057-2.791-7.3-2.115-9.123-4.788-18.259a120.5,120.5,0,0,0-5.969-16.021Z" fill="url(#linear-gradient-25)"/>
      <path id="Trazado_116498" data-name="Trazado 116498" d="M-2211.591,2153.077s-1.449-1.734-2.372-3.026a53.708,53.708,0,0,0-5.181-4.886s-.3.592.614,1.508,2.847,2.478,2.427,3.166-1.632,1.312-.721,2.574,2.43.353,3.238,1.364,1.638,2.113,1.638,2.113Z" fill="url(#linear-gradient-28)"/>
      <path id="Trazado_116499" data-name="Trazado 116499" d="M-2211.387,2151.255l-2.9,3.639a54.1,54.1,0,0,0,10,21.234c6.493,8.3,20.343,20.723,28.965,16.649,5.255-2.483,12.35-11,9.8-15.111-2.451-3.949-13.058-2.082-20.342-3.727C-2193.006,2172.326-2202.273,2167.129-2211.387,2151.255Z" fill="url(#linear-gradient-29)"/>
      <path id="Trazado_116500" data-name="Trazado 116500" d="M-2144.815,2182.795s5.65,19.23,2.15,26.628-14.661-.726-14.661-.726Z" fill="url(#linear-gradient-30)"/>
      <path id="Trazado_116501" data-name="Trazado 116501" d="M-2145.86,2182.818s5.649,19.229,2.149,26.628-14.661-.726-14.661-.726Z" fill="url(#linear-gradient-31)"/>
      <path id="Trazado_116502" data-name="Trazado 116502" d="M-2162.383,2175.685c-7.257-.132-12.847.1-15.936,3.33-3.264,3.407.19,7.1-.345,15.835-.818,13.376-9.255,16.824-9.6,30.384a34.6,34.6,0,0,0,1.386,10.516,36.412,36.412,0,0,0,9.616,8.145c6.651,3.851,10.442,3.072,19.925,5.446,15.511,3.884,16.992,8.879,24.61,7.432,7.7-1.462,14.336-8.113,13.439-11.666-.537-2.128-3.639-1.454-7.3-4.637-4.714-4.1-3.019-8.155-6.631-12.595-5.189-6.379-12.135-2.259-16.559-7.788-4.475-5.594-2.994-16.841.541-23.031,2.308-4.043,3.232-8.742,5.18-12.971a2.908,2.908,0,0,0,.243-1.636c-.39-2.718-4.965-4.1-8.429-5.107A41.012,41.012,0,0,0-2162.383,2175.685Z" fill="url(#linear-gradient-32)"/>
      <path id="Trazado_116503" data-name="Trazado 116503" d="M-2169.447,2175.539l1.42-.471s.416,1.928,5.02,2.069a6.87,6.87,0,0,0,4.171-1.521l.992.691a7.517,7.517,0,0,1-5.5,2.731A6.842,6.842,0,0,1-2169.447,2175.539Z" fill="url(#linear-gradient-33)"/>
      <g id="Grupo_88112" data-name="Grupo 88112">
        <path id="Trazado_116504" data-name="Trazado 116504" d="M-2168.283,2169.314a6.127,6.127,0,0,1,1.054-4.311c1.088-1.633,1.348-1.846,1.82-2.1l.652-.325.076-.021a7.187,7.187,0,0,1,2.032.061c.858.267,1.463,3.913.738,8.924.034.394.069.787.1,1.181,1.951-.27,2.515-.084,2.616.177.217.566-1.142,3.873-3,4.524-2.331.816-5.578-1.313-5.773-2.083-.079-.311-.065-.044,1.522-.963.146-.46.6-1.708.746-2.169C-2166.033,2171.99-2168,2170.868-2168.283,2169.314Z" fill="url(#linear-gradient-34)"/>
        <path id="Trazado_116505" data-name="Trazado 116505" d="M-2165.623,2167.617c.43-.491,1.057.064,1,.744a1.243,1.243,0,0,1-1.408,1.134C-2166.659,2169.3-2166.2,2168.277-2165.623,2167.617Z" fill="url(#linear-gradient-35)"/>
      </g>
      <g id="Grupo_88113" data-name="Grupo 88113" opacity="0.3" style="mix-blend-mode: multiply;isolation: isolate">
        <path id="Trazado_116506" data-name="Trazado 116506" d="M-2138.178,2245.291c-7.3-4.849-13.905.7-19.064-3.574-4.249-3.518-.765-8.106-5.362-14.3-5.04-6.79-12.035-5.054-13.7-10.128-1.723-5.244,5.189-8.8,5.362-16.085.088-3.716-1.58-8.556-8.246-14.361a33.333,33.333,0,0,1,.526,8.005c-.818,13.376-9.255,16.824-9.6,30.384a34.6,34.6,0,0,0,1.386,10.516,36.412,36.412,0,0,0,9.616,8.145c6.651,3.851,10.442,3.072,19.925,5.446,15.511,3.884,16.992,8.879,24.61,7.432a20.2,20.2,0,0,0,6.235-2.36,12.1,12.1,0,0,1-5.133-1.973C-2134.958,2250.133-2134.372,2247.82-2138.178,2245.291Z" fill="url(#linear-gradient-36)"/>
      </g>
      <path id="Trazado_116507" data-name="Trazado 116507" d="M-2153.532,2153.8c-3.965.45-5.313-2.977-8.817-2.277-4.407.881-7.872,7.421-6.2,10.691,1.045,2.042,3.529,1.709,5.006,4.322.615,1.088.92,2.447.477,5.687-1.077,7.875-4.184,9.394-3.1,12.284,1.338,3.564,7.434,4.891,11.2,4.777a12.554,12.554,0,0,0,7.391-2.275c2.472-1.911,2.291-3.769,4.833-4.963,2.077-.976,2.855-.046,5.656-.724,2.358-.571,6.52-2.372,7.152-5.232.7-3.186-3.647-4.644-3.276-8.711.24-2.63,2.126-2.752,2.8-5.847.946-4.348-1.882-8.211-2.384-8.872-2.268-2.987-6.727-6.01-10.966-5.231C-2148.542,2148.306-2148.881,2153.27-2153.532,2153.8Z" fill="url(#linear-gradient-37)"/>
    </g>
  </g>
</svg>
