<svg id="Grupo_87995" data-name="Grupo 87995" xmlns="http://www.w3.org/2000/svg" width="57.24" height="57.335" viewBox="0 0 57.24 57.335">
  <path id="Trazado_115667" data-name="Trazado 115667" d="M129.571,146.535h-4.257a.84.84,0,1,0,0,1.681h4.257a.84.84,0,0,0,0-1.681Z" transform="translate(-110.534 -130.126)" fill="#4dd0e1"/>
  <path id="Trazado_115668" data-name="Trazado 115668" d="M191.365,146.535h-2.017a.84.84,0,1,0,0,1.681h2.017a.84.84,0,0,0,0-1.681Z" transform="translate(-167.398 -130.126)" fill="#4dd0e1"/>
  <path id="Trazado_115669" data-name="Trazado 115669" d="M156.488,173.863a.84.84,0,0,0,.84.84h2.8a.84.84,0,0,0,0-1.681h-2.8A.84.84,0,0,0,156.488,173.863Z" transform="translate(-138.964 -153.647)" fill="#4dd0e1"/>
  <path id="Trazado_115670" data-name="Trazado 115670" d="M182.8,202.142a.84.84,0,1,0,0-1.681h-1.456a.84.84,0,0,0,0,1.681Z" transform="translate(-160.291 -178.013)" fill="#4dd0e1"/>
  <path id="Trazado_115671" data-name="Trazado 115671" d="M278.193,200.461h-2.8a.84.84,0,0,0,0,1.681h2.8a.84.84,0,1,0,0-1.681Z" transform="translate(-243.806 -178.013)" fill="#4dd0e1"/>
  <path id="Trazado_115672" data-name="Trazado 115672" d="M212.079,173.023h-6.722a.84.84,0,0,0,0,1.681h6.722a.84.84,0,1,0,0-1.681Z" transform="translate(-181.614 -153.647)" fill="#4dd0e1"/>
  <path id="Trazado_115673" data-name="Trazado 115673" d="M220.394,200.461H216.36a.84.84,0,0,0,0,1.681h4.034a.84.84,0,1,0,0-1.681Z" transform="translate(-191.385 -178.013)" fill="#4dd0e1"/>
  <path id="Trazado_115674" data-name="Trazado 115674" d="M125.313,251.15h2.353a.84.84,0,1,0,0-1.681h-2.353a.84.84,0,1,0,0,1.681Z" transform="translate(-110.534 -221.533)" fill="#4dd0e1"/>
  <path id="Trazado_115675" data-name="Trazado 115675" d="M166.5,250.309a.84.84,0,0,0,.84.84h8.627a.84.84,0,0,0,0-1.681h-8.627A.84.84,0,0,0,166.5,250.309Z" transform="translate(-147.851 -221.533)" fill="#4dd0e1"/>
  <path id="Trazado_115676" data-name="Trazado 115676" d="M156.488,276.8a.84.84,0,0,0,.84.84h8.179a.84.84,0,1,0,0-1.681h-8.179A.84.84,0,0,0,156.488,276.8Z" transform="translate(-138.964 -245.058)" fill="#4dd0e1"/>
  <path id="Trazado_115677" data-name="Trazado 115677" d="M250.539,276.8a.84.84,0,0,0,.84.84h1.569a.84.84,0,1,0,0-1.681h-1.569A.84.84,0,0,0,250.539,276.8Z" transform="translate(-222.483 -245.058)" fill="#4dd0e1"/>
  <path id="Trazado_115678" data-name="Trazado 115678" d="M125.313,349.63h4.257a.841.841,0,0,0,0-1.681h-4.257a.841.841,0,0,0,0,1.681Z" transform="translate(-110.534 -308.985)" fill="#4dd0e1"/>
  <path id="Trazado_115679" data-name="Trazado 115679" d="M189.348,349.63h2.017a.841.841,0,0,0,0-1.681h-2.017a.841.841,0,0,0,0,1.681Z" transform="translate(-167.398 -308.985)" fill="#4dd0e1"/>
  <path id="Trazado_115680" data-name="Trazado 115680" d="M156.488,375.281a1.43,1.43,0,0,0,.5.955h2.8c.8-.114,1.18-.49,1.18-.955a.84.84,0,0,0-.84-.84h-2.8A.84.84,0,0,0,156.488,375.281Z" transform="translate(-138.964 -332.51)" fill="#4dd0e1"/>
  <path id="Trazado_115681" data-name="Trazado 115681" d="M181.344,403.556H182.8a.84.84,0,1,0,0-1.681h-1.456a.84.84,0,1,0,0,1.681Z" transform="translate(-160.291 -356.872)" fill="#4dd0e1"/>
  <path id="Trazado_115682" data-name="Trazado 115682" d="M275.391,403.556h2.8a.84.84,0,1,0,0-1.681h-2.8a.84.84,0,0,0,0,1.681Z" transform="translate(-243.806 -356.872)" fill="#4dd0e1"/>
  <path id="Trazado_115683" data-name="Trazado 115683" d="M212.919,375.281a.84.84,0,0,0-.84-.84h-6.722a.84.84,0,1,0,0,1.681h6.722A.84.84,0,0,0,212.919,375.281Z" transform="translate(-181.614 -332.51)" fill="#4dd0e1"/>
  <path id="Trazado_115684" data-name="Trazado 115684" d="M216.36,401.875a.84.84,0,0,0,0,1.681h4.034a.84.84,0,1,0,0-1.681Z" transform="translate(-191.385 -356.872)" fill="#4dd0e1"/>
  <path id="Trazado_115685" data-name="Trazado 115685" d="M55.434,116.847a.841.841,0,0,0-1.186-.082l-1.441,1.253a3.446,3.446,0,1,0,1.049,1.315l1.5-1.3A.841.841,0,0,0,55.434,116.847Zm-4.713,5.672a1.763,1.763,0,1,1,0-3.527,1.748,1.748,0,0,1,.763.176l-1.315,1.143a.84.84,0,1,0,1.1,1.268l1.2-1.041a1.755,1.755,0,0,1-1.749,1.98Z" transform="translate(-41.983 -103.506)" fill="#4dd0e1"/>
  <path id="Trazado_115686" data-name="Trazado 115686" d="M50.721,228.862a3.442,3.442,0,0,0,3.07-5l1.56-1.357a.84.84,0,1,0-1.1-1.268l-1.56,1.357a3.443,3.443,0,1,0-1.967,6.269Zm0-5.208a1.747,1.747,0,0,1,.616.113l-1.168,1.016a.84.84,0,1,0,1.1,1.268l1.169-1.017a1.763,1.763,0,1,1-1.72-1.381Z" transform="translate(-41.983 -196.278)" fill="#4dd0e1"/>
  <path id="Trazado_115687" data-name="Trazado 115687" d="M50.721,328.277a3.443,3.443,0,0,0,3.091-4.961l1.539-1.339a.84.84,0,1,0-1.1-1.268l-1.523,1.325a3.443,3.443,0,1,0-2,6.243Zm0-5.208a1.756,1.756,0,0,1,.664.131l-1.215,1.056a.84.84,0,1,0,1.1,1.268l1.179-1.025a1.738,1.738,0,0,1,.033.333,1.764,1.764,0,1,1-1.763-1.763Z" transform="translate(-41.983 -284.612)" fill="#4dd0e1"/>
  <path id="Trazado_115688" data-name="Trazado 115688" d="M25.661,24.984a2.466,2.466,0,1,0,2.466,2.466A2.469,2.469,0,0,0,25.661,24.984Zm0,3.252a.785.785,0,1,1,.785-.785A.787.787,0,0,1,25.661,28.236Z" transform="translate(-20.598 -22.186)" fill="#4dd0e1"/>
  <path id="Trazado_115689" data-name="Trazado 115689" d="M81.728,24.984a2.466,2.466,0,1,0,2.466,2.466A2.469,2.469,0,0,0,81.728,24.984Zm0,3.252a.785.785,0,1,1,.785-.785A.787.787,0,0,1,81.728,28.236Z" transform="translate(-70.386 -22.186)" fill="#4dd0e1"/>
  <path id="Trazado_115690" data-name="Trazado 115690" d="M137.794,24.984a2.466,2.466,0,1,0,2.466,2.466A2.469,2.469,0,0,0,137.794,24.984Zm0,3.252a.785.785,0,1,1,.785-.785A.787.787,0,0,1,137.794,28.236Z" transform="translate(-120.174 -22.186)" fill="#4dd0e1"/>
  <path id="Trazado_115691" data-name="Trazado 115691" d="M52.2,38.391V3.434A3.437,3.437,0,0,0,48.766,0H3.434A3.437,3.437,0,0,0,0,3.434V18.907a.84.84,0,0,0,1.681,0V10.528H50.519V37.6a10.121,10.121,0,0,0-3.447-.6,10.238,10.238,0,0,0-1.914.18.84.84,0,0,0,.314,1.651,8.491,8.491,0,1,1-4.14,2.084A.84.84,0,0,0,40.2,39.678a10.168,10.168,0,0,0-2.723,10.841H3.434a1.755,1.755,0,0,1-1.753-1.753V24.052a.84.84,0,1,0-1.681,0V48.766A3.437,3.437,0,0,0,3.434,52.2H38.24A10.166,10.166,0,1,0,52.2,38.391ZM50.519,8.847H1.681V3.434A1.755,1.755,0,0,1,3.434,1.681H48.766a1.755,1.755,0,0,1,1.753,1.753Z" fill="#4dd0e1"/>
  <path id="Trazado_115692" data-name="Trazado 115692" d="M353.75,375.634a1.43,1.43,0,0,0,.422,1.018l.009.008,4.188,4.066a1.627,1.627,0,0,0,2.292-.005l7.53-7.53a1.627,1.627,0,0,0,0-2.3l-1.981-1.981a1.627,1.627,0,0,0-2.3,0l-4.462,4.462-1-1a1.44,1.44,0,0,0-2.036,0l-2.242,2.242A1.43,1.43,0,0,0,353.75,375.634Zm3.682-1.9,1.424,1.424a.841.841,0,0,0,1.188,0l5.016-5.017,1.9,1.9-7.451,7.451-3.978-3.862Z" transform="translate(-314.136 -327.178)" fill="#4dd0e1"/>
</svg>
