<svg xmlns="http://www.w3.org/2000/svg" xmlns:xlink="http://www.w3.org/1999/xlink" width="187.844" height="188" viewBox="0 0 187.844 188">
  <defs>
    <linearGradient id="linear-gradient" x1="-6.814" y1="-0.354" x2="-7.588" y2="1.649" gradientUnits="objectBoundingBox">
      <stop offset="0" stop-color="#4f9eff"/>
      <stop offset="1" stop-color="#4087e2"/>
    </linearGradient>
    <linearGradient id="linear-gradient-2" x1="-22.843" y1="0.932" x2="-22.62" y2="-0.163" gradientUnits="objectBoundingBox">
      <stop offset="0" stop-color="#00175d"/>
      <stop offset="1" stop-color="#0f3191"/>
    </linearGradient>
    <linearGradient id="linear-gradient-3" x1="-20" y1="-1.642" x2="-20.885" y2="3.385" xlink:href="#linear-gradient-2"/>
    <linearGradient id="linear-gradient-4" x1="1.547" y1="-0.453" x2="1.146" y2="-0.125" gradientUnits="objectBoundingBox">
      <stop offset="0" stop-color="#ffaf8e"/>
      <stop offset="1" stop-color="#fecf62"/>
    </linearGradient>
    <linearGradient id="linear-gradient-5" x1="-83.857" y1="0.417" x2="-83.199" y2="1.226" xlink:href="#linear-gradient-2"/>
    <linearGradient id="linear-gradient-6" x1="-89.74" y1="0.26" x2="-88.379" y2="1.995" xlink:href="#linear-gradient-2"/>
    <linearGradient id="linear-gradient-7" x1="-46.046" y1="0.212" x2="-46.497" y2="0.899" gradientUnits="objectBoundingBox">
      <stop offset="0" stop-color="#fecdba"/>
      <stop offset="1" stop-color="#ffaf8e"/>
    </linearGradient>
    <linearGradient id="linear-gradient-8" x1="1.576" y1="-0.457" x2="0.358" y2="0.524" xlink:href="#linear-gradient-4"/>
    <linearGradient id="linear-gradient-9" x1="-36.087" y1="0.791" x2="-35.39" y2="-1.379" xlink:href="#linear-gradient-7"/>
    <linearGradient id="linear-gradient-10" x1="-160.921" y1="1.062" x2="-160.81" y2="0.1" xlink:href="#linear-gradient-7"/>
    <linearGradient id="linear-gradient-11" x1="-101.745" y1="0.82" x2="-102.056" y2="-0.114" xlink:href="#linear-gradient-7"/>
    <linearGradient id="linear-gradient-12" x1="-62.547" y1="-0.467" x2="-62.369" y2="0.954" xlink:href="#linear-gradient-2"/>
    <linearGradient id="linear-gradient-13" x1="-487.151" y1="2.058" x2="-488.623" y2="-0.895" xlink:href="#linear-gradient-7"/>
    <linearGradient id="linear-gradient-14" x1="-66.056" y1="0.5" x2="-65.056" y2="0.5" xlink:href="#linear-gradient-2"/>
    <linearGradient id="linear-gradient-15" x1="-61.884" y1="-0.605" x2="-62.624" y2="0.973" xlink:href="#linear-gradient-2"/>
    <linearGradient id="linear-gradient-16" x1="2.382" y1="-4.979" x2="-0.903" y2="4.529" gradientUnits="objectBoundingBox">
      <stop offset="0" stop-color="#e18f57"/>
      <stop offset="1" stop-color="#e9b06e"/>
    </linearGradient>
    <linearGradient id="linear-gradient-17" x1="1.098" y1="-5.386" x2="0.088" y2="4.552" xlink:href="#linear-gradient-16"/>
    <linearGradient id="linear-gradient-18" x1="0.87" y1="-5.586" x2="0.313" y2="3.494" xlink:href="#linear-gradient-16"/>
  </defs>
  <g id="Grupo_87545" data-name="Grupo 87545" transform="translate(-1761.078 -1753.338)">
    <g id="Grupo_87545-2" data-name="Grupo 87545">
      <path id="Trazado_114209" data-name="Trazado 114209" d="M1762.113,1874.877a34.467,34.467,0,0,1,48.716-23.308,4,4,0,0,0,5.65-2.673c6.109-24.277,27.608-42.213,53.194-42.213,30.339,0,54.934,25.218,54.934,56.325,0,.826-.017,1.954-.031,3.036.108,2.326,1.1,3.314,2.577,3.562a24.968,24.968,0,0,1-2.844,49.727H1795.823C1773.828,1919.333,1756.607,1898.378,1762.113,1874.877Z" fill="url(#linear-gradient)"/>
      <path id="Trazado_114210" data-name="Trazado 114210" d="M1772.064,1879.64a30.774,30.774,0,0,1,43.5-20.812,3.571,3.571,0,0,0,5.045-2.386c5.454-21.677,24.65-37.691,47.495-37.691,27.089,0,49.049,22.516,49.049,50.291,0,.738-.015,1.745-.028,2.711.1,2.077.981,2.959,2.3,3.18a22.293,22.293,0,0,1-2.539,44.4H1802.163C1782.524,1919.333,1767.148,1900.623,1772.064,1879.64Z" fill="#91f4fa" opacity="0.21"/>
    </g>
    <g id="Grupo_87550" data-name="Grupo 87550">
      <path id="Trazado_114211" data-name="Trazado 114211" d="M1786.982,1934.556a1.9,1.9,0,0,0,1.895,1.893H1891.36a1.9,1.9,0,0,0,1.9-1.893l.853-58.894a3.3,3.3,0,0,0-3.475-2.922l-100.158-2.591a4.775,4.775,0,0,0-4.9,4.884Z" fill="url(#linear-gradient-2)"/>
      <path id="Trazado_114212" data-name="Trazado 114212" d="M1788.853,1932.739a1.8,1.8,0,0,0,1.793,1.793h98.243a1.8,1.8,0,0,0,1.793-1.793l.8-53.464a4.412,4.412,0,0,0-4.625-4.306l-95.992-2.575a3.356,3.356,0,0,0-3.444,3.435Z" fill="#7dddf4"/>
      <g id="Grupo_87546" data-name="Grupo 87546">
        <path id="Trazado_114213" data-name="Trazado 114213" d="M1889.62,1907.34h0a.263.263,0,0,1-.261-.267l.064-4.336a.262.262,0,0,1,.263-.258h0a.261.261,0,0,1,.26.266l-.063,4.336A.263.263,0,0,1,1889.62,1907.34Z" fill="#fff"/>
        <path id="Trazado_114214" data-name="Trazado 114214" d="M1889.776,1896.715h0a.263.263,0,0,1-.259-.267l.244-16.606a3.117,3.117,0,0,0-.89-2.336,4.385,4.385,0,0,0-2.9-.991l-30.681-.823a.262.262,0,0,1-.255-.27.251.251,0,0,1,.269-.255l30.663.823a4.831,4.831,0,0,1,3.272,1.136,3.631,3.631,0,0,1,1.052,2.718l-.244,16.612A.263.263,0,0,1,1889.776,1896.715Z" fill="#fff"/>
      </g>
      <rect id="Rectángulo_34770" data-name="Rectángulo 34770" width="120.823" height="5.175" rx="2.587" transform="translate(1899.492 1941.338) rotate(180)" fill="url(#linear-gradient-3)"/>
      <path id="Trazado_114215" data-name="Trazado 114215" d="M1831.475,1931.924h-37.826a2.525,2.525,0,0,1-2.525-2.525v-49.374a2.525,2.525,0,0,1,2.622-2.524l37.826,1.448a2.525,2.525,0,0,1,2.429,2.523V1929.4A2.525,2.525,0,0,1,1831.475,1931.924Z" fill="#91f4fa"/>
      <g id="Grupo_87547" data-name="Grupo 87547">
        <rect id="Rectángulo_34771" data-name="Rectángulo 34771" width="25.775" height="3.33" rx="1.665" transform="translate(1798.536 1896.87)" fill="#fff" opacity="0.51"/>
        <rect id="Rectángulo_34772" data-name="Rectángulo 34772" width="25.775" height="3.33" rx="1.665" transform="translate(1798.587 1902.188)" fill="#fff" opacity="0.51"/>
        <rect id="Rectángulo_34773" data-name="Rectángulo 34773" width="25.775" height="3.33" rx="1.665" transform="translate(1798.738 1907.616)" fill="#fff" opacity="0.51"/>
        <rect id="Rectángulo_34774" data-name="Rectángulo 34774" width="25.775" height="3.33" rx="1.665" transform="translate(1798.789 1912.934)" fill="#fff" opacity="0.51"/>
      </g>
      <g id="Grupo_87549" data-name="Grupo 87549">
        <rect id="Rectángulo_34775" data-name="Rectángulo 34775" width="37.058" height="3.33" rx="1.665" transform="translate(1842.203 1896.866)" fill="#fff" opacity="0.51"/>
        <rect id="Rectángulo_34776" data-name="Rectángulo 34776" width="37.058" height="3.33" rx="1.665" transform="translate(1842.318 1902.188)" fill="#fff" opacity="0.51"/>
        <rect id="Rectángulo_34777" data-name="Rectángulo 34777" width="21.959" height="3.33" rx="1.665" transform="translate(1842.318 1907.616)" fill="#fff" opacity="0.51"/>
        <g id="Grupo_87548" data-name="Grupo 87548" opacity="0.51">
          <path id="Trazado_114216" data-name="Trazado 114216" d="M1861.875,1884.456h-.564a.508.508,0,0,1-.508-.508v-1.929a1.25,1.25,0,0,0-1.25-1.25h-3.5a1.25,1.25,0,0,0-1.251,1.25v1.929a.507.507,0,0,1-.507.508h-.565a.507.507,0,0,1-.507-.508v-1.929a2.83,2.83,0,0,1,2.83-2.83h3.5a2.83,2.83,0,0,1,2.83,2.83v1.929A.508.508,0,0,1,1861.875,1884.456Z" fill="#fff"/>
          <path id="Trazado_114217" data-name="Trazado 114217" d="M1862.575,1884.911h-9.542a1.059,1.059,0,0,0-1.059,1.059v7.323a1.059,1.059,0,0,0,1.059,1.059h9.542a1.059,1.059,0,0,0,1.058-1.059v-7.323A1.059,1.059,0,0,0,1862.575,1884.911Zm-3.406,7.078a.392.392,0,0,1-.381.484h-1.968a.392.392,0,0,1-.381-.484l.459-1.911a1.768,1.768,0,1,1,1.812,0Z" fill="#fff"/>
        </g>
      </g>
    </g>
    <g id="Grupo_87559" data-name="Grupo 87559">
      <g id="Grupo_87554" data-name="Grupo 87554">
        <g id="Grupo_87551" data-name="Grupo 87551">
          <path id="Trazado_114218" data-name="Trazado 114218" d="M1889.651,1798.964a.217.217,0,0,1-.11-.029.227.227,0,0,1-.089-.309c.147-.263.288-.528.426-.795a.227.227,0,1,1,.4.209q-.21.406-.432.807A.227.227,0,0,1,1889.651,1798.964Z" fill="#91f4fa"/>
          <path id="Trazado_114219" data-name="Trazado 114219" d="M1863.062,1814.613l-.4,0a.227.227,0,0,1,0-.455h0c.588.008,1.182,0,1.768-.028a.231.231,0,0,1,.238.217.228.228,0,0,1-.217.237C1863.993,1814.6,1863.525,1814.613,1863.062,1814.613Zm-3.289-.177h-.025c-.594-.065-1.192-.147-1.778-.245a.228.228,0,1,1,.075-.449c.578.1,1.167.178,1.752.242a.227.227,0,0,1-.024.453Zm7.555-.122a.227.227,0,0,1-.032-.452c.582-.082,1.169-.182,1.744-.3a.227.227,0,1,1,.09.445c-.584.118-1.18.22-1.77.3Zm-12.15-.735a.243.243,0,0,1-.059-.007c-.576-.154-1.154-.327-1.72-.514a.228.228,0,0,1,.143-.432c.557.185,1.127.355,1.694.507a.227.227,0,0,1-.058.446Zm16.715-.271a.227.227,0,0,1-.066-.445c.563-.171,1.127-.36,1.677-.563a.228.228,0,0,1,.158.427c-.559.2-1.132.4-1.7.571A.252.252,0,0,1,1871.893,1813.308Zm-21.125-1.279a.226.226,0,0,1-.091-.019c-.547-.241-1.092-.5-1.621-.772a.227.227,0,0,1,.208-.4c.521.267,1.058.523,1.6.76a.227.227,0,0,1-.092.435Zm25.481-.419a.227.227,0,0,1-.1-.432c.529-.255,1.057-.529,1.571-.815a.228.228,0,0,1,.221.4c-.522.29-1.058.568-1.595.827A.229.229,0,0,1,1876.249,1811.61Zm-29.6-1.791a.219.219,0,0,1-.122-.036c-.5-.321-1-.662-1.482-1.013a.227.227,0,1,1,.268-.367c.474.345.965.681,1.459,1a.227.227,0,0,1-.123.418Zm33.64-.558a.226.226,0,0,1-.188-.1.229.229,0,0,1,.058-.317c.484-.333.964-.685,1.427-1.047a.228.228,0,0,1,.28.359c-.47.366-.958.724-1.448,1.063A.23.23,0,0,1,1880.291,1809.261Zm-37.366-2.26a.229.229,0,0,1-.151-.057c-.445-.394-.885-.807-1.309-1.228a.228.228,0,0,1,.321-.323c.417.415.851.823,1.29,1.211a.227.227,0,0,1-.151.4Zm41-.682a.227.227,0,0,1-.156-.393c.427-.4.848-.824,1.251-1.25a.227.227,0,1,1,.331.312c-.409.432-.836.859-1.27,1.269A.229.229,0,0,1,1883.927,1806.319Zm-44.257-2.674a.228.228,0,0,1-.175-.082c-.381-.457-.753-.932-1.108-1.412a.227.227,0,0,1,.366-.27c.349.473.716.941,1.092,1.392a.227.227,0,0,1-.175.372Zm47.4-.783a.224.224,0,0,1-.14-.048.228.228,0,0,1-.04-.319c.362-.465.714-.945,1.046-1.427a.227.227,0,0,1,.374.258c-.336.489-.693.977-1.061,1.449A.228.228,0,0,1,1887.073,1802.862Zm-50.111-3.027a.227.227,0,0,1-.2-.11c-.308-.513-.6-1.04-.879-1.566a.227.227,0,0,1,.4-.211c.271.518.562,1.037.866,1.543a.227.227,0,0,1-.195.344Zm-2.089-4.182a.227.227,0,0,1-.211-.142c-.225-.553-.436-1.12-.626-1.682a.227.227,0,1,1,.43-.146c.188.554.4,1.112.617,1.658a.228.228,0,0,1-.125.3A.233.233,0,0,1,1834.873,1795.653Z" fill="#91f4fa"/>
          <path id="Trazado_114220" data-name="Trazado 114220" d="M1833.45,1791.187a.227.227,0,0,1-.221-.175c-.069-.3-.135-.6-.2-.894a.228.228,0,0,1,.446-.091q.09.441.193.881a.227.227,0,0,1-.169.273A.239.239,0,0,1,1833.45,1791.187Z" fill="#91f4fa"/>
        </g>
        <g id="Grupo_87552" data-name="Grupo 87552">
          <path id="Trazado_114221" data-name="Trazado 114221" d="M1837.3,1768.009a.227.227,0,0,1-.192-.348q.243-.387.5-.767a.227.227,0,0,1,.378.253c-.169.25-.332.5-.492.756A.227.227,0,0,1,1837.3,1768.009Z" fill="#91f4fa"/>
          <path id="Trazado_114222" data-name="Trazado 114222" d="M1892.236,1775.623a.228.228,0,0,1-.218-.163c-.173-.593-.368-1.187-.578-1.768a.227.227,0,0,1,.428-.154c.213.589.41,1.192.587,1.794a.227.227,0,0,1-.155.282A.231.231,0,0,1,1892.236,1775.623Zm-1.761-4.587a.227.227,0,0,1-.2-.129c-.268-.558-.556-1.113-.857-1.651a.227.227,0,0,1,.4-.222c.3.546.6,1.11.87,1.676a.227.227,0,0,1-.106.3A.234.234,0,0,1,1890.475,1771.036Zm-2.482-4.242a.226.226,0,0,1-.186-.1c-.354-.505-.728-1.007-1.113-1.49a.227.227,0,1,1,.355-.283c.391.491.771,1,1.13,1.512a.228.228,0,0,1-.056.317A.223.223,0,0,1,1887.993,1766.794Zm-48.369-1.984a.227.227,0,0,1-.175-.372c.4-.481.819-.957,1.249-1.415a.227.227,0,0,1,.332.311c-.424.452-.838.921-1.231,1.394A.228.228,0,0,1,1839.624,1764.81Zm45.237-1.8a.225.225,0,0,1-.163-.069c-.429-.442-.878-.877-1.335-1.294a.227.227,0,0,1,.306-.336c.465.423.92.865,1.355,1.313a.227.227,0,0,1-.163.386Zm-41.806-1.714a.227.227,0,0,1-.149-.4c.473-.413.964-.816,1.459-1.2a.227.227,0,0,1,.278.36c-.488.377-.972.774-1.438,1.181A.226.226,0,0,1,1843.055,1761.293Zm38.112-1.525a.221.221,0,0,1-.135-.045c-.495-.368-1.009-.725-1.526-1.062a.227.227,0,1,1,.249-.38c.524.341,1.045.7,1.548,1.077a.227.227,0,0,1-.136.41Zm-34.162-1.4a.228.228,0,0,1-.12-.421c.531-.331,1.081-.65,1.633-.948a.227.227,0,1,1,.216.4c-.544.294-1.085.608-1.609.934A.232.232,0,0,1,1847.005,1758.366Zm29.994-1.2a.216.216,0,0,1-.1-.026c-.548-.282-1.112-.551-1.678-.8a.227.227,0,0,1,.183-.416c.574.252,1.147.526,1.7.813a.227.227,0,0,1-.1.429Zm-25.624-1.054a.227.227,0,0,1-.088-.437c.578-.24,1.172-.466,1.766-.67a.227.227,0,1,1,.148.429c-.585.2-1.17.424-1.739.661A.225.225,0,0,1,1851.375,1756.115Zm21.089-.836a.24.24,0,0,1-.07-.011c-.586-.191-1.187-.365-1.785-.519a.227.227,0,1,1,.113-.44c.607.156,1.217.333,1.812.526a.228.228,0,0,1-.07.444Zm-16.413-.675a.228.228,0,0,1-.052-.449c.611-.144,1.234-.271,1.85-.376a.227.227,0,0,1,.077.448c-.608.1-1.221.229-1.823.371A.236.236,0,0,1,1856.051,1754.6Zm11.633-.459a.2.2,0,0,1-.035,0c-.61-.093-1.231-.169-1.846-.225a.227.227,0,0,1,.041-.453c.624.057,1.255.134,1.874.229a.227.227,0,0,1-.034.452Zm-6.774-.279a.227.227,0,0,1-.016-.454c.624-.044,1.258-.068,1.886-.074h0a.227.227,0,0,1,0,.455c-.618.005-1.244.03-1.858.073Z" fill="#91f4fa"/>
          <path id="Trazado_114223" data-name="Trazado 114223" d="M1893.1,1779.493a.228.228,0,0,1-.225-.192q-.069-.445-.152-.889a.227.227,0,1,1,.447-.084c.056.3.107.6.154.9a.226.226,0,0,1-.189.26Z" fill="#91f4fa"/>
        </g>
        <g id="Grupo_87553" data-name="Grupo 87553">
          <path id="Trazado_114224" data-name="Trazado 114224" d="M1886.406,1783.3a.365.365,0,0,0-.219-.363l-4.074-1.77a19.36,19.36,0,0,0-1.94-5.962l2.248-3.828a.365.365,0,0,0-.037-.422l-3.464-4.049a.364.364,0,0,0-.411-.1l-4.13,1.629a19.336,19.336,0,0,0-5.589-2.84l-1.118-4.3a.366.366,0,0,0-.325-.272l-5.312-.414a.364.364,0,0,0-.363.219l-1.77,4.074a19.36,19.36,0,0,0-5.962,1.94l-3.828-2.248a.365.365,0,0,0-.422.037l-4.05,3.464a.365.365,0,0,0-.1.411l1.629,4.13a19.325,19.325,0,0,0-2.84,5.59l-4.3,1.117a.364.364,0,0,0-.272.325l-.414,5.312a.366.366,0,0,0,.219.364l4.074,1.77a19.362,19.362,0,0,0,1.94,5.961l-2.248,3.828a.364.364,0,0,0,.037.422l3.464,4.05a.365.365,0,0,0,.411.1l4.13-1.629a19.336,19.336,0,0,0,5.589,2.841l1.118,4.3a.365.365,0,0,0,.325.272l5.312.414a.365.365,0,0,0,.363-.218l1.77-4.075a19.36,19.36,0,0,0,5.962-1.94l3.828,2.249a.367.367,0,0,0,.422-.038l4.049-3.464a.364.364,0,0,0,.1-.411l-1.629-4.13a19.336,19.336,0,0,0,2.84-5.589l4.3-1.118a.363.363,0,0,0,.272-.325Z" fill="#91f4fa"/>
          <path id="Trazado_114225" data-name="Trazado 114225" d="M1862.863,1789.208a5.089,5.089,0,1,1,.866-.074A5.038,5.038,0,0,1,1862.863,1789.208Zm.02-9.465a4.428,4.428,0,0,0-.75.064,4.391,4.391,0,1,0,3.277.744h0A4.358,4.358,0,0,0,1862.883,1779.743Z" fill="#fff" opacity="0.7"/>
          <path id="Trazado_114226" data-name="Trazado 114226" d="M1862.781,1797.335q-.521,0-1.046-.041a13.2,13.2,0,0,1-12.174-13.137c0-.348.013-.7.041-1.047a13.2,13.2,0,0,1,23.188-7.554,13.261,13.261,0,0,1,1.591,2.316l-.6.324a12.609,12.609,0,0,0-1.509-2.2,12.517,12.517,0,0,0-21.991,7.164c-.026.332-.038.663-.038.993a12.518,12.518,0,0,0,24.384,3.965l.647.216a13.206,13.206,0,0,1-12.493,9Z" fill="#fff" opacity="0.7"/>
        </g>
      </g>
      <g id="Grupo_87558" data-name="Grupo 87558">
        <g id="Grupo_87555" data-name="Grupo 87555">
          <path id="Trazado_114227" data-name="Trazado 114227" d="M1915.287,1806.425a.219.219,0,0,1-.115-.032.227.227,0,0,1-.08-.311c.153-.258.3-.522.434-.784a.227.227,0,0,1,.4.209c-.139.27-.289.541-.447.806A.226.226,0,0,1,1915.287,1806.425Z" fill="#91f4fa"/>
          <path id="Trazado_114228" data-name="Trazado 114228" d="M1900.618,1814.032h-.018a16.027,16.027,0,0,1-1.841-.253.227.227,0,1,1,.088-.446,15.58,15.58,0,0,0,1.789.246.227.227,0,0,1-.018.454Zm2.973-.048a.228.228,0,0,1-.025-.454,15.381,15.381,0,0,0,1.779-.305.227.227,0,1,1,.1.443,15.871,15.871,0,0,1-1.832.314Zm-7.637-1.053a.218.218,0,0,1-.086-.017,15.963,15.963,0,0,1-1.677-.8.227.227,0,1,1,.22-.4,15.685,15.685,0,0,0,1.629.776.227.227,0,0,1-.086.438Zm12.262-.2a.227.227,0,0,1-.093-.435,15.48,15.48,0,0,0,1.6-.832.227.227,0,0,1,.233.39,15.741,15.741,0,0,1-1.65.857A.22.22,0,0,1,1908.216,1812.727Zm-16.368-2.263a.229.229,0,0,1-.146-.052,16.254,16.254,0,0,1-1.354-1.272.227.227,0,1,1,.33-.313,15.663,15.663,0,0,0,1.315,1.236.227.227,0,0,1-.145.4Zm20.39-.342a.227.227,0,0,1-.152-.4l.134-.121a15.591,15.591,0,0,0,1.143-1.156.227.227,0,1,1,.339.3,15.925,15.925,0,0,1-1.176,1.19l-.137.124A.224.224,0,0,1,1912.238,1810.122Zm-23.559-3.252a.228.228,0,0,1-.192-.1,15.783,15.783,0,0,1-.908-1.621.227.227,0,1,1,.409-.2,15.446,15.446,0,0,0,.882,1.574.227.227,0,0,1-.069.314A.22.22,0,0,1,1888.679,1806.87Z" fill="#91f4fa"/>
          <path id="Trazado_114229" data-name="Trazado 114229" d="M1886.746,1802.475a.227.227,0,0,1-.22-.169c-.078-.3-.149-.6-.21-.9a.227.227,0,0,1,.445-.091c.06.292.128.585.2.872a.228.228,0,0,1-.162.278A.234.234,0,0,1,1886.746,1802.475Z" fill="#91f4fa"/>
        </g>
        <g id="Grupo_87556" data-name="Grupo 87556">
          <path id="Trazado_114230" data-name="Trazado 114230" d="M1888.618,1790.141a.232.232,0,0,1-.121-.035.228.228,0,0,1-.071-.314c.163-.259.336-.517.514-.765a.227.227,0,0,1,.37.264c-.173.242-.341.492-.5.744A.228.228,0,0,1,1888.618,1790.141Z" fill="#91f4fa"/>
          <path id="Trazado_114231" data-name="Trazado 114231" d="M1916.227,1792.351a.228.228,0,0,1-.209-.138,15.1,15.1,0,0,0-.788-1.592.227.227,0,0,1,.4-.225,16,16,0,0,1,.812,1.639.227.227,0,0,1-.121.3A.233.233,0,0,1,1916.227,1792.351Zm-2.479-4.01a.227.227,0,0,1-.174-.08q-.172-.2-.356-.4c-.277-.3-.57-.6-.87-.881a.227.227,0,1,1,.311-.332c.308.289.61.594.895.907.125.137.247.275.367.416a.228.228,0,0,1-.026.32A.223.223,0,0,1,1913.748,1788.341Zm-22.706-1.165a.227.227,0,0,1-.157-.392q.138-.132.279-.261c.355-.324.729-.635,1.111-.926a.227.227,0,0,1,.275.362c-.371.282-.735.585-1.079.9-.092.083-.183.168-.272.254A.229.229,0,0,1,1891.042,1787.176Zm19.147-1.928a.225.225,0,0,1-.121-.035,15.346,15.346,0,0,0-1.553-.86.227.227,0,0,1,.2-.41,15.9,15.9,0,0,1,1.6.886.227.227,0,0,1-.122.419Zm-15.291-.785a.227.227,0,0,1-.1-.431,15.794,15.794,0,0,1,1.682-.717.227.227,0,1,1,.154.427,15.526,15.526,0,0,0-1.634.7A.227.227,0,0,1,1894.9,1784.463Zm10.972-1.1a.245.245,0,0,1-.059-.008,15.575,15.575,0,0,0-1.739-.356.227.227,0,0,1-.192-.258.224.224,0,0,1,.257-.192,16.016,16.016,0,0,1,1.791.367.227.227,0,0,1-.058.447Zm-6.481-.333a.228.228,0,0,1-.224-.192.226.226,0,0,1,.189-.259,16.035,16.035,0,0,1,1.819-.182.227.227,0,1,1,.019.454,15.59,15.59,0,0,0-1.767.176A.212.212,0,0,1,1899.389,1783.03Z" fill="#91f4fa"/>
          <path id="Trazado_114232" data-name="Trazado 114232" d="M1917.28,1796.04a.228.228,0,0,1-.225-.193c-.046-.293-.1-.589-.163-.88a.227.227,0,0,1,.444-.1c.065.3.121.6.168.906a.227.227,0,0,1-.189.26Z" fill="#91f4fa"/>
        </g>
        <g id="Grupo_87557" data-name="Grupo 87557">
          <path id="Trazado_114233" data-name="Trazado 114233" d="M1913.841,1797.883a.188.188,0,0,0-.112-.187l-2.093-.909a9.959,9.959,0,0,0-1-3.063l1.155-1.966a.187.187,0,0,0-.019-.217l-1.779-2.08a.187.187,0,0,0-.212-.052l-2.121.836a9.941,9.941,0,0,0-2.871-1.459l-.574-2.208a.189.189,0,0,0-.167-.14l-2.729-.213a.188.188,0,0,0-.187.113l-.909,2.093a9.922,9.922,0,0,0-3.062,1l-1.967-1.155a.189.189,0,0,0-.217.019l-2.08,1.78a.187.187,0,0,0-.052.211l.836,2.121a9.983,9.983,0,0,0-1.459,2.871l-2.208.575a.187.187,0,0,0-.14.166l-.212,2.729a.186.186,0,0,0,.112.187l2.093.909a9.931,9.931,0,0,0,1,3.063l-1.155,1.966a.189.189,0,0,0,.019.217l1.78,2.08a.186.186,0,0,0,.211.052l2.121-.836a9.947,9.947,0,0,0,2.872,1.459l.574,2.208a.187.187,0,0,0,.167.14l2.729.213a.188.188,0,0,0,.186-.113l.909-2.093a9.919,9.919,0,0,0,3.063-1l1.966,1.155a.189.189,0,0,0,.217-.019l2.08-1.78a.185.185,0,0,0,.052-.211l-.836-2.121a9.95,9.95,0,0,0,1.459-2.872l2.208-.574a.186.186,0,0,0,.14-.167Z" fill="#91f4fa"/>
          <path id="Trazado_114234" data-name="Trazado 114234" d="M1901.747,1801.086a2.787,2.787,0,1,1,.473-.041A2.809,2.809,0,0,1,1901.747,1801.086Zm.008-4.861a2.087,2.087,0,1,0,1.2.383h0A2.078,2.078,0,0,0,1901.755,1796.225Z" fill="#fff" opacity="0.7"/>
          <path id="Trazado_114235" data-name="Trazado 114235" d="M1901.706,1805.26c-.183,0-.367-.007-.551-.022a6.945,6.945,0,1,1,5.817-11.439c.02.022.039.046.059.068a7.017,7.017,0,0,1,.715,1.036l0,.005.009.016.016.028.009.016.026.049-.6.324a6.351,6.351,0,0,0-.756-1.1h0a6.262,6.262,0,1,0,1.179,6.066l.647.217a6.951,6.951,0,0,1-6.574,4.735Z" fill="#fff" opacity="0.7"/>
        </g>
      </g>
    </g>
    <g id="Grupo_87562" data-name="Grupo 87562">
      <g id="Grupo_87560" data-name="Grupo 87560">
        <path id="Trazado_114236" data-name="Trazado 114236" d="M1857.446,1829.645a2.693,2.693,0,0,1,2.083-.717c8.181.736,23.444-3.2,33.42-13.412.692-.708,1.955-.308,2.749.286,11.094,8.291,29.484,10.008,35.867,10.359a2.694,2.694,0,0,1,2.529,2.413c5.805,56.072-30.7,76.39-38.275,79.977a2.7,2.7,0,0,1-2.579-.149c-37.738-23.506-36.123-54.075-36.645-76.726A2.7,2.7,0,0,1,1857.446,1829.645Z" fill="url(#linear-gradient-4)"/>
        <path id="Trazado_114237" data-name="Trazado 114237" d="M1894.8,1904.478a.9.9,0,0,1-.484-.141c-14.467-9.248-23.9-20.305-28.827-33.8-4.4-12.054-4.619-24.328-4.809-35.158l-.026-1.444a.894.894,0,0,1,.9-.908h0c8.959,0,22.407-3.956,32.271-12.8a.894.894,0,0,1,1.091-.078c10.837,7.191,26.3,9.285,34.547,9.893a.89.89,0,0,1,.824.814c1.918,21.878-2.633,40.379-13.525,54.988a64.936,64.936,0,0,1-21.553,18.533h0A.881.881,0,0,1,1894.8,1904.478Zm.24-.425.084.164-.084-.164a64.534,64.534,0,0,0,21.425-18.426c10.837-14.534,15.364-32.95,13.454-54.736a.525.525,0,0,0-.485-.48c-8.286-.611-23.816-2.716-34.723-9.953a.526.526,0,0,0-.643.046c-9.936,8.9-23.487,12.888-32.509,12.888h0a.537.537,0,0,0-.388.159.516.516,0,0,0-.149.376l.026,1.444c.189,10.8.4,23.042,4.786,35.038,4.9,13.418,14.283,24.415,28.68,33.618A.531.531,0,0,0,1895.038,1904.053Z" fill="#fff" opacity="0.61"/>
      </g>
      <g id="Grupo_87561" data-name="Grupo 87561">
        <path id="Trazado_114238" data-name="Trazado 114238" d="M1907.99,1850.811h-1.707a1.534,1.534,0,0,1-1.534-1.534v-5.833a3.781,3.781,0,0,0-3.781-3.781h-10.574a3.78,3.78,0,0,0-3.78,3.781v5.833a1.535,1.535,0,0,1-1.535,1.534h-1.706a1.535,1.535,0,0,1-1.535-1.534v-5.833a8.556,8.556,0,0,1,8.556-8.556h10.574a8.557,8.557,0,0,1,8.556,8.556v5.833A1.534,1.534,0,0,1,1907.99,1850.811Z" fill="#fff" opacity="0.61"/>
        <path id="Trazado_114239" data-name="Trazado 114239" d="M1910.1,1852.188h-28.848a3.2,3.2,0,0,0-3.2,3.2v22.139a3.2,3.2,0,0,0,3.2,3.2H1910.1a3.2,3.2,0,0,0,3.2-3.2v-22.139A3.2,3.2,0,0,0,1910.1,1852.188Zm-10.3,21.4a1.186,1.186,0,0,1-1.154,1.462h-5.948a1.186,1.186,0,0,1-1.153-1.463l1.388-5.778a5.347,5.347,0,1,1,5.478,0Z" fill="#fff" opacity="0.61"/>
      </g>
    </g>
    <g id="Grupo_87564" data-name="Grupo 87564">
      <path id="Trazado_114240" data-name="Trazado 114240" d="M1785.1,1844.951s2.337.123,2.623,4.93a27.763,27.763,0,0,1-12.736,6.013c-.549.086.768-3.751.966-4.271C1776.9,1849.15,1779.868,1847.557,1785.1,1844.951Z" fill="url(#linear-gradient-5)"/>
      <path id="Trazado_114241" data-name="Trazado 114241" d="M1811.417,1839.3h-4.93s-15.133-16.713-25.058-18.4c0,0-6.909,8.819.368,25.3a2.4,2.4,0,0,0,3.444,1.135,1.973,1.973,0,0,0,.786-.938l-.585-14.07s12.909,11.29,15.152,13.468S1814.243,1846.643,1811.417,1839.3Z" fill="#7dddf4"/>
      <path id="Trazado_114242" data-name="Trazado 114242" d="M1763.751,1874.388a18.536,18.536,0,0,1,10.11-4.425l1.607.983a17.523,17.523,0,0,1-2.9,3.109,20.242,20.242,0,0,1-6.581,2.646C1763.849,1876.987,1763.533,1875.692,1763.751,1874.388Z" fill="url(#linear-gradient-6)"/>
      <path id="Trazado_114243" data-name="Trazado 114243" d="M1775.957,1851.623c1.273.412,1.833,2.216,5.063,1.023a28.6,28.6,0,0,0,6.643-3.5c.026.232.049.475.064.734,0,0-5.712,5.433-13.031,6.589a.728.728,0,0,1-.786-.981A18.384,18.384,0,0,1,1775.957,1851.623Z" fill="#91f4fa"/>
      <path id="Trazado_114244" data-name="Trazado 114244" d="M1762.194,1875.934a16.871,16.871,0,0,1,1.557-1.546c-.218,1.3.1,2.6,2.239,2.313a20.242,20.242,0,0,0,6.581-2.646,14.232,14.232,0,0,1-9.58,3.677A1.086,1.086,0,0,1,1762.194,1875.934Z" fill="#91f4fa"/>
      <path id="Trazado_114245" data-name="Trazado 114245" d="M1811.237,1842.866l-23.089.25s-13.185,10.909-15.577,27.543c0,0-.4,1.224,1.986,1.433a45.762,45.762,0,0,0,13.17-14.412c6.374-11.286,19-6.206,19-6.206,6.066,1.339,10.894.841,14.428-4.6Z" fill="#7dddf4"/>
      <path id="Trazado_114246" data-name="Trazado 114246" d="M1810.691,1824.267s-2.485,12.456-14.664,17.384l-4.332-.51-1.022,1.63,10.162.323a27.791,27.791,0,0,0,13.288-12.814C1814.275,1829.97,1816.809,1824.737,1810.691,1824.267Z" fill="url(#linear-gradient-7)"/>
      <path id="Trazado_114247" data-name="Trazado 114247" d="M1809.359,1842.662a66.493,66.493,0,0,0,3.434-15.148,32.6,32.6,0,0,0-3.36-2.544.936.936,0,0,1-.365-1.212c.95-1.968,6.7-9.7,7.127-9.805,2.34-.584,11.935-5.146,18.693,4.1,2.9,3.967-.575,16.179-13.733,28.827C1816.921,1847.567,1812.962,1846.347,1809.359,1842.662Z" fill="url(#linear-gradient-8)"/>
      <path id="Trazado_114248" data-name="Trazado 114248" d="M1820.251,1829.2s-7.853,9.3-17.893,10.658c0,0-2.6-2.366-4.524-1.521s-4.575,4.572-4.575,4.572h12.891s12.189-.429,18.28-7.821C1823.94,1832.5,1822.472,1830.954,1820.251,1829.2Z" fill="url(#linear-gradient-9)"/>
      <path id="Trazado_114249" data-name="Trazado 114249" d="M1824.832,1807.432l1.718,5.73a.63.63,0,0,1-.245.7,6.4,6.4,0,0,1-5.955.6.933.933,0,0,1-.6-.8l-.407-4.992Z" fill="url(#linear-gradient-10)"/>
      <g id="Grupo_87563" data-name="Grupo 87563">
        <path id="Trazado_114250" data-name="Trazado 114250" d="M1814.771,1802.791s.844,5.94,3.126,7.767,6.728.451,8.23-4.027l-2.992-7.657Z" fill="url(#linear-gradient-11)"/>
        <path id="Trazado_114251" data-name="Trazado 114251" d="M1823.472,1803.829a.294.294,0,0,1-.382-.236,7.683,7.683,0,0,0-.7-2.373s.218-.779-1.969.4-5.473,2.907-7.408,1.877c-1.886-1-3.8-6.057,1.188-5.121a.3.3,0,0,0,.35-.308,3.033,3.033,0,0,1,1.956-3.355,2.783,2.783,0,0,1,3.211.737.292.292,0,0,0,.457-.007,3.392,3.392,0,0,1,4.184-1.26c1.787.787,2.064,1.887,2.035,2.573a.293.293,0,0,0,.418.28,1.765,1.765,0,0,1,2.27.673c1.165,1.46-.5,2.726-1,3.058a.291.291,0,0,0-.133.243c-.005.759-.123,4.071-1.783,5.939a.3.3,0,0,1-.493-.085l-1.278-3.045a.3.3,0,0,0-.363-.167Z" fill="url(#linear-gradient-12)"/>
        <path id="Trazado_114252" data-name="Trazado 114252" d="M1823.445,1804.447s.78-3.179,1.966-2.147-.309,3.3-1.667,3.737Z" fill="url(#linear-gradient-13)"/>
      </g>
      <path id="Trazado_114253" data-name="Trazado 114253" d="M1793.908,1843.628l-5.788-19.3a1.975,1.975,0,0,0-1.756-1.4l-7.815-.535a1.108,1.108,0,0,0-1.121,1.473l6.47,18.434a1.625,1.625,0,0,0,1.368,1.077l7.7.854Z" fill="url(#linear-gradient-14)"/>
      <path id="Trazado_114254" data-name="Trazado 114254" d="M1783.233,1830.867c.432.872,1.178,1.383,1.667,1.142s.534-1.146.1-2.018-1.179-1.383-1.667-1.141S1782.8,1829.995,1783.233,1830.867Z" fill="#91f4fa"/>
      <path id="Trazado_114255" data-name="Trazado 114255" d="M1792.961,1844.226H1793l16.4-.829a.734.734,0,1,0-.074-1.467l-16.4.828a.735.735,0,0,0,.036,1.469Z" fill="url(#linear-gradient-15)"/>
      <path id="Trazado_114256" data-name="Trazado 114256" d="M1812.793,1827.627a.113.113,0,0,1-.113-.113,35,35,0,0,1,1.334-8.088.113.113,0,0,1,.141-.077.114.114,0,0,1,.077.141,34.782,34.782,0,0,0-1.325,8.023.114.114,0,0,1-.113.114Z" fill="url(#linear-gradient-16)"/>
      <path id="Trazado_114257" data-name="Trazado 114257" d="M1820.25,1829.311a.114.114,0,0,1-.089-.184c.036-.045,3.6-4.576,4.82-7.668a.112.112,0,0,1,.148-.063.114.114,0,0,1,.064.147c-1.233,3.122-4.817,7.679-4.853,7.725A.116.116,0,0,1,1820.25,1829.311Z" fill="url(#linear-gradient-17)"/>
      <path id="Trazado_114258" data-name="Trazado 114258" d="M1825.3,1836.278l-.649-.917a.114.114,0,0,1,.186-.132l.542.767c5.058-2.217,8.188-8.267,8.22-8.329a.114.114,0,1,1,.2.1c-.032.062-3.233,6.251-8.417,8.471Z" fill="url(#linear-gradient-18)"/>
    </g>
  </g>
</svg>
