<svg xmlns="http://www.w3.org/2000/svg" xmlns:xlink="http://www.w3.org/1999/xlink" width="295" height="202.944" viewBox="0 0 295 202.944">
  <defs>
    <linearGradient id="linear-gradient" y1="0.5" x2="1" y2="0.5" gradientUnits="objectBoundingBox">
      <stop offset="0" stop-color="#daf2fe"/>
      <stop offset="1" stop-color="#e9f7fd"/>
    </linearGradient>
    <linearGradient id="linear-gradient-2" x1="0" y1="0.5" y2="0.5" xlink:href="#linear-gradient"/>
    <linearGradient id="linear-gradient-4" x1="2.154" y1="-0.053" x2="-1.621" y2="1.53" gradientUnits="objectBoundingBox">
      <stop offset="0" stop-color="#feca62"/>
      <stop offset="1" stop-color="#ffbb8e"/>
    </linearGradient>
    <linearGradient id="linear-gradient-5" x1="1.188" y1="0.1" x2="-0.718" y2="1.257" xlink:href="#linear-gradient-4"/>
    <linearGradient id="linear-gradient-6" x1="1.904" y1="0.096" x2="-11.506" y2="3.952" xlink:href="#linear-gradient-4"/>
    <linearGradient id="linear-gradient-7" x1="0.883" y1="-0.949" x2="0.743" y2="-0.421" gradientUnits="objectBoundingBox">
      <stop offset="0" stop-color="#000c5d"/>
      <stop offset="1" stop-color="#0f2191"/>
    </linearGradient>
    <linearGradient id="linear-gradient-8" x1="0.259" y1="3.96" x2="-0.068" y2="8.628" gradientUnits="objectBoundingBox">
      <stop offset="0" stop-color="#4067e2"/>
      <stop offset="1" stop-color="#4f7aff"/>
    </linearGradient>
    <linearGradient id="linear-gradient-9" x1="0.605" y1="-30.206" x2="0.547" y2="-12.943" xlink:href="#linear-gradient-8"/>
    <linearGradient id="linear-gradient-10" x1="0.623" y1="-36.542" x2="0.565" y2="-19.278" xlink:href="#linear-gradient-8"/>
    <linearGradient id="linear-gradient-11" x1="0.334" y1="2.862" x2="0.008" y2="7.48" xlink:href="#linear-gradient-8"/>
    <linearGradient id="linear-gradient-12" x1="0.634" y1="-43.58" x2="0.576" y2="-24.284" xlink:href="#linear-gradient-8"/>
    <linearGradient id="linear-gradient-13" x1="0.653" y1="-40.498" x2="0.595" y2="-25.062" xlink:href="#linear-gradient-8"/>
    <linearGradient id="linear-gradient-14" x1="0.409" y1="1.808" x2="0.082" y2="6.477" xlink:href="#linear-gradient-8"/>
    <linearGradient id="linear-gradient-15" x1="0.664" y1="-60.364" x2="0.606" y2="-38.631" xlink:href="#linear-gradient-8"/>
    <linearGradient id="linear-gradient-16" x1="0.683" y1="-65.708" x2="0.625" y2="-44.875" xlink:href="#linear-gradient-8"/>
    <linearGradient id="linear-gradient-17" x1="0.484" y1="0.73" x2="0.157" y2="5.384" xlink:href="#linear-gradient-8"/>
    <linearGradient id="linear-gradient-18" x1="0.694" y1="-59.779" x2="0.636" y2="-41.614" xlink:href="#linear-gradient-8"/>
    <linearGradient id="linear-gradient-19" x1="0.713" y1="-76.001" x2="0.655" y2="-55.285" xlink:href="#linear-gradient-8"/>
    <linearGradient id="linear-gradient-20" x1="0.531" y1="0.127" x2="0.328" y2="1.542" xlink:href="#linear-gradient-8"/>
    <linearGradient id="linear-gradient-21" x1="0.535" y1="1.186" x2="0.488" y2="0.068" gradientUnits="objectBoundingBox">
      <stop offset="0" stop-color="#feca62"/>
      <stop offset="1" stop-color="#ffec8e"/>
    </linearGradient>
    <linearGradient id="linear-gradient-22" x1="0.464" y1="0.304" x2="0.798" y2="2.219" gradientUnits="objectBoundingBox">
      <stop offset="0" stop-color="#e1aa3d"/>
      <stop offset="1" stop-color="#e9b15a"/>
    </linearGradient>
    <linearGradient id="linear-gradient-23" x1="0.465" y1="0.307" x2="0.799" y2="2.221" xlink:href="#linear-gradient-22"/>
    <linearGradient id="linear-gradient-26" x1="0" y1="0.5" y2="0.5" xlink:href="#linear-gradient"/>
    <linearGradient id="linear-gradient-28" x1="0" y1="0.5" y2="0.5" xlink:href="#linear-gradient"/>
    <linearGradient id="linear-gradient-34" x1="0" y1="0.5" y2="0.5" xlink:href="#linear-gradient"/>
    <linearGradient id="linear-gradient-36" x1="0" y1="0.5" y2="0.5" xlink:href="#linear-gradient"/>
    <linearGradient id="linear-gradient-37" x1="0.644" y1="0.03" x2="-0.464" y2="3.648" gradientUnits="objectBoundingBox">
      <stop offset="0" stop-color="#fee362"/>
      <stop offset="1" stop-color="#ffeb8e"/>
    </linearGradient>
    <linearGradient id="linear-gradient-38" x1="0" y1="0.5" x2="1" y2="0.5" xlink:href="#linear-gradient-37"/>
    <linearGradient id="linear-gradient-40" y1="0.5" x2="1" y2="0.5" gradientUnits="objectBoundingBox">
      <stop offset="0" stop-color="#fff29c"/>
      <stop offset="1" stop-color="#fff39b"/>
    </linearGradient>
    <linearGradient id="linear-gradient-41" x1="0" y1="0.5" x2="1" y2="0.5" xlink:href="#linear-gradient-40"/>
    <linearGradient id="linear-gradient-42" y1="0.5" x2="1" y2="0.5" gradientUnits="objectBoundingBox">
      <stop offset="0" stop-color="#ffbb8e"/>
      <stop offset="1" stop-color="#fed8b1"/>
    </linearGradient>
    <linearGradient id="linear-gradient-43" x1="1.403" y1="-3.183" x2="0.782" y2="-0.633" xlink:href="#linear-gradient-7"/>
    <linearGradient id="linear-gradient-44" x1="0.5" y1="-0.433" x2="0.5" y2="-0.031" xlink:href="#linear-gradient-42"/>
    <linearGradient id="linear-gradient-45" x1="0.706" y1="-2.128" x2="0.493" y2="0.651" xlink:href="#linear-gradient-7"/>
    <linearGradient id="linear-gradient-46" x1="1.372" y1="-11.425" x2="0.889" y2="-4.697" xlink:href="#linear-gradient-7"/>
    <linearGradient id="linear-gradient-47" x1="0.769" y1="-1.446" x2="0.62" y2="-0.29" xlink:href="#linear-gradient-7"/>
    <linearGradient id="linear-gradient-48" x1="0.402" y1="-0.563" x2="0.646" y2="2.077" xlink:href="#linear-gradient-42"/>
    <linearGradient id="linear-gradient-49" x1="0.844" y1="-0.212" x2="0.383" y2="0.925" xlink:href="#linear-gradient-42"/>
    <linearGradient id="linear-gradient-50" x1="0" y1="0.5" x2="1" y2="0.5" xlink:href="#linear-gradient-7"/>
    <linearGradient id="linear-gradient-51" x1="1.554" y1="-1.831" x2="-0.125" y2="1.829" xlink:href="#linear-gradient-42"/>
    <linearGradient id="linear-gradient-52" x1="1.041" y1="-2.635" x2="0.668" y2="-0.351" xlink:href="#linear-gradient-42"/>
    <linearGradient id="linear-gradient-54" y1="0.5" x2="1" y2="0.5" gradientUnits="objectBoundingBox">
      <stop offset="0" stop-color="#fe8462"/>
      <stop offset="1" stop-color="#ff8ea5"/>
    </linearGradient>
    <linearGradient id="linear-gradient-55" x1="0" y1="0.5" x2="1" y2="0.5" xlink:href="#linear-gradient-54"/>
    <linearGradient id="linear-gradient-56" x1="3.948" y1="-5.906" x2="-2.808" y2="6.644" gradientUnits="objectBoundingBox">
      <stop offset="0" stop-color="#ff8ea5"/>
      <stop offset="1" stop-color="#feb3b1"/>
    </linearGradient>
    <linearGradient id="linear-gradient-57" x1="207.638" y1="22.248" x2="207.803" y2="-0.445" xlink:href="#linear-gradient-8"/>
    <linearGradient id="linear-gradient-58" x1="213.301" y1="0.5" x2="214.3" y2="0.5" xlink:href="#linear-gradient-7"/>
    <linearGradient id="linear-gradient-59" x1="735.725" y1="0.5" x2="736.725" y2="0.5" xlink:href="#linear-gradient-42"/>
    <linearGradient id="linear-gradient-60" x1="540.99" y1="14.456" x2="541.422" y2="-1.232" xlink:href="#linear-gradient-8"/>
    <linearGradient id="linear-gradient-61" x1="368.544" y1="0.5" x2="369.544" y2="0.5" xlink:href="#linear-gradient-7"/>
    <linearGradient id="linear-gradient-62" x1="615.878" y1="0.5" x2="616.878" y2="0.5" xlink:href="#linear-gradient-42"/>
    <linearGradient id="linear-gradient-63" x1="0.668" y1="0.497" x2="1.312" y2="-0.545" xlink:href="#linear-gradient-8"/>
    <linearGradient id="linear-gradient-64" x1="90.961" y1="4.647" x2="89.273" y2="5.761" gradientUnits="objectBoundingBox">
      <stop offset="0" stop-color="#fe9462"/>
      <stop offset="1" stop-color="#ff908e"/>
    </linearGradient>
    <linearGradient id="linear-gradient-65" x1="0.938" y1="-3.294" x2="0.703" y2="-1.255" xlink:href="#linear-gradient-7"/>
    <linearGradient id="linear-gradient-66" x1="414.675" y1="0.1" x2="412.286" y2="1.142" xlink:href="#linear-gradient-42"/>
    <linearGradient id="linear-gradient-67" x1="200.642" y1="7.703" x2="196.918" y2="9.64" xlink:href="#linear-gradient-64"/>
    <linearGradient id="linear-gradient-68" x1="267.29" y1="9.503" x2="262.302" y2="11.777" xlink:href="#linear-gradient-64"/>
    <linearGradient id="linear-gradient-69" x1="219.66" y1="0.5" x2="220.66" y2="0.5" xlink:href="#linear-gradient-42"/>
    <linearGradient id="linear-gradient-70" x1="0.723" y1="0.245" x2="-0.34" y2="1.867" xlink:href="#linear-gradient-42"/>
    <linearGradient id="linear-gradient-71" x1="41.945" y1="0.5" x2="42.945" y2="0.5" xlink:href="#linear-gradient-7"/>
    <linearGradient id="linear-gradient-72" x1="41.067" y1="0.5" x2="42.067" y2="0.5" xlink:href="#linear-gradient-7"/>
    <linearGradient id="linear-gradient-73" x1="293.981" y1="-1.222" x2="292.288" y2="3.818" xlink:href="#linear-gradient-42"/>
    <linearGradient id="linear-gradient-74" x1="613.329" y1="0.5" x2="614.329" y2="0.5" xlink:href="#linear-gradient-42"/>
    <linearGradient id="linear-gradient-75" x1="0.821" y1="0.35" x2="-0.291" y2="1.106" xlink:href="#linear-gradient-42"/>
    <linearGradient id="linear-gradient-76" x1="0.281" y1="0.154" x2="1.01" y2="1.105" xlink:href="#linear-gradient-7"/>
    <linearGradient id="linear-gradient-77" x1="2.74" y1="-0.685" x2="-1.811" y2="1.784" xlink:href="#linear-gradient-42"/>
    <linearGradient id="linear-gradient-80" x1="0" y1="0.5" y2="0.5" xlink:href="#linear-gradient"/>
    <linearGradient id="linear-gradient-82" x1="0" y1="0.5" y2="0.5" xlink:href="#linear-gradient"/>
    <linearGradient id="linear-gradient-83" x1="-0.001" y1="0.5" x2="1.001" y2="0.5" xlink:href="#linear-gradient"/>
    <linearGradient id="linear-gradient-85" x1="0" y1="0.5" y2="0.5" xlink:href="#linear-gradient"/>
  </defs>
  <g id="Grupo_55033" data-name="Grupo 55033" transform="translate(-1086.685 -724.76)">
    <path id="Trazado_113212" data-name="Trazado 113212" d="M1162.2,922.654s-26.187-3.336-38.621-.732-43.236-11.527-33.028-33.71,21.767-35.928,8.412-48.058-17.554-35.23-3.785-48.213,17.914.375,28.884-4.406-2.96-29.72,28.031-36.768,55.07,14.248,69.161,11.843,35.755-17.15,50.961-16.529,13.319,22.326,33.5,21.061,36.017-3.451,49.087,15.026,9.928,41.914-2.534,51.176-10.031,21.716,12.947,22.43,20.389,26.547,1.639,45.618-34.834,19.282-53.563,20.531S1162.2,922.654,1162.2,922.654Z" transform="translate(0 0.314)" fill="url(#linear-gradient)"/>
    <g id="Grupo_84418" data-name="Grupo 84418" transform="translate(1159.042 737.919)">
      <path id="Trazado_113213" data-name="Trazado 113213" d="M1163.031,861.083,1158,742.976a5.032,5.032,0,0,1,5.191-5.245c17.494.568,72.4,2.345,91.04,2.888a5.118,5.118,0,0,1,4.968,5.006c.438,20.354,2.22,98.058,4.05,109.3Z" transform="translate(-1157.992 -737.728)" fill="#7dc4f4"/>
      <path id="Trazado_113214" data-name="Trazado 113214" d="M1167,855.763l-4.35-105.393a2.922,2.922,0,0,1,3-3.043c13.7.4,68.415,2.045,85.628,3.571a2.879,2.879,0,0,1,2.618,2.719l5.017,96.437Z" transform="translate(-1157.924 -737.587)" fill="#91defa"/>
      <g id="Grupo_84417" data-name="Grupo 84417" transform="translate(10.859 18.634)" opacity="0.38">
        <path id="Trazado_113215" data-name="Trazado 113215" d="M1173.9,766.289l-3.12-.048a1.148,1.148,0,0,0-1.15,1.342l.2,1.156a1.147,1.147,0,0,0,1.125.955l2.968.016a1.149,1.149,0,0,0,1.154-1.2l-.046-1.123A1.149,1.149,0,0,0,1173.9,766.289Z" transform="translate(-1168.68 -755.943)" fill="#fff"/>
        <path id="Trazado_113216" data-name="Trazado 113216" d="M1174.23,774.935l-2.048-.023a1.15,1.15,0,0,0-1.154,1.281l.122,1.047a1.148,1.148,0,0,0,1.13,1.017l1.968.017a1.148,1.148,0,0,0,1.158-1.194l-.042-1.042A1.148,1.148,0,0,0,1174.23,774.935Z" transform="translate(-1168.659 -755.815)" fill="#fff"/>
        <path id="Trazado_113217" data-name="Trazado 113217" d="M1173.527,756.217l-3.647-.124a1.147,1.147,0,0,0-1.177,1.295l.217,1.679a1.147,1.147,0,0,0,1.125,1l3.493.042a1.148,1.148,0,0,0,1.161-1.194l-.064-1.6A1.148,1.148,0,0,0,1173.527,756.217Z" transform="translate(-1168.693 -756.092)" fill="#fff"/>
        <path id="Trazado_113218" data-name="Trazado 113218" d="M1179.969,778.324l65.393.579a1.148,1.148,0,0,0,1.159-1.149v-.872a1.149,1.149,0,0,0-1.136-1.149L1179.951,775a1.147,1.147,0,0,0-1.16,1.194l.041,1.028A1.15,1.15,0,0,0,1179.969,778.324Z" transform="translate(-1168.545 -755.814)" fill="#fff"/>
        <path id="Trazado_113219" data-name="Trazado 113219" d="M1178.043,757.6l.059,1.467a1.148,1.148,0,0,0,1.135,1.1l66.134.784a1.148,1.148,0,0,0,1.162-1.148h0a1.148,1.148,0,0,0-1.109-1.148l-66.193-2.252A1.148,1.148,0,0,0,1178.043,757.6Z" transform="translate(-1168.556 -756.088)" fill="#fff"/>
        <path id="Trazado_113220" data-name="Trazado 113220" d="M1179.628,769.738l65.744.343a1.149,1.149,0,0,0,1.154-1.149v-.383a1.149,1.149,0,0,0-1.13-1.149l-65.787-1.022a1.148,1.148,0,0,0-1.165,1.194l.042,1.062A1.149,1.149,0,0,0,1179.628,769.738Z" transform="translate(-1168.55 -755.941)" fill="#fff"/>
      </g>
    </g>
    <g id="Grupo_84419" data-name="Grupo 84419" transform="translate(1096.828 724.76)">
      <path id="Trazado_113221" data-name="Trazado 113221" d="M1146.253,920.917a.71.71,0,0,0,.7-.827c-.729-4.317-5.005-24.053-22.223-24.21-15.254-.139-24.511,7.482-27.737,10.7a1.063,1.063,0,0,0,.465,1.778,13.874,13.874,0,0,1,7.775,5.2c3.355,4.87,12.05,4.1,17.468-2.589,5.367-6.63,18.738-10.6,22.853,9.378a.716.716,0,0,0,.7.572Z" transform="translate(-1096.681 -722.241)" fill="#bde9fb"/>
      <path id="Trazado_113222" data-name="Trazado 113222" d="M1111.431,824.5a.851.851,0,0,0-1.594.135c-1.869,6.951-5.728,27.7,11.327,37.516,20.667,11.9,21.165,6.516,23.742,27.465,2.218,18.031,2.975,28.995,3.143,31.7a.7.7,0,0,0,.7.659h0a.7.7,0,0,0,.7-.727c-.195-5.676-1.615-43.191-5.672-61.54C1136.568,827.073,1119.67,842.612,1111.431,824.5Z" transform="translate(-1096.513 -723.299)" fill="#91defa"/>
      <path id="Trazado_113223" data-name="Trazado 113223" d="M1124.227,773.617a.659.659,0,0,0-1.3.02c-.549,3.7-1.6,8.432-3.558,11.518-3.64,5.728-10.252,26.586,7.9,36.985s22.619,15.9,22.484,35.871c-.124,18.251.975,57.2,1.165,63.765a.977.977,0,0,0,.979.949h0a.979.979,0,0,0,.98-.975c.024-8.542.144-70.629-1.413-85.673C1149,812.238,1128.9,800.026,1124.227,773.617Z" transform="translate(-1096.409 -724.049)" fill="#bde9fb"/>
      <path id="Trazado_113224" data-name="Trazado 113224" d="M1184.53,725.566a.844.844,0,0,0-1.58-.372c-2.015,3.57-6.552,9.659-15.631,14.067-13.617,6.611-38.057,20.283-23.484,50.155,15.151,31.055,9.773,52.746,10.817,63.606.967,10.057,1.985,61.875,2.13,69.483a.952.952,0,0,0,.954.932h0a.953.953,0,0,0,.953-.977c-.211-8.392-1.71-68.221-1.737-77.8-.03-10.3-2.578-45.569,6.632-58.429C1172.495,773.789,1185.947,757.827,1184.53,725.566Z" transform="translate(-1096.053 -724.76)" fill="#bde9fb"/>
      <path id="Trazado_113225" data-name="Trazado 113225" d="M1124.21,789.077l-.016.043-.042.125c-.038.112-.091.28-.15.5a14.546,14.546,0,0,0-.383,1.962,16.743,16.743,0,0,0-.1,3.1c.013.3.049.607.079.923l.066.481c.019.162.048.326.079.491a16.1,16.1,0,0,0,.5,2.055l.17.532.2.535c.062.181.14.358.216.539s.146.364.235.542l.259.543c.085.184.189.359.284.541.186.366.412.719.627,1.082a20.807,20.807,0,0,0,1.525,2.109c.559.694,1.182,1.35,1.838,2.019,1.308,1.308,2.761,2.58,4.257,3.847s3.03,2.552,4.494,3.92c.737.679,1.444,1.391,2.137,2.112s1.346,1.474,1.957,2.253a31.884,31.884,0,0,1,3.195,4.841,34.524,34.524,0,0,1,2.163,4.97l.207.608c.068.2.139.4.2.6l.348,1.185c.061.194.108.389.156.582l.143.574c.09.379.195.749.264,1.118l.224,1.08c.034.177.075.35.1.523l.085.512c.11.675.231,1.313.3,1.919s.161,1.169.213,1.694l.139,1.442c.048.435.068.825.09,1.164l.055.861.047.717a.142.142,0,0,1-.283.02v-.005l-.053-.713-.065-.856c-.025-.338-.05-.726-.1-1.158l-.154-1.434c-.058-.521-.149-1.081-.23-1.681s-.2-1.234-.319-1.9l-.091-.508c-.031-.172-.072-.343-.108-.517l-.233-1.069c-.072-.365-.18-.731-.274-1.106l-.146-.567c-.048-.192-.1-.385-.158-.575l-.352-1.172c-.056-.2-.128-.395-.2-.594l-.208-.6a34.133,34.133,0,0,0-2.165-4.893,31.655,31.655,0,0,0-3.175-4.75c-.6-.765-1.263-1.495-1.935-2.218s-1.386-1.412-2.118-2.082c-1.454-1.354-2.985-2.626-4.486-3.9s-2.964-2.538-4.3-3.873a23.742,23.742,0,0,1-3.419-4.224c-.219-.374-.448-.737-.638-1.113-.1-.188-.2-.369-.29-.558l-.264-.559a16.943,16.943,0,0,1-.825-2.216,16.636,16.636,0,0,1-.485-2.12c-.029-.17-.057-.339-.075-.506s-.042-.331-.06-.493c-.027-.327-.059-.642-.068-.951s-.017-.6-.021-.893.009-.564.031-.83c.029-.532.088-1.017.151-1.454a14.015,14.015,0,0,1,.441-2c.069-.227.129-.4.171-.515l.05-.133.018-.044a.15.15,0,0,1,.281.107Z" transform="translate(-1096.292 -723.817)" fill="#fff" opacity="0.47"/>
      <path id="Trazado_113226" data-name="Trazado 113226" d="M1111.667,828.244a5.629,5.629,0,0,0,.1.648,12.753,12.753,0,0,0,.505,1.792c.137.378.3.79.507,1.228.108.217.211.447.337.675l.187.352.2.358a16.659,16.659,0,0,0,.976,1.485c.179.256.386.5.587.762l.323.38.164.193.174.189.353.382.375.375c.124.129.254.254.389.376l.4.375.424.366.214.186.224.178.452.361.472.348c.314.238.649.456.981.685.165.117.342.218.515.33s.345.22.524.325l.541.313.273.157.279.148,1.14.6a52.046,52.046,0,0,1,4.647,2.71,42.23,42.23,0,0,1,4.433,3.355,35.839,35.839,0,0,1,3.891,3.976,32.816,32.816,0,0,1,3.1,4.406,35.161,35.161,0,0,1,2.236,4.51,40.281,40.281,0,0,1,1.466,4.261c.179.674.359,1.318.492,1.94.07.31.145.61.2.905l.168.859c.117.555.192,1.08.272,1.563s.141.928.192,1.331.1.762.132,1.077l.077.8.065.664a.1.1,0,0,1-.193.021v0l-.079-.66-.093-.793c-.034-.312-.1-.668-.153-1.068l-.093-.631c-.03-.221-.078-.451-.119-.691-.087-.479-.17-1-.3-1.548l-.181-.852c-.064-.291-.143-.588-.217-.895-.142-.616-.33-1.252-.517-1.918a43.153,43.153,0,0,0-1.5-4.2,34.155,34.155,0,0,0-9.19-12.663,41.657,41.657,0,0,0-4.388-3.3,51.245,51.245,0,0,0-4.608-2.67l-.289-.149-.285-.15-.572-.305-.284-.152-.277-.161-.55-.321c-.182-.108-.356-.223-.533-.334s-.355-.218-.524-.338c-.338-.236-.681-.458-1-.706l-.478-.361-.458-.375-.226-.185-.217-.192-.429-.38a19.775,19.775,0,0,1-1.527-1.572l-.173-.2-.163-.2-.322-.4c-.2-.271-.4-.528-.583-.795a16.842,16.842,0,0,1-.964-1.54,14.974,14.974,0,0,1-1.173-2.706,11.8,11.8,0,0,1-.442-1.847,5.787,5.787,0,0,1-.071-.672v0a.083.083,0,0,1,.165-.008Z" transform="translate(-1096.463 -723.238)" fill="#fff" opacity="0.47"/>
      <path id="Trazado_113227" data-name="Trazado 113227" d="M1104.069,904.425s.113-.09.326-.251.532-.392.947-.669.924-.609,1.52-.967,1.284-.738,2.046-1.128,1.6-.793,2.507-1.171,1.877-.747,2.9-1.068a31.178,31.178,0,0,1,3.2-.837,29.8,29.8,0,0,1,3.384-.485,26.091,26.091,0,0,1,3.421-.06,22.08,22.08,0,0,1,3.291.4,23.212,23.212,0,0,1,2.993.8,22.086,22.086,0,0,1,2.563,1.058c.389.183.746.386,1.092.568l.494.286c.16.092.316.184.462.279.294.186.571.356.818.53s.479.323.678.474.38.281.535.4l.386.307.321.256a.085.085,0,0,1-.1.135l0,0-.329-.24-.394-.289c-.158-.109-.34-.234-.545-.374s-.434-.289-.685-.45-.528-.326-.824-.5c-.147-.089-.3-.175-.464-.262l-.5-.269c-.346-.169-.7-.359-1.093-.528a21.862,21.862,0,0,0-2.539-.994,22.734,22.734,0,0,0-2.95-.735,24.974,24.974,0,0,0-6.583-.276,29.019,29.019,0,0,0-3.321.5c-1.084.232-2.144.5-3.152.817s-1.975.655-2.874,1.019-1.743.726-2.507,1.093-1.455.725-2.06,1.054-1.127.63-1.551.886-.751.467-.973.611-.337.226-.337.226a.086.086,0,0,1-.1-.137Z" transform="translate(-1096.573 -722.214)" fill="#fff" opacity="0.47"/>
      <path id="Trazado_113228" data-name="Trazado 113228" d="M1179.122,734.518l-.136.178c-.09.117-.225.289-.4.51s-.4.5-.666.813-.573.679-.926,1.078l-.556.631-.619.684c-.427.479-.907.98-1.417,1.519-1.034,1.063-2.209,2.258-3.552,3.495-.662.63-1.378,1.257-2.113,1.914-.371.324-.755.644-1.142.975l-.585.5c-.2.168-.4.328-.6.493l-1.239,1c-.423.331-.859.656-1.3.989l-.66.5c-.222.167-.453.327-.68.491l-1.381.989-.7.493c-.235.164-.471.331-.7.5l-.691.515-.682.539-.343.271-.334.282c-.222.19-.449.375-.67.57-.434.395-.878.784-1.295,1.2s-.829.847-1.24,1.28c-.2.222-.39.45-.585.676-.1.113-.2.224-.291.34l-.277.353a24.072,24.072,0,0,0-2.026,2.966l-.441.783-.4.806-.2.4-.178.413-.353.825-.31.841-.153.42-.132.427-.262.852c-.077.286-.146.575-.218.862a32.556,32.556,0,0,0-.909,6.891,45.981,45.981,0,0,0,.3,6.521l.084.77c.026.255.07.506.1.756l.214,1.478.254,1.421.122.692c.043.227.092.452.138.675.185.89.353,1.744.554,2.549s.367,1.573.565,2.285l.276,1.036c.088.334.171.657.265.962q.27.922.493,1.688c.143.511.29.962.414,1.356l.314,1,.262.833h0a.068.068,0,0,1-.129.042l-.281-.827-.338-.992c-.132-.392-.29-.84-.445-1.349l-.523-1.682c-.1-.305-.188-.627-.282-.96l-.294-1.035c-.21-.71-.4-1.476-.6-2.282s-.4-1.659-.6-2.55c-.049-.222-.1-.448-.15-.675l-.133-.693-.271-1.427-.231-1.484c-.037-.252-.083-.5-.113-.76l-.094-.775a46.5,46.5,0,0,1-.372-6.582,32.091,32.091,0,0,1,.861-7.012c.073-.293.143-.588.22-.881l.265-.872.133-.436.155-.43.313-.861.359-.846.181-.423.2-.413c.136-.275.269-.552.408-.826l.45-.8a24.672,24.672,0,0,1,2.064-3.044l.282-.362c.1-.119.2-.232.3-.349.2-.23.4-.465.6-.692.417-.442.823-.894,1.26-1.31s.874-.828,1.315-1.232c.222-.2.453-.388.678-.581l.34-.288.346-.277.691-.549.7-.528c.232-.178.468-.344.7-.51l.7-.5,1.375-.977c.227-.162.455-.32.676-.484l.657-.5c.435-.33.87-.651,1.292-.978l1.239-.981c.2-.162.409-.319.606-.483l.588-.488c.388-.325.774-.638,1.146-.957.736-.646,1.463-1.252,2.131-1.867.337-.305.67-.6.989-.9l.93-.871c.305-.28.593-.561.876-.834s.558-.536.82-.8c1.047-1.042,1.955-1.957,2.678-2.734s1.283-1.4,1.661-1.819.572-.659.572-.659a.067.067,0,0,1,.1.084Z" transform="translate(-1095.937 -724.618)" fill="#fff" opacity="0.33"/>
    </g>
    <g id="Grupo_84427" data-name="Grupo 84427" transform="translate(1091.063 860.912)">
      <g id="Grupo_84423" data-name="Grupo 84423" transform="translate(0)">
        <g id="Grupo_84422" data-name="Grupo 84422">
          <g id="Grupo_84420" data-name="Grupo 84420">
            <path id="Trazado_113229" data-name="Trazado 113229" d="M1125.029,873.915a.267.267,0,0,0-.181-.251l-3.062-1.033a14.065,14.065,0,0,0-1.771-4.2l1.4-2.912a.264.264,0,0,0-.054-.3l-2.758-2.723a.267.267,0,0,0-.3-.049l-2.893,1.434a14.027,14.027,0,0,0-4.224-1.716l-1.073-3.047a.264.264,0,0,0-.252-.177l-3.875.025a.264.264,0,0,0-.25.181l-1.033,3.061a14.057,14.057,0,0,0-4.2,1.771l-2.913-1.394a.263.263,0,0,0-.3.053l-2.722,2.758a.266.266,0,0,0-.05.3l1.434,2.893a14.056,14.056,0,0,0-1.716,4.224l-3.047,1.074a.265.265,0,0,0-.177.252l.025,3.875a.268.268,0,0,0,.181.251l3.061,1.033a14.09,14.09,0,0,0,1.771,4.2l-1.394,2.912a.265.265,0,0,0,.052.3l2.758,2.723a.267.267,0,0,0,.3.049l2.893-1.434a14.057,14.057,0,0,0,4.224,1.716l1.074,3.047a.264.264,0,0,0,.252.178l3.875-.025a.266.266,0,0,0,.25-.181l1.033-3.062a14.056,14.056,0,0,0,4.2-1.771l2.912,1.394a.262.262,0,0,0,.3-.053l2.723-2.758a.265.265,0,0,0,.049-.3l-1.433-2.893a14.073,14.073,0,0,0,1.715-4.224l3.047-1.073a.265.265,0,0,0,.178-.252Z" transform="translate(-1090.999 -858.937)" fill="#91defa"/>
          </g>
          <g id="Grupo_84421" data-name="Grupo 84421" transform="translate(13.385 13.382)">
            <path id="Trazado_113230" data-name="Trazado 113230" d="M1107.827,879.413a3.643,3.643,0,1,1,1.852-6.782h0a3.642,3.642,0,0,1-1.852,6.782Zm.011-6.883a3.269,3.269,0,0,0-.819.106,3.238,3.238,0,1,0,2.456.343h0A3.224,3.224,0,0,0,1107.838,872.53Z" transform="translate(-1104.19 -872.125)" fill="#bde9fb"/>
          </g>
          <path id="Trazado_113231" data-name="Trazado 113231" d="M1107.836,885.412a9.551,9.551,0,0,1-.062-19.1h.065a9.492,9.492,0,0,1,6.708,2.754,9.636,9.636,0,0,1,1.288,1.574l-.338.221a9.227,9.227,0,0,0-1.235-1.507,9.146,9.146,0,1,0,2.462,8.683l.394.1a9.548,9.548,0,0,1-9.283,7.281Z" transform="translate(-1090.892 -858.828)" fill="#bde9fb"/>
        </g>
      </g>
      <g id="Grupo_84426" data-name="Grupo 84426" transform="translate(35.45 20.712)">
        <g id="Grupo_84425" data-name="Grupo 84425">
          <g id="Grupo_84424" data-name="Grupo 84424">
            <path id="Trazado_113232" data-name="Trazado 113232" d="M1145.187,887.821a.148.148,0,0,0-.1-.141l-1.732-.584a7.945,7.945,0,0,0-1-2.377l.788-1.648a.149.149,0,0,0-.029-.172l-1.561-1.54a.152.152,0,0,0-.172-.027l-1.637.811a7.956,7.956,0,0,0-2.39-.971l-.608-1.724a.149.149,0,0,0-.142-.1l-2.193.014a.149.149,0,0,0-.141.1l-.584,1.731a7.942,7.942,0,0,0-2.378,1l-1.647-.789a.15.15,0,0,0-.171.03l-1.54,1.56a.152.152,0,0,0-.027.173l.811,1.637a7.969,7.969,0,0,0-.971,2.39l-1.724.608a.151.151,0,0,0-.1.142l.015,2.193a.149.149,0,0,0,.1.141l1.732.584a7.944,7.944,0,0,0,1,2.378L1128,894.89a.152.152,0,0,0,.029.173l1.561,1.539a.15.15,0,0,0,.172.028l1.637-.812a7.935,7.935,0,0,0,2.39.971l.608,1.724a.149.149,0,0,0,.142.1l2.193-.014a.151.151,0,0,0,.141-.1l.584-1.732a7.97,7.97,0,0,0,2.378-1l1.647.788a.148.148,0,0,0,.172-.029l1.54-1.561a.151.151,0,0,0,.027-.172l-.811-1.637a7.96,7.96,0,0,0,.971-2.39l1.724-.607a.152.152,0,0,0,.1-.143Z" transform="translate(-1125.935 -879.348)" fill="#bde9fb"/>
          </g>
          <path id="Trazado_113233" data-name="Trazado 113233" d="M1135.456,891.021a2.149,2.149,0,1,1,1.093-4h0a2.148,2.148,0,0,1,.764,2.942A2.155,2.155,0,0,1,1135.456,891.021Zm.007-3.895a1.77,1.77,0,0,0-.441.057,1.745,1.745,0,1,0,1.322.185h0A1.734,1.734,0,0,0,1135.463,887.127Z" transform="translate(-1125.827 -879.24)" fill="url(#linear-gradient-2)"/>
          <path id="Trazado_113234" data-name="Trazado 113234" d="M1135.463,894.414a5.486,5.486,0,0,1-5.492-5.453v-.036a5.492,5.492,0,0,1,5.456-5.492h.036a5.454,5.454,0,0,1,3.857,1.583h0l.026.025a5.535,5.535,0,0,1,.666.8l.008.012.007.011,0,0,.031.048-.339.221a5.209,5.209,0,0,0-.686-.838h0l-.089-.085a5.04,5.04,0,0,0-3.512-1.381h-.007a5.087,5.087,0,0,0-5.054,5.088v.034a5.089,5.089,0,0,0,10.031,1.175l.393.1a5.488,5.488,0,0,1-5.336,4.186Z" transform="translate(-1125.876 -879.288)" fill="url(#linear-gradient)"/>
        </g>
      </g>
    </g>
    <g id="Grupo_84430" data-name="Grupo 84430" transform="translate(1211.521 760.114)">
      <path id="Trazado_113235" data-name="Trazado 113235" d="M1302.886,913.573l25.1-143.133a4.727,4.727,0,0,0-4.384-5.371c-16.413-1.036-67.923-4.294-85.406-5.457a4.81,4.81,0,0,0-5.095,4.238c-2.234,19-20.668,124.633-23.386,134.984Z" transform="translate(-1209.71 -759.601)" fill="#bde9fb"/>
      <path id="Trazado_113236" data-name="Trazado 113236" d="M1299.512,908.222l23.316-131.3a2.744,2.744,0,0,0-2.536-3.114c-12.847-.858-64.171-4.219-80.406-4.334a2.705,2.705,0,0,0-2.692,2.308l-23.139,122.867Z" transform="translate(-1209.646 -759.456)" fill="#91defa"/>
      <g id="Grupo_84428" data-name="Grupo 84428" transform="translate(28.557 14.078)" opacity="0.4">
        <path id="Trazado_113237" data-name="Trazado 113237" d="M1243.12,782.877l-2.924-.208a1.079,1.079,0,0,0-1.149,1.2l.125,1.095a1.08,1.08,0,0,0,1.007.955l2.783.168a1.078,1.078,0,0,0,1.144-1.06l.016-1.055A1.078,1.078,0,0,0,1243.12,782.877Z" transform="translate(-1237.836 -773.34)" fill="#fff"/>
        <path id="Trazado_113238" data-name="Trazado 113238" d="M1240.923,791.393l-1.919-.129a1.08,1.08,0,0,0-1.15,1.142l.06.988a1.079,1.079,0,0,0,1.008,1.013l1.845.119a1.079,1.079,0,0,0,1.148-1.06l.015-.979A1.077,1.077,0,0,0,1240.923,791.393Z" transform="translate(-1237.853 -773.214)" fill="#fff"/>
        <path id="Trazado_113239" data-name="Trazado 113239" d="M1246.535,773.786l-3.413-.307a1.079,1.079,0,0,0-1.173,1.154l.117,1.586a1.078,1.078,0,0,0,1,1l3.275.221a1.079,1.079,0,0,0,1.152-1.06l.022-1.5A1.078,1.078,0,0,0,1246.535,773.786Z" transform="translate(-1237.793 -773.475)" fill="#fff"/>
        <path id="Trazado_113240" data-name="Trazado 113240" d="M1246.131,794.87l61.316,3.95a1.078,1.078,0,0,0,1.147-1.017l.046-.818a1.078,1.078,0,0,0-1.006-1.137l-61.346-4.1a1.079,1.079,0,0,0-1.151,1.06l-.015.966A1.079,1.079,0,0,0,1246.131,794.87Z" transform="translate(-1237.746 -773.207)" fill="#fff"/>
        <path id="Trazado_113241" data-name="Trazado 113241" d="M1250.7,775.323l-.02,1.379a1.079,1.079,0,0,0,1.006,1.094l62,4.181a1.079,1.079,0,0,0,1.15-1.017h0a1.079,1.079,0,0,0-.981-1.134l-61.978-5.561A1.08,1.08,0,0,0,1250.7,775.323Z" transform="translate(-1237.664 -773.464)" fill="#fff"/>
        <path id="Trazado_113242" data-name="Trazado 113242" d="M1248.311,786.41l61.657,3.746a1.079,1.079,0,0,0,1.143-1.017l.02-.36a1.08,1.08,0,0,0-1-1.136l-61.662-4.386a1.079,1.079,0,0,0-1.155,1.06l-.015,1A1.078,1.078,0,0,0,1248.311,786.41Z" transform="translate(-1237.714 -773.332)" fill="#fff"/>
      </g>
      <g id="Grupo_84429" data-name="Grupo 84429" transform="translate(23.126 49.872)" opacity="0.4">
        <path id="Trazado_113243" data-name="Trazado 113243" d="M1237.766,818.151l-2.923-.208a1.079,1.079,0,0,0-1.149,1.2l.125,1.095a1.078,1.078,0,0,0,1.007.955l2.782.17a1.078,1.078,0,0,0,1.145-1.06l.016-1.056A1.079,1.079,0,0,0,1237.766,818.151Z" transform="translate(-1232.483 -808.614)" fill="#fff"/>
        <path id="Trazado_113244" data-name="Trazado 113244" d="M1235.57,826.667l-1.919-.128a1.079,1.079,0,0,0-1.149,1.141l.059.989a1.079,1.079,0,0,0,1.008,1.012l1.845.119a1.079,1.079,0,0,0,1.149-1.06l.015-.979A1.08,1.08,0,0,0,1235.57,826.667Z" transform="translate(-1232.5 -808.488)" fill="#fff"/>
        <path id="Trazado_113245" data-name="Trazado 113245" d="M1241.182,809.061l-3.414-.307a1.079,1.079,0,0,0-1.172,1.154l.117,1.587a1.08,1.08,0,0,0,1,1l3.275.22a1.079,1.079,0,0,0,1.152-1.059l.022-1.5A1.079,1.079,0,0,0,1241.182,809.061Z" transform="translate(-1232.44 -808.75)" fill="#fff"/>
        <path id="Trazado_113246" data-name="Trazado 113246" d="M1240.778,830.145l61.316,3.949a1.079,1.079,0,0,0,1.147-1.017l.046-.818a1.08,1.08,0,0,0-1.006-1.137l-61.346-4.1a1.079,1.079,0,0,0-1.151,1.06l-.015.966A1.08,1.08,0,0,0,1240.778,830.145Z" transform="translate(-1232.393 -808.481)" fill="#fff"/>
        <path id="Trazado_113247" data-name="Trazado 113247" d="M1245.346,810.6l-.021,1.38a1.079,1.079,0,0,0,1.007,1.093l62,4.181a1.079,1.079,0,0,0,1.15-1.017h0a1.079,1.079,0,0,0-.981-1.135l-61.979-5.56A1.078,1.078,0,0,0,1245.346,810.6Z" transform="translate(-1232.311 -808.738)" fill="#fff"/>
        <path id="Trazado_113248" data-name="Trazado 113248" d="M1242.958,821.684l61.656,3.746a1.079,1.079,0,0,0,1.144-1.017l.019-.36a1.079,1.079,0,0,0-1-1.135l-61.661-4.387a1.08,1.08,0,0,0-1.156,1.06l-.015,1A1.079,1.079,0,0,0,1242.958,821.684Z" transform="translate(-1232.361 -808.606)" fill="#fff"/>
      </g>
    </g>
    <g id="Grupo_84431" data-name="Grupo 84431" transform="translate(1304.498 757.571)">
      <path id="Trazado_113249" data-name="Trazado 113249" d="M1356.858,775a.442.442,0,0,1-.432-.434c-.045-2.434-.8-14.524-11.45-17.049-11.852-2.813-17.276,9.241-17.276,9.241s-14.665-5.625-17.477,9.441c-9.2,2.207-11.584,14.215-5.6,20.083a5.14,5.14,0,0,0,3.554,1.471l57.585.518a3.791,3.791,0,0,0,3.669-2.711C1371.227,789.493,1373.584,775.4,1356.858,775Z" transform="translate(-1301.338 -757.095)" fill="#7dc4f4"/>
      <path id="Trazado_113250" data-name="Trazado 113250" d="M1355.517,775.242a.444.444,0,0,1-.432-.434c-.047-2.335-.8-13.544-10.826-15.894-11.207-2.626-16.336,8.629-16.336,8.629s-13.866-5.252-16.526,8.817c-8.611,2.042-10.909,13.06-5.459,18.6a5.144,5.144,0,0,0,3.619,1.533l54.209.483a3.792,3.792,0,0,0,3.671-2.722C1369.127,788.485,1371.134,775.615,1355.517,775.242Z" transform="translate(-1301.314 -757.074)" fill="#91defa"/>
    </g>
    <g id="Grupo_84432" data-name="Grupo 84432" transform="translate(1331.455 865.133)">
      <path id="Trazado_113251" data-name="Trazado 113251" d="M1329.709,917.5a1.081,1.081,0,0,1-.871-.838c-.815-3.824-3.914-22.156,8.633-33.4,13.085-11.726,22.642-12.5,25.2-19.845a.467.467,0,0,1,.9.043c1.462,6.582,5.075,29.328-12.328,38.1-17.267,8.7-19.984,12.694-20.273,15.029a1.075,1.075,0,0,1-1.259.915Z" transform="translate(-1327.904 -863.096)" fill="#91defa"/>
      <path id="Trazado_113252" data-name="Trazado 113252" d="M1361.636,869.507s-.057.226-.191.636-.343,1.008-.661,1.748a27.005,27.005,0,0,1-1.292,2.6,25.738,25.738,0,0,1-2.094,3.145,24.688,24.688,0,0,1-3.053,3.276l-.452.4c-.152.133-.314.257-.472.386s-.316.263-.483.384l-.5.371c-.085.062-.168.126-.255.187l-.262.177-.53.356c-.178.117-.364.225-.549.338s-.366.229-.559.332l-.576.313-.289.157-.3.144-.6.29c-.2.1-.409.179-.614.269l-.62.263-.635.235-1.264.463-.318.116-.308.128-.616.256c-.206.081-.406.187-.61.28s-.408.189-.609.29a22.773,22.773,0,0,0-2.334,1.361c-.383.241-.741.515-1.1.781-.185.13-.353.279-.53.419s-.353.279-.521.428c-.332.3-.677.591-.987.912-.157.158-.319.313-.474.474l-.451.492c-.074.082-.15.162-.223.247l-.212.256-.423.509-.4.527-.2.262c-.065.088-.124.181-.186.27l-.368.539c-.12.181-.229.366-.344.548-.234.362-.437.739-.645,1.108-.108.183-.2.373-.294.561l-.284.561c-.169.381-.35.753-.505,1.131s-.316.751-.443,1.129-.274.747-.386,1.121a32.5,32.5,0,0,0-1.052,4.273c-.245,1.343-.4,2.59-.489,3.7-.055.554-.075,1.075-.107,1.555s-.033.923-.049,1.323l-.013,1.066c-.007.31,0,.575,0,.789l.007.658v0a.087.087,0,0,1-.175.005l-.03-.66c-.025-.429-.04-1.06-.053-1.864.005-.4,0-.846.015-1.331s.026-1.009.068-1.567a37.637,37.637,0,0,1,.4-3.746,33,33,0,0,1,1-4.351c.109-.382.243-.761.376-1.147s.287-.768.434-1.159.331-.771.5-1.164l.281-.577c.1-.194.186-.39.292-.579.208-.382.41-.771.644-1.146.116-.189.224-.382.346-.567l.373-.557c.063-.092.123-.187.189-.278l.2-.272.4-.545.431-.528.216-.265c.074-.086.152-.169.228-.256l.46-.51c.158-.166.324-.327.485-.491.318-.335.671-.634,1.01-.949a21.318,21.318,0,0,1,2.213-1.687,23.638,23.638,0,0,1,2.4-1.407c.206-.1.417-.2.625-.3s.413-.2.628-.289l.639-.268.32-.133.318-.117,1.266-.463.619-.225.6-.254c.2-.086.4-.162.6-.258l.584-.279.29-.139.283-.152.561-.3a23.829,23.829,0,0,0,3.992-2.8,24.841,24.841,0,0,0,3.053-3.144c.435-.522.823-1.048,1.185-1.552.176-.256.349-.5.51-.751s.318-.485.46-.724a26.888,26.888,0,0,0,1.381-2.519c.342-.72.581-1.3.737-1.7s.221-.616.221-.616a.072.072,0,0,1,.138.039Z" transform="translate(-1327.878 -863.003)" fill="#fff" opacity="0.47"/>
    </g>
    <g id="Grupo_84433" data-name="Grupo 84433" transform="translate(1274.761 777.463)">
      <path id="Trazado_113253" data-name="Trazado 113253" d="M1322.609,777.145a.659.659,0,0,1,1.283.215c-.013,3.745.313,8.576,1.789,11.922,2.739,6.209,6.145,27.824-13.365,35.379s-24.75,12.327-27.615,32.09c-2.618,18.063-9.551,56.4-10.725,62.867a.978.978,0,0,1-1.111.792h0a.979.979,0,0,1-.822-1.112c1.258-8.448,10.461-69.849,14.259-84.49C1292.319,811.611,1314.027,802.554,1322.609,777.145Z" transform="translate(-1272.032 -776.699)" fill="#bde9fb"/>
      <path id="Trazado_113254" data-name="Trazado 113254" d="M1320.244,792.35l.01.046.031.139c.024.121.058.3.091.535a13.918,13.918,0,0,1,.136,2.045c0,.44-.016.93-.068,1.46-.019.266-.059.54-.094.825s-.089.578-.154.88-.134.611-.21.93c-.042.158-.088.317-.134.479s-.1.326-.15.489a17.241,17.241,0,0,1-1.946,4.09l-.345.514c-.114.173-.245.336-.369.507-.244.344-.526.668-.8,1.005a23.748,23.748,0,0,1-4.014,3.663c-1.525,1.118-3.16,2.156-4.836,3.183s-3.379,2.058-5.02,3.177c-.824.553-1.623,1.143-2.407,1.741-.772.614-1.535,1.237-2.246,1.9a31.71,31.71,0,0,0-3.853,4.22,34.115,34.115,0,0,0-2.875,4.513l-.3.561c-.1.186-.2.369-.283.558l-.525,1.1c-.088.18-.165.363-.243.545l-.23.539c-.149.358-.311.7-.436,1.053l-.391,1.022c-.062.166-.13.33-.186.494l-.167.489c-.215.644-.436,1.25-.6,1.834s-.345,1.121-.48,1.628l-.368,1.394c-.117.42-.2.8-.275,1.129l-.192.837-.16.7v.005a.14.14,0,0,1-.169.105.142.142,0,0,1-.108-.168l.153-.7.184-.843c.073-.332.152-.714.264-1.136s.225-.894.354-1.405.3-1.055.465-1.642.375-1.2.585-1.853l.161-.493c.055-.167.121-.332.182-.5l.383-1.034c.124-.354.283-.7.429-1.067l.227-.546c.076-.184.153-.37.242-.552l.523-1.12c.085-.191.186-.377.283-.565l.3-.57a34.621,34.621,0,0,1,2.884-4.589,31.936,31.936,0,0,1,3.885-4.307c.722-.677,1.492-1.31,2.273-1.933s1.6-1.206,2.429-1.766c1.653-1.133,3.363-2.17,5.032-3.2s3.3-2.067,4.785-3.165c.749-.563,1.463-1.118,2.121-1.72a21.063,21.063,0,0,0,1.825-1.855c.267-.328.543-.641.782-.976.121-.165.25-.324.361-.492l.338-.5c.115-.163.209-.336.314-.5s.2-.331.294-.5l.275-.5.25-.5a16.16,16.16,0,0,0,.8-1.956c.056-.158.109-.316.152-.474l.137-.465c.078-.308.159-.608.217-.9a16.683,16.683,0,0,0,.37-3.082,14.5,14.5,0,0,0-.084-2c-.025-.229-.052-.4-.072-.52l-.024-.13-.008-.045v0a.151.151,0,0,1,.294-.064Z" transform="translate(-1271.828 -776.47)" fill="#fff" opacity="0.47"/>
    </g>
    <g id="Grupo_84435" data-name="Grupo 84435" transform="translate(1274.604 815.223)">
      <g id="Grupo_84434" data-name="Grupo 84434" transform="translate(0)">
        <path id="Trazado_113255" data-name="Trazado 113255" d="M1332.616,819.617l3.978.249a3.694,3.694,0,0,1,3.462,3.741l-1.388,94.426a3.876,3.876,0,0,1-3.958,3.818l-27.322-.583Z" transform="translate(-1271.355 -813.827)" fill="url(#linear-gradient-4)"/>
        <path id="Trazado_113256" data-name="Trazado 113256" d="M1285.222,819.73l50.442-2.439a1.79,1.79,0,0,1,1.875,1.845l-3.112,97.3a3.74,3.74,0,0,1-3.888,3.618l-35.454-1.426Z" transform="translate(-1271.682 -813.861)" fill="#7dc4f4"/>
        <path id="Trazado_113257" data-name="Trazado 113257" d="M1287.876,821.793l44.365-5.661a1.882,1.882,0,0,1,2.119,1.907l-2.158,98.139a2.6,2.6,0,0,1-2.523,2.542l-32.64.954Z" transform="translate(-1271.642 -813.878)" fill="#bde9fb"/>
        <path id="Trazado_113258" data-name="Trazado 113258" d="M1276.45,816.947l48.641-3.028a4.211,4.211,0,0,1,4.473,4.2V918.339a3.68,3.68,0,0,1-3.679,3.679h-44.845a3.982,3.982,0,0,1-3.976-3.768l-5.178-96.175A4.875,4.875,0,0,1,1276.45,816.947Z" transform="translate(-1271.878 -813.911)" fill="url(#linear-gradient-5)"/>
        <rect id="Rect치ngulo_14953" data-name="Rect치ngulo 14953" width="7.561" height="29.906" rx="3.726" transform="translate(53.906 9.57)" fill="url(#linear-gradient-6)"/>
      </g>
    </g>
    <g id="Grupo_84444" data-name="Grupo 84444" transform="translate(1154.81 789.718)">
      <rect id="Rect치ngulo_14954" data-name="Rect치ngulo 14954" width="131.375" height="110.221" transform="translate(8.897 14.583)" fill="url(#linear-gradient-7)"/>
      <g id="Grupo_84437" data-name="Grupo 84437" transform="translate(0.408)">
        <path id="Trazado_113259" data-name="Trazado 113259" d="M1298.8,788.776l-141.119.889a3.316,3.316,0,0,0-3.455,3.129v21.06a3.2,3.2,0,0,0,3.335,3.014l141.238.889a3.494,3.494,0,0,0,3.78-3.174V791.95A3.494,3.494,0,0,0,1298.8,788.776Z" transform="translate(-1154.224 -788.776)" fill="url(#linear-gradient-8)"/>
        <g id="Grupo_84436" data-name="Grupo 84436" transform="translate(0.001)">
          <path id="Trazado_113260" data-name="Trazado 113260" d="M1298.817,788.776l-141.256.89a3.2,3.2,0,0,0-3.336,3.013l148.389-.728C1302.614,790.184,1300.912,788.763,1298.817,788.776Z" transform="translate(-1154.225 -788.776)" fill="url(#linear-gradient-9)"/>
          <path id="Trazado_113261" data-name="Trazado 113261" d="M1157.561,816.5l141.256.889c2.1.013,3.8-1.408,3.8-3.174l-148.389-.729A3.2,3.2,0,0,0,1157.561,816.5Z" transform="translate(-1154.225 -788.412)" fill="url(#linear-gradient-10)"/>
        </g>
      </g>
      <g id="Grupo_84439" data-name="Grupo 84439" transform="translate(0 34.827)">
        <path id="Trazado_113262" data-name="Trazado 113262" d="M1298.917,823.39l-141.225-.292a3.441,3.441,0,0,0-3.61,3.193l-.26,21.739a3.276,3.276,0,0,0,3.414,3.125l141.672,1.239a3.422,3.422,0,0,0,3.675-3.173V826.59A3.457,3.457,0,0,0,1298.917,823.39Z" transform="translate(-1153.822 -823.098)" fill="url(#linear-gradient-11)"/>
        <g id="Grupo_84438" data-name="Grupo 84438" transform="translate(0.002)">
          <path id="Trazado_113263" data-name="Trazado 113263" d="M1298.932,823.39l-141.367-.292a3.317,3.317,0,0,0-3.481,3.075l148.532.417A3.475,3.475,0,0,0,1298.932,823.39Z" transform="translate(-1153.82 -823.098)" fill="url(#linear-gradient-12)"/>
          <path id="Trazado_113264" data-name="Trazado 113264" d="M1157.237,850.794l141.69,1.239a3.438,3.438,0,0,0,3.693-3.173l-148.8-1.191A3.275,3.275,0,0,0,1157.237,850.794Z" transform="translate(-1153.824 -822.736)" fill="url(#linear-gradient-13)"/>
        </g>
      </g>
      <g id="Grupo_84441" data-name="Grupo 84441" transform="translate(0.408 70.367)">
        <path id="Trazado_113265" data-name="Trazado 113265" d="M1299.055,858.122H1157.921a3.5,3.5,0,0,0-3.7,3.289v22.51a3.373,3.373,0,0,0,3.56,3.172h141.272a3.339,3.339,0,0,0,3.522-3.172V861.288A3.334,3.334,0,0,0,1299.055,858.122Z" transform="translate(-1154.224 -858.122)" fill="url(#linear-gradient-14)"/>
        <g id="Grupo_84440" data-name="Grupo 84440" transform="translate(0.001)">
          <path id="Trazado_113266" data-name="Trazado 113266" d="M1299.055,858.122H1157.784a3.326,3.326,0,0,0-3.559,3.1h148.389A3.326,3.326,0,0,0,1299.055,858.122Z" transform="translate(-1154.225 -858.122)" fill="url(#linear-gradient-15)"/>
          <path id="Trazado_113267" data-name="Trazado 113267" d="M1157.784,886.719h141.272a3.344,3.344,0,0,0,3.559-3.234H1154.225A3.344,3.344,0,0,0,1157.784,886.719Z" transform="translate(-1154.225 -857.748)" fill="url(#linear-gradient-16)"/>
        </g>
      </g>
      <g id="Grupo_84443" data-name="Grupo 84443" transform="translate(0.408 105.53)">
        <path id="Trazado_113268" data-name="Trazado 113268" d="M1299.2,893.328l-141.216-.552a3.548,3.548,0,0,0-3.765,3.308v22.51a3.431,3.431,0,0,0,3.624,3.2l141.279.055a3.341,3.341,0,0,0,3.505-3.138l.063-22.224A3.339,3.339,0,0,0,1299.2,893.328Z" transform="translate(-1154.224 -892.775)" fill="url(#linear-gradient-17)"/>
        <g id="Grupo_84442" data-name="Grupo 84442" transform="translate(0.001)">
          <path id="Trazado_113269" data-name="Trazado 113269" d="M1299.2,893.328l-141.355-.553a3.417,3.417,0,0,0-3.625,3.185l148.469.524A3.339,3.339,0,0,0,1299.2,893.328Z" transform="translate(-1154.225 -892.775)" fill="url(#linear-gradient-18)"/>
          <path id="Trazado_113270" data-name="Trazado 113270" d="M1157.848,921.416l141.279.055a3.341,3.341,0,0,0,3.505-3.138l-148.406-.115A3.431,3.431,0,0,0,1157.848,921.416Z" transform="translate(-1154.225 -892.4)" fill="url(#linear-gradient-19)"/>
        </g>
      </g>
    </g>
    <g id="Grupo_84446" data-name="Grupo 84446" transform="translate(1110.115 762.797)">
      <path id="Trazado_113271" data-name="Trazado 113271" d="M1133.47,805.855c-.023-.287-.316-.535-.812-.734.539-.3.837-.616.812-.928-.076-.946-3.071-1.476-6.689-1.184s-6.49,1.295-6.413,2.241c.023.286.315.535.812.734-.539.3-.837.616-.812.928.023.287.315.536.812.735-.539.3-.837.616-.812.928.023.286.315.535.812.734-.539.3-.837.616-.812.928.033.418.639.755,1.615.976a8.516,8.516,0,0,0,.025,1.022c.141,1.742,2.1,3.109,4.694,3.109s4.836-1.863,4.862-3.612a8.88,8.88,0,0,0-.051-1.141c1.241-.414,2-.92,1.957-1.411-.023-.286-.316-.535-.812-.734.539-.3.837-.616.812-.928-.023-.287-.316-.536-.812-.735C1133.2,806.487,1133.5,806.168,1133.47,805.855Z" transform="translate(-1109.619 -761.646)" fill="url(#linear-gradient-20)"/>
      <g id="Grupo_84445" data-name="Grupo 84445" transform="translate(11.714 43.562)">
        <path id="Trazado_113272" data-name="Trazado 113272" d="M1125.081,811.478a15.573,15.573,0,0,1-2.87-.235.087.087,0,0,1,.032-.171,18.7,18.7,0,0,0,4.78.151,20.566,20.566,0,0,0,4.009-.692.088.088,0,0,1,.109.06.087.087,0,0,1-.06.108,20.76,20.76,0,0,1-4.044.7C1126.365,811.45,1125.708,811.478,1125.081,811.478Z" transform="translate(-1121.307 -805.096)" fill="#91defa"/>
        <path id="Trazado_113273" data-name="Trazado 113273" d="M1125.108,809.844a13.647,13.647,0,0,1-3.524-.383.087.087,0,0,1,.048-.167,20.107,20.107,0,0,0,10.654-.846.087.087,0,0,1,.073.158,17.147,17.147,0,0,1-5.311,1.158C1126.385,809.818,1125.731,809.844,1125.108,809.844Z" transform="translate(-1121.316 -805.127)" fill="#91defa"/>
        <path id="Trazado_113274" data-name="Trazado 113274" d="M1125.093,808.206a12.711,12.711,0,0,1-3.714-.446.087.087,0,0,1,.054-.165,15.873,15.873,0,0,0,5.6.358,16.959,16.959,0,0,0,5.252-1.143.087.087,0,1,1,.073.157,17.133,17.133,0,0,1-5.311,1.158C1126.376,808.18,1125.719,808.206,1125.093,808.206Z" transform="translate(-1121.319 -805.151)" fill="#91defa"/>
        <path id="Trazado_113275" data-name="Trazado 113275" d="M1125.1,806.567a14.912,14.912,0,0,1-3.129-.285.087.087,0,1,1,.037-.169,18.079,18.079,0,0,0,5.023.2,17.115,17.115,0,0,0,5.226-1.13.087.087,0,0,1,.071.158,17.249,17.249,0,0,1-5.282,1.146C1126.376,806.541,1125.722,806.567,1125.1,806.567Z" transform="translate(-1121.31 -805.175)" fill="#91defa"/>
      </g>
      <path id="Trazado_113276" data-name="Trazado 113276" d="M1118.1,798.062a12.231,12.231,0,0,0-2.192-4.278,28.33,28.33,0,0,1-6.1-15.77c-.629-10.96,9.091-16.448,17.961-15.7s17.622,7.349,16.663,17.545c-.59,6.274-4.1,11.032-6.715,13.765a14.5,14.5,0,0,0-3.485,6.176c-.786,2.833-2.653,6.363-7.09,6.578C1121.395,806.653,1119.01,801.3,1118.1,798.062Z" transform="translate(-1109.774 -762.245)" fill="url(#linear-gradient-21)"/>
      <path id="Trazado_113277" data-name="Trazado 113277" d="M1128.331,803.883l3.1-20.186c.064-.417.269-.7.459-.625s.29.468.226.885l-.006.036-3.535,20c-.026.15-.1.245-.17.212S1128.309,804.028,1128.331,803.883Z" transform="translate(-1109.501 -761.939)" fill="url(#linear-gradient-22)"/>
      <path id="Trazado_113278" data-name="Trazado 113278" d="M1125.212,804.041l-3.1-20.186c-.064-.417-.269-.7-.459-.625s-.29.468-.226.885l.006.036,3.535,20c.026.15.1.245.171.212S1125.233,804.186,1125.212,804.041Z" transform="translate(-1109.603 -761.936)" fill="url(#linear-gradient-23)"/>
      <path id="Trazado_113279" data-name="Trazado 113279" d="M1131.5,782.015a.326.326,0,0,0-.408-.106l-1.728.808-.6-1.71a.366.366,0,0,0-.21-.211.427.427,0,0,0-.531.163l0,.006-1.422,2.591-1.318-3.688,0-.006a.425.425,0,0,0-.2-.225.517.517,0,0,0-.652.129l-1.987,2.735a.24.24,0,0,0,.07.346.331.331,0,0,0,.422-.047l1.749-1.951,1.575,3.509v0a.28.28,0,0,0,.139.136.329.329,0,0,0,.412-.107l1.52-2.439.572,1.234,0,.011.014.026a.325.325,0,0,0,.407.106l2.052-.959A.244.244,0,0,0,1131.5,782.015Z" transform="translate(-1109.589 -761.99)" fill="#fff" opacity="0.6"/>
      <path id="Trazado_113280" data-name="Trazado 113280" d="M1137.377,790.451a.2.2,0,0,1-.12-.041.2.2,0,0,1-.043-.282,23.17,23.17,0,0,0,1.452-2.2.2.2,0,0,1,.35.2,23.365,23.365,0,0,1-1.478,2.244A.2.2,0,0,1,1137.377,790.451Z" transform="translate(-1109.371 -761.868)" fill="#fff" opacity="0.6"/>
      <path id="Trazado_113281" data-name="Trazado 113281" d="M1139.893,786.308a.206.206,0,0,1-.08-.017.2.2,0,0,1-.1-.266,18.627,18.627,0,0,0,.42-14.112.2.2,0,0,1,.367-.167,19.034,19.034,0,0,1-.417,14.44A.2.2,0,0,1,1139.893,786.308Z" transform="translate(-1109.334 -762.107)" fill="#fff" opacity="0.6"/>
    </g>
    <g id="Grupo_84458" data-name="Grupo 84458" transform="translate(1125.817 809.385)">
      <g id="Grupo_84447" data-name="Grupo 84447" transform="translate(4.208 4.208)">
        <path id="Trazado_113282" data-name="Trazado 113282" d="M1130.115,828.028a.2.2,0,0,1-.155-.072l-.517-.622a.2.2,0,0,1,.311-.259l.517.622a.2.2,0,0,1-.155.331Z" transform="translate(-1129.396 -812.088)" fill="url(#linear-gradient)"/>
        <path id="Trazado_113283" data-name="Trazado 113283" d="M1164.244,869.042a.2.2,0,0,1-.156-.073l-1-1.206a.2.2,0,1,1,.31-.259l1,1.208a.2.2,0,0,1-.026.284A.2.2,0,0,1,1164.244,869.042Zm-2.009-2.414a.2.2,0,0,1-.155-.073l-1-1.207a.2.2,0,1,1,.311-.259l1,1.208a.2.2,0,0,1-.155.331Zm-2.009-2.414a.2.2,0,0,1-.156-.073l-1-1.206a.2.2,0,0,1,.311-.259l1,1.206a.2.2,0,0,1-.155.332Zm-2.008-2.414a.2.2,0,0,1-.156-.073l-1-1.207a.2.2,0,1,1,.311-.258l1,1.207a.2.2,0,0,1-.155.332Zm-2.009-2.414a.2.2,0,0,1-.155-.073l-1-1.208a.2.2,0,0,1,.311-.258l1,1.206a.2.2,0,0,1-.026.285A.2.2,0,0,1,1156.208,859.386Zm-2.009-2.414a.2.2,0,0,1-.155-.073l-1-1.208a.2.2,0,1,1,.311-.258l1,1.207a.2.2,0,0,1-.025.285A.205.205,0,0,1,1154.2,856.972Zm-2.008-2.414a.2.2,0,0,1-.156-.073l-1-1.208a.2.2,0,0,1,.312-.259l1,1.207a.2.2,0,0,1-.154.332Zm-2.009-2.415a.2.2,0,0,1-.155-.072l-1-1.208a.2.2,0,1,1,.311-.259l1,1.207a.2.2,0,0,1-.155.331Zm-2.009-2.414a.2.2,0,0,1-.155-.072l-1-1.208a.2.2,0,0,1,.311-.259l1,1.208a.2.2,0,0,1-.155.331Zm-2.009-2.414a.2.2,0,0,1-.156-.073l-1-1.207a.2.2,0,0,1,.312-.259l1,1.207a.2.2,0,0,1-.155.331Zm-2.008-2.414a.2.2,0,0,1-.156-.073l-1-1.206a.2.2,0,1,1,.311-.259l1,1.208a.2.2,0,0,1-.155.331Zm-2.009-2.414a.2.2,0,0,1-.155-.073l-1-1.207a.2.2,0,1,1,.311-.259l1,1.207a.2.2,0,0,1-.026.285A.2.2,0,0,1,1142.146,842.486Zm-2.009-2.414a.2.2,0,0,1-.155-.073l-1-1.206a.2.2,0,0,1,.312-.259l1,1.207a.2.2,0,0,1-.025.285A.2.2,0,0,1,1140.137,840.073Zm-2.008-2.414a.206.206,0,0,1-.156-.073l-1-1.208a.2.2,0,1,1,.311-.258l1,1.207a.2.2,0,0,1-.026.285A.2.2,0,0,1,1138.129,837.658Zm-2.009-2.414a.2.2,0,0,1-.155-.073l-1-1.208a.2.2,0,0,1,.311-.258l1,1.206a.2.2,0,0,1-.026.285A.2.2,0,0,1,1136.12,835.244Zm-2.009-2.414a.2.2,0,0,1-.155-.073l-1-1.208a.2.2,0,0,1,.312-.258l1,1.207a.2.2,0,0,1-.156.332Zm-2.008-2.414a.206.206,0,0,1-.156-.073l-1-1.208a.2.2,0,0,1,.311-.259l1,1.208a.2.2,0,0,1-.155.332Z" transform="translate(-1129.374 -812.062)" fill="url(#linear-gradient)"/>
        <path id="Trazado_113284" data-name="Trazado 113284" d="M1165.269,870.275a.2.2,0,0,1-.155-.073l-.517-.621a.2.2,0,1,1,.311-.259l.394.474.494-.369a.2.2,0,1,1,.242.323l-.647.484A.2.2,0,0,1,1165.269,870.275Z" transform="translate(-1128.878 -811.466)" fill="url(#linear-gradient-26)"/>
        <path id="Trazado_113285" data-name="Trazado 113285" d="M1167.2,869.234a.2.2,0,0,1-.122-.364l1.314-.982a.2.2,0,0,1,.242.324l-1.314.982A.2.2,0,0,1,1167.2,869.234Zm2.628-1.965a.2.2,0,0,1-.121-.364l1.314-.982a.2.2,0,1,1,.241.324l-1.314.982A.2.2,0,0,1,1169.824,867.27Zm2.628-1.964a.2.2,0,0,1-.121-.364l1.314-.982a.2.2,0,1,1,.242.324l-1.314.982A.2.2,0,0,1,1172.452,865.305Zm2.629-1.964a.2.2,0,0,1-.121-.364l1.314-.982a.2.2,0,1,1,.242.324l-1.314.982A.2.2,0,0,1,1175.081,863.341Zm2.628-1.965a.2.2,0,0,1-.121-.364l1.314-.982a.2.2,0,1,1,.242.324l-1.314.982A.2.2,0,0,1,1177.71,861.376Zm2.629-1.965a.2.2,0,0,1-.121-.363l1.314-.982a.2.2,0,0,1,.283.041.2.2,0,0,1-.042.283l-1.314.982A.207.207,0,0,1,1180.339,859.411Zm2.628-1.964a.2.2,0,0,1-.121-.363l1.314-.983a.2.2,0,0,1,.243.324l-1.314.983A.208.208,0,0,1,1182.967,857.446Zm2.629-1.964a.2.2,0,0,1-.121-.364l1.314-.982a.2.2,0,1,1,.242.324l-1.314.982A.2.2,0,0,1,1185.6,855.482Zm2.628-1.965a.2.2,0,0,1-.121-.364l1.314-.982a.2.2,0,0,1,.243.324l-1.314.982A.2.2,0,0,1,1188.224,853.517Zm2.629-1.964a.2.2,0,0,1-.121-.364l1.314-.982a.2.2,0,1,1,.241.324l-1.314.982A.2.2,0,0,1,1190.853,851.553Zm2.628-1.964a.2.2,0,0,1-.121-.364l1.314-.982a.2.2,0,0,1,.243.324l-1.314.982A.2.2,0,0,1,1193.481,849.588Zm2.629-1.965a.2.2,0,0,1-.121-.363l1.314-.982a.2.2,0,0,1,.283.041.2.2,0,0,1-.041.283l-1.314.982A.2.2,0,0,1,1196.11,847.623Zm2.628-1.964a.2.2,0,0,1-.12-.363l1.314-.982a.2.2,0,1,1,.242.324l-1.315.982A.2.2,0,0,1,1198.738,845.658Zm2.629-1.965a.2.2,0,0,1-.122-.363l1.315-.983a.2.2,0,1,1,.241.324l-1.314.983A.207.207,0,0,1,1201.368,843.694Zm2.628-1.964a.2.2,0,0,1-.121-.364l1.314-.982a.2.2,0,1,1,.242.324l-1.315.982A.2.2,0,0,1,1204,841.729Z" transform="translate(-1128.843 -811.892)" fill="url(#linear-gradient)"/>
        <path id="Trazado_113286" data-name="Trazado 113286" d="M1206.053,839.786a.2.2,0,0,1-.122-.364l.648-.484a.2.2,0,0,1,.207-.02l.731.347a.2.2,0,0,1-.174.365l-.62-.3-.55.411A.2.2,0,0,1,1206.053,839.786Z" transform="translate(-1128.27 -811.913)" fill="url(#linear-gradient-28)"/>
        <path id="Trazado_113287" data-name="Trazado 113287" d="M1238.927,854.627a.207.207,0,0,1-.088-.019l-1.432-.682a.2.2,0,1,1,.174-.364l1.433.681a.2.2,0,0,1-.087.385Zm-2.868-1.363a.208.208,0,0,1-.086-.019l-1.434-.682a.2.2,0,0,1,.173-.365l1.434.682a.2.2,0,0,1-.087.385Zm-2.867-1.363a.2.2,0,0,1-.086-.02l-1.434-.681a.2.2,0,0,1,.173-.365l1.434.682a.2.2,0,0,1-.087.385Zm-2.866-1.364a.206.206,0,0,1-.087-.019l-1.433-.682a.2.2,0,1,1,.173-.364l1.433.681a.2.2,0,0,1-.086.385Zm-2.867-1.363a.2.2,0,0,1-.086-.019l-1.434-.682a.2.2,0,0,1,.173-.365l1.434.682a.2.2,0,0,1-.087.385Zm-2.867-1.363a.193.193,0,0,1-.087-.02l-1.432-.681a.2.2,0,1,1,.173-.365l1.433.682a.2.2,0,0,1-.086.385Zm-2.867-1.364a.2.2,0,0,1-.086-.019l-1.434-.682a.2.2,0,1,1,.174-.364l1.434.681a.2.2,0,0,1,.1.27A.2.2,0,0,1,1221.724,846.449Zm-2.867-1.363a.2.2,0,0,1-.086-.019l-1.434-.682a.2.2,0,0,1,.174-.365l1.434.682a.2.2,0,0,1-.087.385Zm-2.866-1.363a.194.194,0,0,1-.088-.02l-1.434-.681a.2.2,0,0,1,.174-.365l1.433.682a.2.2,0,0,1-.086.385Zm-2.868-1.364a.2.2,0,0,1-.086-.019l-1.434-.681a.2.2,0,0,1,.173-.365l1.434.681a.2.2,0,0,1,.1.27A.2.2,0,0,1,1213.123,842.359ZM1210.257,841a.208.208,0,0,1-.087-.019l-1.433-.682a.2.2,0,1,1,.173-.365l1.433.682a.2.2,0,0,1-.086.385Z" transform="translate(-1128.23 -811.898)" fill="url(#linear-gradient)"/>
        <path id="Trazado_113288" data-name="Trazado 113288" d="M1240.633,855.443a.2.2,0,0,1-.086-.019l-.731-.347a.2.2,0,0,1,.174-.365l.58.276.381-.516a.2.2,0,1,1,.325.24l-.481.649A.2.2,0,0,1,1240.633,855.443Z" transform="translate(-1127.772 -811.685)" fill="url(#linear-gradient)"/>
        <path id="Trazado_113289" data-name="Trazado 113289" d="M1242.015,854.117a.2.2,0,0,1-.162-.323l.933-1.262a.2.2,0,1,1,.325.24l-.934,1.262A.2.2,0,0,1,1242.015,854.117Zm1.866-2.525a.2.2,0,0,1-.162-.323l.934-1.261a.2.2,0,0,1,.325.24l-.934,1.262A.2.2,0,0,1,1243.881,851.593Zm1.866-2.524a.2.2,0,0,1-.12-.041.2.2,0,0,1-.043-.282l.932-1.262a.2.2,0,1,1,.326.24l-.934,1.262A.2.2,0,0,1,1245.747,849.069Zm1.866-2.525a.2.2,0,0,1-.162-.323l.933-1.262a.2.2,0,0,1,.326.24l-.934,1.262A.2.2,0,0,1,1247.613,846.544Zm1.866-2.525a.2.2,0,0,1-.12-.04.2.2,0,0,1-.042-.282l.932-1.262a.2.2,0,1,1,.326.24l-.933,1.262A.2.2,0,0,1,1249.479,844.02Zm1.866-2.524a.2.2,0,0,1-.162-.323l.932-1.262a.2.2,0,0,1,.325.24l-.932,1.262A.2.2,0,0,1,1251.345,841.5Zm1.866-2.525a.2.2,0,0,1-.121-.04.2.2,0,0,1-.042-.282l.933-1.262a.2.2,0,1,1,.324.24l-.932,1.261A.2.2,0,0,1,1253.211,838.972Zm1.866-2.524a.2.2,0,0,1-.163-.323l.933-1.262a.2.2,0,0,1,.325.241l-.932,1.262A.2.2,0,0,1,1255.078,836.448Zm1.866-2.525a.2.2,0,0,1-.121-.04.2.2,0,0,1-.042-.282l.933-1.262a.2.2,0,1,1,.324.24l-.932,1.261A.2.2,0,0,1,1256.943,833.923Zm1.865-2.524a.2.2,0,0,1-.12-.041.2.2,0,0,1-.043-.282l.934-1.262a.2.2,0,0,1,.325.24l-.933,1.262A.2.2,0,0,1,1258.808,831.4Zm1.866-2.525a.2.2,0,0,1-.162-.323l.934-1.261a.2.2,0,0,1,.325.24l-.933,1.262A.2.2,0,0,1,1260.674,828.875Zm1.866-2.525a.2.2,0,0,1-.12-.04.2.2,0,0,1-.042-.282l.933-1.262a.2.2,0,1,1,.325.24l-.932,1.262A.2.2,0,0,1,1262.541,826.351Zm1.866-2.524a.2.2,0,0,1-.162-.323l.933-1.261a.2.2,0,0,1,.325.239l-.932,1.262A.2.2,0,0,1,1264.407,823.827Zm1.866-2.525a.2.2,0,0,1-.12-.04.2.2,0,0,1-.043-.282l.934-1.262a.2.2,0,1,1,.325.24l-.933,1.262A.2.2,0,0,1,1266.273,821.3Zm1.866-2.524a.2.2,0,0,1-.162-.323l.933-1.262a.2.2,0,0,1,.325.24l-.934,1.262A.2.2,0,0,1,1268.139,818.779Zm1.866-2.525a.193.193,0,0,1-.12-.04.2.2,0,0,1-.043-.282l.932-1.262a.2.2,0,0,1,.326.24l-.934,1.261A.2.2,0,0,1,1270,816.254Z" transform="translate(-1127.741 -812.271)" fill="url(#linear-gradient)"/>
        <path id="Trazado_113290" data-name="Trazado 113290" d="M1271.438,813.758a.2.2,0,0,1-.162-.323l.481-.65a.2.2,0,0,1,.29-.036l.626.51a.2.2,0,0,1-.256.313l-.462-.377-.355.48A.2.2,0,0,1,1271.438,813.758Z" transform="translate(-1127.308 -812.299)" fill="url(#linear-gradient-2)"/>
        <path id="Trazado_113291" data-name="Trazado 113291" d="M1321.93,853.91a.2.2,0,0,1-.128-.046l-1.235-1.008a.2.2,0,1,1,.256-.314l1.235,1.008a.2.2,0,0,1-.128.359Zm-2.471-2.016a.2.2,0,0,1-.128-.046l-1.235-1.008a.2.2,0,1,1,.256-.312l1.235,1.008a.2.2,0,0,1-.128.358Zm-2.471-2.015a.2.2,0,0,1-.128-.046l-1.235-1.008a.2.2,0,1,1,.255-.314l1.236,1.008a.2.2,0,0,1,.028.285A.2.2,0,0,1,1316.989,849.879Zm-2.471-2.015a.2.2,0,0,1-.128-.046l-1.236-1.008a.2.2,0,0,1,.256-.314l1.236,1.008a.2.2,0,0,1,.029.284A.2.2,0,0,1,1314.517,847.863Zm-2.471-2.016a.2.2,0,0,1-.128-.046l-1.236-1.008a.2.2,0,1,1,.255-.312l1.236,1.008a.2.2,0,0,1-.128.358Zm-2.471-2.015a.2.2,0,0,1-.128-.046l-1.236-1.008a.2.2,0,0,1,.256-.314l1.236,1.008a.2.2,0,0,1-.128.359Zm-2.472-2.016a.2.2,0,0,1-.127-.045l-1.236-1.009a.2.2,0,1,1,.256-.312l1.235,1.008a.2.2,0,0,1-.128.358Zm-2.471-2.015a.2.2,0,0,1-.127-.046l-1.236-1.008a.2.2,0,0,1,.256-.314l1.235,1.008a.2.2,0,0,1-.128.359Zm-2.471-2.015a.2.2,0,0,1-.128-.046l-1.235-1.009a.2.2,0,1,1,.256-.312l1.235,1.008a.2.2,0,0,1,.029.284A.2.2,0,0,1,1302.162,837.785Zm-2.471-2.016a.2.2,0,0,1-.128-.046l-1.235-1.008a.2.2,0,1,1,.256-.314l1.235,1.009a.2.2,0,0,1-.128.358Zm-2.471-2.015a.2.2,0,0,1-.128-.046l-1.235-1.008a.2.2,0,1,1,.255-.313l1.235,1.008a.2.2,0,0,1,.028.284A.2.2,0,0,1,1297.22,833.754Zm-2.471-2.016a.2.2,0,0,1-.128-.046l-1.235-1.008a.2.2,0,1,1,.255-.313l1.236,1.008a.2.2,0,0,1-.128.358Zm-2.471-2.015a.2.2,0,0,1-.128-.046l-1.236-1.008a.2.2,0,0,1,.256-.314l1.236,1.008a.2.2,0,0,1-.128.359Zm-2.471-2.015a.2.2,0,0,1-.128-.046l-1.236-1.008a.2.2,0,0,1,.256-.314l1.236,1.008a.2.2,0,0,1-.128.359Zm-2.471-2.016a.2.2,0,0,1-.128-.046l-1.236-1.008a.2.2,0,0,1,.256-.314l1.236,1.009a.2.2,0,0,1-.128.358Zm-2.472-2.015a.2.2,0,0,1-.127-.046l-1.236-1.008a.2.2,0,0,1,.256-.314l1.236,1.008a.2.2,0,0,1-.129.359Zm-2.471-2.016a.2.2,0,0,1-.127-.046l-1.236-1.008a.2.2,0,0,1,.256-.312l1.235,1.008a.2.2,0,0,1,.03.284A.2.2,0,0,1,1282.394,821.659Zm-2.471-2.015a.2.2,0,0,1-.127-.046l-1.236-1.008a.2.2,0,1,1,.256-.313l1.235,1.008a.2.2,0,0,1-.128.359Zm-2.471-2.016a.2.2,0,0,1-.128-.045l-1.235-1.009a.2.2,0,1,1,.256-.312l1.235,1.008a.2.2,0,0,1-.128.358Zm-2.471-2.015a.2.2,0,0,1-.128-.046l-1.235-1.008a.2.2,0,1,1,.256-.313l1.235,1.009a.2.2,0,0,1-.128.358Z" transform="translate(-1127.274 -812.277)" fill="url(#linear-gradient)"/>
        <path id="Trazado_113292" data-name="Trazado 113292" d="M1323.075,854.847a.207.207,0,0,1-.128-.046l-.626-.511a.2.2,0,1,1,.256-.312l.456.371.33-.487a.2.2,0,1,1,.334.227l-.454.669a.207.207,0,0,1-.138.087Z" transform="translate(-1126.557 -811.694)" fill="url(#linear-gradient-34)"/>
        <path id="Trazado_113293" data-name="Trazado 113293" d="M1324.406,853.423a.2.2,0,0,1-.113-.035.2.2,0,0,1-.054-.28l.906-1.336a.2.2,0,1,1,.335.227l-.907,1.335A.2.2,0,0,1,1324.406,853.423Zm1.813-2.672a.2.2,0,0,1-.167-.316l.906-1.335a.2.2,0,0,1,.335.226l-.906,1.337A.2.2,0,0,1,1326.219,850.751Zm1.812-2.672a.2.2,0,0,1-.167-.316l.906-1.335a.2.2,0,0,1,.335.226l-.906,1.337A.2.2,0,0,1,1328.031,848.079Zm1.813-2.672a.2.2,0,0,1-.167-.316l.906-1.335a.2.2,0,0,1,.335.226l-.906,1.336A.2.2,0,0,1,1329.844,845.408Zm1.812-2.672a.206.206,0,0,1-.114-.035.2.2,0,0,1-.054-.281l.907-1.335a.2.2,0,1,1,.334.227l-.906,1.335A.2.2,0,0,1,1331.656,842.736Zm1.812-2.671a.2.2,0,0,1-.166-.316l.906-1.336a.2.2,0,1,1,.334.227l-.906,1.335A.2.2,0,0,1,1333.468,840.065Zm1.812-2.672a.194.194,0,0,1-.113-.036.2.2,0,0,1-.054-.28l.906-1.336a.2.2,0,1,1,.334.227l-.906,1.335A.2.2,0,0,1,1335.281,837.393Zm1.812-2.672a.2.2,0,0,1-.166-.316l.906-1.336a.2.2,0,0,1,.335.227l-.906,1.336A.206.206,0,0,1,1337.093,834.721Zm1.813-2.672a.2.2,0,0,1-.167-.316l.906-1.335a.2.2,0,0,1,.335.226l-.906,1.336A.2.2,0,0,1,1338.906,832.05Zm1.812-2.672a.2.2,0,0,1-.167-.316l.906-1.335a.2.2,0,0,1,.335.226l-.906,1.336A.2.2,0,0,1,1340.718,829.378Zm1.813-2.672a.2.2,0,0,1-.168-.316l.906-1.335a.2.2,0,0,1,.335.227l-.906,1.335A.2.2,0,0,1,1342.531,826.706Zm1.812-2.671a.208.208,0,0,1-.114-.035.2.2,0,0,1-.054-.28l.907-1.336a.2.2,0,1,1,.334.227l-.906,1.335A.2.2,0,0,1,1344.343,824.035Zm1.812-2.672a.2.2,0,0,1-.113-.036.2.2,0,0,1-.054-.28l.906-1.336a.2.2,0,1,1,.334.227l-.906,1.335A.2.2,0,0,1,1346.155,821.364Zm1.813-2.672a.194.194,0,0,1-.113-.036.2.2,0,0,1-.054-.28l.906-1.336a.2.2,0,1,1,.335.227l-.907,1.335A.2.2,0,0,1,1347.968,818.692Zm1.813-2.672a.2.2,0,0,1-.167-.316l.906-1.335a.2.2,0,0,1,.335.226l-.906,1.336A.205.205,0,0,1,1349.781,816.02Z" transform="translate(-1126.528 -812.275)" fill="url(#linear-gradient)"/>
        <path id="Trazado_113294" data-name="Trazado 113294" d="M1351.2,813.377a.2.2,0,0,1-.167-.315l.454-.669a.2.2,0,0,1,.335.226l-.454.67A.2.2,0,0,1,1351.2,813.377Z" transform="translate(-1126.133 -812.304)" fill="url(#linear-gradient-36)"/>
      </g>
      <g id="Grupo_84448" data-name="Grupo 84448" transform="translate(0 16.165)">
        <circle id="Elipse_4456" data-name="Elipse 4456" cx="4.41" cy="4.41" r="4.41" fill="#faf291"/>
        <path id="Trazado_113295" data-name="Trazado 113295" d="M1128.015,830.152a3.411,3.411,0,0,1,4.65-3.185,3.416,3.416,0,1,0-4.417,4.418A3.391,3.391,0,0,1,1128.015,830.152Z" transform="translate(-1125.237 -824.078)" fill="#fbf5bd"/>
      </g>
      <g id="Grupo_84450" data-name="Grupo 84450" transform="translate(34.026 56.242)">
        <circle id="Elipse_4457" data-name="Elipse 4457" cx="5.729" cy="5.729" r="5.729" transform="translate(0 11.31) rotate(-80.783)" fill="#faf291"/>
        <g id="Grupo_84449" data-name="Grupo 84449" transform="translate(1.917 1.758)" opacity="0.38">
          <path id="Trazado_113296" data-name="Trazado 113296" d="M1163.207,872.291a4.432,4.432,0,0,1,6.042-4.137,4.438,4.438,0,1,0-5.74,5.739A4.431,4.431,0,0,1,1163.207,872.291Z" transform="translate(-1160.671 -865.316)" fill="#fff"/>
        </g>
      </g>
      <g id="Grupo_84451" data-name="Grupo 84451" transform="translate(77.059 25.816)">
        <circle id="Elipse_4458" data-name="Elipse 4458" cx="4.41" cy="4.41" r="4.41" transform="matrix(0.316, -0.949, 0.949, 0.316, 0, 8.368)" fill="url(#linear-gradient-37)"/>
        <path id="Trazado_113297" data-name="Trazado 113297" d="M1205.108,840.814a3.413,3.413,0,0,1,4.651-3.185,3.416,3.416,0,1,0-4.418,4.418A3.407,3.407,0,0,1,1205.108,840.814Z" transform="translate(-1201.161 -833.572)" fill="#fff" opacity="0.6"/>
      </g>
      <g id="Grupo_84452" data-name="Grupo 84452" transform="translate(112.204 42.293)">
        <circle id="Elipse_4459" data-name="Elipse 4459" cx="4.41" cy="4.41" r="4.41" transform="matrix(0.109, -0.994, 0.994, 0.109, 0, 8.768)" fill="url(#linear-gradient-38)"/>
        <path id="Trazado_113298" data-name="Trazado 113298" d="M1239.039,856.349a3.41,3.41,0,0,1,4.651-3.185,3.416,3.416,0,1,0-4.417,4.418A3.393,3.393,0,0,1,1239.039,856.349Z" transform="translate(-1235.806 -849.82)" fill="#fff" opacity="0.44"/>
      </g>
      <g id="Grupo_84453" data-name="Grupo 84453" transform="translate(144.409 0.405)">
        <circle id="Elipse_4460" data-name="Elipse 4460" cx="4.41" cy="4.41" r="4.41" fill="url(#linear-gradient-38)"/>
        <path id="Trazado_113299" data-name="Trazado 113299" d="M1270.329,814.62a3.413,3.413,0,0,1,4.651-3.185,3.416,3.416,0,1,0-4.418,4.418A3.406,3.406,0,0,1,1270.329,814.62Z" transform="translate(-1267.551 -808.547)" fill="#fff" opacity="0.44"/>
      </g>
      <g id="Grupo_84455" data-name="Grupo 84455" transform="translate(225.317)">
        <circle id="Elipse_4461" data-name="Elipse 4461" cx="4.41" cy="4.41" r="4.41" fill="#faf291"/>
        <g id="Grupo_84454" data-name="Grupo 84454" transform="translate(0.826 0.704)" opacity="0.38">
          <path id="Trazado_113300" data-name="Trazado 113300" d="M1350.063,814.221a3.413,3.413,0,0,1,4.651-3.185,3.416,3.416,0,1,0-4.417,4.418A3.385,3.385,0,0,1,1350.063,814.221Z" transform="translate(-1348.111 -808.851)" fill="url(#linear-gradient-40)"/>
        </g>
      </g>
      <g id="Grupo_84457" data-name="Grupo 84457" transform="translate(195.558 41.99)">
        <circle id="Elipse_4462" data-name="Elipse 4462" cx="4.41" cy="4.41" r="4.41" transform="translate(0 8.659) rotate(-79.034)" fill="#faf291"/>
        <g id="Grupo_84456" data-name="Grupo 84456" transform="translate(1.584 1.462)" opacity="0.38">
          <path id="Trazado_113301" data-name="Trazado 113301" d="M1321.483,856.349a3.41,3.41,0,0,1,4.65-3.185,3.416,3.416,0,1,0-4.417,4.418A3.414,3.414,0,0,1,1321.483,856.349Z" transform="translate(-1319.531 -850.979)" fill="url(#linear-gradient-41)"/>
        </g>
      </g>
    </g>
    <g id="Grupo_84465" data-name="Grupo 84465" transform="translate(1257.947 852.903)">
      <g id="Grupo_84459" data-name="Grupo 84459" transform="translate(43.912 48.411)">
        <rect id="Rect치ngulo_14955" data-name="Rect치ngulo 14955" width="1.695" height="18.335" transform="translate(8.194 4.108)" fill="#7dc4f4"/>
        <path id="Trazado_113302" data-name="Trazado 113302" d="M1315.18,921.235h-14.849v-.612a.491.491,0,0,1,.491-.491h13.867a.49.49,0,0,1,.491.491Z" transform="translate(-1298.714 -898.438)" fill="#7dc4f4"/>
        <rect id="Rect치ngulo_14956" data-name="Rect치ngulo 14956" width="18.671" height="5.295" rx="1.797" fill="#7dc4f4"/>
      </g>
      <g id="Grupo_84460" data-name="Grupo 84460" transform="translate(18.541 36.85)">
        <path id="Trazado_113303" data-name="Trazado 113303" d="M1295.4,890.753a14.759,14.759,0,0,0-5.352,2.284,1.409,1.409,0,0,0-.623,1.349,59.842,59.842,0,0,0,6.332,19.876,2.132,2.132,0,0,1,.2,1.467l-.8,3.718-1.482,1.389h3.817l2.541-6.876-1.087-.344a2.056,2.056,0,0,1-1.436-1.925l-.127-7.376a8.394,8.394,0,0,0-2.015-5.555l6.095-.3Z" transform="translate(-1273.503 -887.31)" fill="url(#linear-gradient-42)"/>
        <path id="Trazado_113304" data-name="Trazado 113304" d="M1292.151,921.177c-.347.455,3.741,1.055,5.806.061,0,0,2.864-4.982,2.864-7.547,0,0-.227-.523-1.909-.4,0,0-.961,5.9-1.977,6.559s-2.839.067-2.839.067A5.991,5.991,0,0,0,1292.151,921.177Z" transform="translate(-1273.463 -886.979)" fill="url(#linear-gradient-43)"/>
        <path id="Trazado_113305" data-name="Trazado 113305" d="M1300.9,898.857c-.032-.056-6.561-.785-6.561-.785a15.111,15.111,0,0,1-.455,4.718c-.668,2.733-10.255,14.573-10.255,14.573l1.005,3.187a16.177,16.177,0,0,1-9.174.552l6.229-3.739s5.83-19.868,9.4-23.413l6.545-2.264Z" transform="translate(-1273.708 -887.296)" fill="url(#linear-gradient-44)"/>
        <path id="Trazado_113306" data-name="Trazado 113306" d="M1315.319,887.36s3.762,5.6,4.071,8.148-1.03,3.589-4.978,3.761-14.484.167-14.484.167l-8.995-7.685s6.555-2.339,8.259-3S1315.319,887.36,1315.319,887.36Z" transform="translate(-1273.481 -887.36)" fill="url(#linear-gradient-45)"/>
        <path id="Trazado_113307" data-name="Trazado 113307" d="M1284.283,919.074a1.839,1.839,0,0,1,.351,2.214s-8.573,1.52-10.9.831c0,0,.483-1.1,3.1-2.359l-.193.148a.313.313,0,0,0,.206.562C1278.578,920.372,1282.153,920.055,1284.283,919.074Z" transform="translate(-1273.734 -886.893)" fill="url(#linear-gradient-46)"/>
      </g>
      <g id="Grupo_84461" data-name="Grupo 84461" transform="translate(41.281)">
        <path id="Trazado_113308" data-name="Trazado 113308" d="M1305.052,886.924a85.836,85.836,0,0,1-6.537-6.935,5.862,5.862,0,0,1-.993-5.276,73.167,73.167,0,0,1,2.894-7.288c.245-.819,5.157-.785,5.157-.785s9.666,6.274,13.464,16.9l-4.266,1.328a49.855,49.855,0,0,0-5.017-6.927s4.315,5.7,4.467,8.034Z" transform="translate(-1296.127 -850.815)" fill="url(#linear-gradient-47)"/>
        <path id="Trazado_113309" data-name="Trazado 113309" d="M1299.785,862.911c.05.17,1.333,4.421,1.434,4.509a7.168,7.168,0,0,0,4.087-.638l-2.165-4.533Z" transform="translate(-1296.091 -850.879)" fill="url(#linear-gradient-48)"/>
        <path id="Trazado_113310" data-name="Trazado 113310" d="M1301.927,854.106a8.66,8.66,0,0,0-3.889,4.322c-1.573,3.344-.4,4.889,1.078,5.1a6.911,6.911,0,0,0,6.02-1.981C1307.471,859.388,1304.936,852.947,1301.927,854.106Z" transform="translate(-1296.127 -851.001)" fill="url(#linear-gradient-49)"/>
        <path id="Trazado_113311" data-name="Trazado 113311" d="M1303.534,859.8s1.746-4.893-2.592-4.951l-1.021.714s-1.592-2.713,1.021-4.008a5.557,5.557,0,0,1,7.623,3.378c1.112,3.52.461,5.793-1.389,7.476s-2.612-.225-2.612-.225,1.008-1.575.6-2.418-1.356.175-1.356.175Z" transform="translate(-1296.095 -851.044)" fill="url(#linear-gradient-50)"/>
        <path id="Trazado_113312" data-name="Trazado 113312" d="M1303.955,860.24s.883-2.521,2.06-1.517-.957,2.329-1.793,2.758Z" transform="translate(-1296.029 -850.935)" fill="url(#linear-gradient-51)"/>
        <path id="Trazado_113313" data-name="Trazado 113313" d="M1296.144,886.989l3.219-3.1,4.453,1.88s4.432.687,6.969,0l2.536-.686,5.733-1.785.9,2.545a1.531,1.531,0,0,1-.56,1.76,10.169,10.169,0,0,1-1.448.9c-.754.33-18.609-.228-18.609-.228Z" transform="translate(-1296.144 -850.569)" fill="url(#linear-gradient-52)"/>
        <path id="Trazado_113314" data-name="Trazado 113314" d="M1308.1,855.451a.993.993,0,0,1,.592-1.656c2.543-.4,6.42.008,8.05,5.453,1.834,6.132,3.029,9.2,4.254,9.736a1,1,0,0,1,.055,1.831,4.223,4.223,0,0,1-2.656.093C1309.024,868.847,1311.373,858.792,1308.1,855.451Z" transform="translate(-1295.972 -851.005)" fill="url(#linear-gradient-50)"/>
      </g>
      <g id="Grupo_84462" data-name="Grupo 84462" transform="translate(16.72 20.929)">
        <path id="Trazado_113315" data-name="Trazado 113315" d="M1308.431,888.4a.3.3,0,0,1-.043,0l-18.671-.02a.836.836,0,1,1,0-1.671l18.671.02a.836.836,0,0,1,.041,1.67Z" transform="translate(-1271.69 -871.448)" fill="url(#linear-gradient-54)"/>
        <path id="Trazado_113316" data-name="Trazado 113316" d="M1273.182,871.67h15.55a2.966,2.966,0,0,1,2.681,1.7l7.188,15.243h-19.324a1.8,1.8,0,0,1-1.674-1.14l-5.575-14.1A1.243,1.243,0,0,1,1273.182,871.67Z" transform="translate(-1271.939 -871.67)" fill="url(#linear-gradient-55)"/>
        <path id="Trazado_113317" data-name="Trazado 113317" d="M1284,879.395c.337,1.047.088,2.064-.556,2.271s-1.439-.473-1.776-1.52-.088-2.064.555-2.271S1283.659,878.348,1284,879.395Z" transform="translate(-1271.798 -871.579)" fill="url(#linear-gradient-56)"/>
      </g>
      <g id="Grupo_84464" data-name="Grupo 84464" transform="translate(0 37.705)">
        <g id="Grupo_84463" data-name="Grupo 84463" transform="translate(4.57 1.455)">
          <path id="Trazado_113318" data-name="Trazado 113318" d="M1260.65,925.143a.657.657,0,0,1-.27-.058.705.705,0,0,1-.358-.918l14.34-34.108a.678.678,0,0,1,.9-.366.706.706,0,0,1,.358.919l-14.34,34.108A.684.684,0,0,1,1260.65,925.143Z" transform="translate(-1259.966 -889.636)" fill="#91defa"/>
          <path id="Trazado_113319" data-name="Trazado 113319" d="M1276.778,925.143a.683.683,0,0,1-.628-.423l-14.34-34.108a.706.706,0,0,1,.358-.919.678.678,0,0,1,.9.366l14.34,34.108a.705.705,0,0,1-.358.918A.659.659,0,0,1,1276.778,925.143Z" transform="translate(-1259.94 -889.636)" fill="#91defa"/>
          <path id="Trazado_113320" data-name="Trazado 113320" d="M1316.3,925.143a.657.657,0,0,1-.27-.058.7.7,0,0,1-.358-.918l14.34-34.108a.678.678,0,0,1,.9-.366.706.706,0,0,1,.358.919l-14.34,34.108A.685.685,0,0,1,1316.3,925.143Z" transform="translate(-1259.146 -889.636)" fill="#91defa"/>
          <path id="Trazado_113321" data-name="Trazado 113321" d="M1332.428,925.143a.683.683,0,0,1-.628-.423l-14.34-34.108a.707.707,0,0,1,.357-.919.679.679,0,0,1,.9.366l14.34,34.108a.7.7,0,0,1-.358.918A.657.657,0,0,1,1332.428,925.143Z" transform="translate(-1259.12 -889.636)" fill="#91defa"/>
        </g>
        <path id="Trazado_113322" data-name="Trazado 113322" d="M1335.019,889.061a.689.689,0,0,0-.162-.6.793.793,0,0,0-.594-.262h-77.914a.9.9,0,0,0-.747.382.787.787,0,0,0-.058.8l.844,1.714a1.191,1.191,0,0,0,1.073.644h76.267a.883.883,0,0,0,.879-.68Z" transform="translate(-1255.462 -888.202)" fill="#bde9fb"/>
      </g>
    </g>
    <g id="Grupo_84477" data-name="Grupo 84477" transform="translate(1123.014 818.784)">
      <g id="Grupo_84476" data-name="Grupo 84476">
        <g id="Grupo_84475" data-name="Grupo 84475">
          <g id="Grupo_84471" data-name="Grupo 84471" transform="translate(0 16.677)">
            <g id="Grupo_84466" data-name="Grupo 84466" transform="translate(22.766 84.374)">
              <path id="Trazado_113323" data-name="Trazado 113323" d="M1156.021,923.672c-1.956.169-5.352.443-8.028.561a7.72,7.72,0,0,1-3.07-.3c0,.061,0,.118.005.171a.555.555,0,0,0,.527.523,94.056,94.056,0,0,0,10.513.01.394.394,0,0,0,.321-.592A3.184,3.184,0,0,0,1156.021,923.672Z" transform="translate(-1144.922 -916.907)" fill="url(#linear-gradient-57)"/>
              <path id="Trazado_113324" data-name="Trazado 113324" d="M1147.992,924.291c2.677-.118,6.072-.392,8.029-.561-1.924-2.36-8.029-3.95-8.029-3.95h-1.724a7.235,7.235,0,0,0-1.345,4.211A7.717,7.717,0,0,0,1147.992,924.291Z" transform="translate(-1144.922 -916.964)" fill="url(#linear-gradient-58)"/>
              <path id="Trazado_113325" data-name="Trazado 113325" d="M1145.962,917.005l.161,3.192a.73.73,0,0,0,.623.686,2.834,2.834,0,0,0,1.295-.107.864.864,0,0,0,.581-.664l.558-3.108Z" transform="translate(-1144.907 -917.005)" fill="url(#linear-gradient-59)"/>
            </g>
            <g id="Grupo_84468" data-name="Grupo 84468" transform="translate(0 81.39)">
              <g id="Grupo_84467" data-name="Grupo 84467" transform="translate(0 2.964)">
                <path id="Trazado_113326" data-name="Trazado 113326" d="M1123.912,924.217a1.55,1.55,0,0,1-1.393-1.031l0,.013a1.1,1.1,0,0,0,.743,1.257,4.86,4.86,0,0,0,2.058.322,2.045,2.045,0,0,0,1.542-.711l.005-.006A5.18,5.18,0,0,1,1123.912,924.217Z" transform="translate(-1122.487 -916.893)" fill="url(#linear-gradient-60)"/>
                <path id="Trazado_113327" data-name="Trazado 113327" d="M1127.911,916.985h-1.422c-2.167-.045-3.526,4.524-3.972,6.292a1.549,1.549,0,0,0,1.393,1.031,5.181,5.181,0,0,0,2.952-.156,13.574,13.574,0,0,0,2.028-5.111A1.794,1.794,0,0,0,1127.911,916.985Z" transform="translate(-1122.486 -916.985)" fill="url(#linear-gradient-61)"/>
              </g>
              <path id="Trazado_113328" data-name="Trazado 113328" d="M1126.624,914.064l-.79,3.141a.853.853,0,0,0,.443.966,3.03,3.03,0,0,0,1.635.4.715.715,0,0,0,.582-.475l1.159-3.3Z" transform="translate(-1122.438 -914.064)" fill="url(#linear-gradient-62)"/>
            </g>
            <path id="Trazado_113329" data-name="Trazado 113329" d="M1125.684,915.606c.982.872,4.178.987,4.178.987,11.51-27.626,16.218-31.551,16.218-31.551-1.661,10.427-.268,33.512-.268,33.512a6.914,6.914,0,0,0,4.348,0,177.921,177.921,0,0,1,5.878-43.7c-7.78-.175-11.917-2.837-13.267-3.906C1136.286,881.409,1125.684,915.606,1125.684,915.606Z" transform="translate(-1122.44 -833.309)" fill="url(#linear-gradient-63)"/>
            <path id="Trazado_113330" data-name="Trazado 113330" d="M1144.509,839.648c-1.472,7.345-.945,20.491-.6,26.487.1,1.686-1.079,4.021-2.03,5.615a.5.5,0,0,0,.2.7,34.675,34.675,0,0,0,13.237,3.67.893.893,0,0,0,.9-.667,173.982,173.982,0,0,1,10.022-28.377C1160.293,837.585,1144.509,839.648,1144.509,839.648Z" transform="translate(-1122.202 -833.773)" fill="url(#linear-gradient-64)"/>
            <path id="Trazado_113331" data-name="Trazado 113331" d="M1146.563,884.26a.37.37,0,0,1-.315-.56,11.565,11.565,0,0,1,4.564-3.963.369.369,0,1,1,.321.664,11.039,11.039,0,0,0-4.255,3.682A.368.368,0,0,1,1146.563,884.26Z" transform="translate(-1122.138 -833.18)" fill="url(#linear-gradient-65)"/>
            <g id="Grupo_84469" data-name="Grupo 84469" transform="translate(12.882 5.875)">
              <path id="Trazado_113332" data-name="Trazado 113332" d="M1135.368,860.426a25.267,25.267,0,0,0,4.666,11.118l1.063-.866a32.8,32.8,0,0,1-.529-10.626A12.738,12.738,0,0,0,1135.368,860.426Z" transform="translate(-1135.179 -839.347)" fill="url(#linear-gradient-66)"/>
              <path id="Trazado_113333" data-name="Trazado 113333" d="M1146.251,848.708l-1.645-9.062s-10.988,8.4-9.236,21.08a12.737,12.737,0,0,1,5.2-.374C1141.073,856.281,1142.573,851.864,1146.251,848.708Z" transform="translate(-1135.181 -839.645)" fill="url(#linear-gradient-67)"/>
            </g>
            <g id="Grupo_84470" data-name="Grupo 84470" transform="translate(39.796 13.308)">
              <path id="Trazado_113334" data-name="Trazado 113334" d="M1165.947,846.97,1161.7,856.1c.686,5.515,3.648,7.9,6.844,8.815a19.4,19.4,0,0,1,1.424-5.949C1165.891,854.756,1165.947,846.97,1165.947,846.97Z" transform="translate(-1161.705 -846.97)" fill="url(#linear-gradient-68)"/>
              <path id="Trazado_113335" data-name="Trazado 113335" d="M1169.873,858.8a19.388,19.388,0,0,0-1.424,5.949c8.523,3.307,10.777-3.106,10.777-3.106l-1.575-.278A8.931,8.931,0,0,1,1169.873,858.8Z" transform="translate(-1161.606 -846.796)" fill="url(#linear-gradient-69)"/>
            </g>
            <path id="Trazado_113336" data-name="Trazado 113336" d="M1162.15,835.884l-2.048,7.528a1.464,1.464,0,0,1-1.958.974,29.631,29.631,0,0,1-2.952-1.348,1.973,1.973,0,0,1-.7-2.836l4.258-6.348Z" transform="translate(-1122.02 -833.855)" fill="url(#linear-gradient-70)"/>
          </g>
          <path id="Trazado_113337" data-name="Trazado 113337" d="M1183.72,856.633l-52.472,19.1a4.017,4.017,0,0,0-2.283,5.439l.159.35a3.734,3.734,0,0,0,4.967,1.843l50.95-23.569Z" transform="translate(-1122.397 -816.843)" fill="url(#linear-gradient-71)"/>
          <g id="Grupo_84472" data-name="Grupo 84472" transform="translate(59.538 2.867)" opacity="0.31">
            <ellipse id="Elipse_4463" data-name="Elipse 4463" cx="25.903" cy="25.435" rx="25.903" ry="25.435" fill="#bde9fb"/>
          </g>
          <path id="Trazado_113338" data-name="Trazado 113338" d="M1207.106,817.42c-15.918,0-28.823,12.672-28.823,28.3s12.905,28.3,28.823,28.3,28.822-12.671,28.822-28.3S1223.024,817.42,1207.106,817.42Zm0,52.448a24.149,24.149,0,1,1,24.589-24.145A24.37,24.37,0,0,1,1207.106,869.868Z" transform="translate(-1121.665 -817.42)" fill="url(#linear-gradient-72)"/>
          <g id="Grupo_84473" data-name="Grupo 84473" transform="translate(58.564 1.878)">
            <path id="Trazado_113339" data-name="Trazado 113339" d="M1180.447,849.075a.068.068,0,0,1-.067-.059c-.085-.666-.145-1.346-.178-2.019a.068.068,0,0,1,.064-.071.065.065,0,0,1,.071.064c.033.671.093,1.346.178,2.009a.067.067,0,0,1-.058.075Zm.2-7.914h-.012a.067.067,0,0,1-.054-.078,25.851,25.851,0,0,1,1.547-5.3,26.492,26.492,0,0,1,9.738-11.89,27.339,27.339,0,0,1,29.663-.5.069.069,0,0,1,.021.093.068.068,0,0,1-.093.021,27.044,27.044,0,0,0-14.377-4.109,26.677,26.677,0,0,0-24.828,16.431h0a25.879,25.879,0,0,0-1.539,5.268A.066.066,0,0,1,1180.644,841.161Z" transform="translate(-1180.201 -819.271)" fill="#91defa"/>
          </g>
          <path id="Trazado_113340" data-name="Trazado 113340" d="M1140.6,870.379l4.96-.4,2.148,1.98s-.508.7-2.1.3a22.766,22.766,0,0,0-3.765-.5s-2.194.99-2.221-.861Z" transform="translate(-1122.234 -816.646)" fill="url(#linear-gradient-73)"/>
          <path id="Trazado_113341" data-name="Trazado 113341" d="M1178.454,862.808c.429.335,1.9-.364,2.8-.848a1.035,1.035,0,0,0,.5-1.223c-.217-.683-.578-1.564-1.022-1.674C1179.995,858.878,1176.687,861.427,1178.454,862.808Z" transform="translate(-1121.67 -816.807)" fill="url(#linear-gradient-74)"/>
          <path id="Trazado_113342" data-name="Trazado 113342" d="M1132.265,882.245a.062.062,0,0,1-.022,0c-1.592-.551-2.426-1.458-2.48-2.7a3,3,0,0,1,1.955-2.885l6.3-2.457a.067.067,0,0,1,.049.126l-6.3,2.457a2.86,2.86,0,0,0-1.869,2.753c.051,1.179.855,2.046,2.39,2.576a.067.067,0,0,1,.042.085A.069.069,0,0,1,1132.265,882.245Z" transform="translate(-1122.38 -816.584)" fill="#91defa"/>
          <path id="Trazado_113343" data-name="Trazado 113343" d="M1139.837,873.591a.069.069,0,0,1-.063-.043.068.068,0,0,1,.038-.087l.817-.319a.067.067,0,0,1,.049.126l-.817.319A.067.067,0,0,1,1139.837,873.591Z" transform="translate(-1122.232 -816.6)" fill="#91defa"/>
          <g id="Grupo_84474" data-name="Grupo 84474" transform="translate(30.733 7.064)">
            <path id="Trazado_113344" data-name="Trazado 113344" d="M1162.569,828.573s1.695,3.894,1.808,5.937.554,3.369-1.808,3.781a5.024,5.024,0,0,1-5.432-2.8s-1.69-3.136-1.311-4.421S1162.569,828.573,1162.569,828.573Z" transform="translate(-1152.729 -824.32)" fill="url(#linear-gradient-75)"/>
            <path id="Trazado_113345" data-name="Trazado 113345" d="M1157.988,834.088h.3s-1.231-2.525-.149-2.968,5.365-1.317,6.289-2.837a2.827,2.827,0,0,0-1.093-3.888.158.158,0,0,0-.2.075l-.1.187a.161.161,0,0,1-.3-.03h0a.16.16,0,0,0-.288-.045c-.282.455-1.048,1.194-3.1,1.573-2.916.539-4.843,1.719-4.891,3.733a.161.161,0,0,1-.249.132c-.215-.131-.559-.193-1.02.194-.8.674-.473,2.42,1.282,3.856a.16.16,0,0,1-.008.258c-.319.207-.792.7.436,1.357a3.276,3.276,0,0,0,2.282.527.162.162,0,0,0,.122-.165l-.111-1.786a.161.161,0,0,1,.161-.17Z" transform="translate(-1152.773 -824.382)" fill="url(#linear-gradient-76)"/>
            <path id="Trazado_113346" data-name="Trazado 113346" d="M1158.016,834.343s-.647-2.487-1.761-1.79.578,2.787,1.474,2.88Z" transform="translate(-1152.728 -824.263)" fill="url(#linear-gradient-77)"/>
          </g>
        </g>
      </g>
      <path id="Trazado_113347" data-name="Trazado 113347" d="M1191.265,841.113l9.807,7.634,18.829-15.433,4.858,5.547-23.686,24.782L1185.9,847.02Z" transform="translate(-1121.553 -817.186)" fill="#fff" opacity="0.7"/>
    </g>
    <g id="Grupo_84482" data-name="Grupo 84482" transform="translate(1323.464 764.687)">
      <g id="Grupo_84478" data-name="Grupo 84478" transform="translate(7.146 6.737)">
        <path id="Trazado_113348" data-name="Trazado 113348" d="M1332.4,773.61l5.286,8.01h-2.644l1.308,11.723h-7.322l1.395-11.528-3.347-.389Z" transform="translate(-1327.072 -770.705)" fill="url(#linear-gradient)"/>
        <path id="Trazado_113349" data-name="Trazado 113349" d="M1344.574,790.748l-5.286-8.143h2.644l-1.308-11.857h7.322l-1.395,11.729,3.347.422Z" transform="translate(-1326.892 -770.747)" fill="url(#linear-gradient)"/>
      </g>
      <g id="Grupo_84481" data-name="Grupo 84481">
        <g id="Grupo_84479" data-name="Grupo 84479" opacity="0.64">
          <path id="Trazado_113350" data-name="Trazado 113350" d="M1320.989,788.587a.2.2,0,0,1-.194-.145c-.052-.173-.1-.348-.146-.525a.2.2,0,0,1,.391-.1c.046.173.093.343.143.513a.2.2,0,0,1-.137.251A.187.187,0,0,1,1320.989,788.587Z" transform="translate(-1320.02 -763.761)" fill="url(#linear-gradient-80)"/>
          <path id="Trazado_113351" data-name="Trazado 113351" d="M1320.494,786.747a.2.2,0,0,1-.2-.168c-.058-.348-.108-.7-.147-1.052a.2.2,0,0,1,.179-.223.2.2,0,0,1,.223.178c.039.343.088.69.144,1.03a.2.2,0,0,1-.166.234Zm-.258-2.744a.2.2,0,0,1-.2-.2c0-.14-.005-.28-.005-.42,0-.213,0-.429.011-.642a.2.2,0,0,1,.4.013c-.007.209-.011.421-.011.629,0,.138,0,.274.005.411a.2.2,0,0,1-.2.207Zm.137-2.753-.024,0a.2.2,0,0,1-.177-.225c.043-.35.1-.7.157-1.049a.2.2,0,1,1,.4.07c-.06.339-.112.685-.153,1.029A.2.2,0,0,1,1320.373,781.25Zm.53-2.705a.2.2,0,0,1-.054-.007.2.2,0,0,1-.142-.248c.093-.34.2-.682.307-1.017a.2.2,0,0,1,.384.128c-.109.327-.21.662-.3.995A.2.2,0,0,1,1320.9,778.544Zm.914-2.6a.206.206,0,0,1-.08-.016.2.2,0,0,1-.1-.266c.141-.325.293-.648.453-.963a.2.2,0,0,1,.361.182c-.156.309-.3.625-.443.943A.2.2,0,0,1,1321.817,775.945Zm1.285-2.44a.206.206,0,0,1-.107-.03.2.2,0,0,1-.065-.278c.187-.3.384-.6.587-.887a.2.2,0,0,1,.282-.049.2.2,0,0,1,.049.281c-.2.283-.392.575-.574.868A.2.2,0,0,1,1323.1,773.5Zm1.623-2.228a.2.2,0,0,1-.154-.333c.228-.269.466-.536.708-.793a.2.2,0,1,1,.294.278c-.238.251-.471.511-.694.775A.2.2,0,0,1,1324.725,771.276Zm1.927-1.972a.2.2,0,0,1-.151-.068.2.2,0,0,1,.017-.285c.264-.233.538-.463.814-.683a.2.2,0,0,1,.252.318c-.271.214-.54.439-.8.668A.2.2,0,0,1,1326.652,769.3Zm2.19-1.674a.2.2,0,0,1-.111-.371c.294-.194.6-.382.9-.558a.2.2,0,1,1,.2.35c-.3.173-.594.356-.884.546A.2.2,0,0,1,1328.842,767.63Zm19.385-.894a.2.2,0,0,1-.1-.024c-.3-.161-.617-.318-.93-.463a.2.2,0,1,1,.169-.366c.321.148.64.307.952.472a.2.2,0,0,1-.1.382Zm-16.978-.449a.2.2,0,0,1-.085-.385c.319-.149.645-.291.973-.422a.2.2,0,0,1,.15.375c-.321.128-.641.267-.953.413A.213.213,0,0,1,1331.249,766.288Zm14.457-.666a.2.2,0,0,1-.068-.012c-.325-.116-.657-.224-.989-.322a.2.2,0,1,1,.114-.388c.339.1.679.21,1.011.329a.2.2,0,0,1-.068.393Zm-11.882-.313a.2.2,0,0,1-.058-.4c.337-.1.682-.194,1.025-.277a.2.2,0,0,1,.094.394c-.336.08-.674.171-1,.27A.183.183,0,0,1,1333.823,765.308Zm9.226-.422a.18.18,0,0,1-.04,0c-.338-.068-.683-.127-1.025-.175a.2.2,0,1,1,.058-.4c.349.051.7.111,1.047.18a.2.2,0,0,1-.04.4Zm-6.536-.175a.2.2,0,0,1-.029-.4c.348-.051.7-.092,1.055-.124a.2.2,0,0,1,.036.4c-.344.031-.692.072-1.033.122A.138.138,0,0,1,1336.513,764.712Zm3.8-.172h-.011c-.344-.018-.691-.027-1.035-.027a.2.2,0,0,1-.2-.2.2.2,0,0,1,.2-.2h.005c.351,0,.706.01,1.056.028a.2.2,0,0,1-.01.4Z" transform="translate(-1320.029 -764.108)" fill="url(#linear-gradient)"/>
          <path id="Trazado_113352" data-name="Trazado 113352" d="M1349.725,767.867a.2.2,0,0,1-.115-.036c-.146-.1-.293-.2-.442-.3a.2.2,0,0,1,.222-.339c.151.1.3.2.45.3a.2.2,0,0,1-.115.368Z" transform="translate(-1319.601 -764.063)" fill="url(#linear-gradient-82)"/>
        </g>
        <g id="Grupo_84480" data-name="Grupo 84480" transform="translate(7.475 15.254)" opacity="0.64">
          <path id="Trazado_113353" data-name="Trazado 113353" d="M1357.515,780.075a.2.2,0,0,1-.2-.167q-.045-.263-.1-.524a.2.2,0,1,1,.4-.081q.055.266.1.536a.2.2,0,0,1-.164.233A.194.194,0,0,1,1357.515,780.075Z" transform="translate(-1326.957 -779.141)" fill="url(#linear-gradient-83)"/>
          <path id="Trazado_113354" data-name="Trazado 113354" d="M1338.811,802.366h0c-.327-.006-.658-.021-.985-.044l-.125-.009a.2.2,0,1,1,.029-.4l.123.009c.321.021.645.035.966.042a.2.2,0,0,1,0,.4Zm1.787-.051a.2.2,0,0,1-.015-.4c.36-.026.725-.065,1.083-.112a.2.2,0,1,1,.053.4c-.365.049-.737.087-1.1.116Zm-4.662-.218a.185.185,0,0,1-.033,0c-.365-.062-.732-.135-1.091-.218a.2.2,0,1,1,.09-.394c.352.081.711.152,1.067.213a.2.2,0,0,1-.034.4Zm7.514-.215a.2.2,0,0,1-.046-.4c.353-.082.707-.175,1.053-.276a.2.2,0,0,1,.114.388c-.353.1-.716.2-1.076.282A.237.237,0,0,1,1343.45,801.882Zm-10.315-.483a.2.2,0,0,1-.064-.01c-.351-.117-.7-.246-1.045-.382a.2.2,0,0,1,.149-.375c.336.134.68.259,1.024.373a.2.2,0,0,1-.064.394Zm13.069-.38a.2.2,0,0,1-.075-.39c.336-.135.672-.28,1-.432a.2.2,0,1,1,.172.365c-.333.156-.676.305-1.02.442A.21.21,0,0,1,1346.2,801.019Zm-15.731-.736a.2.2,0,0,1-.092-.022c-.329-.168-.656-.348-.975-.536a.2.2,0,1,1,.205-.348c.312.183.633.359.954.524a.2.2,0,0,1-.092.383Zm18.321-.534a.2.2,0,0,1-.1-.376c.313-.184.622-.378.921-.578a.2.2,0,1,1,.225.336c-.306.205-.623.4-.942.591A.2.2,0,0,1,1348.794,799.75Zm2.371-1.646a.2.2,0,0,1-.128-.359c.28-.227.557-.467.825-.71a.2.2,0,0,1,.272.3c-.273.249-.556.493-.842.726A.2.2,0,0,1,1351.164,798.1Zm2.1-1.984a.2.2,0,0,1-.149-.338c.244-.269.483-.547.709-.827a.2.2,0,0,1,.314.255c-.231.286-.475.57-.724.844A.2.2,0,0,1,1353.26,796.12Zm1.774-2.276a.2.2,0,0,1-.168-.314c.2-.3.4-.614.576-.925a.2.2,0,0,1,.349.2c-.186.318-.384.636-.589.945A.2.2,0,0,1,1355.034,793.844Zm1.411-2.52a.208.208,0,0,1-.085-.018.2.2,0,0,1-.1-.269c.152-.328.3-.665.429-1a.2.2,0,1,1,.377.148c-.136.344-.283.689-.439,1.024A.2.2,0,0,1,1356.445,791.325Zm1.01-2.7a.217.217,0,0,1-.056-.008.2.2,0,0,1-.139-.251c.1-.346.192-.7.272-1.053a.2.2,0,1,1,.395.089c-.082.36-.176.722-.278,1.077A.2.2,0,0,1,1357.455,788.621Zm.589-2.825-.026,0a.2.2,0,0,1-.175-.226c.047-.358.083-.723.11-1.083a.2.2,0,0,1,.4.029c-.026.367-.064.74-.112,1.106A.2.2,0,0,1,1358.044,785.8Zm.158-2.882a.2.2,0,0,1-.2-.2c-.007-.362-.026-.728-.054-1.088a.2.2,0,0,1,.187-.217.2.2,0,0,1,.217.186c.029.368.047.742.054,1.111a.2.2,0,0,1-.2.206Z" transform="translate(-1327.368 -779.108)" fill="url(#linear-gradient)"/>
          <path id="Trazado_113355" data-name="Trazado 113355" d="M1328.03,798.529a.2.2,0,0,1-.119-.039c-.147-.107-.292-.214-.437-.325a.2.2,0,1,1,.246-.321c.141.108.284.214.428.318a.2.2,0,0,1,.045.283A.2.2,0,0,1,1328.03,798.529Z" transform="translate(-1327.396 -778.866)" fill="url(#linear-gradient-85)"/>
        </g>
      </g>
    </g>
  </g>
</svg>
