<svg xmlns="http://www.w3.org/2000/svg" xmlns:xlink="http://www.w3.org/1999/xlink" width="259.785" height="171.147" viewBox="0 0 259.785 171.147">
  <defs>
    <linearGradient id="linear-gradient" y1="0.5" x2="1" y2="0.5" gradientUnits="objectBoundingBox">
      <stop offset="0" stop-color="#daf6fe"/>
      <stop offset="1" stop-color="#e9fafd"/>
    </linearGradient>
    <linearGradient id="linear-gradient-6" x1="0" y1="0.5" x2="1" y2="0.5" xlink:href="#linear-gradient"/>
    <linearGradient id="linear-gradient-7" x1="0" y1="0.5" x2="1" y2="0.5" xlink:href="#linear-gradient"/>
    <linearGradient id="linear-gradient-8" x1="0" y1="0.5" x2="1" y2="0.5" xlink:href="#linear-gradient"/>
    <linearGradient id="linear-gradient-9" x1="0" y1="0.5" x2="1" y2="0.5" xlink:href="#linear-gradient"/>
    <linearGradient id="linear-gradient-10" x1="0.626" y1="1.122" x2="0.843" y2="1.785" gradientUnits="objectBoundingBox">
      <stop offset="0" stop-color="#407ae2"/>
      <stop offset="1" stop-color="#4f90ff"/>
    </linearGradient>
    <linearGradient id="linear-gradient-11" x1="1.046" y1="1.194" x2="0.387" y2="0.523" xlink:href="#linear-gradient-10"/>
    <linearGradient id="linear-gradient-19" x1="0.943" y1="0.072" x2="0.171" y2="0.818" gradientUnits="objectBoundingBox">
      <stop offset="0" stop-color="#00135d"/>
      <stop offset="1" stop-color="#0f2b91"/>
    </linearGradient>
    <linearGradient id="linear-gradient-20" x1="1.079" y1="-0.228" x2="0.508" y2="0.44" xlink:href="#linear-gradient-19"/>
    <linearGradient id="linear-gradient-21" x1="0.82" y1="-0.447" x2="0.246" y2="1.252" gradientUnits="objectBoundingBox">
      <stop offset="0" stop-color="#fed32f"/>
      <stop offset="1" stop-color="#ff9847"/>
    </linearGradient>
    <linearGradient id="linear-gradient-22" x1="2.193" y1="-7.35" x2="1.365" y2="-3.371" xlink:href="#linear-gradient-19"/>
    <linearGradient id="linear-gradient-23" y1="0.5" x2="1" y2="0.5" gradientUnits="objectBoundingBox">
      <stop offset="0" stop-color="#ffc9a6"/>
      <stop offset="1" stop-color="#fed7c6"/>
    </linearGradient>
    <linearGradient id="linear-gradient-24" x1="1.474" y1="-6.889" x2="0.946" y2="-2.743" xlink:href="#linear-gradient-19"/>
    <linearGradient id="linear-gradient-25" x1="0" y1="0.5" x2="1" y2="0.5" xlink:href="#linear-gradient-23"/>
    <linearGradient id="linear-gradient-26" x1="0.695" y1="-0.443" x2="0.379" y2="1.167" xlink:href="#linear-gradient-19"/>
    <linearGradient id="linear-gradient-27" x1="3.501" y1="-2.173" x2="-4.838" y2="5.253" gradientUnits="objectBoundingBox">
      <stop offset="0" stop-color="#001039"/>
      <stop offset="1" stop-color="#011156"/>
    </linearGradient>
    <linearGradient id="linear-gradient-28" x1="1.084" y1="-3.273" x2="0.836" y2="-1.739" gradientUnits="objectBoundingBox">
      <stop offset="0" stop-color="#e1a734"/>
      <stop offset="1" stop-color="#e99943"/>
    </linearGradient>
    <linearGradient id="linear-gradient-29" x1="0" y1="0.5" x2="1" y2="0.5" xlink:href="#linear-gradient-23"/>
    <linearGradient id="linear-gradient-30" x1="0.997" y1="-1.68" x2="0.804" y2="-0.744" xlink:href="#linear-gradient-21"/>
    <linearGradient id="linear-gradient-31" x1="1.876" y1="-1.545" x2="-0.437" y2="1.571" xlink:href="#linear-gradient-23"/>
    <linearGradient id="linear-gradient-32" x1="271.142" y1="360.204" x2="268.744" y2="363.174" xlink:href="#linear-gradient-23"/>
    <linearGradient id="linear-gradient-33" x1="1.697" y1="-1.142" x2="-0.953" y2="2.815" xlink:href="#linear-gradient-23"/>
    <linearGradient id="linear-gradient-34" x1="108.456" y1="-372.5" x2="108.176" y2="-373.485" xlink:href="#linear-gradient-23"/>
    <linearGradient id="linear-gradient-35" x1="97.144" y1="-262.522" x2="97.376" y2="-261.41" xlink:href="#linear-gradient-19"/>
    <linearGradient id="linear-gradient-36" x1="337.716" y1="-2089.114" x2="336.844" y2="-2094.633" xlink:href="#linear-gradient-23"/>
    <linearGradient id="linear-gradient-37" x1="0.233" y1="0.746" x2="0.828" y2="-0.171" xlink:href="#linear-gradient-21"/>
    <linearGradient id="linear-gradient-39" x1="9.295" y1="-89.015" x2="8.698" y2="-87.091" xlink:href="#linear-gradient-19"/>
    <linearGradient id="linear-gradient-40" x1="0.723" y1="1.529" x2="0.481" y2="0.199" xlink:href="#linear-gradient-21"/>
    <linearGradient id="linear-gradient-41" x1="-0.16" y1="-0.191" x2="1.984" y2="2.225" gradientUnits="objectBoundingBox">
      <stop offset="0" stop-color="#a28220"/>
      <stop offset="1" stop-color="#c09047"/>
    </linearGradient>
    <linearGradient id="linear-gradient-42" x1="-1213.751" y1="-0.196" x2="-1211.48" y2="2.22" xlink:href="#linear-gradient-41"/>
    <linearGradient id="linear-gradient-43" x1="0.511" y1="-0.176" x2="0.467" y2="2.467" xlink:href="#linear-gradient-19"/>
    <linearGradient id="linear-gradient-44" x1="0.955" y1="-26.963" x2="1.098" y2="-12.959" xlink:href="#linear-gradient-19"/>
    <linearGradient id="linear-gradient-45" x1="2.579" y1="-4.059" x2="-0.859" y2="3.366" xlink:href="#linear-gradient-41"/>
    <linearGradient id="linear-gradient-46" x1="-1102.549" y1="-35.573" x2="-1102.406" y2="-21.278" xlink:href="#linear-gradient-19"/>
    <linearGradient id="linear-gradient-47" x1="3.788" y1="-6.359" x2="0.301" y2="1.144" xlink:href="#linear-gradient-41"/>
    <linearGradient id="linear-gradient-48" x1="0.544" y1="0.365" x2="0.096" y2="2.1" xlink:href="#linear-gradient-10"/>
    <linearGradient id="linear-gradient-49" x1="0.536" y1="-1.521" x2="0.525" y2="-0.913" xlink:href="#linear-gradient-10"/>
    <linearGradient id="linear-gradient-50" x1="0.571" y1="-0.52" x2="0.393" y2="2.04" xlink:href="#linear-gradient-41"/>
    <linearGradient id="linear-gradient-51" x1="0.466" y1="-0.206" x2="0.513" y2="0.734" xlink:href="#linear-gradient-41"/>
    <linearGradient id="linear-gradient-52" x1="9.193" y1="-69.212" x2="8.529" y2="-67.524" xlink:href="#linear-gradient-19"/>
    <linearGradient id="linear-gradient-53" x1="0.297" y1="-2.037" x2="0.597" y2="1.62" xlink:href="#linear-gradient-41"/>
  </defs>
  <g id="Grupo_87918" data-name="Grupo 87918" transform="translate(-1069.713 -717.912)">
    <g id="Grupo_87863" data-name="Grupo 87863" transform="translate(1069.713 738.062)">
      <g id="Grupo_87857" data-name="Grupo 87857" transform="translate(0 14.15)">
        <g id="Grupo_87853" data-name="Grupo 87853" opacity="0.64">
          <path id="Trazado_115267" data-name="Trazado 115267" d="M1071.43,798.857a.588.588,0,0,1-.564-.423c-.09-.307-.176-.62-.255-.929a.589.589,0,0,1,1.141-.29c.076.3.157.594.243.887a.588.588,0,0,1-.4.731A.6.6,0,0,1,1071.43,798.857Z" transform="translate(-1069.853 -764.78)" fill="#fff"/>
          <path id="Trazado_115268" data-name="Trazado 115268" d="M1070.475,788.93a.588.588,0,0,1-.583-.512c-.082-.624-.142-1.258-.178-1.886a.588.588,0,1,1,1.174-.069c.035.6.093,1.206.171,1.8a.589.589,0,0,1-.507.661A.609.609,0,0,1,1070.475,788.93Zm-.172-4.851h-.035a.588.588,0,0,1-.553-.621c.006-.1.012-.2.019-.3.037-.53.09-1.065.158-1.589a.589.589,0,0,1,1.168.151c-.066.5-.116,1.012-.151,1.519q-.01.141-.018.282A.588.588,0,0,1,1070.3,784.079Zm.732-4.8a.564.564,0,0,1-.144-.018.588.588,0,0,1-.428-.714c.153-.61.33-1.222.527-1.819a.589.589,0,0,1,1.118.369c-.187.569-.357,1.153-.5,1.737A.589.589,0,0,1,1071.034,779.283Zm1.623-4.574a.579.579,0,0,1-.248-.055.588.588,0,0,1-.285-.782c.266-.57.557-1.138.863-1.687a.589.589,0,0,1,1.028.573c-.293.525-.571,1.067-.825,1.611A.589.589,0,0,1,1072.658,774.709Zm2.462-4.185a.588.588,0,0,1-.476-.934c.368-.509.761-1.011,1.165-1.493a.589.589,0,1,1,.9.757c-.387.46-.761.94-1.113,1.426A.589.589,0,0,1,1075.12,770.524Zm3.205-3.646a.588.588,0,0,1-.4-1.017c.457-.43.936-.85,1.424-1.247a.589.589,0,0,1,.744.913c-.467.38-.925.781-1.361,1.192A.587.587,0,0,1,1078.325,766.878Zm3.83-2.979a.589.589,0,0,1-.316-1.085c.53-.338,1.079-.66,1.632-.959a.588.588,0,1,1,.559,1.036c-.528.286-1.052.594-1.558.916A.59.59,0,0,1,1082.155,763.9Zm24.993-1.432a.587.587,0,0,1-.257-.06c-.541-.262-1.1-.509-1.654-.731a.588.588,0,0,1,.437-1.093c.583.233,1.166.491,1.733.766a.589.589,0,0,1-.258,1.118Zm-20.674-.777a.589.589,0,0,1-.217-1.136c.584-.232,1.184-.445,1.783-.634a.589.589,0,1,1,.353,1.123c-.571.18-1.144.383-1.7.605A.6.6,0,0,1,1086.473,761.691Zm16.127-.921a.591.591,0,0,1-.152-.02c-.58-.156-1.173-.292-1.764-.405a.588.588,0,1,1,.222-1.156c.619.119,1.239.261,1.846.424a.588.588,0,0,1-.152,1.157Zm-11.469-.432a.589.589,0,0,1-.109-1.167c.617-.117,1.247-.213,1.872-.284a.588.588,0,0,1,.134,1.168c-.6.069-1.2.161-1.788.272A.612.612,0,0,1,1091.131,760.338Zm6.684-.377h-.043l-.114-.008c-.565-.039-1.136-.06-1.7-.061a.588.588,0,0,1,0-1.177h0c.588,0,1.184.023,1.775.063l.117.008a.588.588,0,0,1-.041,1.175Z" transform="translate(-1069.713 -758.715)" fill="#fff"/>
          <path id="Trazado_115269" data-name="Trazado 115269" d="M1118.052,765.241a.583.583,0,0,1-.335-.106c-.25-.174-.508-.346-.765-.511a.589.589,0,0,1,.636-.99c.269.173.538.353.8.536a.589.589,0,0,1-.336,1.072Z" transform="translate(-1077.198 -759.484)" fill="#fff"/>
        </g>
        <g id="Grupo_87854" data-name="Grupo 87854" transform="translate(10.027 20.548)" opacity="0.64">
          <path id="Trazado_115270" data-name="Trazado 115270" d="M1130.885,785.262a.589.589,0,0,1-.58-.493c-.05-.3-.106-.606-.167-.9a.589.589,0,0,1,1.154-.234c.063.312.122.631.174.947a.589.589,0,0,1-.485.676A.547.547,0,0,1,1130.885,785.262Z" transform="translate(-1089.368 -783.159)" fill="#fff"/>
          <path id="Trazado_115271" data-name="Trazado 115271" d="M1097,815.819h-.034l-.324-.021c-.51-.035-1.026-.086-1.531-.15a.589.589,0,1,1,.149-1.168c.484.062.977.11,1.464.144l.309.02a.588.588,0,0,1-.033,1.176Zm2.957,0a.589.589,0,0,1-.033-1.177c.59-.034,1.186-.089,1.771-.165a.589.589,0,0,1,.151,1.168c-.613.079-1.237.137-1.855.172Zm-7.682-.709a.577.577,0,0,1-.141-.018c-.6-.148-1.2-.319-1.793-.51a.589.589,0,1,1,.363-1.12c.562.182,1.137.346,1.712.488a.589.589,0,0,1-.14,1.16Zm12.4-.008a.589.589,0,0,1-.142-1.16c.572-.143,1.146-.308,1.707-.492a.589.589,0,0,1,.367,1.119c-.588.193-1.189.366-1.789.515A.6.6,0,0,1,1104.675,815.1Zm-16.913-1.565a.586.586,0,0,1-.245-.053c-.562-.258-1.122-.539-1.666-.836a.589.589,0,1,1,.566-1.032c.519.283,1.053.552,1.59.8a.588.588,0,0,1-.245,1.123Zm21.414-.018a.588.588,0,0,1-.246-1.123c.536-.247,1.07-.516,1.588-.8a.589.589,0,1,1,.568,1.031c-.543.3-1.1.58-1.663.839A.593.593,0,0,1,1109.176,813.518Zm4.132-2.392a.588.588,0,0,1-.342-1.068c.483-.343.958-.707,1.414-1.082a.589.589,0,0,1,.747.91c-.477.393-.975.773-1.479,1.131A.588.588,0,0,1,1113.308,811.125Zm3.619-3.114a.588.588,0,0,1-.423-1c.411-.426.811-.871,1.19-1.324a.589.589,0,0,1,.9.756c-.4.474-.816.94-1.247,1.385A.583.583,0,0,1,1116.926,808.012Zm2.985-3.729a.589.589,0,0,1-.492-.912c.325-.493.637-1.005.926-1.521a.589.589,0,0,1,1.027.575c-.3.54-.629,1.075-.969,1.593A.588.588,0,0,1,1119.911,804.283Zm2.241-4.219a.58.58,0,0,1-.225-.045.589.589,0,0,1-.318-.769c.228-.546.438-1.106.625-1.666a.588.588,0,1,1,1.115.374c-.2.586-.416,1.174-.654,1.744A.588.588,0,0,1,1122.153,800.064Zm1.416-4.56a.594.594,0,0,1-.121-.013.588.588,0,0,1-.456-.7c.122-.578.224-1.168.3-1.754a.588.588,0,1,1,1.166.161c-.084.613-.191,1.231-.318,1.835A.59.59,0,0,1,1123.568,795.5Zm.546-4.744h-.013a.588.588,0,0,1-.575-.6q.006-.291.007-.581c0-.4-.01-.8-.029-1.2a.588.588,0,1,1,1.175-.056c.02.416.03.838.03,1.255,0,.2,0,.405-.007.608A.589.589,0,0,1,1124.115,790.76Z" transform="translate(-1082.263 -783.892)" fill="#fff"/>
          <path id="Trazado_115272" data-name="Trazado 115272" d="M1082.985,815.242a.581.581,0,0,1-.34-.109c-.262-.186-.523-.378-.775-.572a.588.588,0,0,1,.716-.934c.241.185.49.368.74.546a.588.588,0,0,1-.341,1.068Z" transform="translate(-1081.641 -787.995)" fill="#fff"/>
        </g>
        <g id="Grupo_87856" data-name="Grupo 87856" transform="translate(6.356 6.18)">
          <g id="Grupo_87855" data-name="Grupo 87855">
            <path id="Trazado_115273" data-name="Trazado 115273" d="M1083.271,800.171a.309.309,0,0,0,.346.094l3.519-1.295a16.352,16.352,0,0,0,4.66,2.509l.858,3.648a.308.308,0,0,0,.269.236l4.475.453a.309.309,0,0,0,.311-.177l1.572-3.4a16.318,16.318,0,0,0,5.068-1.524l3.189,1.974a.309.309,0,0,0,.357-.023l3.484-2.844a.309.309,0,0,0,.094-.346l-1.294-3.519a16.355,16.355,0,0,0,2.509-4.66l3.647-.858a.309.309,0,0,0,.236-.269l.453-4.475a.308.308,0,0,0-.177-.311l-3.4-1.572a16.36,16.36,0,0,0-1.524-5.068l1.974-3.189a.307.307,0,0,0-.023-.356l-2.844-3.485a.308.308,0,0,0-.345-.094l-3.52,1.295a16.284,16.284,0,0,0-4.66-2.509l-.858-3.648a.306.306,0,0,0-.268-.235l-4.475-.454a.308.308,0,0,0-.31.177l-1.573,3.4a16.341,16.341,0,0,0-5.068,1.523l-3.188-1.973a.307.307,0,0,0-.357.023l-3.484,2.844a.309.309,0,0,0-.1.346l1.295,3.519a16.327,16.327,0,0,0-2.509,4.66l-3.648.858a.308.308,0,0,0-.236.269l-.453,4.475a.309.309,0,0,0,.177.311l3.4,1.572a16.317,16.317,0,0,0,1.524,5.068l-1.974,3.189a.307.307,0,0,0,.024.356Z" transform="translate(-1077.274 -766.066)" fill="#bdf1fb"/>
          </g>
          <path id="Trazado_115274" data-name="Trazado 115274" d="M1100.024,793.521a4.707,4.707,0,1,1,.688-.051h0A4.658,4.658,0,0,1,1100.024,793.521Zm.585-.75h0Zm-.58-7.239a3.359,3.359,0,0,0-.482.035,3.286,3.286,0,1,0,.482-.035Z" transform="translate(-1080.151 -768.943)" fill="url(#linear-gradient)"/>
          <path id="Trazado_115275" data-name="Trazado 115275" d="M1098.906,798.618q-.559,0-1.126-.056c-.151-.016-.3-.034-.451-.055a11.081,11.081,0,0,1-1.86-.43.235.235,0,0,1-.162-.224.239.239,0,0,1,.011-.072.236.236,0,0,1,.3-.151,10.709,10.709,0,0,0,2.213.463h0a10.624,10.624,0,0,0,11.607-9.25c.01-.081.019-.161.027-.243a10.618,10.618,0,1,0-20.179,3.436.235.235,0,0,1-.426.2,11.09,11.09,0,1,1,10.051,6.383Z" transform="translate(-1078.953 -767.72)" fill="url(#linear-gradient)"/>
        </g>
      </g>
      <g id="Grupo_87862" data-name="Grupo 87862" transform="translate(37.869)">
        <g id="Grupo_87858" data-name="Grupo 87858" opacity="0.64">
          <path id="Trazado_115276" data-name="Trazado 115276" d="M1115.964,763.879a.589.589,0,0,1-.564-.423c-.092-.313-.174-.633-.244-.951a.588.588,0,1,1,1.149-.253c.065.292.14.585.224.872a.589.589,0,0,1-.4.731A.6.6,0,0,1,1115.964,763.879Z" transform="translate(-1114.822 -745.055)" fill="#fff"/>
          <path id="Trazado_115277" data-name="Trazado 115277" d="M1115.349,756.821h0a.589.589,0,0,1-.588-.589c0-.326.013-.657.035-.984.021-.309.053-.623.094-.931a.589.589,0,1,1,1.167.156c-.038.282-.067.571-.087.856-.021.3-.032.605-.032.9A.589.589,0,0,1,1115.349,756.821Zm.841-4.74a.6.6,0,0,1-.2-.036.588.588,0,0,1-.35-.755,14.2,14.2,0,0,1,.782-1.757.588.588,0,0,1,1.041.55,13.128,13.128,0,0,0-.718,1.611A.588.588,0,0,1,1116.19,752.081Zm2.425-4.16a.589.589,0,0,1-.448-.97,14.57,14.57,0,0,1,1.337-1.378.589.589,0,0,1,.789.874,13.226,13.226,0,0,0-1.229,1.266A.586.586,0,0,1,1118.615,747.921Zm3.707-3.073a.588.588,0,0,1-.292-1.1,14.477,14.477,0,0,1,1.728-.836A.589.589,0,1,1,1124.2,744a13.139,13.139,0,0,0-1.586.767A.584.584,0,0,1,1122.322,744.848Zm11.134-1.1a.589.589,0,0,1-.184-.029,13.1,13.1,0,0,0-1.708-.44.588.588,0,1,1,.216-1.157,14.276,14.276,0,0,1,1.861.478.589.589,0,0,1-.185,1.147Zm-6.6-.51a.589.589,0,0,1-.1-1.169,14.4,14.4,0,0,1,1.912-.187.588.588,0,1,1,.036,1.176,13.3,13.3,0,0,0-1.754.172A.65.65,0,0,1,1126.857,743.238Z" transform="translate(-1114.761 -741.882)" fill="#fff"/>
          <path id="Trazado_115278" data-name="Trazado 115278" d="M1140.931,745.877a.584.584,0,0,1-.335-.105c-.246-.171-.5-.335-.757-.488a.589.589,0,0,1,.6-1.01c.279.167.557.346.824.532a.589.589,0,0,1-.336,1.072Z" transform="translate(-1118.712 -742.25)" fill="#fff"/>
        </g>
        <g id="Grupo_87859" data-name="Grupo 87859" transform="translate(5.404 11.02)" opacity="0.64">
          <path id="Trazado_115279" data-name="Trazado 115279" d="M1147.951,757.1a.59.59,0,0,1-.583-.512c-.039-.3-.089-.6-.149-.889a.588.588,0,0,1,1.153-.234c.066.319.119.645.162.968a.589.589,0,0,1-.506.661A.612.612,0,0,1,1147.951,757.1Z" transform="translate(-1125.336 -754.991)" fill="#fff"/>
          <path id="Trazado_115280" data-name="Trazado 115280" d="M1130.806,773.425q-.182,0-.363-.005a.588.588,0,1,1,.029-1.176,13.231,13.231,0,0,0,1.733-.071.588.588,0,1,1,.124,1.17A14.387,14.387,0,0,1,1130.806,773.425Zm-3.265-.388a.565.565,0,0,1-.139-.017,14.258,14.258,0,0,1-1.8-.564.589.589,0,1,1,.424-1.1,13.117,13.117,0,0,0,1.655.518.589.589,0,0,1-.138,1.161Zm7.6-.314a.588.588,0,0,1-.186-1.147,13.268,13.268,0,0,0,1.6-.655.588.588,0,1,1,.516,1.058,14.349,14.349,0,0,1-1.748.714A.574.574,0,0,1,1135.141,772.723Zm4.167-2.247a.588.588,0,0,1-.364-1.051,13.526,13.526,0,0,0,1.29-1.16.588.588,0,1,1,.842.822,14.575,14.575,0,0,1-1.4,1.263A.586.586,0,0,1,1139.308,770.476Zm3.165-3.523a.582.582,0,0,1-.312-.09.588.588,0,0,1-.186-.811,13.214,13.214,0,0,0,.821-1.527.588.588,0,1,1,1.071.488,14.235,14.235,0,0,1-.9,1.665A.588.588,0,0,1,1142.474,766.953Zm1.784-4.389a.566.566,0,0,1-.124-.013.588.588,0,0,1-.451-.7,13.484,13.484,0,0,0,.253-1.716.588.588,0,1,1,1.173.1,14.469,14.469,0,0,1-.276,1.869A.588.588,0,0,1,1144.257,762.564Z" transform="translate(-1121.833 -755.724)" fill="#fff"/>
          <path id="Trazado_115281" data-name="Trazado 115281" d="M1122.543,773a.584.584,0,0,1-.325-.1c-.271-.18-.54-.372-.8-.57a.588.588,0,1,1,.716-.934c.238.182.484.358.733.523a.589.589,0,0,1-.326,1.079Z" transform="translate(-1121.19 -757.586)" fill="#fff"/>
        </g>
        <g id="Grupo_87861" data-name="Grupo 87861" transform="translate(3.707 3.582)">
          <g id="Grupo_87860" data-name="Grupo 87860">
            <path id="Trazado_115282" data-name="Trazado 115282" d="M1122.39,764.444a.165.165,0,0,0,.185.05l1.888-.694a8.756,8.756,0,0,0,2.5,1.346l.461,1.958a.164.164,0,0,0,.144.126l2.4.244a.166.166,0,0,0,.166-.095l.844-1.826a8.783,8.783,0,0,0,2.719-.817l1.711,1.059a.166.166,0,0,0,.192-.013l1.87-1.527a.165.165,0,0,0,.051-.185l-.7-1.888a8.778,8.778,0,0,0,1.347-2.5l1.958-.461a.165.165,0,0,0,.126-.144l.244-2.4a.165.165,0,0,0-.1-.166l-1.825-.844a8.755,8.755,0,0,0-.818-2.719l1.059-1.711a.166.166,0,0,0-.013-.192l-1.526-1.87a.166.166,0,0,0-.185-.051l-1.889.7a8.736,8.736,0,0,0-2.5-1.347l-.461-1.958a.165.165,0,0,0-.144-.126l-2.4-.244a.165.165,0,0,0-.166.1l-.844,1.825a8.748,8.748,0,0,0-2.719.818l-1.711-1.059a.166.166,0,0,0-.192.013l-1.87,1.526a.165.165,0,0,0-.05.185l.694,1.889a8.753,8.753,0,0,0-1.346,2.5l-1.958.461a.166.166,0,0,0-.127.144l-.243,2.4a.166.166,0,0,0,.095.166l1.826.844a8.764,8.764,0,0,0,.817,2.719l-1.059,1.711a.166.166,0,0,0,.013.192Z" transform="translate(-1119.171 -746.143)" fill="#bdf1fb"/>
          </g>
          <path id="Trazado_115283" data-name="Trazado 115283" d="M1131.313,761.14a2.858,2.858,0,1,1,.421-.031A2.861,2.861,0,0,1,1131.313,761.14Zm.007-4.286a1.475,1.475,0,0,0-.21.015,1.437,1.437,0,1,0,.419,2.843h0a1.437,1.437,0,0,0-.208-2.858Z" transform="translate(-1120.653 -747.625)" fill="#fff" opacity="0.56"/>
          <path id="Trazado_115284" data-name="Trazado 115284" d="M1130.765,763.7a6.211,6.211,0,0,1-.622-.032h0a6.1,6.1,0,0,1-1.262-.265.235.235,0,0,1-.163-.224.221.221,0,0,1,.012-.073.235.235,0,0,1,.3-.151,5.592,5.592,0,0,0,7.288-4.752,5.728,5.728,0,0,0,.029-.575,5.589,5.589,0,1,0-10.65,2.383.232.232,0,0,1,.023.1.236.236,0,0,1-.449.1,6.06,6.06,0,1,1,11.547-2.577,6.1,6.1,0,0,1-.031.616,6.062,6.062,0,0,1-6.017,5.45Z" transform="translate(-1120.051 -747.01)" fill="url(#linear-gradient)"/>
        </g>
      </g>
    </g>
    <path id="Trazado_115285" data-name="Trazado 115285" d="M1196.658,875.78s-75.408.778-96.412-16.712-13.1-34.927,2.984-39.867,18.827-10.076,10.172-17.005-19.645-21.153-1.4-35.447,39.072,6.237,55.382,3.51,9.85-11.907,31.3-5.567,16.72-12.121,33.964-13.795,15.477,19.2,33.213,11.322,32.245-6.793,39.87,5.722,4.313,29.371-12.416,39.416-14.933,9.36-8.681,19.232,11.859,42.331-16.6,46.968S1196.658,875.78,1196.658,875.78Z" transform="translate(-2.841 -5.242)" fill="url(#linear-gradient)"/>
    <g id="Grupo_87867" data-name="Grupo 87867" transform="translate(1249.741 752.04)">
      <g id="Grupo_87866" data-name="Grupo 87866">
        <g id="Grupo_87864" data-name="Grupo 87864" transform="translate(0.639)">
          <path id="Trazado_115286" data-name="Trazado 115286" d="M1302.484,762.811a10.23,10.23,0,1,1,16.67,11.86h0a10.955,10.955,0,0,0-1.742,8.835,13.016,13.016,0,0,1-2.075,10.526h0a12.228,12.228,0,0,0-1.725,10.677,14.815,14.815,0,1,1-26.234-4.237q.381-.535.8-1.026a15.281,15.281,0,0,0,3.552-11.569,13.067,13.067,0,0,1,5.321-11.99,8.564,8.564,0,0,0,3.541-7.039A10.181,10.181,0,0,1,1302.484,762.811Z" transform="translate(-1284.632 -758.511)" fill="#91ebfa"/>
          <path id="Trazado_115287" data-name="Trazado 115287" d="M1300.507,821.462l-.024,0a.26.26,0,0,1-.235-.283A178.571,178.571,0,0,1,1312.5,770.4a.26.26,0,0,1,.475.213,178.016,178.016,0,0,0-12.21,50.617A.261.261,0,0,1,1300.507,821.462Z" transform="translate(-1287.121 -760.38)" fill="#bdf1fb"/>
          <path id="Trazado_115288" data-name="Trazado 115288" d="M1311.21,780.544a.261.261,0,0,1,0-.521c2.944-.051,8.043-4.2,8.094-4.242a.26.26,0,0,1,.33.4c-.215.176-5.293,4.306-8.416,4.36Z" transform="translate(-1288.827 -761.254)" fill="#bdf1fb"/>
          <path id="Trazado_115289" data-name="Trazado 115289" d="M1310.433,779.842a.26.26,0,0,1-.214-.113,20.5,20.5,0,0,1-3.114-7.381.26.26,0,1,1,.515-.076,20.408,20.408,0,0,0,3.028,7.162.26.26,0,0,1-.067.361A.256.256,0,0,1,1310.433,779.842Z" transform="translate(-1288.214 -760.668)" fill="#bdf1fb"/>
          <path id="Trazado_115290" data-name="Trazado 115290" d="M1306.089,797.95a.26.26,0,0,1-.048-.516c4.769-.886,9.136-5.372,9.18-5.417a.26.26,0,0,1,.375.361c-.183.189-4.528,4.651-9.46,5.568A.3.3,0,0,1,1306.089,797.95Z" transform="translate(-1288.01 -763.838)" fill="#bdf1fb"/>
          <path id="Trazado_115291" data-name="Trazado 115291" d="M1305,797.3a.255.255,0,0,1-.156-.052c-.156-.116-3.819-2.909-5.021-9.262a.261.261,0,1,1,.512-.1c1.162,6.142,4.784,8.915,4.82,8.942a.26.26,0,0,1-.156.469Z" transform="translate(-1287.052 -763.16)" fill="#bdf1fb"/>
          <path id="Trazado_115292" data-name="Trazado 115292" d="M1300.281,819.43a.262.262,0,0,1-.151-.048,17.212,17.212,0,0,1-6.036-8.841.26.26,0,0,1,.5-.135,16.972,16.972,0,0,0,5.834,8.552.26.26,0,0,1-.15.472Z" transform="translate(-1286.139 -766.751)" fill="#fff"/>
          <path id="Trazado_115293" data-name="Trazado 115293" d="M1301.618,820.144a.26.26,0,0,1-.026-.52,15.156,15.156,0,0,0,8.753-5.185.26.26,0,0,1,.388.346c-4.3,4.818-8.895,5.337-9.088,5.357Z" transform="translate(-1287.298 -767.41)" fill="#fff"/>
        </g>
        <g id="Grupo_87865" data-name="Grupo 87865" transform="translate(0 13.35)">
          <path id="Trazado_115294" data-name="Trazado 115294" d="M1351.612,792.729a13.107,13.107,0,0,0-24.041-10.452h0a14.035,14.035,0,0,1-8.543,7.756,16.675,16.675,0,0,0-10.18,9.238,15.67,15.67,0,0,1-10.572,8.954,18.983,18.983,0,1,0,21.994,25.989q.335-.77.6-1.554a19.582,19.582,0,0,1,10.346-11.549,16.741,16.741,0,0,0,9.639-13.769,10.974,10.974,0,0,1,5.384-8.542A13.042,13.042,0,0,0,1351.612,792.729Z" transform="translate(-1283.873 -774.392)" fill="#bdf1fb"/>
          <path id="Trazado_115295" data-name="Trazado 115295" d="M1294.131,837.811a.26.26,0,0,1-.155-.47c30.2-22.277,47.321-46.65,47.49-46.893a.26.26,0,1,1,.427.3c-.17.244-17.331,24.685-47.609,47.015A.257.257,0,0,1,1294.131,837.811Z" transform="translate(-1285.466 -776.933)" fill="url(#linear-gradient)"/>
          <path id="Trazado_115296" data-name="Trazado 115296" d="M1341.4,799.83a.261.261,0,0,1-.225-.13c-1.993-3.442-.822-11.721-.772-12.071a.26.26,0,0,1,.515.075c-.012.084-1.2,8.45.707,11.736a.261.261,0,0,1-.225.391Z" transform="translate(-1292.82 -776.466)" fill="url(#linear-gradient-6)"/>
          <path id="Trazado_115297" data-name="Trazado 115297" d="M1343.153,801.967c-.74,0-1.212-.027-1.277-.031a.26.26,0,1,1,.032-.519c.056,0,5.717.329,9.894-1.419a.26.26,0,1,1,.2.48A24.537,24.537,0,0,1,1343.153,801.967Z" transform="translate(-1293.078 -778.47)" fill="url(#linear-gradient-7)"/>
          <path id="Trazado_115298" data-name="Trazado 115298" d="M1325.453,816.742a.259.259,0,0,1-.244-.17c-2.248-5.994-.165-13.938-.144-14.017a.26.26,0,0,1,.5.134c-.021.078-2.06,7.863.129,13.7a.261.261,0,0,1-.153.335A.267.267,0,0,1,1325.453,816.742Z" transform="translate(-1290.294 -778.85)" fill="url(#linear-gradient-8)"/>
          <path id="Trazado_115299" data-name="Trazado 115299" d="M1331.108,820.3a15.578,15.578,0,0,1-5.5-.868.261.261,0,0,1,.2-.482c.054.023,5.515,2.175,13.053-.622a.26.26,0,0,1,.182.488A22.769,22.769,0,0,1,1331.108,820.3Z" transform="translate(-1290.499 -781.392)" fill="url(#linear-gradient-9)"/>
          <path id="Trazado_115300" data-name="Trazado 115300" d="M1312.61,840.607a22.878,22.878,0,0,1-8.21-1.515.26.26,0,0,1,.208-.477,21.859,21.859,0,0,0,13.294.751.26.26,0,1,1,.143.5A19.675,19.675,0,0,1,1312.61,840.607Z" transform="translate(-1287.119 -784.624)" fill="#fff"/>
          <path id="Trazado_115301" data-name="Trazado 115301" d="M1304.071,836.407a.26.26,0,0,1-.235-.149c-.106-.224-2.566-5.589-.129-13.464a.26.26,0,0,1,.5.154,21.769,21.769,0,0,0-.85,9.451,14.076,14.076,0,0,0,.952,3.637.259.259,0,0,1-.235.371Z" transform="translate(-1286.862 -782.077)" fill="#fff"/>
        </g>
      </g>
    </g>
    <g id="Grupo_87868" data-name="Grupo 87868" transform="translate(1088.72 739.297)">
      <path id="Trazado_115302" data-name="Trazado 115302" d="M1271,800.989a1.426,1.426,0,0,1-1.393-1.4c-.143-7.835-2.587-46.739-36.848-54.869-38.143-9.051-55.6,29.74-55.6,29.74s-47.194-18.1-56.245,30.385c-29.593,7.1-37.281,45.748-18.033,64.632a16.545,16.545,0,0,0,11.441,4.734l185.323,1.67a12.2,12.2,0,0,0,11.807-8.727C1317.241,847.617,1324.829,802.25,1271,800.989Z" transform="translate(-1092.323 -743.351)" fill="url(#linear-gradient-10)"/>
      <path id="Trazado_115303" data-name="Trazado 115303" d="M1267.791,802.7a1.426,1.426,0,0,1-1.393-1.4c-.151-7.514-2.572-43.589-34.841-51.151-36.067-8.452-52.573,27.771-52.573,27.771s-44.625-16.9-53.184,28.375c-27.713,6.569-35.11,42.032-17.568,59.844a16.551,16.551,0,0,0,11.645,4.936l174.457,1.553a12.2,12.2,0,0,0,11.816-8.759C1311.591,845.318,1318.048,803.9,1267.791,802.7Z" transform="translate(-1093.35 -744.232)" fill="url(#linear-gradient-11)"/>
    </g>
    <g id="Grupo_87872" data-name="Grupo 87872" transform="translate(1076.839 801.012)">
      <g id="Grupo_87871" data-name="Grupo 87871" transform="translate(0)">
        <g id="Grupo_87869" data-name="Grupo 87869" transform="translate(0 18.626)">
          <path id="Trazado_115304" data-name="Trazado 115304" d="M1078.194,846.941a8.291,8.291,0,0,1,16.574.548h0a8.876,8.876,0,0,0,2.779,6.749,10.548,10.548,0,0,1,3.311,8.04,9.912,9.912,0,0,0,3.613,7.984,12.008,12.008,0,1,1-19.618,8.887q.018-.532.08-1.05a12.388,12.388,0,0,0-2.78-9.407,10.589,10.589,0,0,1-1.774-10.482,6.943,6.943,0,0,0-.761-6.342A8.249,8.249,0,0,1,1078.194,846.941Z" transform="translate(-1078.189 -838.923)" fill="#91ebfa"/>
          <path id="Trazado_115305" data-name="Trazado 115305" d="M1101.927,888.943a.26.26,0,0,1-.229-.137A144.768,144.768,0,0,1,1087.232,849a.26.26,0,0,1,.514-.085,144.2,144.2,0,0,0,14.411,39.648.261.261,0,0,1-.23.383Z" transform="translate(-1079.63 -840.481)" fill="#bdf1fb"/>
          <path id="Trazado_115306" data-name="Trazado 115306" d="M1089.635,856.844a.26.26,0,0,1-.148-.475c1.951-1.343,3.534-6.413,3.55-6.464a.26.26,0,0,1,.5.154c-.066.215-1.653,5.294-3.753,6.739A.26.26,0,0,1,1089.635,856.844Z" transform="translate(-1079.972 -840.644)" fill="#bdf1fb"/>
          <path id="Trazado_115307" data-name="Trazado 115307" d="M1088.43,857.419a.241.241,0,0,1-.1-.019,16.68,16.68,0,0,1-5.428-3.6.26.26,0,0,1,.388-.348,16.471,16.471,0,0,0,5.234,3.47.26.26,0,0,1-.1.5Z" transform="translate(-1078.931 -841.224)" fill="#bdf1fb"/>
          <path id="Trazado_115308" data-name="Trazado 115308" d="M1094.07,870.807a.261.261,0,0,1-.181-.448c2.81-2.72,3.752-7.693,3.761-7.743a.26.26,0,0,1,.512.094c-.039.21-.979,5.186-3.911,8.023A.256.256,0,0,1,1094.07,870.807Z" transform="translate(-1080.679 -842.665)" fill="#bdf1fb"/>
          <path id="Trazado_115309" data-name="Trazado 115309" d="M1092.577,871.649h-.015a12.468,12.468,0,0,1-7.572-4.024.26.26,0,0,1,.372-.363,12.138,12.138,0,0,0,7.228,3.867.26.26,0,0,1-.013.52Z" transform="translate(-1079.261 -843.427)" fill="#bdf1fb"/>
          <path id="Trazado_115310" data-name="Trazado 115310" d="M1099.3,888.709h-.008a14.011,14.011,0,0,1-8.068-3.283.26.26,0,0,1,.345-.39,13.7,13.7,0,0,0,7.74,3.152.26.26,0,0,1-.008.52Z" transform="translate(-1080.253 -846.262)" fill="#bdf1fb"/>
          <path id="Trazado_115311" data-name="Trazado 115311" d="M1100.969,887.836a.261.261,0,0,1-.166-.461,12.25,12.25,0,0,0,3.575-7.391.26.26,0,1,1,.515.074,12.515,12.515,0,0,1-3.759,7.719A.255.255,0,0,1,1100.969,887.836Z" transform="translate(-1081.778 -845.432)" fill="#fff"/>
        </g>
        <g id="Grupo_87870" data-name="Grupo 87870" transform="translate(12.404)">
          <path id="Trazado_115312" data-name="Trazado 115312" d="M1112.9,822.317a10.624,10.624,0,1,0-18.665,10.152h0a11.379,11.379,0,0,1,.7,9.327,13.513,13.513,0,0,0,.829,11.111,12.705,12.705,0,0,1,.452,11.221,15.386,15.386,0,1,0,27.573-1.1q-.325-.6-.7-1.157a15.872,15.872,0,0,1-2.223-12.371,13.567,13.567,0,0,0-3.993-13.024,8.9,8.9,0,0,1-2.774-7.7A10.576,10.576,0,0,0,1112.9,822.317Z" transform="translate(-1092.946 -816.767)" fill="#bdf1fb"/>
          <path id="Trazado_115313" data-name="Trazado 115313" d="M1112.549,883.365h-.007a.261.261,0,0,1-.254-.267A184.811,184.811,0,0,0,1106,829.387a.26.26,0,0,1,.5-.155,185.4,185.4,0,0,1,6.311,53.88A.26.26,0,0,1,1112.549,883.365Z" transform="translate(-1095.025 -818.724)" fill="url(#linear-gradient)"/>
          <path id="Trazado_115314" data-name="Trazado 115314" d="M1107.386,839.939l-.035,0c-3.21-.445-7.929-5.333-8.128-5.541a.26.26,0,0,1,.376-.36c.047.05,4.792,4.965,7.824,5.384a.261.261,0,0,1-.036.519Z" transform="translate(-1093.934 -819.506)" fill="url(#linear-gradient)"/>
          <path id="Trazado_115315" data-name="Trazado 115315" d="M1109.116,839.506a.261.261,0,0,1-.2-.433,21.175,21.175,0,0,0,4.015-7.011.261.261,0,0,1,.5.137,21.282,21.282,0,0,1-4.127,7.218A.26.26,0,0,1,1109.116,839.506Z" transform="translate(-1095.481 -819.174)" fill="url(#linear-gradient)"/>
          <path id="Trazado_115316" data-name="Trazado 115316" d="M1110.291,858.5a.28.28,0,0,1-.078-.012c-4.966-1.558-8.89-6.7-9.054-6.915a.26.26,0,0,1,.415-.314c.04.052,3.989,5.225,8.795,6.732a.26.26,0,0,1-.078.509Z" transform="translate(-1094.246 -822.247)" fill="url(#linear-gradient)"/>
          <path id="Trazado_115317" data-name="Trazado 115317" d="M1112.143,858.186a.26.26,0,0,1-.13-.486c.041-.024,4.124-2.433,6.088-8.624a.261.261,0,0,1,.5.157c-2.03,6.4-6.151,8.818-6.326,8.918A.254.254,0,0,1,1112.143,858.186Z" transform="translate(-1095.964 -821.887)" fill="url(#linear-gradient)"/>
          <path id="Trazado_115318" data-name="Trazado 115318" d="M1114.06,881.587a.26.26,0,0,1-.124-.488,17.673,17.673,0,0,0,7.085-8.1.261.261,0,0,1,.483.195,18.225,18.225,0,0,1-7.319,8.358A.265.265,0,0,1,1114.06,881.587Z" transform="translate(-1096.269 -825.703)" fill="url(#linear-gradient)"/>
          <path id="Trazado_115319" data-name="Trazado 115319" d="M1112.214,881.946a.261.261,0,0,1-.057-.007c-.2-.045-4.87-1.152-8.7-6.65a.26.26,0,0,1,.427-.3,17.6,17.6,0,0,0,5.6,5.239,11.369,11.369,0,0,0,2.789,1.2.261.261,0,0,1-.057.514Z" transform="translate(-1094.614 -826.028)" fill="url(#linear-gradient)"/>
        </g>
      </g>
    </g>
    <g id="Grupo_87885" data-name="Grupo 87885" transform="translate(1267.627 812.735)">
      <g id="Grupo_87878" data-name="Grupo 87878" transform="translate(0 10.925)">
        <g id="Grupo_87873" data-name="Grupo 87873">
          <path id="Trazado_115320" data-name="Trazado 115320" d="M1306.7,875.023a.651.651,0,0,1-.624-.467c-.1-.343-.193-.693-.276-1.04a.65.65,0,0,1,1.266-.3c.077.324.164.651.258.972a.651.651,0,0,1-.441.808A.631.631,0,0,1,1306.7,875.023Z" transform="translate(-1305.25 -848.332)" fill="#bdf1fb"/>
          <path id="Trazado_115321" data-name="Trazado 115321" d="M1305.837,866.079a.651.651,0,0,1-.649-.609c-.026-.424-.039-.854-.039-1.279,0-.283.006-.57.018-.852a.651.651,0,1,1,1.3.054c-.012.267-.017.533-.017.8,0,.4.013.8.037,1.2a.65.65,0,0,1-.609.69Zm.4-5.387a.682.682,0,0,1-.135-.014.652.652,0,0,1-.5-.772,20.7,20.7,0,0,1,.55-2.059.651.651,0,0,1,1.238.4,19.06,19.06,0,0,0-.514,1.928A.652.652,0,0,1,1306.233,860.692Zm1.833-5.082a.651.651,0,0,1-.576-.954,20.659,20.659,0,0,1,1.089-1.832.65.65,0,1,1,1.082.722,19.305,19.305,0,0,0-1.02,1.716A.65.65,0,0,1,1308.066,855.611Zm3.143-4.394a.651.651,0,0,1-.473-1.1,20.713,20.713,0,0,1,1.543-1.47.65.65,0,0,1,.847.987,19.409,19.409,0,0,0-1.444,1.378A.648.648,0,0,1,1311.209,851.217Zm4.211-3.385a.651.651,0,0,1-.336-1.209,20.786,20.786,0,0,1,1.88-1,.651.651,0,0,1,.551,1.179,19.192,19.192,0,0,0-1.761.937A.647.647,0,0,1,1315.42,847.831Zm17.619-1.381a.641.641,0,0,1-.244-.048,19.193,19.193,0,0,0-1.886-.65.651.651,0,0,1,.358-1.251,20.365,20.365,0,0,1,2.017.694.651.651,0,0,1-.245,1.254Zm-12.656-.743a.651.651,0,0,1-.172-1.279,20.178,20.178,0,0,1,2.082-.453.65.65,0,1,1,.21,1.284,18.977,18.977,0,0,0-1.949.424A.639.639,0,0,1,1320.383,845.707Zm7.418-.576a.711.711,0,0,1-.072,0c-.263-.029-.528-.053-.8-.071-.4-.027-.8-.043-1.2-.045a.651.651,0,0,1,.005-1.3h0c.424,0,.854.019,1.28.049.284.019.567.045.848.076a.651.651,0,0,1-.071,1.3Z" transform="translate(-1305.149 -843.709)" fill="#bdf1fb"/>
          <path id="Trazado_115322" data-name="Trazado 115322" d="M1342.642,849.106a.647.647,0,0,1-.372-.117c-.271-.189-.555-.375-.841-.552a.651.651,0,0,1,.686-1.106c.305.19.608.388.9.591a.651.651,0,0,1-.371,1.184Z" transform="translate(-1310.882 -844.271)" fill="#bdf1fb"/>
        </g>
        <g id="Grupo_87874" data-name="Grupo 87874" transform="translate(7.772 15.858)">
          <path id="Trazado_115323" data-name="Trazado 115323" d="M1352.645,864.9a.65.65,0,0,1-.642-.555c-.05-.333-.108-.666-.174-.992a.651.651,0,1,1,1.275-.258c.071.347.133.7.186,1.058a.65.65,0,0,1-.548.739A.631.631,0,0,1,1352.645,864.9Z" transform="translate(-1320.358 -862.573)" fill="#bdf1fb"/>
          <path id="Trazado_115324" data-name="Trazado 115324" d="M1326.568,888.418h-.04l-.151-.01c-.646-.045-1.3-.12-1.933-.225a.651.651,0,1,1,.212-1.284c.6.1,1.205.169,1.812.211l.139.009a.65.65,0,0,1-.039,1.3Zm3.293-.067a.651.651,0,0,1-.066-1.3,19.351,19.351,0,0,0,1.939-.3.651.651,0,1,1,.266,1.274,20.216,20.216,0,0,1-2.071.324A.63.63,0,0,1,1329.861,888.351Zm-8.509-.965a.635.635,0,0,1-.211-.035,20.162,20.162,0,0,1-1.947-.781.651.651,0,1,1,.547-1.181,18.808,18.808,0,0,0,1.822.731.651.651,0,0,1-.211,1.266Zm13.673-.293a.65.65,0,0,1-.238-1.256,19.32,19.32,0,0,0,1.787-.811.651.651,0,0,1,.6,1.156,20.466,20.466,0,0,1-1.909.866A.643.643,0,0,1,1335.025,887.093Zm4.64-2.59a.651.651,0,0,1-.391-1.171,19.185,19.185,0,0,0,1.509-1.257.651.651,0,0,1,.883.957,20.65,20.65,0,0,1-1.612,1.341A.644.644,0,0,1,1339.666,884.5Zm3.789-3.726a.651.651,0,0,1-.513-1.05,19.232,19.232,0,0,0,1.122-1.611.651.651,0,0,1,1.1.688,20.713,20.713,0,0,1-1.2,1.721A.652.652,0,0,1,1343.454,880.776Zm2.664-4.6a.638.638,0,0,1-.246-.049.65.65,0,0,1-.355-.849,19.112,19.112,0,0,0,.651-1.852.651.651,0,1,1,1.248.367,20.206,20.206,0,0,1-.7,1.979A.649.649,0,0,1,1346.118,876.176Zm1.339-5.143a.653.653,0,0,1-.647-.729c.04-.325.072-.658.094-.988s.036-.647.043-.972a.65.65,0,1,1,1.3.025c-.007.345-.022.694-.045,1.036s-.058.706-.1,1.053A.651.651,0,0,1,1347.457,871.033Z" transform="translate(-1315.099 -863.391)" fill="#bdf1fb"/>
          <path id="Trazado_115325" data-name="Trazado 115325" d="M1315.886,887.906a.646.646,0,0,1-.367-.114c-.3-.2-.588-.414-.87-.631a.651.651,0,1,1,.792-1.032c.265.2.539.4.815.591a.651.651,0,0,1-.369,1.187Z" transform="translate(-1314.394 -866.306)" fill="#bdf1fb"/>
        </g>
        <g id="Grupo_87877" data-name="Grupo 87877" transform="translate(5.136 4.965)">
          <g id="Grupo_87875" data-name="Grupo 87875">
            <path id="Trazado_115326" data-name="Trazado 115326" d="M1315.887,875.936a.238.238,0,0,0,.266.073l2.716-1a12.589,12.589,0,0,0,3.6,1.936l.662,2.815a.238.238,0,0,0,.208.182l3.453.35a.237.237,0,0,0,.24-.136l1.214-2.625a12.62,12.62,0,0,0,3.911-1.176l2.461,1.523a.238.238,0,0,0,.276-.018l2.689-2.194a.238.238,0,0,0,.072-.266l-1-2.716a12.608,12.608,0,0,0,1.937-3.6l2.815-.662a.24.24,0,0,0,.182-.208l.35-3.453a.237.237,0,0,0-.137-.24l-2.625-1.214A12.6,12.6,0,0,0,1338,859.4l1.523-2.461a.238.238,0,0,0-.018-.276l-2.195-2.689a.238.238,0,0,0-.266-.073l-2.716,1a12.611,12.611,0,0,0-3.6-1.937l-.662-2.815a.238.238,0,0,0-.207-.182l-3.454-.35a.238.238,0,0,0-.24.137l-1.214,2.625a12.592,12.592,0,0,0-3.911,1.176l-2.461-1.523a.238.238,0,0,0-.276.018l-2.689,2.195a.237.237,0,0,0-.073.267l1,2.716a12.6,12.6,0,0,0-1.937,3.6l-2.815.663a.236.236,0,0,0-.182.207l-.35,3.454a.238.238,0,0,0,.136.24l2.625,1.213a12.613,12.613,0,0,0,1.176,3.911l-1.523,2.461a.238.238,0,0,0,.019.276Z" transform="translate(-1311.259 -849.616)" fill="#7dd4f4"/>
          </g>
          <g id="Grupo_87876" data-name="Grupo 87876" transform="translate(11.476 11.476)">
            <path id="Trazado_115327" data-name="Trazado 115327" d="M1328.771,870.995a3.868,3.868,0,1,1,.566-.042h0A3.915,3.915,0,0,1,1328.771,870.995Zm.452-.815h0Zm-.445-5.351a2.3,2.3,0,1,0,2.272,1.967,2.3,2.3,0,0,0-2.272-1.967Z" transform="translate(-1324.91 -863.267)" fill="#bdf1fb"/>
          </g>
          <path id="Trazado_115328" data-name="Trazado 115328" d="M1327.938,874.8q-.435,0-.877-.045h0a8.678,8.678,0,0,1-1.8-.377.261.261,0,0,1-.18-.247.27.27,0,0,1,.013-.081.262.262,0,0,1,.328-.167,8.211,8.211,0,0,0,1.692.355,8.125,8.125,0,0,0,8.892-7.256c.028-.277.041-.553.041-.826a8.116,8.116,0,1,0-15.466,3.452.257.257,0,0,1,.024.11.26.26,0,0,1-.5.111,8.61,8.61,0,0,1-.814-3.659,8.478,8.478,0,0,1,.044-.877,8.637,8.637,0,0,1,17.229.853q0,.443-.044.888A8.65,8.65,0,0,1,1327.938,874.8Z" transform="translate(-1312.54 -850.877)" fill="#bdf1fb"/>
        </g>
      </g>
      <g id="Grupo_87884" data-name="Grupo 87884" transform="translate(29.332)">
        <g id="Grupo_87879" data-name="Grupo 87879">
          <path id="Trazado_115329" data-name="Trazado 115329" d="M1341.069,848.028a.652.652,0,0,1-.625-.467c-.1-.352-.19-.714-.258-1.074a.651.651,0,1,1,1.279-.241c.06.318.137.637.229.949a.651.651,0,0,1-.441.807A.632.632,0,0,1,1341.069,848.028Z" transform="translate(-1340.063 -833.104)" fill="#bdf1fb"/>
          <path id="Trazado_115330" data-name="Trazado 115330" d="M1340.693,841.41a.742.742,0,0,1-.076,0,.65.65,0,0,1-.572-.721,11.276,11.276,0,0,1,.436-2.06.65.65,0,0,1,1.242.388,10,10,0,0,0-.385,1.822A.651.651,0,0,1,1340.693,841.41Zm1.823-4.829a.651.651,0,0,1-.534-1.022,11.4,11.4,0,0,1,1.359-1.609.651.651,0,0,1,.912.928,9.962,9.962,0,0,0-1.2,1.424A.649.649,0,0,1,1342.517,836.581Zm3.888-3.4a.651.651,0,0,1-.3-1.23,11.214,11.214,0,0,1,1.955-.782.65.65,0,0,1,.368,1.247,10.029,10.029,0,0,0-1.729.692A.65.65,0,0,1,1346.4,833.181Zm7-.948a.7.7,0,0,1-.131-.013,10.154,10.154,0,0,0-1.335-.182q-.26-.018-.519-.023a.651.651,0,0,1,.024-1.3c.194,0,.388.013.584.026a11.324,11.324,0,0,1,1.507.205.651.651,0,0,1-.13,1.289Z" transform="translate(-1340.042 -830.713)" fill="#bdf1fb"/>
          <path id="Trazado_115331" data-name="Trazado 115331" d="M1360.3,834.164a.653.653,0,0,1-.371-.116c-.267-.186-.546-.36-.828-.518a.651.651,0,0,1,.635-1.136,11.023,11.023,0,0,1,.936.585.65.65,0,0,1-.372,1.184Z" transform="translate(-1343.026 -830.967)" fill="#bdf1fb"/>
        </g>
        <g id="Grupo_87880" data-name="Grupo 87880" transform="translate(4.098 8.509)">
          <path id="Trazado_115332" data-name="Trazado 115332" d="M1365.8,843.164a.651.651,0,0,1-.646-.584c-.034-.324-.082-.649-.147-.966a.651.651,0,0,1,1.275-.259c.073.359.129.726.166,1.092a.651.651,0,0,1-.581.714A.612.612,0,0,1,1365.8,843.164Z" transform="translate(-1348.117 -840.835)" fill="#bdf1fb"/>
          <path id="Trazado_115333" data-name="Trazado 115333" d="M1351.98,855.654l-.047,0a11.362,11.362,0,0,1-2.043-.336.651.651,0,0,1,.328-1.259,10.139,10.139,0,0,0,1.808.3.651.651,0,0,1-.046,1.3Zm3.152-.241a.651.651,0,0,1-.145-1.285,9.982,9.982,0,0,0,1.738-.573.651.651,0,1,1,.519,1.193,11.29,11.29,0,0,1-1.966.649A.674.674,0,0,1,1355.132,855.413Zm4.532-2.292a.65.65,0,0,1-.424-1.144,10.085,10.085,0,0,0,1.276-1.315.65.65,0,1,1,1.012.817,11.42,11.42,0,0,1-1.442,1.485A.649.649,0,0,1,1359.664,853.121Zm2.956-4.129a.651.651,0,0,1-.6-.892,9.94,9.94,0,0,0,.519-1.756.65.65,0,0,1,1.276.252,11.152,11.152,0,0,1-.586,1.986A.649.649,0,0,1,1362.619,848.992Z" transform="translate(-1345.632 -841.629)" fill="#bdf1fb"/>
          <path id="Trazado_115334" data-name="Trazado 115334" d="M1346.423,855.3a.645.645,0,0,1-.342-.1,11.04,11.04,0,0,1-.909-.628.65.65,0,1,1,.792-1.032c.258.2.529.385.8.555a.651.651,0,0,1-.344,1.2Z" transform="translate(-1344.917 -842.837)" fill="#bdf1fb"/>
        </g>
        <g id="Grupo_87883" data-name="Grupo 87883" transform="translate(2.985 2.965)">
          <g id="Grupo_87881" data-name="Grupo 87881">
            <path id="Trazado_115335" data-name="Trazado 115335" d="M1346.077,848.363a.129.129,0,0,0,.143.039l1.458-.536a6.728,6.728,0,0,0,1.929,1.039l.356,1.511a.129.129,0,0,0,.111.1l1.854.187a.129.129,0,0,0,.129-.073l.652-1.409a6.749,6.749,0,0,0,2.1-.631l1.321.817a.126.126,0,0,0,.148-.009l1.443-1.178a.128.128,0,0,0,.039-.143l-.536-1.458a6.782,6.782,0,0,0,1.039-1.929l1.511-.356a.128.128,0,0,0,.1-.111l.188-1.854a.127.127,0,0,0-.073-.129l-1.409-.651a6.769,6.769,0,0,0-.63-2.1l.817-1.321a.128.128,0,0,0-.01-.148l-1.178-1.443a.127.127,0,0,0-.143-.039l-1.457.535a6.783,6.783,0,0,0-1.93-1.039l-.355-1.511a.127.127,0,0,0-.111-.1l-1.854-.187a.126.126,0,0,0-.129.073l-.651,1.409a6.763,6.763,0,0,0-2.1.63l-1.321-.817a.129.129,0,0,0-.148.009l-1.443,1.178a.127.127,0,0,0-.039.143l.536,1.458a6.763,6.763,0,0,0-1.04,1.93l-1.511.355a.129.129,0,0,0-.1.112l-.187,1.853a.128.128,0,0,0,.073.129l1.409.651a6.742,6.742,0,0,0,.631,2.1l-.818,1.321a.126.126,0,0,0,.01.147Z" transform="translate(-1343.593 -834.24)" fill="#7dd4f4"/>
          </g>
          <g id="Grupo_87882" data-name="Grupo 87882" transform="translate(5.797 5.796)">
            <path id="Trazado_115336" data-name="Trazado 115336" d="M1352.922,846a2.435,2.435,0,1,1,.356-.026A2.438,2.438,0,0,1,1352.922,846Zm0-3.308a.828.828,0,0,0-.129.009.873.873,0,1,0,.648.163A.864.864,0,0,0,1352.925,842.7Z" transform="translate(-1350.489 -841.134)" fill="#bdf1fb"/>
          </g>
          <path id="Trazado_115337" data-name="Trazado 115337" d="M1352.521,847.853c-.16,0-.32-.008-.483-.024h0c-.065-.007-.13-.015-.194-.024a4.806,4.806,0,0,1-.8-.183.262.262,0,0,1-.181-.248.267.267,0,0,1,.012-.08.26.26,0,0,1,.328-.167,4.361,4.361,0,0,0,.883.185h0a4.239,4.239,0,0,0,4.618-3.6c.008-.06.016-.122.022-.183a4.171,4.171,0,0,0,.022-.431,4.234,4.234,0,0,0-8.447-.423,4.126,4.126,0,0,0-.022.43,4.21,4.21,0,0,0,.4,1.794.251.251,0,0,1,.024.111.26.26,0,0,1-.5.111,4.737,4.737,0,0,1-.449-2.015c0-.161.008-.322.024-.482a4.755,4.755,0,0,1,9.486.475c0,.16-.008.321-.024.483A4.763,4.763,0,0,1,1352.521,847.853Z" transform="translate(-1344.258 -834.894)" fill="#bdf1fb"/>
        </g>
      </g>
    </g>
    <g id="Grupo_87891" data-name="Grupo 87891" transform="translate(1134.048 717.912)">
      <g id="Grupo_87890" data-name="Grupo 87890">
        <g id="Grupo_87888" data-name="Grupo 87888" transform="translate(31.334)">
          <g id="Grupo_87886" data-name="Grupo 87886" opacity="0.41">
            <ellipse id="Elipse_4505" data-name="Elipse 4505" cx="18.907" cy="18.566" rx="18.907" ry="18.566" transform="translate(0 35.641) rotate(-70.483)" fill="#bdf1fb"/>
          </g>
          <path id="Trazado_115338" data-name="Trazado 115338" d="M1227.4,749.41a20.662,20.662,0,1,0-26.5,12.927A20.852,20.852,0,0,0,1227.4,749.41Zm-36.083-12.79a17.627,17.627,0,1,1,10.615,22.8A17.787,17.787,0,0,1,1191.313,736.62Z" transform="translate(-1184.109 -718.485)" fill="url(#linear-gradient-19)"/>
          <g id="Grupo_87887" data-name="Grupo 87887" transform="translate(27.901 4.764)">
            <path id="Trazado_115339" data-name="Trazado 115339" d="M1224.409,758.307a.13.13,0,0,1-.081-.232,19.652,19.652,0,0,0,6.306-8.853,19.389,19.389,0,0,0-5.228-21h0a18.759,18.759,0,0,0-3.235-2.334.13.13,0,0,1,.129-.226,19.023,19.023,0,0,1,3.28,2.366h0a19.65,19.65,0,0,1,5.3,21.281,19.922,19.922,0,0,1-6.391,8.97A.126.126,0,0,1,1224.409,758.307Zm-6.14-34.1a.11.11,0,0,1-.037-.006c-.468-.14-.945-.263-1.42-.366a.13.13,0,0,1,.055-.255c.481.1.965.229,1.438.372a.13.13,0,0,1-.037.255Z" transform="translate(-1216.71 -723.578)" fill="#bdf1fb"/>
          </g>
        </g>
        <g id="Grupo_87889" data-name="Grupo 87889" transform="translate(0 33.157)">
          <path id="Trazado_115340" data-name="Trazado 115340" d="M1184.367,757.355,1147.873,775.5a2.933,2.933,0,0,0-1.211,4.132l.145.241a2.726,2.726,0,0,0,3.754.93l35.025-21.266Z" transform="translate(-1146.245 -757.355)" fill="url(#linear-gradient-20)"/>
          <path id="Trazado_115341" data-name="Trazado 115341" d="M1149.323,783.555a.11.11,0,0,1-.029,0c-1.539-.345-1.981-1.179-2.082-1.819a2.268,2.268,0,0,1,1.225-2.337l4.368-2.3a.13.13,0,0,1,.121.23l-4.368,2.3a2.007,2.007,0,0,0-1.089,2.066c.128.815.761,1.354,1.882,1.606a.13.13,0,0,1-.029.257Z" transform="translate(-1146.395 -760.499)" fill="#bdf1fb"/>
          <path id="Trazado_115342" data-name="Trazado 115342" d="M1155.519,776.444a.13.13,0,0,1-.061-.245l.567-.3a.13.13,0,1,1,.121.23l-.566.3A.131.131,0,0,1,1155.519,776.444Z" transform="translate(-1147.703 -760.308)" fill="#bdf1fb"/>
        </g>
      </g>
      <path id="Trazado_115343" data-name="Trazado 115343" d="M1220.984,733.547l-3.294-2.669-7.782,9.605-7.782-9.605-3.294,2.669,8.348,10.3-8.348,10.3,3.294,2.669,7.782-9.605,7.782,9.605,3.294-2.669-8.348-10.3Z" transform="translate(-1154.626 -719.978)" fill="url(#linear-gradient-21)"/>
    </g>
    <g id="Grupo_87892" data-name="Grupo 87892" transform="translate(1135.165 774.559)">
      <path id="Trazado_115344" data-name="Trazado 115344" d="M1220.261,786.569l-.777-.052h0a.278.278,0,1,1,.037-.556l.019,0,.777.105a.252.252,0,0,1-.05.5Z" transform="translate(-1158.993 -785.404)" fill="#bdf1fb"/>
      <path id="Trazado_115345" data-name="Trazado 115345" d="M1217.164,786.368l-.777-.033h0a.355.355,0,1,1,.029-.71h.018l.781.073a.335.335,0,0,1-.045.669Z" transform="translate(-1158.486 -785.351)" fill="#bdf1fb"/>
      <path id="Trazado_115346" data-name="Trazado 115346" d="M1214.069,786.256l-.777-.006h0a.422.422,0,1,1,.006-.845h.022l.784.046a.4.4,0,0,1-.026.8Z" transform="translate(-1157.98 -785.316)" fill="#bdf1fb"/>
      <path id="Trazado_115347" data-name="Trazado 115347" d="M1210.976,786.251l-.775.018h-.005a.485.485,0,0,1-.022-.97h.019l.786.014a.469.469,0,0,1,0,.938Z" transform="translate(-1157.475 -785.299)" fill="#bdf1fb"/>
      <path id="Trazado_115348" data-name="Trazado 115348" d="M1207.891,786.338l-.773.043h-.006a.528.528,0,1,1-.059-1.055h.018l.786-.018a.515.515,0,0,1,.041,1.03Z" transform="translate(-1156.974 -785.3)" fill="#bdf1fb"/>
      <path id="Trazado_115349" data-name="Trazado 115349" d="M1204.814,786.531l-.772.072h-.005a.572.572,0,1,1-.106-1.139l.019,0,.784-.046a.559.559,0,0,1,.086,1.115Z" transform="translate(-1156.473 -785.318)" fill="#bdf1fb"/>
      <path id="Trazado_115350" data-name="Trazado 115350" d="M1201.742,786.831l-.769.093h-.005a.616.616,0,1,1-.149-1.222l.02,0,.783-.068a.6.6,0,0,1,.127,1.2Z" transform="translate(-1155.974 -785.352)" fill="#bdf1fb"/>
      <path id="Trazado_115351" data-name="Trazado 115351" d="M1198.686,787.216l-.767.109h-.006a.649.649,0,1,1-.183-1.285l.009,0,.781-.1a.643.643,0,0,1,.172,1.275Z" transform="translate(-1155.479 -785.4)" fill="#bdf1fb"/>
      <path id="Trazado_115352" data-name="Trazado 115352" d="M1195.643,787.676l-.762.134h-.006a.668.668,0,1,1-.231-1.316l.009,0,.778-.124a.662.662,0,0,1,.22,1.306Z" transform="translate(-1154.987 -785.468)" fill="#bdf1fb"/>
      <path id="Trazado_115353" data-name="Trazado 115353" d="M1192.62,788.236l-.757.161h-.008a.687.687,0,1,1-.284-1.345l.009,0,.773-.151a.681.681,0,0,1,.273,1.335Z" transform="translate(-1154.499 -785.552)" fill="#bdf1fb"/>
      <path id="Trazado_115354" data-name="Trazado 115354" d="M1189.621,788.9l-.749.188-.008,0a.706.706,0,0,1-.344-1.37l.01,0,.768-.181a.7.7,0,0,1,.331,1.361Z" transform="translate(-1154.014 -785.653)" fill="#bdf1fb"/>
      <path id="Trazado_115355" data-name="Trazado 115355" d="M1186.654,789.684l-.74.218-.009,0a.725.725,0,0,1-.41-1.391l.01,0,.762-.212a.719.719,0,0,1,.4,1.383Z" transform="translate(-1153.535 -785.773)" fill="#bdf1fb"/>
      <path id="Trazado_115356" data-name="Trazado 115356" d="M1183.729,790.587c-.242.086-.487.164-.731.242l-.01,0a.735.735,0,0,1-.468-1.395c.249-.087.5-.174.749-.254a.738.738,0,0,1,.471,1.4Z" transform="translate(-1153.065 -785.913)" fill="#bdf1fb"/>
      <path id="Trazado_115357" data-name="Trazado 115357" d="M1180.852,791.564l-.736.234-.01,0a.636.636,0,0,1-.46-1.184l.719-.334a.687.687,0,0,1,.579,1.246.7.7,0,0,1-.079.031Z" transform="translate(-1152.627 -786.083)" fill="#bdf1fb"/>
      <path id="Trazado_115358" data-name="Trazado 115358" d="M1177.987,792.6l-.726.269-.008,0a.461.461,0,0,1-.377-.839l.7-.374a.516.516,0,1,1,.488.909.436.436,0,0,1-.061.029Z" transform="translate(-1152.205 -786.303)" fill="#bdf1fb"/>
      <path id="Trazado_115359" data-name="Trazado 115359" d="M1175.174,793.824l-.7.342-.006,0a.357.357,0,0,1-.33-.633l.69-.381a.375.375,0,0,1,.362.657l-.014.008Z" transform="translate(-1151.779 -786.544)" fill="#bdf1fb"/>
      <path id="Trazado_115360" data-name="Trazado 115360" d="M1172.472,795.284l-.665.4-.006,0a.339.339,0,0,1-.351-.581l.671-.411a.345.345,0,1,1,.361.588h0Z" transform="translate(-1151.353 -786.788)" fill="#bdf1fb"/>
      <path id="Trazado_115361" data-name="Trazado 115361" d="M1169.877,796.921l-.637.44-.006,0a.322.322,0,0,1-.369-.528l.643-.456a.327.327,0,0,1,.378.535l0,0Z" transform="translate(-1150.945 -787.056)" fill="#bdf1fb"/>
      <path id="Trazado_115362" data-name="Trazado 115362" d="M1167.4,798.732l-.605.483-.005,0a.305.305,0,0,1-.384-.474l.609-.5a.31.31,0,1,1,.394.479l0,0Z" transform="translate(-1150.558 -787.351)" fill="#bdf1fb"/>
      <path id="Trazado_115363" data-name="Trazado 115363" d="M1165.066,800.721l-.565.53,0,.005a.3.3,0,0,1-.406-.432l.573-.54a.3.3,0,1,1,.408.432h0Z" transform="translate(-1150.192 -787.674)" fill="#bdf1fb"/>
      <path id="Trazado_115364" data-name="Trazado 115364" d="M1162.886,802.88l-.526.568,0,0a.294.294,0,0,1-.432-.4l.534-.578a.294.294,0,1,1,.433.4h0Z" transform="translate(-1149.848 -788.021)" fill="#bdf1fb"/>
      <path id="Trazado_115365" data-name="Trazado 115365" d="M1160.857,805.186l-.488.6,0,0a.291.291,0,1,1-.453-.366l.493-.612a.292.292,0,0,1,.455.367h0Z" transform="translate(-1149.53 -788.392)" fill="#bdf1fb"/>
      <path id="Trazado_115366" data-name="Trazado 115366" d="M1158.982,807.62l-.449.632,0,0a.292.292,0,1,1-.476-.338h0l.456-.64a.291.291,0,1,1,.475.338Z" transform="translate(-1149.235 -788.782)" fill="#bdf1fb"/>
      <path id="Trazado_115367" data-name="Trazado 115367" d="M1157.259,810.165l-.411.658,0,0a.293.293,0,1,1-.5-.311h0l.417-.666a.293.293,0,1,1,.5.311Z" transform="translate(-1148.965 -789.19)" fill="#bdf1fb"/>
      <path id="Trazado_115368" data-name="Trazado 115368" d="M1155.686,812.809l-.373.68,0,0a.294.294,0,0,1-.515-.283h0l.378-.688a.294.294,0,1,1,.515.283Z" transform="translate(-1148.719 -789.613)" fill="#bdf1fb"/>
      <path id="Trazado_115369" data-name="Trazado 115369" d="M1154.261,815.535l-.336.7,0,0a.3.3,0,0,1-.532-.256h0l.341-.707a.295.295,0,0,1,.531.256Z" transform="translate(-1148.496 -790.05)" fill="#bdf1fb"/>
      <path id="Trazado_115370" data-name="Trazado 115370" d="M1152.984,818.334l-.3.716,0,0a.3.3,0,0,1-.547-.229h0l.3-.724a.3.3,0,1,1,.546.229Z" transform="translate(-1148.297 -790.498)" fill="#bdf1fb"/>
      <path id="Trazado_115371" data-name="Trazado 115371" d="M1151.851,821.2l-.264.73,0,0a.3.3,0,1,1-.559-.2h0l.267-.739a.3.3,0,0,1,.558.2Z" transform="translate(-1148.121 -790.956)" fill="#bdf1fb"/>
      <path id="Trazado_115372" data-name="Trazado 115372" d="M1150.862,824.112l-.227.742v0a.3.3,0,0,1-.571-.175h0l.23-.751a.3.3,0,1,1,.57.175Z" transform="translate(-1147.969 -791.423)" fill="#bdf1fb"/>
      <path id="Trazado_115373" data-name="Trazado 115373" d="M1150.018,827.073l-.19.753,0,0a.3.3,0,0,1-.58-.147h0l.193-.762a.3.3,0,1,1,.579.148Z" transform="translate(-1147.839 -791.897)" fill="#bdf1fb"/>
      <path id="Trazado_115374" data-name="Trazado 115374" d="M1149.32,830.072l-.154.761v0a.3.3,0,1,1-.588-.119h0l.156-.77a.3.3,0,0,1,.589.119Z" transform="translate(-1147.733 -792.377)" fill="#bdf1fb"/>
      <path id="Trazado_115375" data-name="Trazado 115375" d="M1148.769,833.1l-.116.767v.005a.3.3,0,0,1-.6-.09h0l.118-.776a.3.3,0,0,1,.594.09Z" transform="translate(-1147.65 -792.862)" fill="#bdf1fb"/>
      <path id="Trazado_115376" data-name="Trazado 115376" d="M1148.37,836.155l-.077.773v0a.3.3,0,0,1-.6-.06h0l.079-.782a.3.3,0,0,1,.6.06Z" transform="translate(-1147.592 -793.351)" fill="#bdf1fb"/>
      <path id="Trazado_115377" data-name="Trazado 115377" d="M1148.179,839.212l.005.772v.009a.3.3,0,0,1-.607,0h0l0-.79a.3.3,0,1,1,.605,0Z" transform="translate(-1147.574 -793.842)" fill="#bdf1fb"/>
      <path id="Trazado_115378" data-name="Trazado 115378" d="M1148.292,842.279l.068.771v.006a.3.3,0,1,1-.606.054h0l-.069-.784a.3.3,0,1,1,.606-.053Z" transform="translate(-1147.592 -794.335)" fill="#bdf1fb"/>
      <path id="Trazado_115379" data-name="Trazado 115379" d="M1148.632,845.336l.116.767v.005a.306.306,0,0,1-.6.091h0l-.117-.777a.305.305,0,0,1,.6-.091Z" transform="translate(-1147.646 -794.825)" fill="#bdf1fb"/>
      <path id="Trazado_115380" data-name="Trazado 115380" d="M1149.151,848.37l.157.76v0a.306.306,0,1,1-.6.124h0l-.159-.769a.306.306,0,1,1,.6-.124Z" transform="translate(-1147.729 -795.311)" fill="#bdf1fb"/>
      <path id="Trazado_115381" data-name="Trazado 115381" d="M1149.828,851.374l.2.752v0a.307.307,0,0,1-.6.155h0l-.2-.76a.307.307,0,1,1,.6-.155Z" transform="translate(-1147.837 -795.792)" fill="#bdf1fb"/>
      <path id="Trazado_115382" data-name="Trazado 115382" d="M1150.655,854.341l.232.74,0,.005a.309.309,0,1,1-.589.184h0l-.234-.75a.308.308,0,1,1,.588-.183Z" transform="translate(-1147.969 -796.267)" fill="#bdf1fb"/>
      <path id="Trazado_115383" data-name="Trazado 115383" d="M1151.626,857.263l.269.728,0,.005a.31.31,0,0,1-.581.214h0l-.271-.736a.31.31,0,1,1,.581-.214Z" transform="translate(-1148.124 -796.735)" fill="#bdf1fb"/>
      <path id="Trazado_115384" data-name="Trazado 115384" d="M1152.744,860.133l.305.713,0,.005a.311.311,0,0,1-.572.245h0l-.308-.722a.311.311,0,0,1,.572-.245Z" transform="translate(-1148.302 -797.195)" fill="#bdf1fb"/>
      <path id="Trazado_115385" data-name="Trazado 115385" d="M1154.01,862.938l.345.694,0,.005a.316.316,0,0,1-.566.28h0l-.347-.705a.314.314,0,0,1,.564-.277Z" transform="translate(-1148.504 -797.644)" fill="#bdf1fb"/>
      <path id="Trazado_115386" data-name="Trazado 115386" d="M1155.429,865.667l.383.673,0,.005a.32.32,0,0,1-.557.317v0l-.386-.684a.319.319,0,1,1,.555-.314Z" transform="translate(-1148.73 -798.081)" fill="#bdf1fb"/>
      <path id="Trazado_115387" data-name="Trazado 115387" d="M1157,868.307l.424.648,0,.006a.324.324,0,1,1-.543.355h0l-.428-.66a.323.323,0,0,1,.542-.352Z" transform="translate(-1148.982 -798.504)" fill="#bdf1fb"/>
      <path id="Trazado_115388" data-name="Trazado 115388" d="M1158.742,870.841l.466.619,0,.006a.329.329,0,1,1-.527.4h0l-.472-.63a.328.328,0,0,1,.525-.393Z" transform="translate(-1149.259 -798.91)" fill="#bdf1fb"/>
      <path id="Trazado_115389" data-name="Trazado 115389" d="M1160.647,873.25l.508.584.005.005a.334.334,0,1,1-.5.438h0l-.514-.6a.332.332,0,1,1,.5-.435Z" transform="translate(-1149.564 -799.297)" fill="#bdf1fb"/>
      <path id="Trazado_115390" data-name="Trazado 115390" d="M1162.72,875.513l.55.542.006.006a.338.338,0,0,1-.476.482h0l-.559-.556a.337.337,0,1,1,.475-.478Z" transform="translate(-1149.896 -799.66)" fill="#bdf1fb"/>
      <path id="Trazado_115391" data-name="Trazado 115391" d="M1164.961,877.606l.592.5.007.005a.343.343,0,0,1-.44.526h0l-.6-.51a.342.342,0,0,1,.441-.522Z" transform="translate(-1150.255 -799.997)" fill="#bdf1fb"/>
      <path id="Trazado_115392" data-name="Trazado 115392" d="M1167.367,879.5l.631.443.008.005a.348.348,0,1,1-.4.569h0l-.645-.456a.346.346,0,1,1,.4-.566Z" transform="translate(-1150.64 -800.302)" fill="#bdf1fb"/>
      <path id="Trazado_115393" data-name="Trazado 115393" d="M1169.927,881.184l.668.385.008.005a.352.352,0,1,1-.351.609h0l-.683-.4a.351.351,0,0,1,.352-.607Z" transform="translate(-1151.051 -800.572)" fill="#bdf1fb"/>
      <path id="Trazado_115394" data-name="Trazado 115394" d="M1172.627,882.628l.7.322.009,0a.357.357,0,0,1-.3.648h0l-.717-.333a.355.355,0,0,1,.3-.645Z" transform="translate(-1151.485 -800.805)" fill="#bdf1fb"/>
      <path id="Trazado_115395" data-name="Trazado 115395" d="M1175.447,883.818l.726.257.009,0a.361.361,0,1,1-.241.681h0l-.744-.266a.36.36,0,1,1,.242-.678Z" transform="translate(-1151.938 -800.997)" fill="#bdf1fb"/>
      <path id="Trazado_115396" data-name="Trazado 115396" d="M1178.364,884.748l.746.19.009,0a.369.369,0,1,1-.182.715h0l-.765-.2a.366.366,0,0,1,.184-.709Z" transform="translate(-1152.407 -801.146)" fill="#bdf1fb"/>
      <path id="Trazado_115397" data-name="Trazado 115397" d="M1181.351,885.416l.761.126.009,0a.376.376,0,0,1-.124.742h0l-.778-.135a.374.374,0,0,1,.124-.737Z" transform="translate(-1152.886 -801.254)" fill="#bdf1fb"/>
      <path id="Trazado_115398" data-name="Trazado 115398" d="M1184.385,885.831l.769.065h.009a.384.384,0,0,1-.065.765h0l-.786-.071a.382.382,0,0,1,.066-.761Z" transform="translate(-1153.373 -801.321)" fill="#bdf1fb"/>
      <path id="Trazado_115399" data-name="Trazado 115399" d="M1187.445,886.006l.4.006h0a.391.391,0,0,1-.011.781h0l-.41-.008a.389.389,0,0,1,.013-.778Z" transform="translate(-1153.865 -801.349)" fill="#bdf1fb"/>
    </g>
    <g id="Grupo_87899" data-name="Grupo 87899" transform="translate(1150.753 772.561)">
      <g id="Grupo_87895" data-name="Grupo 87895" transform="translate(0 43.733)">
        <g id="Grupo_87894" data-name="Grupo 87894">
          <path id="Trazado_115400" data-name="Trazado 115400" d="M1167.669,917.11a7.463,7.463,0,0,0-.678,3.247.39.39,0,0,0,.388.413h4.24a.25.25,0,0,0,.238-.329,6.791,6.791,0,0,0-2.677-3.553Z" transform="translate(-1166.256 -848.005)" fill="url(#linear-gradient-22)"/>
          <path id="Trazado_115401" data-name="Trazado 115401" d="M1167.579,915.181l.24,2.011a.379.379,0,0,0,.33.333,3.352,3.352,0,0,0,.9-.008.621.621,0,0,0,.512-.616v-1.942Z" transform="translate(-1166.35 -847.697)" fill="url(#linear-gradient-23)"/>
          <path id="Trazado_115402" data-name="Trazado 115402" d="M1180.127,916.888a5.93,5.93,0,0,0-.794,2.994.749.749,0,0,0,.754.732h6.585a.315.315,0,0,0,.182-.573,28.693,28.693,0,0,0-5.467-3.152Z" transform="translate(-1168.223 -848.005)" fill="url(#linear-gradient-24)"/>
          <path id="Trazado_115403" data-name="Trazado 115403" d="M1179.471,914.122l.512,2.483a.511.511,0,0,0,.605.4,1.828,1.828,0,0,0,.579-.242.587.587,0,0,0,.263-.6l-.53-3.009Z" transform="translate(-1168.245 -847.41)" fill="url(#linear-gradient-25)"/>
          <path id="Trazado_115404" data-name="Trazado 115404" d="M1168.286,873.229a7.128,7.128,0,0,0-2.113,3.454c-.335,1.886.948,32.55.948,32.55a4.977,4.977,0,0,0,2.695-.26s1.088-19.9,1.914-24.5c0,0,4.335,20.614,5.536,24.339a5.63,5.63,0,0,0,2.265-.118s-1.136-26.722-2.562-31.472Z" transform="translate(-1166.117 -841.047)" fill="url(#linear-gradient-26)"/>
          <path id="Trazado_115405" data-name="Trazado 115405" d="M1172.243,885.018a.2.2,0,0,1-.189-.146l-.737-2.824-1.568-1.006a.2.2,0,0,1,.211-.329l1.632,1.047a.191.191,0,0,1,.084.115l.756,2.9a.2.2,0,0,1-.14.238A.191.191,0,0,1,1172.243,885.018Z" transform="translate(-1166.682 -842.234)" fill="url(#linear-gradient-27)"/>
          <path id="Trazado_115406" data-name="Trazado 115406" d="M1187.786,852.01c-7.487-.622-9.444.927-9.444.927l3.6,5.681s7.357-.145,12.629-4.209a12.856,12.856,0,0,1-2.112-3.151A9.918,9.918,0,0,1,1187.786,852.01Z" transform="translate(-1168.065 -837.545)" fill="url(#linear-gradient-28)"/>
          <path id="Trazado_115407" data-name="Trazado 115407" d="M1202.188,839.036a.23.23,0,0,0-.438-.088l-.955,2.039a2.124,2.124,0,0,0-.17,1.264l.335,1.186a2.048,2.048,0,0,1-.418,1.63,14.244,14.244,0,0,1-5.409,4.208,12.856,12.856,0,0,0,2.112,3.151,12.91,12.91,0,0,0,4.494-6.24,1,1,0,0,0,.707-1Z" transform="translate(-1170.741 -835.562)" fill="url(#linear-gradient-29)"/>
          <path id="Trazado_115408" data-name="Trazado 115408" d="M1188.579,855.179c-2.635-2.84-7.656-4.123-10.563-4.65a2.666,2.666,0,0,0-2.98,1.69c-1.308,3.516-4.865,12.666-5.555,14.238-.566,1.29-1.157,2.55-1.532,3.337a.947.947,0,0,0,.441,1.26,69.253,69.253,0,0,0,8.631,3.033.612.612,0,0,0,.783-.589,1.917,1.917,0,0,1,.273-.984l6.757-11.259c4.211,4.67,7.9,5.1,10.732,4.074a21.238,21.238,0,0,1-.937-4.425C1190.443,860.187,1188.579,855.179,1188.579,855.179Z" transform="translate(-1166.394 -837.422)" fill="url(#linear-gradient-30)"/>
          <path id="Trazado_115409" data-name="Trazado 115409" d="M1207.8,860.8l-1.1-1.552c-2.491,2.163-5.317,3.335-6.99,3.048a21.238,21.238,0,0,0,.937,4.425C1204.374,865.38,1207.8,860.8,1207.8,860.8Z" transform="translate(-1171.47 -838.819)" fill="url(#linear-gradient-31)"/>
          <path id="Trazado_115410" data-name="Trazado 115410" d="M1208.019,858.992l2.466,3.473,4.124,1.769c-.064-.661-2.576-2.74-2.576-2.74s-1.63-2.941-2.178-3.654c-.456-.593-1.242.147-1.5.415-.051.055-.081.09-.081.09Z" transform="translate(-1172.795 -838.558)" fill="url(#linear-gradient-32)"/>
          <path id="Trazado_115411" data-name="Trazado 115411" d="M1184.273,844.332l-2.245,5.479s2.58,1.786,4.655,1.616l1.121-4.927Z" transform="translate(-1168.653 -836.441)" fill="url(#linear-gradient-33)"/>
          <g id="Grupo_87893" data-name="Grupo 87893" transform="translate(9.33)">
            <path id="Trazado_115412" data-name="Trazado 115412" d="M1186.516,839.056s3.1,2.763,3.277,4.778-2.318,4.048-5.473,3.2l-3.265-4.658Z" transform="translate(-1177.827 -835.6)" fill="url(#linear-gradient-34)"/>
            <path id="Trazado_115413" data-name="Trazado 115413" d="M1183.167,843.811a.2.2,0,0,0,.011-.31,5.331,5.331,0,0,1-1.1-1.315s-.532-.174.984-.983,3.772-2.039,3.919-3.548c.145-1.471-2.034-4.507-3.405-1.278a.2.2,0,0,1-.311.083,2.1,2.1,0,0,0-2.682-.158,1.924,1.924,0,0,0-.805,2.132.2.2,0,0,1-.18.261,2.348,2.348,0,0,0-2.329,1.927c-.23,1.331.3,1.912.7,2.158a.2.2,0,0,1,0,.348,1.222,1.222,0,0,0-.482,1.566c.4,1.231,1.762.757,2.145.6a.2.2,0,0,1,.192.016,6.934,6.934,0,0,0,4.1,1.249.205.205,0,0,0,.14-.317l-1.264-1.9a.2.2,0,0,1,.043-.273Z" transform="translate(-1177.215 -834.945)" fill="url(#linear-gradient-35)"/>
            <path id="Trazado_115414" data-name="Trazado 115414" d="M1184.354,845.706s-2.13-.769-1.99.309,2.022,1.089,2.792.472Z" transform="translate(-1178.035 -836.618)" fill="url(#linear-gradient-36)"/>
          </g>
        </g>
      </g>
      <g id="Grupo_87898" data-name="Grupo 87898" transform="translate(26.41)">
        <g id="Grupo_87896" data-name="Grupo 87896">
          <path id="Trazado_115415" data-name="Trazado 115415" d="M1269.441,796.3a2.507,2.507,0,0,0-1.938-.667c-7.613.684-19.571-7.129-31.1-12.481a2.512,2.512,0,0,0-2.559.265c-10.324,7.716-27.437,9.314-33.378,9.641a2.506,2.506,0,0,0-2.353,2.245c-5.4,52.18,28.572,71.088,35.618,74.427a2.513,2.513,0,0,0,2.4-.139c35.118-21.875,33.616-50.322,34.1-71.4A2.511,2.511,0,0,0,1269.441,796.3Z" transform="translate(-1197.534 -782.921)" fill="url(#linear-gradient-37)"/>
          <path id="Trazado_115416" data-name="Trazado 115416" d="M1234.748,867.684a.264.264,0,0,1-.146-.045,86.713,86.713,0,0,1-18.221-17.946,68.67,68.67,0,0,1-10.888-20.74,54.741,54.741,0,0,1-1.5-27.093.26.26,0,0,1,.274-.209c.236.018,23.819,1.56,33.39-11.389a.262.262,0,0,1,.409-.013c.088.106,8.945,10.607,15.979,13.14s12.16,1.438,12.211,1.427a.26.26,0,0,1,.316.248,80.966,80.966,0,0,1-3.6,22.637,79.845,79.845,0,0,1-9.358,20.422,71.13,71.13,0,0,1-18.716,19.511A.258.258,0,0,1,1234.748,867.684Zm-30.286-65.5a54.207,54.207,0,0,0,1.526,26.6,68.134,68.134,0,0,0,10.8,20.579,86.875,86.875,0,0,0,17.959,17.738,70.614,70.614,0,0,0,18.424-19.254,79.371,79.371,0,0,0,9.3-20.282,82.02,82.02,0,0,0,3.589-22.185,25.087,25.087,0,0,1-12.186-1.5c-6.639-2.391-14.569-11.388-15.99-13.047-2.887,3.77-8.754,8.557-20.441,10.544A62.8,62.8,0,0,1,1204.462,802.184Z" transform="translate(-1198.398 -784.075)" fill="#fff" opacity="0.74"/>
        </g>
        <g id="Grupo_87897" data-name="Grupo 87897" transform="translate(21.534 20.234)" opacity="0.81">
          <path id="Trazado_115417" data-name="Trazado 115417" d="M1248.688,850.2h-21.582a2.661,2.661,0,0,1-2.79-2.489h0l-1.161-20.538a2.619,2.619,0,0,1,.728-1.969,2.809,2.809,0,0,1,1.97-.907l22.737-.746a2.776,2.776,0,0,1,2.87,2.793V847.7A2.53,2.53,0,0,1,1248.688,850.2Zm0-26.13-.077,0-22.737.746a2.289,2.289,0,0,0-1.6.738,2.11,2.11,0,0,0-.592,1.588l1.16,20.538h0a2.154,2.154,0,0,0,2.271,2h21.582a2.026,2.026,0,0,0,2.252-1.976V826.343a2.257,2.257,0,0,0-2.256-2.275Z" transform="translate(-1223.151 -809.63)" fill="#fff"/>
          <path id="Trazado_115418" data-name="Trazado 115418" d="M1229.573,822.086a.261.261,0,0,1-.257-.223c-.716-4.877-.04-8.706,2.011-11.377a8.914,8.914,0,0,1,5.584-3.407c5.869-.685,10.125,2.66,11.382,8.947,0,.01,0,.021,0,.031l.393,5.13a.26.26,0,1,1-.519.04l-.393-5.115c-1.2-5.982-5.24-9.164-10.808-8.516a8.55,8.55,0,0,0-5.239,3.215c-1.956,2.555-2.6,6.248-1.9,10.976a.26.26,0,0,1-.22.3Z" transform="translate(-1224.089 -806.991)" fill="#fff"/>
          <path id="Trazado_115419" data-name="Trazado 115419" d="M1234.043,823.052a.261.261,0,0,1-.257-.221c-.033-.212-.77-5.234,1.617-8.015a5.26,5.26,0,0,1,4.2-1.765,5.179,5.179,0,0,1,4.225,1.779c2.2,2.671,1.308,7.339,1.27,7.535a.26.26,0,1,1-.51-.1c.008-.046.877-4.627-1.163-7.106a4.683,4.683,0,0,0-3.822-1.587,4.764,4.764,0,0,0-3.8,1.583c-2.232,2.6-1.5,7.547-1.5,7.6a.26.26,0,0,1-.218.3A.211.211,0,0,1,1234.043,823.052Z" transform="translate(-1224.825 -807.957)" fill="#fff"/>
          <path id="Trazado_115420" data-name="Trazado 115420" d="M1239.452,847.191h-.2a2.581,2.581,0,0,1-2.312-2.244v-8.762a3.572,3.572,0,0,1-2.008-3.219c0-2.092,2.062-3.795,4.6-3.795,2.558,0,4.561,1.667,4.561,3.795a3.831,3.831,0,0,1-2.984,3.505v8.475C1241.108,846.035,1240.527,847.191,1239.452,847.191Zm-1.987-10.848v8.6a2.092,2.092,0,0,0,1.791,1.723h.2c.783,0,1.136-1.008,1.136-1.723v-8.67a.259.259,0,0,1,.191-.25,3.382,3.382,0,0,0,2.793-3.06c0-1.836-1.775-3.274-4.041-3.274-2.247,0-4.075,1.469-4.075,3.274a3.11,3.11,0,0,0,2.024,2.9.261.261,0,0,1,.159.24A.232.232,0,0,1,1237.464,836.343Z" transform="translate(-1225.029 -810.526)" fill="#fff"/>
        </g>
      </g>
    </g>
    <g id="Grupo_87903" data-name="Grupo 87903" transform="translate(1284.563 735.867)">
      <path id="Trazado_115421" data-name="Trazado 115421" d="M1340.774,750.434s-6.888,8.312-6.639,9.138,13.5,11.575,14.595,10.65,7.328-7.635,7.328-7.635C1350.111,755.538,1341.527,749.713,1340.774,750.434Z" transform="translate(-1326.703 -741.04)" fill="#7dd4f4"/>
      <g id="Grupo_87902" data-name="Grupo 87902">
        <g id="Grupo_87900" data-name="Grupo 87900">
          <path id="Trazado_115422" data-name="Trazado 115422" d="M1346.88,776.945c-1.683,0-6.338-3.06-8.356-4.444a82.478,82.478,0,0,1-10.914-8.788c-2.363-2.4-2.422-3.273-2.261-3.721.5-1.392,3.663-6.467,7.145-11.174,3.1-4.2,7.286-9.259,9.584-9.535l.1-.013.083.06c2.19,1.59,21.4,15.6,21.54,18.045.1,1.7-5.586,8.395-7.331,10.407-3.529,4.069-7.942,8.658-9.294,9.121A.933.933,0,0,1,1346.88,776.945Zm-4.838-37.13c-3.885.728-15.186,17.529-16.2,20.355-.062.172-.091.91,2.142,3.179,5.077,5.159,16.548,13.089,18.826,13.09a.625.625,0,0,0,.2-.029c1.046-.357,4.945-4.213,9.069-8.97,4.366-5.034,7.261-9.067,7.2-10.035C1363.186,755.746,1350.561,746,1342.042,739.815Z" transform="translate(-1325.295 -739.271)" fill="#bdf1fb"/>
        </g>
        <path id="Trazado_115423" data-name="Trazado 115423" d="M1348.484,770.5a1.417,1.417,0,0,1-.393-.067c-2.49-.739-13.937-9.764-14.256-10.825-.068-.225-.194-.645,3.27-5.114,1.674-2.16,3.4-4.245,3.418-4.266a.26.26,0,1,1,.4.332c-3.2,3.869-6.52,8.227-6.585,8.9a61.573,61.573,0,0,0,6.806,5.784c5.159,3.971,7.068,4.84,7.382,4.728,1.056-.9,7.06-7.325,7.12-7.39a.26.26,0,0,1,.381.355c-.248.266-6.086,6.517-7.18,7.442A.545.545,0,0,1,1348.484,770.5Z" transform="translate(-1326.653 -741.002)" fill="#bdf1fb"/>
        <g id="Grupo_87901" data-name="Grupo 87901" transform="translate(13.749 9.02)">
          <path id="Trazado_115424" data-name="Trazado 115424" d="M1355.516,763.252c-3.189,0-9.433-1.288-10.394-1.894-1.253-.79-3.975-9.7-3.388-11.085h0c.081-.19.3-.378.863-.2,1.487.467,5.393,3.356,8.6,6.011,1.967,1.627,6.519,5.516,6.311,6.5a.685.685,0,0,1-.455.476A4.407,4.407,0,0,1,1355.516,763.252ZM1342.2,750.517c-.4,1.276,2.2,9.771,3.2,10.4s9.8,2.36,11.455,1.66c.114-.048.146-.091.148-.1-.01-.706-5.04-5.37-10.173-9.157C1343.765,751.057,1342.495,750.492,1342.2,750.517Zm.015-.041Zm-.24-.1h0Z" transform="translate(-1341.651 -750.001)" fill="#bdf1fb"/>
        </g>
        <path id="Trazado_115425" data-name="Trazado 115425" d="M1339.876,757.012a.26.26,0,0,1-.2-.422l.653-.821a.26.26,0,1,1,.408.324l-.653.821A.259.259,0,0,1,1339.876,757.012Z" transform="translate(-1327.578 -741.885)" fill="#bdf1fb"/>
        <path id="Trazado_115426" data-name="Trazado 115426" d="M1353.506,761.226a.258.258,0,0,1-.2-.1c-1.574-1.97-8.051-6.521-8.115-6.566a.26.26,0,1,1,.3-.426c.269.188,6.6,4.639,8.224,6.668a.26.26,0,0,1-.2.422Z" transform="translate(-1328.448 -741.632)" fill="#bdf1fb"/>
      </g>
    </g>
    <g id="Grupo_87904" data-name="Grupo 87904" transform="translate(1213.523 746.109)">
      <path id="Trazado_115427" data-name="Trazado 115427" d="M1280.236,754.394h-37.979a1.47,1.47,0,0,1-1.469-1.469h0a1.469,1.469,0,0,1,1.469-1.469h37.979a1.469,1.469,0,0,1,1.469,1.469h0A1.47,1.47,0,0,1,1280.236,754.394Z" transform="translate(-1240.788 -751.455)" fill="#91ebfa"/>
      <path id="Trazado_115428" data-name="Trazado 115428" d="M1285.664,761.242h-37.978a1.47,1.47,0,0,1-1.47-1.469h0a1.47,1.47,0,0,1,1.47-1.47h37.978a1.469,1.469,0,0,1,1.469,1.47h0A1.469,1.469,0,0,1,1285.664,761.242Z" transform="translate(-1241.653 -752.546)" fill="#91ebfa"/>
      <path id="Trazado_115429" data-name="Trazado 115429" d="M1274.865,774.938h-27.178a1.47,1.47,0,0,1-1.47-1.469h0a1.47,1.47,0,0,1,1.47-1.47h27.178a1.47,1.47,0,0,1,1.469,1.47h0A1.47,1.47,0,0,1,1274.865,774.938Z" transform="translate(-1241.653 -754.729)" fill="#91ebfa"/>
      <path id="Trazado_115430" data-name="Trazado 115430" d="M1290.731,768.09h-37.979a1.47,1.47,0,0,1-1.469-1.469h0a1.47,1.47,0,0,1,1.469-1.47h37.979a1.47,1.47,0,0,1,1.469,1.47h0A1.47,1.47,0,0,1,1290.731,768.09Z" transform="translate(-1242.461 -753.638)" fill="#91ebfa"/>
    </g>
    <g id="Grupo_87905" data-name="Grupo 87905" transform="translate(1091.914 834.404)">
      <path id="Trazado_115431" data-name="Trazado 115431" d="M1138.856,859.672h-41.141a1.592,1.592,0,0,1-1.592-1.592h0a1.592,1.592,0,0,1,1.592-1.591h41.141a1.592,1.592,0,0,1,1.592,1.591h0A1.592,1.592,0,0,1,1138.856,859.672Z" transform="translate(-1096.123 -856.489)" fill="#91ebfa"/>
      <path id="Trazado_115432" data-name="Trazado 115432" d="M1144.737,867.09H1103.6A1.591,1.591,0,0,1,1102,865.5h0a1.591,1.591,0,0,1,1.591-1.592h41.142a1.592,1.592,0,0,1,1.591,1.592h0A1.591,1.591,0,0,1,1144.737,867.09Z" transform="translate(-1097.06 -857.671)" fill="#91ebfa"/>
      <path id="Trazado_115433" data-name="Trazado 115433" d="M1133.037,881.927H1103.6a1.591,1.591,0,0,1-1.591-1.592h0a1.591,1.591,0,0,1,1.591-1.592h29.442a1.592,1.592,0,0,1,1.592,1.592h0A1.592,1.592,0,0,1,1133.037,881.927Z" transform="translate(-1097.06 -860.036)" fill="#91ebfa"/>
      <path id="Trazado_115434" data-name="Trazado 115434" d="M1150.225,874.509h-41.141a1.592,1.592,0,0,1-1.592-1.592h0a1.592,1.592,0,0,1,1.592-1.592h41.141a1.592,1.592,0,0,1,1.592,1.592h0A1.592,1.592,0,0,1,1150.225,874.509Z" transform="translate(-1097.935 -858.853)" fill="#91ebfa"/>
    </g>
    <g id="Grupo_87910" data-name="Grupo 87910" transform="translate(1120.164 728.646)">
      <path id="Trazado_115435" data-name="Trazado 115435" d="M1137.188,745.581c2.218-1.2,12.335-9.491,13.564-8.161s9.095,11.787,8.517,12.975-13.59,9.411-14.933,8.818S1134.568,746.994,1137.188,745.581Z" transform="translate(-1130.838 -731.732)" fill="#7dd4f4"/>
      <path id="Trazado_115436" data-name="Trazado 115436" d="M1144.448,759.447a.653.653,0,0,1-.26-.045c-1.212-.536-7.31-8.589-7.74-12.313a1.8,1.8,0,0,1,.542-1.765h0l.54-.409c8.452-6.408,12.451-8.718,13.372-7.722.75.809,9.276,11.793,8.561,13.267-.378.778-4.56,3.527-7.278,5.185C1149.268,757.424,1145.679,759.447,1144.448,759.447Zm5.81-21.973c-.477,0-1.76.377-5.177,2.633-2.714,1.793-5.657,4.025-7.239,5.224l-.541.409a1.338,1.338,0,0,0-.338,1.29c.424,3.669,6.489,11.479,7.434,11.9.334.142,2.612-.736,7.523-3.731,3.962-2.416,6.855-4.517,7.071-4.962.369-1-6.761-10.834-8.474-12.685A.341.341,0,0,0,1150.259,737.474Zm-13.113,8.058h0Z" transform="translate(-1130.796 -731.684)" fill="url(#linear-gradient)"/>
      <g id="Grupo_87906" data-name="Grupo 87906" transform="translate(14.413 13.012)">
        <path id="Trazado_115437" data-name="Trazado 115437" d="M1148.755,749.918a1.9,1.9,0,0,1-.549-.082,1.878,1.878,0,1,1,2.2-2.681h0a1.879,1.879,0,0,1-1.654,2.763Zm0-3.237a1.358,1.358,0,1,0,1.2.719h0a1.364,1.364,0,0,0-1.2-.719Z" transform="translate(-1146.875 -746.16)" fill="#bdf1fb"/>
      </g>
      <g id="Grupo_87908" data-name="Grupo 87908">
        <g id="Grupo_87907" data-name="Grupo 87907">
          <path id="Trazado_115438" data-name="Trazado 115438" d="M1142.364,763.292a1.037,1.037,0,0,1-.719-.217c-1.934-1.639-12.754-16.4-11.864-20.078l.024-.1.086-.056c1.974-1.31,19.341-12.775,21.4-12.135,1.434.442,5.188,7.159,6.3,9.207,2.257,4.14,4.67,9.169,4.635,10.424-.056,2.012-11.439,9.628-16.814,12.028A8.363,8.363,0,0,1,1142.364,763.292Zm-12.1-20.076c-.565,3.42,9.714,17.767,11.713,19.461.119.1.7.34,3.226-.788a71.517,71.517,0,0,0,10.459-6.209c4.155-2.919,6.031-4.794,6.047-5.358.027-.961-1.938-5.329-4.571-10.16-2.743-5.031-5.21-8.715-6-8.959C1149.776,730.781,1137.653,738.322,1130.268,743.216Z" transform="translate(-1129.729 -730.681)" fill="#91ebfa"/>
        </g>
      </g>
      <path id="Trazado_115439" data-name="Trazado 115439" d="M1138.943,749.382a.262.262,0,0,1-.224-.126c-.115-.192-.169-.515.231-.966a3.682,3.682,0,0,1,.833-.668.26.26,0,1,1,.268.446,3.254,3.254,0,0,0-.712.567c-.158.179-.2.308-.174.352a.261.261,0,0,1-.223.4Z" transform="translate(-1131.149 -733.375)" fill="#bdf1fb"/>
      <path id="Trazado_115440" data-name="Trazado 115440" d="M1141.963,746.1a.26.26,0,0,1-.176-.452,18.725,18.725,0,0,1,4.54-3.014.26.26,0,0,1,.2.48,18.528,18.528,0,0,0-4.39,2.918A.259.259,0,0,1,1141.963,746.1Z" transform="translate(-1131.637 -732.582)" fill="#bdf1fb"/>
      <g id="Grupo_87909" data-name="Grupo 87909" transform="translate(15.2 17.398)">
        <path id="Trazado_115441" data-name="Trazado 115441" d="M1148.3,757.81a.482.482,0,0,1-.254-.071.487.487,0,0,1-.232-.426,9.4,9.4,0,0,1,1.469-4.854h0c1.741-2.565,7.426.233,7.48.267l.124.081,0,.152c-.009.2-.014.317-8.353,4.794A.5.5,0,0,1,1148.3,757.81Zm1.414-5.059a8.85,8.85,0,0,0-1.378,4.515c3.96-2.127,6.843-3.715,7.78-4.283-1.3-.583-5.212-1.985-6.4-.232Z" transform="translate(-1147.811 -751.378)" fill="#bdf1fb"/>
      </g>
    </g>
    <g id="Grupo_87914" data-name="Grupo 87914" transform="translate(1258.032 840.343)">
      <g id="Grupo_87913" data-name="Grupo 87913">
        <path id="Trazado_115442" data-name="Trazado 115442" d="M1308.784,867.668c-.03.058-1.96,1.479-1.96,1.479s.426,3.049,2.157,4.253c1.9,1.324,4.59-1.09,4.59-1.09s2.139.509,3.276-3.943c.261-1.021-1.245-1.108-3.062-.92C1311.44,867.689,1308.784,867.668,1308.784,867.668Z" transform="translate(-1295.821 -864.162)" fill="url(#linear-gradient-39)"/>
        <path id="Trazado_115443" data-name="Trazado 115443" d="M1304.25,879.865a8.145,8.145,0,0,1,2.475-1.152c.332-.09,2.128.431,3.236.406,1.523-.035,3.073-.728,4.329-.415a9.056,9.056,0,0,1,2.856,1.136c1.765,1.254,2.8,3.594,3.431,5.911a8.086,8.086,0,0,1-2.7,1.772l-.278,11.264-6.66,3.407-7.6-3.816.272-11.007a11.5,11.5,0,0,1-2.591-1.532C1300.843,885.428,1302.12,881.329,1304.25,879.865Z" transform="translate(-1294.894 -865.956)" fill="url(#linear-gradient-40)"/>
        <path id="Trazado_115444" data-name="Trazado 115444" d="M1301.022,887.146s-3.235,8.969,4.143,12.655c1.532-.2.942-2.748.942-2.748s-3.205-.709-2.243-8.19A20.733,20.733,0,0,0,1301.022,887.146Z" transform="translate(-1294.784 -867.314)" fill="url(#linear-gradient-41)"/>
        <path id="Trazado_115445" data-name="Trazado 115445" d="M1323.119,887.146s2.226,9.362-4.142,12.655c-1.532-.2-.943-2.748-.943-2.748s2.583-1.272,2.243-8.19A20.733,20.733,0,0,1,1323.119,887.146Z" transform="translate(-1297.59 -867.314)" fill="url(#linear-gradient-42)"/>
        <rect id="Rectngulo_34808" data-name="Rectngulo 34808" width="14.605" height="9.863" rx="4.932" transform="translate(8.357 23.253)" fill="url(#linear-gradient-43)"/>
        <g id="Grupo_87911" data-name="Grupo 87911" transform="translate(22.513 35.744)">
          <path id="Trazado_115446" data-name="Trazado 115446" d="M1327.543,906.383a29.462,29.462,0,0,0-5.535-.177l-.157.426-.261,2.115a44.151,44.151,0,0,0,5.493.662,1.734,1.734,0,0,0,.509-.077,2.161,2.161,0,0,0,.16-.157A1.994,1.994,0,0,0,1327.543,906.383Z" transform="translate(-1320.688 -906.087)" fill="url(#linear-gradient-44)"/>
          <path id="Trazado_115447" data-name="Trazado 115447" d="M1320.727,906.075l.654.028a1.259,1.259,0,0,1,.92.475,1.554,1.554,0,0,1,.337,1.061,1.222,1.222,0,0,1-.354.807.991.991,0,0,1-.766.29l-1-.071Z" transform="translate(-1320.517 -906.075)" fill="url(#linear-gradient-45)"/>
        </g>
        <g id="Grupo_87912" data-name="Grupo 87912" transform="translate(0 35.687)">
          <path id="Trazado_115448" data-name="Trazado 115448" d="M1294.463,906.157a29.452,29.452,0,0,1,5.537-.008l.146.43.208,2.123a43.925,43.925,0,0,1-5.507.493,1.708,1.708,0,0,1-.507-.092,2.177,2.177,0,0,1-.156-.162A1.991,1.991,0,0,1,1294.463,906.157Z" transform="translate(-1293.735 -906.007)" fill="url(#linear-gradient-46)"/>
          <path id="Trazado_115449" data-name="Trazado 115449" d="M1302.141,906.075l-.654.008a1.249,1.249,0,0,0-.931.446,1.542,1.542,0,0,0-.364,1.05,1.232,1.232,0,0,0,.334.817,1,1,0,0,0,.758.314l1-.04Z" transform="translate(-1294.765 -906.018)" fill="url(#linear-gradient-47)"/>
        </g>
        <path id="Trazado_115450" data-name="Trazado 115450" d="M1324.863,898.227c-.758-1.744-2.612-2.028-4.19-1.212a105.051,105.051,0,0,1-18.834,7.4,9.528,9.528,0,0,1,.41,2.515c.006.188,0,.374-.008.558,6.758-.347,14.092-2.6,20.4-4.582A3.484,3.484,0,0,0,1324.863,898.227Z" transform="translate(-1295.027 -868.817)" fill="url(#linear-gradient-48)"/>
        <path id="Trazado_115451" data-name="Trazado 115451" d="M1316.755,907.021a5.823,5.823,0,0,1,.569-2.724c.012-.038.025-.075.038-.113-.5-.156-1.153-.367-2.007-.657a96.367,96.367,0,0,1-15.589-6.793,2.853,2.853,0,0,0-4.349,1.775,3.281,3.281,0,0,0,2.291,4.027c5.044,1.679,2.418,1.212,4.065,1.743a68.958,68.958,0,0,0,14.994,2.954C1316.762,907.162,1316.758,907.091,1316.755,907.021Z" transform="translate(-1293.984 -868.772)" fill="url(#linear-gradient-49)"/>
        <path id="Trazado_115452" data-name="Trazado 115452" d="M1307.809,878.181a3.861,3.861,0,0,0,3.941,2.856,3.4,3.4,0,0,0,3.625-2.866l-2.174-.466-.182-2.422-3.271.242-.061,2.3Z" transform="translate(-1295.978 -865.423)" fill="url(#linear-gradient-50)"/>
        <path id="Trazado_115453" data-name="Trazado 115453" d="M1310.382,867.119s-3.748,7.26.7,9.021c3.135,1.242,5.1-4.821,4.515-6.463-.906-2.54-1.5-2.238-1.5-2.238Z" transform="translate(-1296.153 -864.122)" fill="url(#linear-gradient-51)"/>
        <path id="Trazado_115454" data-name="Trazado 115454" d="M1316.16,865.89c1.851.509.269,4.524-2.519,3.575s-3.883-.936-4.317-.171-.528,3.484-1.47,2.14c-1.033-1.473-1.61-4.429-.343-5.382,1.132-.852,1.4-2.172,2.755-2.127,1.8.061,3.2-.738,4.01-.161C1315.211,864.426,1314.8,865.516,1316.16,865.89Z" transform="translate(-1295.816 -863.554)" fill="url(#linear-gradient-52)"/>
        <path id="Trazado_115455" data-name="Trazado 115455" d="M1309.422,871.063s-.8-.86-.927.177.282,2.371.764,1.639A2.5,2.5,0,0,0,1309.422,871.063Z" transform="translate(-1296.084 -864.697)" fill="url(#linear-gradient-53)"/>
      </g>
      <path id="Trazado_115456" data-name="Trazado 115456" d="M1313.053,896.529a.891.891,0,0,1-.726,1.075.957.957,0,0,1-1.088-.807.911.911,0,0,1,.685-1.121A1.032,1.032,0,0,1,1313.053,896.529Z" transform="translate(-1296.523 -868.672)" fill="#7dd4f4"/>
    </g>
    <g id="Grupo_87917" data-name="Grupo 87917" transform="translate(1244.397 727.39)">
      <g id="Grupo_87915" data-name="Grupo 87915" transform="translate(13.155)">
        <path id="Trazado_115457" data-name="Trazado 115457" d="M1295.884,741.18l.566-.546a.261.261,0,0,1,.362.375l0,0-.005.005-.569.525-.005,0a.252.252,0,0,1-.346-.366Z" transform="translate(-1293.585 -730.999)" fill="#bdf1fb"/>
        <path id="Trazado_115458" data-name="Trazado 115458" d="M1298.186,739.085l.608-.5a.289.289,0,0,1,.367.447l0,0-.007.005-.608.479-.006,0a.28.28,0,0,1-.351-.437Z" transform="translate(-1293.948 -730.674)" fill="#bdf1fb"/>
        <path id="Trazado_115459" data-name="Trazado 115459" d="M1300.644,737.177l.644-.451a.318.318,0,1,1,.365.52l0,0-.008.005-.642.43-.006,0a.309.309,0,0,1-.349-.51Z" transform="translate(-1294.335 -730.379)" fill="#bdf1fb"/>
        <path id="Trazado_115460" data-name="Trazado 115460" d="M1303.244,735.468l.678-.4a.34.34,0,0,1,.346.586l0,0-.008.005-.671.382-.007,0a.334.334,0,0,1-.335-.578Z" transform="translate(-1294.744 -730.116)" fill="#bdf1fb"/>
        <path id="Trazado_115461" data-name="Trazado 115461" d="M1305.967,733.958l.705-.351a.362.362,0,1,1,.323.648l0,0-.008,0-.7.332-.007,0a.356.356,0,0,1-.311-.64Z" transform="translate(-1295.172 -729.885)" fill="#bdf1fb"/>
        <path id="Trazado_115462" data-name="Trazado 115462" d="M1308.792,732.65l.73-.3a.384.384,0,1,1,.292.71l0,0-.009,0-.72.282-.007,0a.378.378,0,0,1-.281-.7Z" transform="translate(-1295.617 -729.686)" fill="#bdf1fb"/>
        <path id="Trazado_115463" data-name="Trazado 115463" d="M1311.707,731.545l.75-.248a.406.406,0,1,1,.255.77l0,0-.01,0-.738.23-.008,0a.4.4,0,0,1-.244-.76Z" transform="translate(-1296.075 -729.52)" fill="#bdf1fb"/>
        <path id="Trazado_115464" data-name="Trazado 115464" d="M1314.694,730.646l.766-.2a.428.428,0,0,1,.212.829l0,0-.011,0-.751.178-.009,0a.421.421,0,0,1-.2-.818Z" transform="translate(-1296.544 -729.386)" fill="#bdf1fb"/>
        <path id="Trazado_115465" data-name="Trazado 115465" d="M1317.738,729.958l.778-.142a.449.449,0,1,1,.161.884h-.006l-.011,0-.762.126-.008,0a.443.443,0,0,1-.152-.873Z" transform="translate(-1297.022 -729.286)" fill="#bdf1fb"/>
        <path id="Trazado_115466" data-name="Trazado 115466" d="M1320.824,729.481l.787-.088a.472.472,0,0,1,.1.937h-.018l-.768.073h-.01a.465.465,0,0,1-.095-.925Z" transform="translate(-1297.506 -729.219)" fill="#bdf1fb"/>
        <path id="Trazado_115467" data-name="Trazado 115467" d="M1323.939,729.224l.791-.03a.487.487,0,1,1,.038.974h-.016l-.771.021h-.01a.483.483,0,0,1-.032-.966Z" transform="translate(-1297.994 -729.188)" fill="#bdf1fb"/>
        <path id="Trazado_115468" data-name="Trazado 115468" d="M1327.067,729.187l.792.025a.5.5,0,1,1-.033,1h-.016l-.77-.034h-.01a.5.5,0,0,1,.037-.994Z" transform="translate(-1298.485 -729.187)" fill="#bdf1fb"/>
        <path id="Trazado_115469" data-name="Trazado 115469" d="M1330.191,729.366l.788.082a.516.516,0,1,1-.108,1.026h0l-.014,0-.764-.088-.011,0a.511.511,0,0,1,.112-1.016Z" transform="translate(-1298.975 -729.215)" fill="#bdf1fb"/>
        <path id="Trazado_115470" data-name="Trazado 115470" d="M1333.294,729.771l.779.14a.53.53,0,0,1-.187,1.043h0l-.015,0-.754-.144-.012,0a.526.526,0,0,1,.192-1.034Z" transform="translate(-1299.46 -729.279)" fill="#bdf1fb"/>
        <path id="Trazado_115471" data-name="Trazado 115471" d="M1336.36,730.408l.767.2a.544.544,0,1,1-.272,1.053h0l-.014,0-.742-.2-.012,0a.54.54,0,0,1,.277-1.043Z" transform="translate(-1299.94 -729.379)" fill="#bdf1fb"/>
        <path id="Trazado_115472" data-name="Trazado 115472" d="M1339.371,731.275l.75.258a.558.558,0,0,1-.363,1.056h0l-.015-.005-.723-.257-.013-.005a.554.554,0,0,1,.366-1.046Z" transform="translate(-1300.411 -729.515)" fill="#bdf1fb"/>
        <path id="Trazado_115473" data-name="Trazado 115473" d="M1342.306,732.378l.727.315a.573.573,0,0,1-.457,1.051l0,0-.014-.006-.7-.314-.011-.005a.568.568,0,0,1,.458-1.04Z" transform="translate(-1300.869 -729.688)" fill="#bdf1fb"/>
        <path id="Trazado_115474" data-name="Trazado 115474" d="M1345.146,733.7l.7.366a.587.587,0,0,1-.543,1.041l0,0-.013-.008-.677-.362-.011-.006a.582.582,0,0,1,.544-1.03Z" transform="translate(-1301.312 -729.895)" fill="#bdf1fb"/>
        <path id="Trazado_115475" data-name="Trazado 115475" d="M1347.888,735.214l.676.414a.6.6,0,0,1-.627,1.026l0,0-.013-.008-.652-.408-.01-.007a.6.6,0,0,1,.628-1.015Z" transform="translate(-1301.74 -730.133)" fill="#bdf1fb"/>
        <path id="Trazado_115476" data-name="Trazado 115476" d="M1350.52,736.909l.648.456a.615.615,0,0,1-.707,1.006l0,0-.012-.008-.625-.45-.009-.007a.611.611,0,0,1,.708-1Z" transform="translate(-1302.151 -730.4)" fill="#bdf1fb"/>
        <path id="Trazado_115477" data-name="Trazado 115477" d="M1353.04,738.764l.62.493a.629.629,0,1,1-.784.984l0,0-.011-.008-.6-.487-.009-.007a.625.625,0,0,1,.784-.973Z" transform="translate(-1302.544 -730.691)" fill="#bdf1fb"/>
        <path id="Trazado_115478" data-name="Trazado 115478" d="M1355.445,740.763l.59.527a.643.643,0,0,1-.857.958l0,0-.008-.007-.569-.519-.008-.007a.639.639,0,0,1,.856-.949Z" transform="translate(-1302.92 -731.006)" fill="#bdf1fb"/>
        <path id="Trazado_115479" data-name="Trazado 115479" d="M1357.733,742.9l.559.557a.649.649,0,1,1-.917.919l0,0-.007-.007-.543-.546-.007-.007a.647.647,0,0,1,.916-.914Z" transform="translate(-1303.278 -731.341)" fill="#bdf1fb"/>
        <path id="Trazado_115480" data-name="Trazado 115480" d="M1359.906,745.14l.531.584a.655.655,0,1,1-.969.881l0,0-.006-.008-.517-.573-.006-.007a.653.653,0,0,1,.968-.876Z" transform="translate(-1303.619 -731.695)" fill="#bdf1fb"/>
        <path id="Trazado_115481" data-name="Trazado 115481" d="M1361.969,747.487l.5.609a.661.661,0,0,1-1.017.844l0,0-.005-.007-.491-.6-.006-.007a.659.659,0,0,1,1.017-.839Z" transform="translate(-1303.943 -732.065)" fill="#bdf1fb"/>
        <path id="Trazado_115482" data-name="Trazado 115482" d="M1363.925,749.922l.477.629a.667.667,0,0,1-1.063.807l0,0-.005-.007-.464-.617-.005-.007a.666.666,0,0,1,1.062-.8Z" transform="translate(-1304.25 -732.449)" fill="#bdf1fb"/>
        <path id="Trazado_115483" data-name="Trazado 115483" d="M1365.775,752.436l.452.647a.674.674,0,0,1-1.105.77l0,0,0-.006-.44-.637,0-.006a.671.671,0,0,1,1.1-.766Z" transform="translate(-1304.541 -732.846)" fill="#bdf1fb"/>
        <path id="Trazado_115484" data-name="Trazado 115484" d="M1367.525,755.021l.427.665a.68.68,0,0,1-1.144.734l0,0,0-.007-.415-.653,0-.007a.678.678,0,0,1,1.142-.73Z" transform="translate(-1304.816 -733.254)" fill="#bdf1fb"/>
        <path id="Trazado_115485" data-name="Trazado 115485" d="M1369.175,757.672l.4.68a.686.686,0,1,1-1.183.7l0,0,0-.008-.389-.667,0-.007a.684.684,0,0,1,1.18-.69Z" transform="translate(-1305.075 -733.672)" fill="#bdf1fb"/>
        <path id="Trazado_115486" data-name="Trazado 115486" d="M1370.718,760.386l.372.7a.692.692,0,1,1-1.221.652l0,0,0-.008-.361-.683,0-.008a.69.69,0,0,1,1.219-.648Z" transform="translate(-1305.317 -734.101)" fill="#bdf1fb"/>
        <path id="Trazado_115487" data-name="Trazado 115487" d="M1372.149,763.162l.342.711a.7.7,0,1,1-1.257.606l0,0,0-.008-.331-.7,0-.008a.7.7,0,0,1,1.257-.6Z" transform="translate(-1305.541 -734.539)" fill="#bdf1fb"/>
        <path id="Trazado_115488" data-name="Trazado 115488" d="M1373.459,766l.311.727a.7.7,0,1,1-1.3.554v0l0-.008-.3-.71,0-.009a.7.7,0,0,1,1.293-.55Z" transform="translate(-1305.745 -734.985)" fill="#bdf1fb"/>
        <path id="Trazado_115489" data-name="Trazado 115489" d="M1374.642,768.894l.277.741a.71.71,0,1,1-1.331.5l0,0,0-.009-.266-.723,0-.01a.709.709,0,0,1,1.329-.493Z" transform="translate(-1305.93 -735.441)" fill="#bdf1fb"/>
        <path id="Trazado_115490" data-name="Trazado 115490" d="M1375.685,771.843l.24.754a.716.716,0,1,1-1.365.435l0,0,0-.011-.23-.735,0-.01a.715.715,0,0,1,1.363-.431Z" transform="translate(-1306.093 -735.906)" fill="#bdf1fb"/>
        <path id="Trazado_115491" data-name="Trazado 115491" d="M1376.581,774.843l.2.767a.723.723,0,0,1-1.4.367v0l0-.012-.193-.746,0-.011a.721.721,0,0,1,1.4-.363Z" transform="translate(-1306.232 -736.377)" fill="#bdf1fb"/>
        <path id="Trazado_115492" data-name="Trazado 115492" d="M1377.318,777.891l.16.776a.729.729,0,0,1-1.428.293v0l0-.012-.15-.753,0-.013a.727.727,0,0,1,1.425-.288Z" transform="translate(-1306.346 -736.856)" fill="#bdf1fb"/>
        <path id="Trazado_115493" data-name="Trazado 115493" d="M1377.885,780.974l.114.784a.735.735,0,0,1-1.455.213v0l0-.013-.107-.76,0-.013a.733.733,0,0,1,1.452-.208Z" transform="translate(-1306.433 -737.34)" fill="#bdf1fb"/>
        <path id="Trazado_115494" data-name="Trazado 115494" d="M1378.272,784.087l.065.79a.739.739,0,0,1-1.474.122l0-.013-.063-.763v-.013a.74.74,0,0,1,1.474-.123Z" transform="translate(-1306.492 -737.828)" fill="#bdf1fb"/>
        <path id="Trazado_115495" data-name="Trazado 115495" d="M1378.457,787.222l.013.794a.73.73,0,0,1-1.46.029v-.014l-.018-.766v-.013a.733.733,0,1,1,1.466-.034Z" transform="translate(-1306.523 -738.321)" fill="#bdf1fb"/>
        <path id="Trazado_115496" data-name="Trazado 115496" d="M1378.427,790.367l-.047.794a.705.705,0,0,1-1.409-.066v-.016l.027-.765V790.3a.715.715,0,0,1,1.428.051Z" transform="translate(-1306.52 -738.817)" fill="#bdf1fb"/>
        <path id="Trazado_115497" data-name="Trazado 115497" d="M1378.161,793.507l-.11.787a.663.663,0,0,1-1.316-.155v-.016l.075-.763,0-.014a.679.679,0,1,1,1.352.132Z" transform="translate(-1306.482 -739.314)" fill="#bdf1fb"/>
        <path id="Trazado_115498" data-name="Trazado 115498" d="M1377.659,796.619l-.165.777a.608.608,0,0,1-1.195-.226l0-.015.129-.757,0-.013a.624.624,0,1,1,1.231.208Z" transform="translate(-1306.412 -739.813)" fill="#bdf1fb"/>
        <path id="Trazado_115499" data-name="Trazado 115499" d="M1376.942,799.684l-.22.762a.552.552,0,0,1-1.068-.282l0-.013.181-.747,0-.012a.57.57,0,0,1,1.109.267Z" transform="translate(-1306.308 -740.306)" fill="#bdf1fb"/>
        <path id="Trazado_115500" data-name="Trazado 115500" d="M1376.008,802.688l-.273.743a.494.494,0,0,1-.935-.319l0-.012.234-.734,0-.01a.512.512,0,0,1,.975.31Z" transform="translate(-1306.17 -740.791)" fill="#bdf1fb"/>
        <path id="Trazado_115501" data-name="Trazado 115501" d="M1374.861,805.613l-.327.72a.436.436,0,0,1-.8-.342l0-.01.288-.715,0-.009a.453.453,0,0,1,.842.338Z" transform="translate(-1305.999 -741.265)" fill="#bdf1fb"/>
        <path id="Trazado_115502" data-name="Trazado 115502" d="M1373.511,808.445l-.376.7a.4.4,0,0,1-.7-.365l0-.008.346-.69,0-.008a.407.407,0,1,1,.728.365Z" transform="translate(-1305.79 -741.723)" fill="#bdf1fb"/>
        <path id="Trazado_115503" data-name="Trazado 115503" d="M1371.958,811.168l-.425.666a.37.37,0,0,1-.627-.392l.005-.008.4-.656.005-.008a.376.376,0,0,1,.64.394Z" transform="translate(-1305.545 -742.16)" fill="#bdf1fb"/>
        <path id="Trazado_115504" data-name="Trazado 115504" d="M1370.2,813.763l-.474.631a.355.355,0,1,1-.567-.426l0-.006.461-.619.005-.007a.356.356,0,1,1,.572.425Z" transform="translate(-1305.264 -742.575)" fill="#bdf1fb"/>
        <path id="Trazado_115505" data-name="Trazado 115505" d="M1368.242,816.206l-.527.588a.349.349,0,0,1-.52-.466l.006-.006.512-.577.006-.007a.351.351,0,1,1,.525.466Z" transform="translate(-1304.948 -742.962)" fill="#bdf1fb"/>
        <path id="Trazado_115506" data-name="Trazado 115506" d="M1366.076,818.471l-.578.538a.343.343,0,1,1-.468-.5l.006-.006.562-.528.007-.007a.345.345,0,0,1,.472.5Z" transform="translate(-1304.599 -743.321)" fill="#bdf1fb"/>
        <path id="Trazado_115507" data-name="Trazado 115507" d="M1363.712,820.528l-.626.482a.338.338,0,0,1-.412-.536l.007-.005.609-.472.007-.006a.339.339,0,0,1,.416.536Z" transform="translate(-1304.221 -743.647)" fill="#bdf1fb"/>
        <path id="Trazado_115508" data-name="Trazado 115508" d="M1361.167,822.352l-.669.42a.332.332,0,1,1-.353-.562l.007,0,.652-.414.007-.005a.334.334,0,1,1,.357.564Z" transform="translate(-1303.814 -743.936)" fill="#bdf1fb"/>
        <path id="Trazado_115509" data-name="Trazado 115509" d="M1358.463,823.93l-.7.357a.327.327,0,0,1-.3-.583l.007,0,.687-.352.008,0a.328.328,0,0,1,.3.584Z" transform="translate(-1303.383 -744.187)" fill="#bdf1fb"/>
        <path id="Trazado_115510" data-name="Trazado 115510" d="M1355.632,825.26l-.731.294a.321.321,0,0,1-.24-.6l.007,0,.715-.292.008,0a.323.323,0,0,1,.244.6Z" transform="translate(-1302.932 -744.399)" fill="#bdf1fb"/>
        <path id="Trazado_115511" data-name="Trazado 115511" d="M1352.7,826.343l-.752.234a.315.315,0,1,1-.187-.6l.005,0,.738-.232.007,0a.317.317,0,0,1,.191.605Z" transform="translate(-1302.467 -744.572)" fill="#bdf1fb"/>
        <path id="Trazado_115512" data-name="Trazado 115512" d="M1349.7,827.189l-.767.176a.31.31,0,1,1-.139-.6l.006,0,.753-.176.007,0a.312.312,0,0,1,.142.607Z" transform="translate(-1301.99 -744.708)" fill="#bdf1fb"/>
        <path id="Trazado_115513" data-name="Trazado 115513" d="M1346.64,827.81l-.778.12a.3.3,0,0,1-.093-.6h.005l.765-.122h.006a.306.306,0,1,1,.1.6Z" transform="translate(-1301.506 -744.808)" fill="#bdf1fb"/>
        <path id="Trazado_115514" data-name="Trazado 115514" d="M1343.551,828.214l-.784.068a.3.3,0,0,1-.051-.6h0l.772-.071h.006a.3.3,0,0,1,.055.6Z" transform="translate(-1301.017 -744.873)" fill="#bdf1fb"/>
        <path id="Trazado_115515" data-name="Trazado 115515" d="M1340.444,828.417l-.786.019a.293.293,0,0,1-.014-.586h0l.776-.022h.005a.295.295,0,0,1,.017.589Z" transform="translate(-1300.526 -744.907)" fill="#bdf1fb"/>
        <path id="Trazado_115516" data-name="Trazado 115516" d="M1337.33,828.426l-.785-.025a.293.293,0,1,1,.019-.585h.005l.775.026h.005a.292.292,0,0,1-.019.584Z" transform="translate(-1300.032 -744.906)" fill="#bdf1fb"/>
        <path id="Trazado_115517" data-name="Trazado 115517" d="M1334.223,828.254l-.783-.069a.3.3,0,0,1,.052-.588h.006l.772.07h.005a.294.294,0,1,1-.053.586Z" transform="translate(-1299.54 -744.87)" fill="#bdf1fb"/>
        <path id="Trazado_115518" data-name="Trazado 115518" d="M1331.13,827.911l-.779-.113a.3.3,0,0,1,.085-.588h.005l.769.113h.005a.3.3,0,0,1-.085.587Z" transform="translate(-1299.05 -744.808)" fill="#bdf1fb"/>
        <path id="Trazado_115519" data-name="Trazado 115519" d="M1328.059,827.4l-.77-.151a.3.3,0,0,1,.116-.588h.005l.761.151h0a.3.3,0,0,1-.116.586Z" transform="translate(-1298.564 -744.721)" fill="#bdf1fb"/>
        <path id="Trazado_115520" data-name="Trazado 115520" d="M1325.02,826.745l-.762-.186a.3.3,0,0,1,.142-.587h.005l.754.186h0a.3.3,0,0,1-.144.585Z" transform="translate(-1298.082 -744.61)" fill="#bdf1fb"/>
        <path id="Trazado_115521" data-name="Trazado 115521" d="M1322.012,825.959l-.754-.216a.3.3,0,0,1,.168-.585h0l0,0,.746.215h0a.3.3,0,1,1-.168.583Z" transform="translate(-1297.606 -744.48)" fill="#bdf1fb"/>
        <path id="Trazado_115522" data-name="Trazado 115522" d="M1319.039,825.057l-.745-.243a.306.306,0,1,1,.19-.583h0l.739.243h0a.306.306,0,1,1-.19.581Z" transform="translate(-1297.135 -744.332)" fill="#bdf1fb"/>
        <path id="Trazado_115523" data-name="Trazado 115523" d="M1316.1,824.055l-.736-.267a.308.308,0,0,1,.21-.58h0l.73.266h0a.308.308,0,0,1-.21.579Z" transform="translate(-1296.669 -744.168)" fill="#bdf1fb"/>
        <path id="Trazado_115524" data-name="Trazado 115524" d="M1313.191,822.962l-.729-.286a.312.312,0,0,1,.228-.582h0l.723.288h0a.31.31,0,0,1-.229.577Z" transform="translate(-1296.208 -743.99)" fill="#bdf1fb"/>
        <path id="Trazado_115525" data-name="Trazado 115525" d="M1310.312,821.8l-.722-.3a.323.323,0,0,1,.249-.6h0l.715.306h0a.319.319,0,0,1-.248.588Z" transform="translate(-1295.75 -743.8)" fill="#bdf1fb"/>
        <path id="Trazado_115526" data-name="Trazado 115526" d="M1307.459,820.578l-.716-.315a.332.332,0,1,1,.268-.608h0l.71.319h0a.329.329,0,0,1-.268.6Z" transform="translate(-1295.296 -743.6)" fill="#bdf1fb"/>
        <path id="Trazado_115527" data-name="Trazado 115527" d="M1304.627,819.3l-.711-.327a.342.342,0,1,1,.286-.621h0l.706.331h0a.339.339,0,0,1-.286.615Z" transform="translate(-1294.845 -743.393)" fill="#bdf1fb"/>
        <path id="Trazado_115528" data-name="Trazado 115528" d="M1301.816,817.99l-.708-.335a.352.352,0,1,1,.3-.635l0,0,.7.34a.349.349,0,0,1-.3.63Z" transform="translate(-1294.397 -743.179)" fill="#bdf1fb"/>
        <path id="Trazado_115529" data-name="Trazado 115529" d="M1299.018,816.65l-.7-.34a.361.361,0,1,1,.315-.651l0,0,.7.345a.358.358,0,0,1-.314.645Z" transform="translate(-1293.952 -742.962)" fill="#bdf1fb"/>
        <path id="Trazado_115530" data-name="Trazado 115530" d="M1296.226,815.3l-.7-.34a.378.378,0,0,1,.33-.68l0,0,.7.349a.373.373,0,0,1-.329.67Z" transform="translate(-1293.505 -742.742)" fill="#bdf1fb"/>
        <path id="Trazado_115531" data-name="Trazado 115531" d="M1293.542,813.993l-.159-.076a.39.39,0,0,1,.34-.7l0,0,.158.079a.389.389,0,0,1-.344.7Z" transform="translate(-1293.163 -742.572)" fill="#bdf1fb"/>
      </g>
      <g id="Grupo_87916" data-name="Grupo 87916" transform="translate(0 4.017)">
        <path id="Trazado_115532" data-name="Trazado 115532" d="M1292.4,739.255l1.666,2.6-2.476.011Z" transform="translate(-1279.757 -734.809)" fill="#7dd4f4"/>
        <path id="Trazado_115533" data-name="Trazado 115533" d="M1277.515,744.413l10.962,1.654a.781.781,0,0,0,.894-.684l1.246-11.069a.313.313,0,0,0-.509-.277Z" transform="translate(-1277.515 -733.966)" fill="#91ebfa"/>
        <path id="Trazado_115534" data-name="Trazado 115534" d="M1290.153,739.256l-12.638,6,12.442-4.213.493.7Z" transform="translate(-1277.515 -734.809)" fill="#7dd4f4"/>
        <path id="Trazado_115535" data-name="Trazado 115535" d="M1292.168,742.441l1.986-.249-1.862-.81Z" transform="translate(-1279.85 -735.148)" fill="#7dd4f4"/>
      </g>
    </g>
  </g>
</svg>
